<svg width="500" height="1500" viewBox="0 0 500 1500" fill="none" xmlns="http://www.w3.org/2000/svg">
<circle cx="250" cy="1101" r="25" fill="#131313"/>
<rect x="241" y="893" width="18" height="192" fill="#131313"/>
<rect x="125" y="650" width="250" height="250" rx="125" fill="#131313"/>
<path d="M259.597 738.773V811.5H250.79V748.006H250.364L232.608 759.795V750.847L250.79 738.773H259.597Z" fill="white"/>
<path d="M87.2734 1222H76.5007V1187.09H87.7507C91.1371 1187.09 94.0348 1187.79 96.4439 1189.19C98.853 1190.57 100.7 1192.57 101.984 1195.17C103.268 1197.76 103.91 1200.86 103.91 1204.48C103.91 1208.11 103.262 1211.24 101.967 1213.87C100.671 1216.48 98.7848 1218.49 96.3075 1219.9C93.8303 1221.3 90.8189 1222 87.2734 1222ZM80.728 1218.25H87.0007C89.8871 1218.25 92.2791 1217.69 94.1768 1216.58C96.0746 1215.47 97.4893 1213.88 98.4212 1211.82C99.353 1209.77 99.8189 1207.32 99.8189 1204.48C99.8189 1201.66 99.3587 1199.23 98.4382 1197.2C97.5178 1195.15 96.1428 1193.59 94.3132 1192.49C92.4837 1191.39 90.2053 1190.84 87.478 1190.84H80.728V1218.25ZM121.433 1222.55C118.91 1222.55 116.734 1221.99 114.904 1220.88C113.086 1219.75 111.683 1218.18 110.694 1216.17C109.717 1214.15 109.228 1211.8 109.228 1209.11C109.228 1206.43 109.717 1204.07 110.694 1202.02C111.683 1199.97 113.058 1198.36 114.819 1197.22C116.592 1196.06 118.66 1195.48 121.023 1195.48C122.387 1195.48 123.734 1195.7 125.063 1196.16C126.393 1196.61 127.603 1197.35 128.694 1198.38C129.785 1199.39 130.654 1200.73 131.302 1202.4C131.95 1204.07 132.273 1206.12 132.273 1208.57V1210.27H112.092V1206.8H128.183C128.183 1205.32 127.887 1204 127.296 1202.84C126.717 1201.68 125.887 1200.77 124.808 1200.1C123.739 1199.43 122.478 1199.09 121.023 1199.09C119.421 1199.09 118.035 1199.49 116.864 1200.28C115.705 1201.07 114.813 1202.09 114.188 1203.35C113.563 1204.61 113.251 1205.97 113.251 1207.41V1209.73C113.251 1211.7 113.592 1213.38 114.273 1214.76C114.967 1216.12 115.927 1217.16 117.154 1217.88C118.381 1218.58 119.808 1218.93 121.433 1218.93C122.489 1218.93 123.444 1218.78 124.296 1218.49C125.16 1218.18 125.904 1217.73 126.529 1217.12C127.154 1216.51 127.637 1215.75 127.978 1214.84L131.864 1215.93C131.455 1217.25 130.768 1218.41 129.802 1219.41C128.836 1220.4 127.643 1221.17 126.222 1221.73C124.802 1222.27 123.205 1222.55 121.433 1222.55ZM150.052 1195.82V1199.23H135.938V1195.82H150.052ZM140.165 1222V1192.2C140.165 1190.7 140.518 1189.45 141.222 1188.45C141.927 1187.45 142.842 1186.7 143.967 1186.2C145.092 1185.7 146.279 1185.45 147.529 1185.45C148.518 1185.45 149.325 1185.53 149.95 1185.69C150.575 1185.85 151.04 1186 151.347 1186.14L150.188 1189.61C149.984 1189.55 149.7 1189.46 149.336 1189.36C148.984 1189.26 148.518 1189.2 147.938 1189.2C146.609 1189.2 145.648 1189.54 145.058 1190.21C144.478 1190.88 144.188 1191.86 144.188 1193.16V1222H140.165ZM155.69 1222V1195.82H159.712V1222H155.69ZM157.735 1191.45C156.951 1191.45 156.275 1191.19 155.707 1190.65C155.15 1190.12 154.871 1189.48 154.871 1188.73C154.871 1187.98 155.15 1187.34 155.707 1186.8C156.275 1186.27 156.951 1186 157.735 1186C158.519 1186 159.19 1186.27 159.746 1186.8C160.315 1187.34 160.599 1187.98 160.599 1188.73C160.599 1189.48 160.315 1190.12 159.746 1190.65C159.19 1191.19 158.519 1191.45 157.735 1191.45ZM171.103 1206.25V1222H167.08V1195.82H170.967V1199.91H171.308C171.921 1198.58 172.853 1197.51 174.103 1196.7C175.353 1195.89 176.967 1195.48 178.944 1195.48C180.717 1195.48 182.268 1195.84 183.597 1196.57C184.927 1197.28 185.961 1198.38 186.7 1199.84C187.438 1201.3 187.808 1203.14 187.808 1205.36V1222H183.785V1205.64C183.785 1203.58 183.251 1201.98 182.183 1200.83C181.114 1199.67 179.648 1199.09 177.785 1199.09C176.501 1199.09 175.353 1199.37 174.342 1199.93C173.342 1200.48 172.552 1201.3 171.972 1202.36C171.393 1203.43 171.103 1204.73 171.103 1206.25ZM195.158 1222V1195.82H199.181V1222H195.158ZM197.204 1191.45C196.42 1191.45 195.744 1191.19 195.175 1190.65C194.619 1190.12 194.34 1189.48 194.34 1188.73C194.34 1187.98 194.619 1187.34 195.175 1186.8C195.744 1186.27 196.42 1186 197.204 1186C197.988 1186 198.658 1186.27 199.215 1186.8C199.783 1187.34 200.067 1187.98 200.067 1188.73C200.067 1189.48 199.783 1190.12 199.215 1190.65C198.658 1191.19 197.988 1191.45 197.204 1191.45ZM206.549 1222V1195.82H210.435V1199.77H210.708C211.185 1198.48 212.049 1197.43 213.299 1196.62C214.549 1195.81 215.958 1195.41 217.526 1195.41C217.822 1195.41 218.191 1195.41 218.634 1195.43C219.077 1195.44 219.413 1195.45 219.64 1195.48V1199.57C219.504 1199.53 219.191 1199.48 218.702 1199.41C218.225 1199.34 217.719 1199.3 217.185 1199.3C215.913 1199.3 214.776 1199.56 213.776 1200.1C212.788 1200.62 212.004 1201.35 211.424 1202.28C210.856 1203.2 210.572 1204.25 210.572 1205.43V1222H206.549ZM245.613 1222.61C243.954 1222.61 242.448 1222.3 241.096 1221.68C239.744 1221.04 238.67 1220.12 237.874 1218.93C237.079 1217.73 236.681 1216.27 236.681 1214.57C236.681 1213.07 236.977 1211.85 237.567 1210.92C238.158 1209.98 238.948 1209.24 239.937 1208.7C240.925 1208.17 242.016 1207.77 243.21 1207.51C244.414 1207.24 245.624 1207.02 246.84 1206.86C248.431 1206.66 249.721 1206.51 250.71 1206.4C251.71 1206.29 252.437 1206.1 252.891 1205.84C253.357 1205.58 253.59 1205.12 253.59 1204.48V1204.34C253.59 1202.66 253.13 1201.35 252.21 1200.42C251.3 1199.49 249.92 1199.02 248.067 1199.02C246.147 1199.02 244.641 1199.44 243.55 1200.28C242.46 1201.12 241.692 1202.02 241.249 1202.98L237.431 1201.61C238.113 1200.02 239.022 1198.78 240.158 1197.9C241.306 1197 242.556 1196.37 243.908 1196.02C245.272 1195.66 246.613 1195.48 247.931 1195.48C248.772 1195.48 249.738 1195.58 250.829 1195.78C251.931 1195.98 252.994 1196.38 254.016 1196.99C255.05 1197.61 255.908 1198.53 256.59 1199.77C257.272 1201.01 257.613 1202.67 257.613 1204.75V1222H253.59V1218.45H253.386C253.113 1219.02 252.658 1219.63 252.022 1220.28C251.386 1220.93 250.539 1221.48 249.482 1221.93C248.425 1222.39 247.136 1222.61 245.613 1222.61ZM246.227 1219C247.817 1219 249.158 1218.69 250.249 1218.06C251.352 1217.44 252.181 1216.63 252.738 1215.64C253.306 1214.65 253.59 1213.61 253.59 1212.52V1208.84C253.42 1209.05 253.045 1209.23 252.465 1209.4C251.897 1209.56 251.238 1209.7 250.488 1209.83C249.749 1209.94 249.028 1210.05 248.323 1210.14C247.63 1210.22 247.067 1210.28 246.636 1210.34C245.59 1210.48 244.613 1210.7 243.704 1211.01C242.806 1211.3 242.079 1211.75 241.522 1212.35C240.977 1212.94 240.704 1213.75 240.704 1214.77C240.704 1216.17 241.221 1217.23 242.255 1217.94C243.3 1218.65 244.624 1219 246.227 1219ZM288.342 1222.55C286.16 1222.55 284.234 1221.99 282.563 1220.89C280.893 1219.78 279.586 1218.21 278.643 1216.19C277.7 1214.15 277.228 1211.75 277.228 1208.98C277.228 1206.23 277.7 1203.84 278.643 1201.82C279.586 1199.8 280.898 1198.23 282.58 1197.13C284.262 1196.03 286.205 1195.48 288.41 1195.48C290.114 1195.48 291.461 1195.76 292.45 1196.33C293.45 1196.89 294.211 1197.52 294.734 1198.24C295.268 1198.94 295.683 1199.52 295.978 1199.98H296.319V1187.09H300.342V1222H296.455V1217.98H295.978C295.683 1218.45 295.262 1219.06 294.717 1219.78C294.171 1220.5 293.393 1221.14 292.381 1221.71C291.37 1222.27 290.023 1222.55 288.342 1222.55ZM288.887 1218.93C290.501 1218.93 291.864 1218.51 292.978 1217.67C294.092 1216.82 294.938 1215.64 295.518 1214.14C296.097 1212.63 296.387 1210.89 296.387 1208.91C296.387 1206.95 296.103 1205.24 295.535 1203.78C294.967 1202.3 294.126 1201.15 293.012 1200.34C291.898 1199.51 290.523 1199.09 288.887 1199.09C287.183 1199.09 285.762 1199.53 284.626 1200.4C283.501 1201.27 282.654 1202.44 282.086 1203.93C281.529 1205.41 281.251 1207.07 281.251 1208.91C281.251 1210.77 281.535 1212.47 282.103 1213.99C282.683 1215.5 283.535 1216.7 284.66 1217.6C285.796 1218.49 287.205 1218.93 288.887 1218.93ZM319.245 1222.55C316.722 1222.55 314.546 1221.99 312.717 1220.88C310.898 1219.75 309.495 1218.18 308.506 1216.17C307.529 1214.15 307.04 1211.8 307.04 1209.11C307.04 1206.43 307.529 1204.07 308.506 1202.02C309.495 1199.97 310.87 1198.36 312.631 1197.22C314.404 1196.06 316.472 1195.48 318.836 1195.48C320.2 1195.48 321.546 1195.7 322.876 1196.16C324.205 1196.61 325.415 1197.35 326.506 1198.38C327.597 1199.39 328.467 1200.73 329.114 1202.4C329.762 1204.07 330.086 1206.12 330.086 1208.57V1210.27H309.904V1206.8H325.995C325.995 1205.32 325.7 1204 325.109 1202.84C324.529 1201.68 323.7 1200.77 322.62 1200.1C321.552 1199.43 320.29 1199.09 318.836 1199.09C317.234 1199.09 315.847 1199.49 314.677 1200.28C313.518 1201.07 312.626 1202.09 312.001 1203.35C311.376 1204.61 311.063 1205.97 311.063 1207.41V1209.73C311.063 1211.7 311.404 1213.38 312.086 1214.76C312.779 1216.12 313.739 1217.16 314.967 1217.88C316.194 1218.58 317.62 1218.93 319.245 1218.93C320.302 1218.93 321.256 1218.78 322.109 1218.49C322.972 1218.18 323.717 1217.73 324.342 1217.12C324.967 1216.51 325.45 1215.75 325.79 1214.84L329.677 1215.93C329.268 1217.25 328.58 1218.41 327.614 1219.41C326.648 1220.4 325.455 1221.17 324.035 1221.73C322.614 1222.27 321.018 1222.55 319.245 1222.55ZM347.592 1195.82V1199.23H334.023V1195.82H347.592ZM337.978 1189.55H342.001V1214.5C342.001 1215.64 342.165 1216.49 342.495 1217.06C342.836 1217.61 343.268 1217.99 343.79 1218.18C344.325 1218.36 344.887 1218.45 345.478 1218.45C345.921 1218.45 346.285 1218.43 346.569 1218.39C346.853 1218.33 347.08 1218.28 347.251 1218.25L348.069 1221.86C347.796 1221.97 347.415 1222.07 346.927 1222.17C346.438 1222.28 345.819 1222.34 345.069 1222.34C343.933 1222.34 342.819 1222.1 341.728 1221.61C340.648 1221.12 339.751 1220.38 339.035 1219.38C338.33 1218.38 337.978 1217.11 337.978 1215.59V1189.55ZM361.347 1222.61C359.688 1222.61 358.183 1222.3 356.83 1221.68C355.478 1221.04 354.404 1220.12 353.609 1218.93C352.813 1217.73 352.415 1216.27 352.415 1214.57C352.415 1213.07 352.711 1211.85 353.302 1210.92C353.893 1209.98 354.683 1209.24 355.671 1208.7C356.66 1208.17 357.751 1207.77 358.944 1207.51C360.148 1207.24 361.359 1207.02 362.575 1206.86C364.165 1206.66 365.455 1206.51 366.444 1206.4C367.444 1206.29 368.171 1206.1 368.626 1205.84C369.092 1205.58 369.325 1205.12 369.325 1204.48V1204.34C369.325 1202.66 368.864 1201.35 367.944 1200.42C367.035 1199.49 365.654 1199.02 363.802 1199.02C361.881 1199.02 360.376 1199.44 359.285 1200.28C358.194 1201.12 357.427 1202.02 356.984 1202.98L353.165 1201.61C353.847 1200.02 354.756 1198.78 355.893 1197.9C357.04 1197 358.29 1196.37 359.643 1196.02C361.006 1195.66 362.347 1195.48 363.665 1195.48C364.506 1195.48 365.472 1195.58 366.563 1195.78C367.665 1195.98 368.728 1196.38 369.751 1196.99C370.785 1197.61 371.643 1198.53 372.325 1199.77C373.006 1201.01 373.347 1202.67 373.347 1204.75V1222H369.325V1218.45H369.12C368.847 1219.02 368.393 1219.63 367.756 1220.28C367.12 1220.93 366.273 1221.48 365.217 1221.93C364.16 1222.39 362.87 1222.61 361.347 1222.61ZM361.961 1219C363.552 1219 364.893 1218.69 365.984 1218.06C367.086 1217.44 367.915 1216.63 368.472 1215.64C369.04 1214.65 369.325 1213.61 369.325 1212.52V1208.84C369.154 1209.05 368.779 1209.23 368.2 1209.4C367.631 1209.56 366.972 1209.7 366.222 1209.83C365.484 1209.94 364.762 1210.05 364.058 1210.14C363.364 1210.22 362.802 1210.28 362.37 1210.34C361.325 1210.48 360.347 1210.7 359.438 1211.01C358.54 1211.3 357.813 1211.75 357.256 1212.35C356.711 1212.94 356.438 1213.75 356.438 1214.77C356.438 1216.17 356.955 1217.23 357.989 1217.94C359.035 1218.65 360.359 1219 361.961 1219ZM384.712 1187.09V1222H380.69V1187.09H384.712ZM396.103 1187.09V1222H392.08V1187.09H396.103ZM414.448 1222.55C411.925 1222.55 409.749 1221.99 407.92 1220.88C406.102 1219.75 404.698 1218.18 403.71 1216.17C402.732 1214.15 402.244 1211.8 402.244 1209.11C402.244 1206.43 402.732 1204.07 403.71 1202.02C404.698 1199.97 406.073 1198.36 407.835 1197.22C409.607 1196.06 411.675 1195.48 414.039 1195.48C415.403 1195.48 416.749 1195.7 418.079 1196.16C419.408 1196.61 420.619 1197.35 421.71 1198.38C422.8 1199.39 423.67 1200.73 424.317 1202.4C424.965 1204.07 425.289 1206.12 425.289 1208.57V1210.27H405.107V1206.8H421.198C421.198 1205.32 420.903 1204 420.312 1202.84C419.732 1201.68 418.903 1200.77 417.823 1200.1C416.755 1199.43 415.494 1199.09 414.039 1199.09C412.437 1199.09 411.05 1199.49 409.88 1200.28C408.721 1201.07 407.829 1202.09 407.204 1203.35C406.579 1204.61 406.266 1205.97 406.266 1207.41V1209.73C406.266 1211.7 406.607 1213.38 407.289 1214.76C407.982 1216.12 408.942 1217.16 410.17 1217.88C411.397 1218.58 412.823 1218.93 414.448 1218.93C415.505 1218.93 416.46 1218.78 417.312 1218.49C418.175 1218.18 418.92 1217.73 419.545 1217.12C420.17 1216.51 420.653 1215.75 420.994 1214.84L424.88 1215.93C424.471 1217.25 423.783 1218.41 422.817 1219.41C421.852 1220.4 420.658 1221.17 419.238 1221.73C417.817 1222.27 416.221 1222.55 414.448 1222.55ZM48.7358 1245.09V1280H44.7131V1245.09H48.7358ZM66.7401 1280.55C64.3764 1280.55 62.3026 1279.98 60.5185 1278.86C58.7457 1277.73 57.3594 1276.16 56.3594 1274.14C55.3707 1272.11 54.8764 1269.75 54.8764 1267.05C54.8764 1264.32 55.3707 1261.94 56.3594 1259.9C57.3594 1257.87 58.7457 1256.29 60.5185 1255.16C62.3026 1254.04 64.3764 1253.48 66.7401 1253.48C69.1037 1253.48 71.1719 1254.04 72.9446 1255.16C74.7287 1256.29 76.1151 1257.87 77.1037 1259.9C78.1037 1261.94 78.6037 1264.32 78.6037 1267.05C78.6037 1269.75 78.1037 1272.11 77.1037 1274.14C76.1151 1276.16 74.7287 1277.73 72.9446 1278.86C71.1719 1279.98 69.1037 1280.55 66.7401 1280.55ZM66.7401 1276.93C68.5355 1276.93 70.0128 1276.47 71.1719 1275.55C72.331 1274.63 73.1889 1273.42 73.7457 1271.92C74.3026 1270.42 74.581 1268.8 74.581 1267.05C74.581 1265.3 74.3026 1263.66 73.7457 1262.15C73.1889 1260.64 72.331 1259.42 71.1719 1258.49C70.0128 1257.56 68.5355 1257.09 66.7401 1257.09C64.9446 1257.09 63.4673 1257.56 62.3082 1258.49C61.1491 1259.42 60.2912 1260.64 59.7344 1262.15C59.1776 1263.66 58.8991 1265.3 58.8991 1267.05C58.8991 1268.8 59.1776 1270.42 59.7344 1271.92C60.2912 1273.42 61.1491 1274.63 62.3082 1275.55C63.4673 1276.47 64.9446 1276.93 66.7401 1276.93ZM103.29 1259.68L99.6761 1260.7C99.4489 1260.1 99.1136 1259.52 98.6705 1258.95C98.2386 1258.37 97.6477 1257.89 96.8977 1257.52C96.1477 1257.14 95.1875 1256.95 94.017 1256.95C92.4148 1256.95 91.0795 1257.32 90.0114 1258.06C88.9545 1258.79 88.4261 1259.72 88.4261 1260.84C88.4261 1261.84 88.7898 1262.63 89.517 1263.21C90.2443 1263.79 91.3807 1264.27 92.9261 1264.66L96.8125 1265.61C99.1534 1266.18 100.898 1267.05 102.045 1268.22C103.193 1269.38 103.767 1270.87 103.767 1272.7C103.767 1274.2 103.335 1275.55 102.472 1276.73C101.619 1277.91 100.426 1278.84 98.892 1279.52C97.358 1280.2 95.5739 1280.55 93.5398 1280.55C90.8693 1280.55 88.6591 1279.97 86.9091 1278.81C85.1591 1277.65 84.0511 1275.95 83.5852 1273.73L87.4034 1272.77C87.767 1274.18 88.4545 1275.24 89.4659 1275.94C90.4886 1276.65 91.8239 1277 93.4716 1277C95.3466 1277 96.8352 1276.6 97.9375 1275.81C99.0511 1275 99.608 1274.03 99.608 1272.91C99.608 1272 99.2898 1271.24 98.6534 1270.62C98.017 1270 97.0398 1269.53 95.7216 1269.23L91.358 1268.2C88.9602 1267.64 87.1989 1266.76 86.0739 1265.56C84.9602 1264.36 84.4034 1262.85 84.4034 1261.05C84.4034 1259.57 84.8182 1258.26 85.6477 1257.12C86.4886 1255.99 87.6307 1255.1 89.0739 1254.45C90.5284 1253.8 92.1761 1253.48 94.017 1253.48C96.608 1253.48 98.642 1254.05 100.119 1255.18C101.608 1256.32 102.665 1257.82 103.29 1259.68ZM123.322 1280V1253.82H127.209V1257.77H127.482C127.959 1256.48 128.822 1255.43 130.072 1254.62C131.322 1253.81 132.732 1253.41 134.3 1253.41C134.595 1253.41 134.964 1253.41 135.408 1253.43C135.851 1253.44 136.186 1253.45 136.413 1253.48V1257.57C136.277 1257.53 135.964 1257.48 135.476 1257.41C134.999 1257.34 134.493 1257.3 133.959 1257.3C132.686 1257.3 131.55 1257.56 130.55 1258.1C129.561 1258.62 128.777 1259.35 128.197 1260.28C127.629 1261.2 127.345 1262.25 127.345 1263.43V1280H123.322ZM151.362 1280.55C148.839 1280.55 146.663 1279.99 144.834 1278.88C143.016 1277.75 141.612 1276.18 140.624 1274.17C139.646 1272.15 139.158 1269.8 139.158 1267.11C139.158 1264.43 139.646 1262.07 140.624 1260.02C141.612 1257.97 142.987 1256.36 144.749 1255.22C146.521 1254.06 148.589 1253.48 150.953 1253.48C152.317 1253.48 153.663 1253.7 154.993 1254.16C156.322 1254.61 157.533 1255.35 158.624 1256.38C159.714 1257.39 160.584 1258.73 161.232 1260.4C161.879 1262.07 162.203 1264.12 162.203 1266.57V1268.27H142.021V1264.8H158.112C158.112 1263.32 157.817 1262 157.226 1260.84C156.646 1259.68 155.817 1258.77 154.737 1258.1C153.669 1257.43 152.408 1257.09 150.953 1257.09C149.351 1257.09 147.964 1257.49 146.794 1258.28C145.635 1259.07 144.743 1260.09 144.118 1261.35C143.493 1262.61 143.18 1263.97 143.18 1265.41V1267.73C143.18 1269.7 143.521 1271.38 144.203 1272.76C144.896 1274.12 145.857 1275.16 147.084 1275.88C148.311 1276.58 149.737 1276.93 151.362 1276.93C152.419 1276.93 153.374 1276.78 154.226 1276.49C155.089 1276.18 155.834 1275.73 156.459 1275.12C157.084 1274.51 157.567 1273.75 157.908 1272.84L161.794 1273.93C161.385 1275.25 160.697 1276.41 159.732 1277.41C158.766 1278.4 157.572 1279.17 156.152 1279.73C154.732 1280.27 153.135 1280.55 151.362 1280.55ZM186.186 1289.82V1275.98H185.845C185.55 1276.45 185.129 1277.06 184.584 1277.78C184.038 1278.5 183.26 1279.14 182.249 1279.71C181.237 1280.27 179.891 1280.55 178.209 1280.55C176.027 1280.55 174.101 1279.99 172.43 1278.89C170.76 1277.78 169.453 1276.21 168.51 1274.19C167.567 1272.15 167.095 1269.75 167.095 1266.98C167.095 1264.23 167.567 1261.84 168.51 1259.82C169.453 1257.8 170.766 1256.23 172.447 1255.13C174.129 1254.03 176.072 1253.48 178.277 1253.48C179.982 1253.48 181.328 1253.76 182.317 1254.33C183.317 1254.89 184.078 1255.52 184.601 1256.24C185.135 1256.94 185.55 1257.52 185.845 1257.98H186.322V1253.82H190.209V1289.82H186.186ZM178.754 1276.93C180.368 1276.93 181.732 1276.51 182.845 1275.67C183.959 1274.82 184.805 1273.64 185.385 1272.14C185.964 1270.63 186.254 1268.89 186.254 1266.91C186.254 1264.95 185.97 1263.24 185.402 1261.78C184.834 1260.3 183.993 1259.15 182.879 1258.34C181.766 1257.51 180.391 1257.09 178.754 1257.09C177.05 1257.09 175.629 1257.53 174.493 1258.4C173.368 1259.27 172.521 1260.44 171.953 1261.93C171.396 1263.41 171.118 1265.07 171.118 1266.91C171.118 1268.77 171.402 1270.47 171.97 1271.99C172.55 1273.5 173.402 1274.7 174.527 1275.6C175.663 1276.49 177.072 1276.93 178.754 1276.93ZM214.072 1269.3V1253.82H218.095V1280H214.072V1275.57H213.8C213.186 1276.9 212.232 1278.03 210.936 1278.96C209.641 1279.88 208.004 1280.34 206.027 1280.34C204.391 1280.34 202.936 1279.98 201.663 1279.27C200.391 1278.54 199.391 1277.45 198.663 1275.99C197.936 1274.53 197.572 1272.68 197.572 1270.45V1253.82H201.595V1270.18C201.595 1272.09 202.129 1273.61 203.197 1274.75C204.277 1275.89 205.652 1276.45 207.322 1276.45C208.322 1276.45 209.339 1276.2 210.374 1275.69C211.419 1275.18 212.294 1274.39 212.999 1273.34C213.714 1272.28 214.072 1270.93 214.072 1269.3ZM236.44 1280.55C233.918 1280.55 231.741 1279.99 229.912 1278.88C228.094 1277.75 226.69 1276.18 225.702 1274.17C224.724 1272.15 224.236 1269.8 224.236 1267.11C224.236 1264.43 224.724 1262.07 225.702 1260.02C226.69 1257.97 228.065 1256.36 229.827 1255.22C231.599 1254.06 233.668 1253.48 236.031 1253.48C237.395 1253.48 238.741 1253.7 240.071 1254.16C241.401 1254.61 242.611 1255.35 243.702 1256.38C244.793 1257.39 245.662 1258.73 246.31 1260.4C246.957 1262.07 247.281 1264.12 247.281 1266.57V1268.27H227.099V1264.8H243.19C243.19 1263.32 242.895 1262 242.304 1260.84C241.724 1259.68 240.895 1258.77 239.815 1258.1C238.747 1257.43 237.486 1257.09 236.031 1257.09C234.429 1257.09 233.043 1257.49 231.872 1258.28C230.713 1259.07 229.821 1260.09 229.196 1261.35C228.571 1262.61 228.259 1263.97 228.259 1265.41V1267.73C228.259 1269.7 228.599 1271.38 229.281 1272.76C229.974 1274.12 230.935 1275.16 232.162 1275.88C233.389 1276.58 234.815 1276.93 236.44 1276.93C237.497 1276.93 238.452 1276.78 239.304 1276.49C240.168 1276.18 240.912 1275.73 241.537 1275.12C242.162 1274.51 242.645 1273.75 242.986 1272.84L246.872 1273.93C246.463 1275.25 245.776 1276.41 244.81 1277.41C243.844 1278.4 242.651 1279.17 241.23 1279.73C239.81 1280.27 238.213 1280.55 236.44 1280.55ZM253.401 1280V1253.82H257.287V1257.77H257.56C258.037 1256.48 258.901 1255.43 260.151 1254.62C261.401 1253.81 262.81 1253.41 264.378 1253.41C264.673 1253.41 265.043 1253.41 265.486 1253.43C265.929 1253.44 266.264 1253.45 266.491 1253.48V1257.57C266.355 1257.53 266.043 1257.48 265.554 1257.41C265.077 1257.34 264.571 1257.3 264.037 1257.3C262.764 1257.3 261.628 1257.56 260.628 1258.1C259.639 1258.62 258.855 1259.35 258.276 1260.28C257.707 1261.2 257.423 1262.25 257.423 1263.43V1280H253.401ZM271.26 1280V1253.82H275.283V1280H271.26ZM273.305 1249.45C272.521 1249.45 271.845 1249.19 271.277 1248.65C270.72 1248.12 270.442 1247.48 270.442 1246.73C270.442 1245.98 270.72 1245.34 271.277 1244.8C271.845 1244.27 272.521 1244 273.305 1244C274.089 1244 274.76 1244.27 275.317 1244.8C275.885 1245.34 276.169 1245.98 276.169 1246.73C276.169 1247.48 275.885 1248.12 275.317 1248.65C274.76 1249.19 274.089 1249.45 273.305 1249.45ZM282.651 1280V1253.82H286.537V1257.91H286.878C287.423 1256.51 288.304 1255.43 289.52 1254.65C290.736 1253.87 292.196 1253.48 293.901 1253.48C295.628 1253.48 297.065 1253.87 298.213 1254.65C299.372 1255.43 300.276 1256.51 300.923 1257.91H301.196C301.866 1256.56 302.872 1255.48 304.213 1254.69C305.554 1253.88 307.162 1253.48 309.037 1253.48C311.378 1253.48 313.293 1254.21 314.781 1255.68C316.27 1257.13 317.014 1259.4 317.014 1262.48V1280H312.991V1262.48C312.991 1260.55 312.463 1259.16 311.406 1258.34C310.349 1257.51 309.105 1257.09 307.673 1257.09C305.832 1257.09 304.406 1257.65 303.395 1258.76C302.384 1259.86 301.878 1261.26 301.878 1262.95V1280H297.787V1262.07C297.787 1260.58 297.304 1259.38 296.338 1258.47C295.372 1257.55 294.128 1257.09 292.605 1257.09C291.56 1257.09 290.582 1257.37 289.673 1257.93C288.776 1258.48 288.048 1259.26 287.491 1260.24C286.946 1261.22 286.673 1262.35 286.673 1263.64V1280H282.651ZM324.369 1280V1253.82H328.392V1280H324.369ZM326.415 1249.45C325.631 1249.45 324.955 1249.19 324.386 1248.65C323.83 1248.12 323.551 1247.48 323.551 1246.73C323.551 1245.98 323.83 1245.34 324.386 1244.8C324.955 1244.27 325.631 1244 326.415 1244C327.199 1244 327.869 1244.27 328.426 1244.8C328.994 1245.34 329.278 1245.98 329.278 1246.73C329.278 1247.48 328.994 1248.12 328.426 1248.65C327.869 1249.19 327.199 1249.45 326.415 1249.45ZM346.737 1280.55C344.214 1280.55 342.038 1279.99 340.209 1278.88C338.391 1277.75 336.987 1276.18 335.999 1274.17C335.021 1272.15 334.533 1269.8 334.533 1267.11C334.533 1264.43 335.021 1262.07 335.999 1260.02C336.987 1257.97 338.362 1256.36 340.124 1255.22C341.896 1254.06 343.964 1253.48 346.328 1253.48C347.692 1253.48 349.038 1253.7 350.368 1254.16C351.697 1254.61 352.908 1255.35 353.999 1256.38C355.089 1257.39 355.959 1258.73 356.607 1260.4C357.254 1262.07 357.578 1264.12 357.578 1266.57V1268.27H337.396V1264.8H353.487C353.487 1263.32 353.192 1262 352.601 1260.84C352.021 1259.68 351.192 1258.77 350.112 1258.1C349.044 1257.43 347.783 1257.09 346.328 1257.09C344.726 1257.09 343.339 1257.49 342.169 1258.28C341.01 1259.07 340.118 1260.09 339.493 1261.35C338.868 1262.61 338.555 1263.97 338.555 1265.41V1267.73C338.555 1269.7 338.896 1271.38 339.578 1272.76C340.271 1274.12 341.232 1275.16 342.459 1275.88C343.686 1276.58 345.112 1276.93 346.737 1276.93C347.794 1276.93 348.749 1276.78 349.601 1276.49C350.464 1276.18 351.209 1275.73 351.834 1275.12C352.459 1274.51 352.942 1273.75 353.283 1272.84L357.169 1273.93C356.76 1275.25 356.072 1276.41 355.107 1277.41C354.141 1278.4 352.947 1279.17 351.527 1279.73C350.107 1280.27 348.51 1280.55 346.737 1280.55ZM367.72 1264.25V1280H363.697V1253.82H367.584V1257.91H367.925C368.538 1256.58 369.47 1255.51 370.72 1254.7C371.97 1253.89 373.584 1253.48 375.561 1253.48C377.334 1253.48 378.885 1253.84 380.214 1254.57C381.544 1255.28 382.578 1256.38 383.317 1257.84C384.055 1259.3 384.425 1261.14 384.425 1263.36V1280H380.402V1263.64C380.402 1261.58 379.868 1259.98 378.8 1258.83C377.732 1257.67 376.266 1257.09 374.402 1257.09C373.118 1257.09 371.97 1257.37 370.959 1257.93C369.959 1258.48 369.169 1259.3 368.589 1260.36C368.01 1261.43 367.72 1262.73 367.72 1264.25ZM403.162 1253.82V1257.23H389.594V1253.82H403.162ZM393.548 1247.55H397.571V1272.5C397.571 1273.64 397.736 1274.49 398.065 1275.06C398.406 1275.61 398.838 1275.99 399.361 1276.18C399.895 1276.36 400.457 1276.45 401.048 1276.45C401.491 1276.45 401.855 1276.43 402.139 1276.39C402.423 1276.33 402.651 1276.28 402.821 1276.25L403.639 1279.86C403.366 1279.97 402.986 1280.07 402.497 1280.17C402.009 1280.28 401.389 1280.34 400.639 1280.34C399.503 1280.34 398.389 1280.1 397.298 1279.61C396.219 1279.12 395.321 1278.38 394.605 1277.38C393.901 1276.38 393.548 1275.11 393.548 1273.59V1247.55ZM419.568 1280.55C417.205 1280.55 415.131 1279.98 413.347 1278.86C411.574 1277.73 410.188 1276.16 409.188 1274.14C408.199 1272.11 407.705 1269.75 407.705 1267.05C407.705 1264.32 408.199 1261.94 409.188 1259.9C410.188 1257.87 411.574 1256.29 413.347 1255.16C415.131 1254.04 417.205 1253.48 419.568 1253.48C421.932 1253.48 424 1254.04 425.773 1255.16C427.557 1256.29 428.943 1257.87 429.932 1259.9C430.932 1261.94 431.432 1264.32 431.432 1267.05C431.432 1269.75 430.932 1272.11 429.932 1274.14C428.943 1276.16 427.557 1277.73 425.773 1278.86C424 1279.98 421.932 1280.55 419.568 1280.55ZM419.568 1276.93C421.364 1276.93 422.841 1276.47 424 1275.55C425.159 1274.63 426.017 1273.42 426.574 1271.92C427.131 1270.42 427.409 1268.8 427.409 1267.05C427.409 1265.3 427.131 1263.66 426.574 1262.15C426.017 1260.64 425.159 1259.42 424 1258.49C422.841 1257.56 421.364 1257.09 419.568 1257.09C417.773 1257.09 416.295 1257.56 415.136 1258.49C413.977 1259.42 413.119 1260.64 412.562 1262.15C412.006 1263.66 411.727 1265.3 411.727 1267.05C411.727 1268.8 412.006 1270.42 412.562 1271.92C413.119 1273.42 413.977 1274.63 415.136 1275.55C416.295 1276.47 417.773 1276.93 419.568 1276.93ZM456.118 1259.68L452.504 1260.7C452.277 1260.1 451.942 1259.52 451.499 1258.95C451.067 1258.37 450.476 1257.89 449.726 1257.52C448.976 1257.14 448.016 1256.95 446.845 1256.95C445.243 1256.95 443.908 1257.32 442.839 1258.06C441.783 1258.79 441.254 1259.72 441.254 1260.84C441.254 1261.84 441.618 1262.63 442.345 1263.21C443.072 1263.79 444.209 1264.27 445.754 1264.66L449.641 1265.61C451.982 1266.18 453.726 1267.05 454.874 1268.22C456.021 1269.38 456.595 1270.87 456.595 1272.7C456.595 1274.2 456.163 1275.55 455.3 1276.73C454.447 1277.91 453.254 1278.84 451.72 1279.52C450.186 1280.2 448.402 1280.55 446.368 1280.55C443.697 1280.55 441.487 1279.97 439.737 1278.81C437.987 1277.65 436.879 1275.95 436.413 1273.73L440.232 1272.77C440.595 1274.18 441.283 1275.24 442.294 1275.94C443.317 1276.65 444.652 1277 446.3 1277C448.175 1277 449.663 1276.6 450.766 1275.81C451.879 1275 452.436 1274.03 452.436 1272.91C452.436 1272 452.118 1271.24 451.482 1270.62C450.845 1270 449.868 1269.53 448.55 1269.23L444.186 1268.2C441.788 1267.64 440.027 1266.76 438.902 1265.56C437.788 1264.36 437.232 1262.85 437.232 1261.05C437.232 1259.57 437.646 1258.26 438.476 1257.12C439.317 1255.99 440.459 1255.1 441.902 1254.45C443.357 1253.8 445.004 1253.48 446.845 1253.48C449.436 1253.48 451.47 1254.05 452.947 1255.18C454.436 1256.32 455.493 1257.82 456.118 1259.68ZM148.601 1347.82C147.919 1347.82 147.311 1347.76 146.777 1347.65C146.243 1347.55 145.874 1347.44 145.669 1347.34L146.692 1343.8C147.669 1344.05 148.533 1344.14 149.283 1344.07C150.033 1344 150.697 1343.66 151.277 1343.06C151.868 1342.47 152.408 1341.51 152.896 1340.18L153.646 1338.14L143.964 1311.82H148.328L155.555 1332.68H155.828L163.055 1311.82H167.419L156.305 1341.82C155.805 1343.17 155.186 1344.29 154.447 1345.18C153.709 1346.07 152.851 1346.74 151.874 1347.17C150.908 1347.6 149.817 1347.82 148.601 1347.82ZM193.933 1338.61C192.274 1338.61 190.768 1338.3 189.416 1337.68C188.064 1337.04 186.99 1336.12 186.195 1334.93C185.399 1333.73 185.001 1332.27 185.001 1330.57C185.001 1329.07 185.297 1327.85 185.888 1326.92C186.479 1325.98 187.268 1325.24 188.257 1324.7C189.246 1324.17 190.337 1323.77 191.53 1323.51C192.734 1323.24 193.945 1323.02 195.161 1322.86C196.751 1322.66 198.041 1322.51 199.03 1322.4C200.03 1322.29 200.757 1322.1 201.212 1321.84C201.678 1321.58 201.911 1321.12 201.911 1320.48V1320.34C201.911 1318.66 201.45 1317.35 200.53 1316.42C199.621 1315.49 198.24 1315.02 196.388 1315.02C194.467 1315.02 192.962 1315.44 191.871 1316.28C190.78 1317.12 190.013 1318.02 189.57 1318.98L185.751 1317.61C186.433 1316.02 187.342 1314.78 188.479 1313.9C189.626 1313 190.876 1312.37 192.229 1312.02C193.592 1311.66 194.933 1311.48 196.251 1311.48C197.092 1311.48 198.058 1311.58 199.149 1311.78C200.251 1311.98 201.314 1312.38 202.337 1312.99C203.371 1313.61 204.229 1314.53 204.911 1315.77C205.592 1317.01 205.933 1318.67 205.933 1320.75V1338H201.911V1334.45H201.706C201.433 1335.02 200.979 1335.63 200.342 1336.28C199.706 1336.93 198.859 1337.48 197.803 1337.93C196.746 1338.39 195.456 1338.61 193.933 1338.61ZM194.547 1335C196.138 1335 197.479 1334.69 198.57 1334.06C199.672 1333.44 200.501 1332.63 201.058 1331.64C201.626 1330.65 201.911 1329.61 201.911 1328.52V1324.84C201.74 1325.05 201.365 1325.23 200.786 1325.4C200.217 1325.56 199.558 1325.7 198.808 1325.83C198.07 1325.94 197.348 1326.05 196.643 1326.14C195.95 1326.22 195.388 1326.28 194.956 1326.34C193.911 1326.48 192.933 1326.7 192.024 1327.01C191.126 1327.3 190.399 1327.75 189.842 1328.35C189.297 1328.94 189.024 1329.75 189.024 1330.77C189.024 1332.17 189.541 1333.23 190.575 1333.94C191.621 1334.65 192.945 1335 194.547 1335ZM217.298 1303.09V1338H213.276V1303.09H217.298ZM235.303 1338.55C232.848 1338.55 230.734 1337.97 228.962 1336.81C227.189 1335.65 225.825 1334.05 224.871 1332.02C223.916 1329.98 223.439 1327.66 223.439 1325.05C223.439 1322.39 223.928 1320.04 224.905 1318.01C225.893 1315.96 227.268 1314.36 229.03 1313.22C230.803 1312.06 232.871 1311.48 235.234 1311.48C237.075 1311.48 238.734 1311.82 240.212 1312.5C241.689 1313.18 242.899 1314.14 243.842 1315.36C244.786 1316.59 245.371 1318.02 245.598 1319.66H241.575C241.268 1318.47 240.587 1317.41 239.53 1316.49C238.484 1315.56 237.075 1315.09 235.303 1315.09C233.734 1315.09 232.359 1315.5 231.178 1316.32C230.007 1317.12 229.092 1318.27 228.433 1319.74C227.786 1321.21 227.462 1322.93 227.462 1324.91C227.462 1326.93 227.78 1328.69 228.416 1330.19C229.064 1331.69 229.973 1332.86 231.143 1333.69C232.325 1334.52 233.712 1334.93 235.303 1334.93C236.348 1334.93 237.297 1334.75 238.149 1334.39C239.001 1334.02 239.723 1333.5 240.314 1332.82C240.905 1332.14 241.325 1331.32 241.575 1330.36H245.598C245.371 1331.91 244.808 1333.3 243.911 1334.54C243.024 1335.77 241.848 1336.74 240.382 1337.47C238.928 1338.19 237.234 1338.55 235.303 1338.55ZM259.183 1338.61C257.524 1338.61 256.018 1338.3 254.666 1337.68C253.314 1337.04 252.24 1336.12 251.445 1334.93C250.649 1333.73 250.251 1332.27 250.251 1330.57C250.251 1329.07 250.547 1327.85 251.138 1326.92C251.729 1325.98 252.518 1325.24 253.507 1324.7C254.496 1324.17 255.587 1323.77 256.78 1323.51C257.984 1323.24 259.195 1323.02 260.411 1322.86C262.001 1322.66 263.291 1322.51 264.28 1322.4C265.28 1322.29 266.007 1322.1 266.462 1321.84C266.928 1321.58 267.161 1321.12 267.161 1320.48V1320.34C267.161 1318.66 266.7 1317.35 265.78 1316.42C264.871 1315.49 263.49 1315.02 261.638 1315.02C259.717 1315.02 258.212 1315.44 257.121 1316.28C256.03 1317.12 255.263 1318.02 254.82 1318.98L251.001 1317.61C251.683 1316.02 252.592 1314.78 253.729 1313.9C254.876 1313 256.126 1312.37 257.479 1312.02C258.842 1311.66 260.183 1311.48 261.501 1311.48C262.342 1311.48 263.308 1311.58 264.399 1311.78C265.501 1311.98 266.564 1312.38 267.587 1312.99C268.621 1313.61 269.479 1314.53 270.161 1315.77C270.842 1317.01 271.183 1318.67 271.183 1320.75V1338H267.161V1334.45H266.956C266.683 1335.02 266.229 1335.63 265.592 1336.28C264.956 1336.93 264.109 1337.48 263.053 1337.93C261.996 1338.39 260.706 1338.61 259.183 1338.61ZM259.797 1335C261.388 1335 262.729 1334.69 263.82 1334.06C264.922 1333.44 265.751 1332.63 266.308 1331.64C266.876 1330.65 267.161 1329.61 267.161 1328.52V1324.84C266.99 1325.05 266.615 1325.23 266.036 1325.4C265.467 1325.56 264.808 1325.7 264.058 1325.83C263.32 1325.94 262.598 1326.05 261.893 1326.14C261.2 1326.22 260.638 1326.28 260.206 1326.34C259.161 1326.48 258.183 1326.7 257.274 1327.01C256.376 1327.3 255.649 1327.75 255.092 1328.35C254.547 1328.94 254.274 1329.75 254.274 1330.77C254.274 1332.17 254.791 1333.23 255.825 1333.94C256.871 1334.65 258.195 1335 259.797 1335ZM282.548 1322.25V1338H278.526V1311.82H282.412V1315.91H282.753C283.366 1314.58 284.298 1313.51 285.548 1312.7C286.798 1311.89 288.412 1311.48 290.389 1311.48C292.162 1311.48 293.713 1311.84 295.043 1312.57C296.372 1313.28 297.406 1314.38 298.145 1315.84C298.884 1317.3 299.253 1319.14 299.253 1321.36V1338H295.23V1321.64C295.23 1319.58 294.696 1317.98 293.628 1316.83C292.56 1315.67 291.094 1315.09 289.23 1315.09C287.946 1315.09 286.798 1315.37 285.787 1315.93C284.787 1316.48 283.997 1317.3 283.418 1318.36C282.838 1319.43 282.548 1320.73 282.548 1322.25ZM317.24 1338.55C314.786 1338.55 312.672 1337.97 310.899 1336.81C309.126 1335.65 307.763 1334.05 306.808 1332.02C305.854 1329.98 305.376 1327.66 305.376 1325.05C305.376 1322.39 305.865 1320.04 306.842 1318.01C307.831 1315.96 309.206 1314.36 310.967 1313.22C312.74 1312.06 314.808 1311.48 317.172 1311.48C319.013 1311.48 320.672 1311.82 322.149 1312.5C323.626 1313.18 324.837 1314.14 325.78 1315.36C326.723 1316.59 327.308 1318.02 327.536 1319.66H323.513C323.206 1318.47 322.524 1317.41 321.467 1316.49C320.422 1315.56 319.013 1315.09 317.24 1315.09C315.672 1315.09 314.297 1315.5 313.115 1316.32C311.945 1317.12 311.03 1318.27 310.371 1319.74C309.723 1321.21 309.399 1322.93 309.399 1324.91C309.399 1326.93 309.717 1328.69 310.354 1330.19C311.001 1331.69 311.911 1332.86 313.081 1333.69C314.263 1334.52 315.649 1334.93 317.24 1334.93C318.286 1334.93 319.234 1334.75 320.087 1334.39C320.939 1334.02 321.661 1333.5 322.251 1332.82C322.842 1332.14 323.263 1331.32 323.513 1330.36H327.536C327.308 1331.91 326.746 1333.3 325.848 1334.54C324.962 1335.77 323.786 1336.74 322.32 1337.47C320.865 1338.19 319.172 1338.55 317.24 1338.55ZM344.393 1338.55C341.871 1338.55 339.695 1337.99 337.865 1336.88C336.047 1335.75 334.643 1334.18 333.655 1332.17C332.678 1330.15 332.189 1327.8 332.189 1325.11C332.189 1322.43 332.678 1320.07 333.655 1318.02C334.643 1315.97 336.018 1314.36 337.78 1313.22C339.553 1312.06 341.621 1311.48 343.984 1311.48C345.348 1311.48 346.695 1311.7 348.024 1312.16C349.354 1312.61 350.564 1313.35 351.655 1314.38C352.746 1315.39 353.615 1316.73 354.263 1318.4C354.911 1320.07 355.234 1322.12 355.234 1324.57V1326.27H335.053V1322.8H351.143C351.143 1321.32 350.848 1320 350.257 1318.84C349.678 1317.68 348.848 1316.77 347.768 1316.1C346.7 1315.43 345.439 1315.09 343.984 1315.09C342.382 1315.09 340.996 1315.49 339.825 1316.28C338.666 1317.07 337.774 1318.09 337.149 1319.35C336.524 1320.61 336.212 1321.97 336.212 1323.41V1325.73C336.212 1327.7 336.553 1329.38 337.234 1330.76C337.928 1332.12 338.888 1333.16 340.115 1333.88C341.342 1334.58 342.768 1334.93 344.393 1334.93C345.45 1334.93 346.405 1334.78 347.257 1334.49C348.121 1334.18 348.865 1333.73 349.49 1333.12C350.115 1332.51 350.598 1331.75 350.939 1330.84L354.825 1331.93C354.416 1333.25 353.729 1334.41 352.763 1335.41C351.797 1336.4 350.604 1337.17 349.183 1337.73C347.763 1338.27 346.166 1338.55 344.393 1338.55Z" fill="#131313"/>
</svg>
