<svg width="500" height="560" viewBox="0 0 500 560" fill="none" xmlns="http://www.w3.org/2000/svg">
<circle cx="250" cy="325" r="25" fill="#131313"/>
<rect x="241" y="243" width="18" height="70" fill="#131313"/>
<rect x="125" width="250" height="250" rx="125" fill="#131313"/>
<path d="M259.597 88.7727V161.5H250.79V98.0057H250.364L232.608 109.795V100.847L250.79 88.7727H259.597Z" fill="white"/>
<path d="M87.2734 416H76.5007V381.091H87.7507C91.1371 381.091 94.0348 381.79 96.4439 383.188C98.853 384.574 100.7 386.568 101.984 389.17C103.268 391.761 103.91 394.864 103.91 398.477C103.91 402.114 103.262 405.244 101.967 407.869C100.671 410.483 98.7848 412.494 96.3075 413.903C93.8303 415.301 90.8189 416 87.2734 416ZM80.728 412.25H87.0007C89.8871 412.25 92.2791 411.693 94.1768 410.58C96.0746 409.466 97.4893 407.881 98.4212 405.824C99.353 403.767 99.8189 401.318 99.8189 398.477C99.8189 395.659 99.3587 393.233 98.4382 391.199C97.5178 389.153 96.1428 387.585 94.3132 386.494C92.4837 385.392 90.2053 384.841 87.478 384.841H80.728V412.25ZM121.433 416.545C118.91 416.545 116.734 415.989 114.904 414.875C113.086 413.75 111.683 412.182 110.694 410.17C109.717 408.148 109.228 405.795 109.228 403.114C109.228 400.432 109.717 398.068 110.694 396.023C111.683 393.966 113.058 392.364 114.819 391.216C116.592 390.057 118.66 389.477 121.023 389.477C122.387 389.477 123.734 389.705 125.063 390.159C126.393 390.614 127.603 391.352 128.694 392.375C129.785 393.386 130.654 394.727 131.302 396.398C131.95 398.068 132.273 400.125 132.273 402.568V404.273H112.092V400.795H128.183C128.183 399.318 127.887 398 127.296 396.841C126.717 395.682 125.887 394.767 124.808 394.097C123.739 393.426 122.478 393.091 121.023 393.091C119.421 393.091 118.035 393.489 116.864 394.284C115.705 395.068 114.813 396.091 114.188 397.352C113.563 398.614 113.251 399.966 113.251 401.409V403.727C113.251 405.705 113.592 407.381 114.273 408.756C114.967 410.119 115.927 411.159 117.154 411.875C118.381 412.58 119.808 412.932 121.433 412.932C122.489 412.932 123.444 412.784 124.296 412.489C125.16 412.182 125.904 411.727 126.529 411.125C127.154 410.511 127.637 409.75 127.978 408.841L131.864 409.932C131.455 411.25 130.768 412.409 129.802 413.409C128.836 414.398 127.643 415.17 126.222 415.727C124.802 416.273 123.205 416.545 121.433 416.545ZM150.052 389.818V393.227H135.938V389.818H150.052ZM140.165 416V386.205C140.165 384.705 140.518 383.455 141.222 382.455C141.927 381.455 142.842 380.705 143.967 380.205C145.092 379.705 146.279 379.455 147.529 379.455C148.518 379.455 149.325 379.534 149.95 379.693C150.575 379.852 151.04 380 151.347 380.136L150.188 383.614C149.984 383.545 149.7 383.46 149.336 383.358C148.984 383.256 148.518 383.205 147.938 383.205C146.609 383.205 145.648 383.54 145.058 384.21C144.478 384.881 144.188 385.864 144.188 387.159V416H140.165ZM155.69 416V389.818H159.712V416H155.69ZM157.735 385.455C156.951 385.455 156.275 385.188 155.707 384.653C155.15 384.119 154.871 383.477 154.871 382.727C154.871 381.977 155.15 381.335 155.707 380.801C156.275 380.267 156.951 380 157.735 380C158.519 380 159.19 380.267 159.746 380.801C160.315 381.335 160.599 381.977 160.599 382.727C160.599 383.477 160.315 384.119 159.746 384.653C159.19 385.188 158.519 385.455 157.735 385.455ZM171.103 400.25V416H167.08V389.818H170.967V393.909H171.308C171.921 392.58 172.853 391.511 174.103 390.705C175.353 389.886 176.967 389.477 178.944 389.477C180.717 389.477 182.268 389.841 183.597 390.568C184.927 391.284 185.961 392.375 186.7 393.841C187.438 395.295 187.808 397.136 187.808 399.364V416H183.785V399.636C183.785 397.58 183.251 395.977 182.183 394.83C181.114 393.67 179.648 393.091 177.785 393.091C176.501 393.091 175.353 393.369 174.342 393.926C173.342 394.483 172.552 395.295 171.972 396.364C171.393 397.432 171.103 398.727 171.103 400.25ZM195.158 416V389.818H199.181V416H195.158ZM197.204 385.455C196.42 385.455 195.744 385.188 195.175 384.653C194.619 384.119 194.34 383.477 194.34 382.727C194.34 381.977 194.619 381.335 195.175 380.801C195.744 380.267 196.42 380 197.204 380C197.988 380 198.658 380.267 199.215 380.801C199.783 381.335 200.067 381.977 200.067 382.727C200.067 383.477 199.783 384.119 199.215 384.653C198.658 385.188 197.988 385.455 197.204 385.455ZM206.549 416V389.818H210.435V393.773H210.708C211.185 392.477 212.049 391.426 213.299 390.619C214.549 389.812 215.958 389.409 217.526 389.409C217.822 389.409 218.191 389.415 218.634 389.426C219.077 389.437 219.413 389.455 219.64 389.477V393.568C219.504 393.534 219.191 393.483 218.702 393.415C218.225 393.335 217.719 393.295 217.185 393.295C215.913 393.295 214.776 393.562 213.776 394.097C212.788 394.619 212.004 395.347 211.424 396.278C210.856 397.199 210.572 398.25 210.572 399.432V416H206.549ZM245.613 416.614C243.954 416.614 242.448 416.301 241.096 415.676C239.744 415.04 238.67 414.125 237.874 412.932C237.079 411.727 236.681 410.273 236.681 408.568C236.681 407.068 236.977 405.852 237.567 404.92C238.158 403.977 238.948 403.239 239.937 402.705C240.925 402.17 242.016 401.773 243.21 401.511C244.414 401.239 245.624 401.023 246.84 400.864C248.431 400.659 249.721 400.506 250.71 400.403C251.71 400.29 252.437 400.102 252.891 399.841C253.357 399.58 253.59 399.125 253.59 398.477V398.341C253.59 396.659 253.13 395.352 252.21 394.42C251.3 393.489 249.92 393.023 248.067 393.023C246.147 393.023 244.641 393.443 243.55 394.284C242.46 395.125 241.692 396.023 241.249 396.977L237.431 395.614C238.113 394.023 239.022 392.784 240.158 391.898C241.306 391 242.556 390.375 243.908 390.023C245.272 389.659 246.613 389.477 247.931 389.477C248.772 389.477 249.738 389.58 250.829 389.784C251.931 389.977 252.994 390.381 254.016 390.994C255.05 391.608 255.908 392.534 256.59 393.773C257.272 395.011 257.613 396.67 257.613 398.75V416H253.59V412.455H253.386C253.113 413.023 252.658 413.631 252.022 414.278C251.386 414.926 250.539 415.477 249.482 415.932C248.425 416.386 247.136 416.614 245.613 416.614ZM246.227 413C247.817 413 249.158 412.688 250.249 412.062C251.352 411.438 252.181 410.631 252.738 409.642C253.306 408.653 253.59 407.614 253.59 406.523V402.841C253.42 403.045 253.045 403.233 252.465 403.403C251.897 403.562 251.238 403.705 250.488 403.83C249.749 403.943 249.028 404.045 248.323 404.136C247.63 404.216 247.067 404.284 246.636 404.341C245.59 404.477 244.613 404.699 243.704 405.006C242.806 405.301 242.079 405.75 241.522 406.352C240.977 406.943 240.704 407.75 240.704 408.773C240.704 410.17 241.221 411.227 242.255 411.943C243.3 412.648 244.624 413 246.227 413ZM288.342 416.545C286.16 416.545 284.234 415.994 282.563 414.892C280.893 413.778 279.586 412.21 278.643 410.188C277.7 408.153 277.228 405.75 277.228 402.977C277.228 400.227 277.7 397.841 278.643 395.818C279.586 393.795 280.898 392.233 282.58 391.131C284.262 390.028 286.205 389.477 288.41 389.477C290.114 389.477 291.461 389.761 292.45 390.33C293.45 390.886 294.211 391.523 294.734 392.239C295.268 392.943 295.683 393.523 295.978 393.977H296.319V381.091H300.342V416H296.455V411.977H295.978C295.683 412.455 295.262 413.057 294.717 413.784C294.171 414.5 293.393 415.142 292.381 415.71C291.37 416.267 290.023 416.545 288.342 416.545ZM288.887 412.932C290.501 412.932 291.864 412.511 292.978 411.67C294.092 410.818 294.938 409.642 295.518 408.142C296.097 406.631 296.387 404.886 296.387 402.909C296.387 400.955 296.103 399.244 295.535 397.778C294.967 396.301 294.126 395.153 293.012 394.335C291.898 393.506 290.523 393.091 288.887 393.091C287.183 393.091 285.762 393.528 284.626 394.403C283.501 395.267 282.654 396.443 282.086 397.932C281.529 399.409 281.251 401.068 281.251 402.909C281.251 404.773 281.535 406.466 282.103 407.989C282.683 409.5 283.535 410.705 284.66 411.602C285.796 412.489 287.205 412.932 288.887 412.932ZM319.245 416.545C316.722 416.545 314.546 415.989 312.717 414.875C310.898 413.75 309.495 412.182 308.506 410.17C307.529 408.148 307.04 405.795 307.04 403.114C307.04 400.432 307.529 398.068 308.506 396.023C309.495 393.966 310.87 392.364 312.631 391.216C314.404 390.057 316.472 389.477 318.836 389.477C320.2 389.477 321.546 389.705 322.876 390.159C324.205 390.614 325.415 391.352 326.506 392.375C327.597 393.386 328.467 394.727 329.114 396.398C329.762 398.068 330.086 400.125 330.086 402.568V404.273H309.904V400.795H325.995C325.995 399.318 325.7 398 325.109 396.841C324.529 395.682 323.7 394.767 322.62 394.097C321.552 393.426 320.29 393.091 318.836 393.091C317.234 393.091 315.847 393.489 314.677 394.284C313.518 395.068 312.626 396.091 312.001 397.352C311.376 398.614 311.063 399.966 311.063 401.409V403.727C311.063 405.705 311.404 407.381 312.086 408.756C312.779 410.119 313.739 411.159 314.967 411.875C316.194 412.58 317.62 412.932 319.245 412.932C320.302 412.932 321.256 412.784 322.109 412.489C322.972 412.182 323.717 411.727 324.342 411.125C324.967 410.511 325.45 409.75 325.79 408.841L329.677 409.932C329.268 411.25 328.58 412.409 327.614 413.409C326.648 414.398 325.455 415.17 324.035 415.727C322.614 416.273 321.018 416.545 319.245 416.545ZM347.592 389.818V393.227H334.023V389.818H347.592ZM337.978 383.545H342.001V408.5C342.001 409.636 342.165 410.489 342.495 411.057C342.836 411.614 343.268 411.989 343.79 412.182C344.325 412.364 344.887 412.455 345.478 412.455C345.921 412.455 346.285 412.432 346.569 412.386C346.853 412.33 347.08 412.284 347.251 412.25L348.069 415.864C347.796 415.966 347.415 416.068 346.927 416.17C346.438 416.284 345.819 416.341 345.069 416.341C343.933 416.341 342.819 416.097 341.728 415.608C340.648 415.119 339.751 414.375 339.035 413.375C338.33 412.375 337.978 411.114 337.978 409.591V383.545ZM361.347 416.614C359.688 416.614 358.183 416.301 356.83 415.676C355.478 415.04 354.404 414.125 353.609 412.932C352.813 411.727 352.415 410.273 352.415 408.568C352.415 407.068 352.711 405.852 353.302 404.92C353.893 403.977 354.683 403.239 355.671 402.705C356.66 402.17 357.751 401.773 358.944 401.511C360.148 401.239 361.359 401.023 362.575 400.864C364.165 400.659 365.455 400.506 366.444 400.403C367.444 400.29 368.171 400.102 368.626 399.841C369.092 399.58 369.325 399.125 369.325 398.477V398.341C369.325 396.659 368.864 395.352 367.944 394.42C367.035 393.489 365.654 393.023 363.802 393.023C361.881 393.023 360.376 393.443 359.285 394.284C358.194 395.125 357.427 396.023 356.984 396.977L353.165 395.614C353.847 394.023 354.756 392.784 355.893 391.898C357.04 391 358.29 390.375 359.643 390.023C361.006 389.659 362.347 389.477 363.665 389.477C364.506 389.477 365.472 389.58 366.563 389.784C367.665 389.977 368.728 390.381 369.751 390.994C370.785 391.608 371.643 392.534 372.325 393.773C373.006 395.011 373.347 396.67 373.347 398.75V416H369.325V412.455H369.12C368.847 413.023 368.393 413.631 367.756 414.278C367.12 414.926 366.273 415.477 365.217 415.932C364.16 416.386 362.87 416.614 361.347 416.614ZM361.961 413C363.552 413 364.893 412.688 365.984 412.062C367.086 411.438 367.915 410.631 368.472 409.642C369.04 408.653 369.325 407.614 369.325 406.523V402.841C369.154 403.045 368.779 403.233 368.2 403.403C367.631 403.562 366.972 403.705 366.222 403.83C365.484 403.943 364.762 404.045 364.058 404.136C363.364 404.216 362.802 404.284 362.37 404.341C361.325 404.477 360.347 404.699 359.438 405.006C358.54 405.301 357.813 405.75 357.256 406.352C356.711 406.943 356.438 407.75 356.438 408.773C356.438 410.17 356.955 411.227 357.989 411.943C359.035 412.648 360.359 413 361.961 413ZM384.712 381.091V416H380.69V381.091H384.712ZM396.103 381.091V416H392.08V381.091H396.103ZM414.448 416.545C411.925 416.545 409.749 415.989 407.92 414.875C406.102 413.75 404.698 412.182 403.71 410.17C402.732 408.148 402.244 405.795 402.244 403.114C402.244 400.432 402.732 398.068 403.71 396.023C404.698 393.966 406.073 392.364 407.835 391.216C409.607 390.057 411.675 389.477 414.039 389.477C415.403 389.477 416.749 389.705 418.079 390.159C419.408 390.614 420.619 391.352 421.71 392.375C422.8 393.386 423.67 394.727 424.317 396.398C424.965 398.068 425.289 400.125 425.289 402.568V404.273H405.107V400.795H421.198C421.198 399.318 420.903 398 420.312 396.841C419.732 395.682 418.903 394.767 417.823 394.097C416.755 393.426 415.494 393.091 414.039 393.091C412.437 393.091 411.05 393.489 409.88 394.284C408.721 395.068 407.829 396.091 407.204 397.352C406.579 398.614 406.266 399.966 406.266 401.409V403.727C406.266 405.705 406.607 407.381 407.289 408.756C407.982 410.119 408.942 411.159 410.17 411.875C411.397 412.58 412.823 412.932 414.448 412.932C415.505 412.932 416.46 412.784 417.312 412.489C418.175 412.182 418.92 411.727 419.545 411.125C420.17 410.511 420.653 409.75 420.994 408.841L424.88 409.932C424.471 411.25 423.783 412.409 422.817 413.409C421.852 414.398 420.658 415.17 419.238 415.727C417.817 416.273 416.221 416.545 414.448 416.545ZM48.7358 439.091V474H44.7131V439.091H48.7358ZM66.7401 474.545C64.3764 474.545 62.3026 473.983 60.5185 472.858C58.7457 471.733 57.3594 470.159 56.3594 468.136C55.3707 466.114 54.8764 463.75 54.8764 461.045C54.8764 458.318 55.3707 455.937 56.3594 453.903C57.3594 451.869 58.7457 450.29 60.5185 449.165C62.3026 448.04 64.3764 447.477 66.7401 447.477C69.1037 447.477 71.1719 448.04 72.9446 449.165C74.7287 450.29 76.1151 451.869 77.1037 453.903C78.1037 455.937 78.6037 458.318 78.6037 461.045C78.6037 463.75 78.1037 466.114 77.1037 468.136C76.1151 470.159 74.7287 471.733 72.9446 472.858C71.1719 473.983 69.1037 474.545 66.7401 474.545ZM66.7401 470.932C68.5355 470.932 70.0128 470.472 71.1719 469.551C72.331 468.631 73.1889 467.42 73.7457 465.92C74.3026 464.42 74.581 462.795 74.581 461.045C74.581 459.295 74.3026 457.665 73.7457 456.153C73.1889 454.642 72.331 453.42 71.1719 452.489C70.0128 451.557 68.5355 451.091 66.7401 451.091C64.9446 451.091 63.4673 451.557 62.3082 452.489C61.1491 453.42 60.2912 454.642 59.7344 456.153C59.1776 457.665 58.8991 459.295 58.8991 461.045C58.8991 462.795 59.1776 464.42 59.7344 465.92C60.2912 467.42 61.1491 468.631 62.3082 469.551C63.4673 470.472 64.9446 470.932 66.7401 470.932ZM103.29 453.682L99.6761 454.705C99.4489 454.102 99.1136 453.517 98.6705 452.949C98.2386 452.369 97.6477 451.892 96.8977 451.517C96.1477 451.142 95.1875 450.955 94.017 450.955C92.4148 450.955 91.0795 451.324 90.0114 452.062C88.9545 452.79 88.4261 453.716 88.4261 454.841C88.4261 455.841 88.7898 456.631 89.517 457.21C90.2443 457.79 91.3807 458.273 92.9261 458.659L96.8125 459.614C99.1534 460.182 100.898 461.051 102.045 462.222C103.193 463.381 103.767 464.875 103.767 466.705C103.767 468.205 103.335 469.545 102.472 470.727C101.619 471.909 100.426 472.841 98.892 473.523C97.358 474.205 95.5739 474.545 93.5398 474.545C90.8693 474.545 88.6591 473.966 86.9091 472.807C85.1591 471.648 84.0511 469.955 83.5852 467.727L87.4034 466.773C87.767 468.182 88.4545 469.239 89.4659 469.943C90.4886 470.648 91.8239 471 93.4716 471C95.3466 471 96.8352 470.602 97.9375 469.807C99.0511 469 99.608 468.034 99.608 466.909C99.608 466 99.2898 465.239 98.6534 464.625C98.017 464 97.0398 463.534 95.7216 463.227L91.358 462.205C88.9602 461.636 87.1989 460.756 86.0739 459.562C84.9602 458.358 84.4034 456.852 84.4034 455.045C84.4034 453.568 84.8182 452.261 85.6477 451.125C86.4886 449.989 87.6307 449.097 89.0739 448.449C90.5284 447.801 92.1761 447.477 94.017 447.477C96.608 447.477 98.642 448.045 100.119 449.182C101.608 450.318 102.665 451.818 103.29 453.682ZM123.322 474V447.818H127.209V451.773H127.482C127.959 450.477 128.822 449.426 130.072 448.619C131.322 447.812 132.732 447.409 134.3 447.409C134.595 447.409 134.964 447.415 135.408 447.426C135.851 447.437 136.186 447.455 136.413 447.477V451.568C136.277 451.534 135.964 451.483 135.476 451.415C134.999 451.335 134.493 451.295 133.959 451.295C132.686 451.295 131.55 451.562 130.55 452.097C129.561 452.619 128.777 453.347 128.197 454.278C127.629 455.199 127.345 456.25 127.345 457.432V474H123.322ZM151.362 474.545C148.839 474.545 146.663 473.989 144.834 472.875C143.016 471.75 141.612 470.182 140.624 468.17C139.646 466.148 139.158 463.795 139.158 461.114C139.158 458.432 139.646 456.068 140.624 454.023C141.612 451.966 142.987 450.364 144.749 449.216C146.521 448.057 148.589 447.477 150.953 447.477C152.317 447.477 153.663 447.705 154.993 448.159C156.322 448.614 157.533 449.352 158.624 450.375C159.714 451.386 160.584 452.727 161.232 454.398C161.879 456.068 162.203 458.125 162.203 460.568V462.273H142.021V458.795H158.112C158.112 457.318 157.817 456 157.226 454.841C156.646 453.682 155.817 452.767 154.737 452.097C153.669 451.426 152.408 451.091 150.953 451.091C149.351 451.091 147.964 451.489 146.794 452.284C145.635 453.068 144.743 454.091 144.118 455.352C143.493 456.614 143.18 457.966 143.18 459.409V461.727C143.18 463.705 143.521 465.381 144.203 466.756C144.896 468.119 145.857 469.159 147.084 469.875C148.311 470.58 149.737 470.932 151.362 470.932C152.419 470.932 153.374 470.784 154.226 470.489C155.089 470.182 155.834 469.727 156.459 469.125C157.084 468.511 157.567 467.75 157.908 466.841L161.794 467.932C161.385 469.25 160.697 470.409 159.732 471.409C158.766 472.398 157.572 473.17 156.152 473.727C154.732 474.273 153.135 474.545 151.362 474.545ZM186.186 483.818V469.977H185.845C185.55 470.455 185.129 471.057 184.584 471.784C184.038 472.5 183.26 473.142 182.249 473.71C181.237 474.267 179.891 474.545 178.209 474.545C176.027 474.545 174.101 473.994 172.43 472.892C170.76 471.778 169.453 470.21 168.51 468.188C167.567 466.153 167.095 463.75 167.095 460.977C167.095 458.227 167.567 455.841 168.51 453.818C169.453 451.795 170.766 450.233 172.447 449.131C174.129 448.028 176.072 447.477 178.277 447.477C179.982 447.477 181.328 447.761 182.317 448.33C183.317 448.886 184.078 449.523 184.601 450.239C185.135 450.943 185.55 451.523 185.845 451.977H186.322V447.818H190.209V483.818H186.186ZM178.754 470.932C180.368 470.932 181.732 470.511 182.845 469.67C183.959 468.818 184.805 467.642 185.385 466.142C185.964 464.631 186.254 462.886 186.254 460.909C186.254 458.955 185.97 457.244 185.402 455.778C184.834 454.301 183.993 453.153 182.879 452.335C181.766 451.506 180.391 451.091 178.754 451.091C177.05 451.091 175.629 451.528 174.493 452.403C173.368 453.267 172.521 454.443 171.953 455.932C171.396 457.409 171.118 459.068 171.118 460.909C171.118 462.773 171.402 464.466 171.97 465.989C172.55 467.5 173.402 468.705 174.527 469.602C175.663 470.489 177.072 470.932 178.754 470.932ZM214.072 463.295V447.818H218.095V474H214.072V469.568H213.8C213.186 470.898 212.232 472.028 210.936 472.96C209.641 473.881 208.004 474.341 206.027 474.341C204.391 474.341 202.936 473.983 201.663 473.267C200.391 472.54 199.391 471.449 198.663 469.994C197.936 468.528 197.572 466.682 197.572 464.455V447.818H201.595V464.182C201.595 466.091 202.129 467.614 203.197 468.75C204.277 469.886 205.652 470.455 207.322 470.455C208.322 470.455 209.339 470.199 210.374 469.688C211.419 469.176 212.294 468.392 212.999 467.335C213.714 466.278 214.072 464.932 214.072 463.295ZM236.44 474.545C233.918 474.545 231.741 473.989 229.912 472.875C228.094 471.75 226.69 470.182 225.702 468.17C224.724 466.148 224.236 463.795 224.236 461.114C224.236 458.432 224.724 456.068 225.702 454.023C226.69 451.966 228.065 450.364 229.827 449.216C231.599 448.057 233.668 447.477 236.031 447.477C237.395 447.477 238.741 447.705 240.071 448.159C241.401 448.614 242.611 449.352 243.702 450.375C244.793 451.386 245.662 452.727 246.31 454.398C246.957 456.068 247.281 458.125 247.281 460.568V462.273H227.099V458.795H243.19C243.19 457.318 242.895 456 242.304 454.841C241.724 453.682 240.895 452.767 239.815 452.097C238.747 451.426 237.486 451.091 236.031 451.091C234.429 451.091 233.043 451.489 231.872 452.284C230.713 453.068 229.821 454.091 229.196 455.352C228.571 456.614 228.259 457.966 228.259 459.409V461.727C228.259 463.705 228.599 465.381 229.281 466.756C229.974 468.119 230.935 469.159 232.162 469.875C233.389 470.58 234.815 470.932 236.44 470.932C237.497 470.932 238.452 470.784 239.304 470.489C240.168 470.182 240.912 469.727 241.537 469.125C242.162 468.511 242.645 467.75 242.986 466.841L246.872 467.932C246.463 469.25 245.776 470.409 244.81 471.409C243.844 472.398 242.651 473.17 241.23 473.727C239.81 474.273 238.213 474.545 236.44 474.545ZM253.401 474V447.818H257.287V451.773H257.56C258.037 450.477 258.901 449.426 260.151 448.619C261.401 447.812 262.81 447.409 264.378 447.409C264.673 447.409 265.043 447.415 265.486 447.426C265.929 447.437 266.264 447.455 266.491 447.477V451.568C266.355 451.534 266.043 451.483 265.554 451.415C265.077 451.335 264.571 451.295 264.037 451.295C262.764 451.295 261.628 451.562 260.628 452.097C259.639 452.619 258.855 453.347 258.276 454.278C257.707 455.199 257.423 456.25 257.423 457.432V474H253.401ZM271.26 474V447.818H275.283V474H271.26ZM273.305 443.455C272.521 443.455 271.845 443.188 271.277 442.653C270.72 442.119 270.442 441.477 270.442 440.727C270.442 439.977 270.72 439.335 271.277 438.801C271.845 438.267 272.521 438 273.305 438C274.089 438 274.76 438.267 275.317 438.801C275.885 439.335 276.169 439.977 276.169 440.727C276.169 441.477 275.885 442.119 275.317 442.653C274.76 443.188 274.089 443.455 273.305 443.455ZM282.651 474V447.818H286.537V451.909H286.878C287.423 450.511 288.304 449.426 289.52 448.653C290.736 447.869 292.196 447.477 293.901 447.477C295.628 447.477 297.065 447.869 298.213 448.653C299.372 449.426 300.276 450.511 300.923 451.909H301.196C301.866 450.557 302.872 449.483 304.213 448.688C305.554 447.881 307.162 447.477 309.037 447.477C311.378 447.477 313.293 448.21 314.781 449.676C316.27 451.131 317.014 453.398 317.014 456.477V474H312.991V456.477C312.991 454.545 312.463 453.165 311.406 452.335C310.349 451.506 309.105 451.091 307.673 451.091C305.832 451.091 304.406 451.648 303.395 452.761C302.384 453.864 301.878 455.261 301.878 456.955V474H297.787V456.068C297.787 454.58 297.304 453.381 296.338 452.472C295.372 451.551 294.128 451.091 292.605 451.091C291.56 451.091 290.582 451.369 289.673 451.926C288.776 452.483 288.048 453.256 287.491 454.244C286.946 455.222 286.673 456.352 286.673 457.636V474H282.651ZM324.369 474V447.818H328.392V474H324.369ZM326.415 443.455C325.631 443.455 324.955 443.188 324.386 442.653C323.83 442.119 323.551 441.477 323.551 440.727C323.551 439.977 323.83 439.335 324.386 438.801C324.955 438.267 325.631 438 326.415 438C327.199 438 327.869 438.267 328.426 438.801C328.994 439.335 329.278 439.977 329.278 440.727C329.278 441.477 328.994 442.119 328.426 442.653C327.869 443.188 327.199 443.455 326.415 443.455ZM346.737 474.545C344.214 474.545 342.038 473.989 340.209 472.875C338.391 471.75 336.987 470.182 335.999 468.17C335.021 466.148 334.533 463.795 334.533 461.114C334.533 458.432 335.021 456.068 335.999 454.023C336.987 451.966 338.362 450.364 340.124 449.216C341.896 448.057 343.964 447.477 346.328 447.477C347.692 447.477 349.038 447.705 350.368 448.159C351.697 448.614 352.908 449.352 353.999 450.375C355.089 451.386 355.959 452.727 356.607 454.398C357.254 456.068 357.578 458.125 357.578 460.568V462.273H337.396V458.795H353.487C353.487 457.318 353.192 456 352.601 454.841C352.021 453.682 351.192 452.767 350.112 452.097C349.044 451.426 347.783 451.091 346.328 451.091C344.726 451.091 343.339 451.489 342.169 452.284C341.01 453.068 340.118 454.091 339.493 455.352C338.868 456.614 338.555 457.966 338.555 459.409V461.727C338.555 463.705 338.896 465.381 339.578 466.756C340.271 468.119 341.232 469.159 342.459 469.875C343.686 470.58 345.112 470.932 346.737 470.932C347.794 470.932 348.749 470.784 349.601 470.489C350.464 470.182 351.209 469.727 351.834 469.125C352.459 468.511 352.942 467.75 353.283 466.841L357.169 467.932C356.76 469.25 356.072 470.409 355.107 471.409C354.141 472.398 352.947 473.17 351.527 473.727C350.107 474.273 348.51 474.545 346.737 474.545ZM367.72 458.25V474H363.697V447.818H367.584V451.909H367.925C368.538 450.58 369.47 449.511 370.72 448.705C371.97 447.886 373.584 447.477 375.561 447.477C377.334 447.477 378.885 447.841 380.214 448.568C381.544 449.284 382.578 450.375 383.317 451.841C384.055 453.295 384.425 455.136 384.425 457.364V474H380.402V457.636C380.402 455.58 379.868 453.977 378.8 452.83C377.732 451.67 376.266 451.091 374.402 451.091C373.118 451.091 371.97 451.369 370.959 451.926C369.959 452.483 369.169 453.295 368.589 454.364C368.01 455.432 367.72 456.727 367.72 458.25ZM403.162 447.818V451.227H389.594V447.818H403.162ZM393.548 441.545H397.571V466.5C397.571 467.636 397.736 468.489 398.065 469.057C398.406 469.614 398.838 469.989 399.361 470.182C399.895 470.364 400.457 470.455 401.048 470.455C401.491 470.455 401.855 470.432 402.139 470.386C402.423 470.33 402.651 470.284 402.821 470.25L403.639 473.864C403.366 473.966 402.986 474.068 402.497 474.17C402.009 474.284 401.389 474.341 400.639 474.341C399.503 474.341 398.389 474.097 397.298 473.608C396.219 473.119 395.321 472.375 394.605 471.375C393.901 470.375 393.548 469.114 393.548 467.591V441.545ZM419.568 474.545C417.205 474.545 415.131 473.983 413.347 472.858C411.574 471.733 410.188 470.159 409.188 468.136C408.199 466.114 407.705 463.75 407.705 461.045C407.705 458.318 408.199 455.937 409.188 453.903C410.188 451.869 411.574 450.29 413.347 449.165C415.131 448.04 417.205 447.477 419.568 447.477C421.932 447.477 424 448.04 425.773 449.165C427.557 450.29 428.943 451.869 429.932 453.903C430.932 455.937 431.432 458.318 431.432 461.045C431.432 463.75 430.932 466.114 429.932 468.136C428.943 470.159 427.557 471.733 425.773 472.858C424 473.983 421.932 474.545 419.568 474.545ZM419.568 470.932C421.364 470.932 422.841 470.472 424 469.551C425.159 468.631 426.017 467.42 426.574 465.92C427.131 464.42 427.409 462.795 427.409 461.045C427.409 459.295 427.131 457.665 426.574 456.153C426.017 454.642 425.159 453.42 424 452.489C422.841 451.557 421.364 451.091 419.568 451.091C417.773 451.091 416.295 451.557 415.136 452.489C413.977 453.42 413.119 454.642 412.562 456.153C412.006 457.665 411.727 459.295 411.727 461.045C411.727 462.795 412.006 464.42 412.562 465.92C413.119 467.42 413.977 468.631 415.136 469.551C416.295 470.472 417.773 470.932 419.568 470.932ZM456.118 453.682L452.504 454.705C452.277 454.102 451.942 453.517 451.499 452.949C451.067 452.369 450.476 451.892 449.726 451.517C448.976 451.142 448.016 450.955 446.845 450.955C445.243 450.955 443.908 451.324 442.839 452.062C441.783 452.79 441.254 453.716 441.254 454.841C441.254 455.841 441.618 456.631 442.345 457.21C443.072 457.79 444.209 458.273 445.754 458.659L449.641 459.614C451.982 460.182 453.726 461.051 454.874 462.222C456.021 463.381 456.595 464.875 456.595 466.705C456.595 468.205 456.163 469.545 455.3 470.727C454.447 471.909 453.254 472.841 451.72 473.523C450.186 474.205 448.402 474.545 446.368 474.545C443.697 474.545 441.487 473.966 439.737 472.807C437.987 471.648 436.879 469.955 436.413 467.727L440.232 466.773C440.595 468.182 441.283 469.239 442.294 469.943C443.317 470.648 444.652 471 446.3 471C448.175 471 449.663 470.602 450.766 469.807C451.879 469 452.436 468.034 452.436 466.909C452.436 466 452.118 465.239 451.482 464.625C450.845 464 449.868 463.534 448.55 463.227L444.186 462.205C441.788 461.636 440.027 460.756 438.902 459.562C437.788 458.358 437.232 456.852 437.232 455.045C437.232 453.568 437.646 452.261 438.476 451.125C439.317 449.989 440.459 449.097 441.902 448.449C443.357 447.801 445.004 447.477 446.845 447.477C449.436 447.477 451.47 448.045 452.947 449.182C454.436 450.318 455.493 451.818 456.118 453.682ZM148.601 541.818C147.919 541.818 147.311 541.761 146.777 541.648C146.243 541.545 145.874 541.443 145.669 541.341L146.692 537.795C147.669 538.045 148.533 538.136 149.283 538.068C150.033 538 150.697 537.665 151.277 537.062C151.868 536.472 152.408 535.511 152.896 534.182L153.646 532.136L143.964 505.818H148.328L155.555 526.682H155.828L163.055 505.818H167.419L156.305 535.818C155.805 537.17 155.186 538.29 154.447 539.176C153.709 540.074 152.851 540.739 151.874 541.17C150.908 541.602 149.817 541.818 148.601 541.818ZM193.933 532.614C192.274 532.614 190.768 532.301 189.416 531.676C188.064 531.04 186.99 530.125 186.195 528.932C185.399 527.727 185.001 526.273 185.001 524.568C185.001 523.068 185.297 521.852 185.888 520.92C186.479 519.977 187.268 519.239 188.257 518.705C189.246 518.17 190.337 517.773 191.53 517.511C192.734 517.239 193.945 517.023 195.161 516.864C196.751 516.659 198.041 516.506 199.03 516.403C200.03 516.29 200.757 516.102 201.212 515.841C201.678 515.58 201.911 515.125 201.911 514.477V514.341C201.911 512.659 201.45 511.352 200.53 510.42C199.621 509.489 198.24 509.023 196.388 509.023C194.467 509.023 192.962 509.443 191.871 510.284C190.78 511.125 190.013 512.023 189.57 512.977L185.751 511.614C186.433 510.023 187.342 508.784 188.479 507.898C189.626 507 190.876 506.375 192.229 506.023C193.592 505.659 194.933 505.477 196.251 505.477C197.092 505.477 198.058 505.58 199.149 505.784C200.251 505.977 201.314 506.381 202.337 506.994C203.371 507.608 204.229 508.534 204.911 509.773C205.592 511.011 205.933 512.67 205.933 514.75V532H201.911V528.455H201.706C201.433 529.023 200.979 529.631 200.342 530.278C199.706 530.926 198.859 531.477 197.803 531.932C196.746 532.386 195.456 532.614 193.933 532.614ZM194.547 529C196.138 529 197.479 528.688 198.57 528.062C199.672 527.438 200.501 526.631 201.058 525.642C201.626 524.653 201.911 523.614 201.911 522.523V518.841C201.74 519.045 201.365 519.233 200.786 519.403C200.217 519.562 199.558 519.705 198.808 519.83C198.07 519.943 197.348 520.045 196.643 520.136C195.95 520.216 195.388 520.284 194.956 520.341C193.911 520.477 192.933 520.699 192.024 521.006C191.126 521.301 190.399 521.75 189.842 522.352C189.297 522.943 189.024 523.75 189.024 524.773C189.024 526.17 189.541 527.227 190.575 527.943C191.621 528.648 192.945 529 194.547 529ZM217.298 497.091V532H213.276V497.091H217.298ZM235.303 532.545C232.848 532.545 230.734 531.966 228.962 530.807C227.189 529.648 225.825 528.051 224.871 526.017C223.916 523.983 223.439 521.659 223.439 519.045C223.439 516.386 223.928 514.04 224.905 512.006C225.893 509.96 227.268 508.364 229.03 507.216C230.803 506.057 232.871 505.477 235.234 505.477C237.075 505.477 238.734 505.818 240.212 506.5C241.689 507.182 242.899 508.136 243.842 509.364C244.786 510.591 245.371 512.023 245.598 513.659H241.575C241.268 512.466 240.587 511.409 239.53 510.489C238.484 509.557 237.075 509.091 235.303 509.091C233.734 509.091 232.359 509.5 231.178 510.318C230.007 511.125 229.092 512.267 228.433 513.744C227.786 515.21 227.462 516.932 227.462 518.909C227.462 520.932 227.78 522.693 228.416 524.193C229.064 525.693 229.973 526.858 231.143 527.688C232.325 528.517 233.712 528.932 235.303 528.932C236.348 528.932 237.297 528.75 238.149 528.386C239.001 528.023 239.723 527.5 240.314 526.818C240.905 526.136 241.325 525.318 241.575 524.364H245.598C245.371 525.909 244.808 527.301 243.911 528.54C243.024 529.767 241.848 530.744 240.382 531.472C238.928 532.188 237.234 532.545 235.303 532.545ZM259.183 532.614C257.524 532.614 256.018 532.301 254.666 531.676C253.314 531.04 252.24 530.125 251.445 528.932C250.649 527.727 250.251 526.273 250.251 524.568C250.251 523.068 250.547 521.852 251.138 520.92C251.729 519.977 252.518 519.239 253.507 518.705C254.496 518.17 255.587 517.773 256.78 517.511C257.984 517.239 259.195 517.023 260.411 516.864C262.001 516.659 263.291 516.506 264.28 516.403C265.28 516.29 266.007 516.102 266.462 515.841C266.928 515.58 267.161 515.125 267.161 514.477V514.341C267.161 512.659 266.7 511.352 265.78 510.42C264.871 509.489 263.49 509.023 261.638 509.023C259.717 509.023 258.212 509.443 257.121 510.284C256.03 511.125 255.263 512.023 254.82 512.977L251.001 511.614C251.683 510.023 252.592 508.784 253.729 507.898C254.876 507 256.126 506.375 257.479 506.023C258.842 505.659 260.183 505.477 261.501 505.477C262.342 505.477 263.308 505.58 264.399 505.784C265.501 505.977 266.564 506.381 267.587 506.994C268.621 507.608 269.479 508.534 270.161 509.773C270.842 511.011 271.183 512.67 271.183 514.75V532H267.161V528.455H266.956C266.683 529.023 266.229 529.631 265.592 530.278C264.956 530.926 264.109 531.477 263.053 531.932C261.996 532.386 260.706 532.614 259.183 532.614ZM259.797 529C261.388 529 262.729 528.688 263.82 528.062C264.922 527.438 265.751 526.631 266.308 525.642C266.876 524.653 267.161 523.614 267.161 522.523V518.841C266.99 519.045 266.615 519.233 266.036 519.403C265.467 519.562 264.808 519.705 264.058 519.83C263.32 519.943 262.598 520.045 261.893 520.136C261.2 520.216 260.638 520.284 260.206 520.341C259.161 520.477 258.183 520.699 257.274 521.006C256.376 521.301 255.649 521.75 255.092 522.352C254.547 522.943 254.274 523.75 254.274 524.773C254.274 526.17 254.791 527.227 255.825 527.943C256.871 528.648 258.195 529 259.797 529ZM282.548 516.25V532H278.526V505.818H282.412V509.909H282.753C283.366 508.58 284.298 507.511 285.548 506.705C286.798 505.886 288.412 505.477 290.389 505.477C292.162 505.477 293.713 505.841 295.043 506.568C296.372 507.284 297.406 508.375 298.145 509.841C298.884 511.295 299.253 513.136 299.253 515.364V532H295.23V515.636C295.23 513.58 294.696 511.977 293.628 510.83C292.56 509.67 291.094 509.091 289.23 509.091C287.946 509.091 286.798 509.369 285.787 509.926C284.787 510.483 283.997 511.295 283.418 512.364C282.838 513.432 282.548 514.727 282.548 516.25ZM317.24 532.545C314.786 532.545 312.672 531.966 310.899 530.807C309.126 529.648 307.763 528.051 306.808 526.017C305.854 523.983 305.376 521.659 305.376 519.045C305.376 516.386 305.865 514.04 306.842 512.006C307.831 509.96 309.206 508.364 310.967 507.216C312.74 506.057 314.808 505.477 317.172 505.477C319.013 505.477 320.672 505.818 322.149 506.5C323.626 507.182 324.837 508.136 325.78 509.364C326.723 510.591 327.308 512.023 327.536 513.659H323.513C323.206 512.466 322.524 511.409 321.467 510.489C320.422 509.557 319.013 509.091 317.24 509.091C315.672 509.091 314.297 509.5 313.115 510.318C311.945 511.125 311.03 512.267 310.371 513.744C309.723 515.21 309.399 516.932 309.399 518.909C309.399 520.932 309.717 522.693 310.354 524.193C311.001 525.693 311.911 526.858 313.081 527.688C314.263 528.517 315.649 528.932 317.24 528.932C318.286 528.932 319.234 528.75 320.087 528.386C320.939 528.023 321.661 527.5 322.251 526.818C322.842 526.136 323.263 525.318 323.513 524.364H327.536C327.308 525.909 326.746 527.301 325.848 528.54C324.962 529.767 323.786 530.744 322.32 531.472C320.865 532.188 319.172 532.545 317.24 532.545ZM344.393 532.545C341.871 532.545 339.695 531.989 337.865 530.875C336.047 529.75 334.643 528.182 333.655 526.17C332.678 524.148 332.189 521.795 332.189 519.114C332.189 516.432 332.678 514.068 333.655 512.023C334.643 509.966 336.018 508.364 337.78 507.216C339.553 506.057 341.621 505.477 343.984 505.477C345.348 505.477 346.695 505.705 348.024 506.159C349.354 506.614 350.564 507.352 351.655 508.375C352.746 509.386 353.615 510.727 354.263 512.398C354.911 514.068 355.234 516.125 355.234 518.568V520.273H335.053V516.795H351.143C351.143 515.318 350.848 514 350.257 512.841C349.678 511.682 348.848 510.767 347.768 510.097C346.7 509.426 345.439 509.091 343.984 509.091C342.382 509.091 340.996 509.489 339.825 510.284C338.666 511.068 337.774 512.091 337.149 513.352C336.524 514.614 336.212 515.966 336.212 517.409V519.727C336.212 521.705 336.553 523.381 337.234 524.756C337.928 526.119 338.888 527.159 340.115 527.875C341.342 528.58 342.768 528.932 344.393 528.932C345.45 528.932 346.405 528.784 347.257 528.489C348.121 528.182 348.865 527.727 349.49 527.125C350.115 526.511 350.598 525.75 350.939 524.841L354.825 525.932C354.416 527.25 353.729 528.409 352.763 529.409C351.797 530.398 350.604 531.17 349.183 531.727C347.763 532.273 346.166 532.545 344.393 532.545Z" fill="#131313"/>
</svg>
