<svg width="500" height="1500" viewBox="0 0 500 1500" fill="none" xmlns="http://www.w3.org/2000/svg">
<circle cx="250" cy="1011" r="25" fill="#131313"/>
<rect x="241" y="803" width="18" height="192" fill="#131313"/>
<rect x="125" y="560" width="250" height="250" rx="125" fill="#131313"/>
<path d="M227.028 721.5V715.108L251.034 688.83C253.851 685.752 256.171 683.077 257.994 680.804C259.817 678.508 261.167 676.353 262.043 674.341C262.942 672.305 263.392 670.174 263.392 667.949C263.392 665.392 262.777 663.179 261.545 661.308C260.338 659.438 258.681 657.994 256.574 656.976C254.467 655.958 252.099 655.449 249.472 655.449C246.678 655.449 244.24 656.029 242.156 657.189C240.097 658.325 238.499 659.923 237.362 661.983C236.25 664.043 235.693 666.457 235.693 669.227H227.312C227.312 664.966 228.295 661.225 230.26 658.006C232.225 654.786 234.9 652.277 238.286 650.477C241.695 648.678 245.518 647.778 249.756 647.778C254.017 647.778 257.793 648.678 261.084 650.477C264.375 652.277 266.955 654.703 268.825 657.757C270.696 660.811 271.631 664.208 271.631 667.949C271.631 670.624 271.145 673.24 270.175 675.797C269.228 678.33 267.571 681.159 265.203 684.284C262.859 687.385 259.604 691.173 255.438 695.648L239.102 713.119V713.688H272.909V721.5H227.028Z" fill="white"/>
<path d="M134.227 1132V1097.09H155.295V1100.84H138.455V1112.64H154.205V1116.39H138.455V1128.25H155.568V1132H134.227ZM180.915 1111.68L177.301 1112.7C177.074 1112.1 176.739 1111.52 176.295 1110.95C175.864 1110.37 175.273 1109.89 174.523 1109.52C173.773 1109.14 172.812 1108.95 171.642 1108.95C170.04 1108.95 168.705 1109.32 167.636 1110.06C166.58 1110.79 166.051 1111.72 166.051 1112.84C166.051 1113.84 166.415 1114.63 167.142 1115.21C167.869 1115.79 169.006 1116.27 170.551 1116.66L174.438 1117.61C176.778 1118.18 178.523 1119.05 179.67 1120.22C180.818 1121.38 181.392 1122.87 181.392 1124.7C181.392 1126.2 180.96 1127.55 180.097 1128.73C179.244 1129.91 178.051 1130.84 176.517 1131.52C174.983 1132.2 173.199 1132.55 171.165 1132.55C168.494 1132.55 166.284 1131.97 164.534 1130.81C162.784 1129.65 161.676 1127.95 161.21 1125.73L165.028 1124.77C165.392 1126.18 166.08 1127.24 167.091 1127.94C168.114 1128.65 169.449 1129 171.097 1129C172.972 1129 174.46 1128.6 175.562 1127.81C176.676 1127 177.233 1126.03 177.233 1124.91C177.233 1124 176.915 1123.24 176.278 1122.62C175.642 1122 174.665 1121.53 173.347 1121.23L168.983 1120.2C166.585 1119.64 164.824 1118.76 163.699 1117.56C162.585 1116.36 162.028 1114.85 162.028 1113.05C162.028 1111.57 162.443 1110.26 163.273 1109.12C164.114 1107.99 165.256 1107.1 166.699 1106.45C168.153 1105.8 169.801 1105.48 171.642 1105.48C174.233 1105.48 176.267 1106.05 177.744 1107.18C179.233 1108.32 180.29 1109.82 180.915 1111.68ZM198.834 1105.82V1109.23H185.266V1105.82H198.834ZM189.22 1099.55H193.243V1124.5C193.243 1125.64 193.408 1126.49 193.737 1127.06C194.078 1127.61 194.51 1127.99 195.033 1128.18C195.567 1128.36 196.129 1128.45 196.72 1128.45C197.163 1128.45 197.527 1128.43 197.811 1128.39C198.095 1128.33 198.322 1128.28 198.493 1128.25L199.311 1131.86C199.038 1131.97 198.658 1132.07 198.169 1132.17C197.68 1132.28 197.061 1132.34 196.311 1132.34C195.175 1132.34 194.061 1132.1 192.97 1131.61C191.891 1131.12 190.993 1130.38 190.277 1129.38C189.572 1128.38 189.22 1127.11 189.22 1125.59V1099.55ZM212.589 1132.61C210.93 1132.61 209.425 1132.3 208.072 1131.68C206.72 1131.04 205.646 1130.12 204.851 1128.93C204.055 1127.73 203.658 1126.27 203.658 1124.57C203.658 1123.07 203.953 1121.85 204.544 1120.92C205.135 1119.98 205.925 1119.24 206.913 1118.7C207.902 1118.17 208.993 1117.77 210.186 1117.51C211.391 1117.24 212.601 1117.02 213.817 1116.86C215.408 1116.66 216.697 1116.51 217.686 1116.4C218.686 1116.29 219.413 1116.1 219.868 1115.84C220.334 1115.58 220.567 1115.12 220.567 1114.48V1114.34C220.567 1112.66 220.107 1111.35 219.186 1110.42C218.277 1109.49 216.896 1109.02 215.044 1109.02C213.124 1109.02 211.618 1109.44 210.527 1110.28C209.436 1111.12 208.669 1112.02 208.226 1112.98L204.408 1111.61C205.089 1110.02 205.999 1108.78 207.135 1107.9C208.283 1107 209.533 1106.37 210.885 1106.02C212.249 1105.66 213.589 1105.48 214.908 1105.48C215.749 1105.48 216.714 1105.58 217.805 1105.78C218.908 1105.98 219.97 1106.38 220.993 1106.99C222.027 1107.61 222.885 1108.53 223.567 1109.77C224.249 1111.01 224.589 1112.67 224.589 1114.75V1132H220.567V1128.45H220.362C220.089 1129.02 219.635 1129.63 218.999 1130.28C218.362 1130.93 217.516 1131.48 216.459 1131.93C215.402 1132.39 214.112 1132.61 212.589 1132.61ZM213.203 1129C214.794 1129 216.135 1128.69 217.226 1128.06C218.328 1127.44 219.158 1126.63 219.714 1125.64C220.283 1124.65 220.567 1123.61 220.567 1122.52V1118.84C220.396 1119.05 220.021 1119.23 219.442 1119.4C218.874 1119.56 218.214 1119.7 217.464 1119.83C216.726 1119.94 216.004 1120.05 215.3 1120.14C214.607 1120.22 214.044 1120.28 213.612 1120.34C212.567 1120.48 211.589 1120.7 210.68 1121.01C209.783 1121.3 209.055 1121.75 208.499 1122.35C207.953 1122.94 207.68 1123.75 207.68 1124.77C207.68 1126.17 208.197 1127.23 209.232 1127.94C210.277 1128.65 211.601 1129 213.203 1129ZM232.477 1132V1097.09H236.5V1109.98H236.841C237.136 1109.52 237.545 1108.94 238.068 1108.24C238.602 1107.52 239.364 1106.89 240.352 1106.33C241.352 1105.76 242.705 1105.48 244.409 1105.48C246.614 1105.48 248.557 1106.03 250.239 1107.13C251.92 1108.23 253.233 1109.8 254.176 1111.82C255.119 1113.84 255.591 1116.23 255.591 1118.98C255.591 1121.75 255.119 1124.15 254.176 1126.19C253.233 1128.21 251.926 1129.78 250.256 1130.89C248.585 1131.99 246.659 1132.55 244.477 1132.55C242.795 1132.55 241.449 1132.27 240.438 1131.71C239.426 1131.14 238.648 1130.5 238.102 1129.78C237.557 1129.06 237.136 1128.45 236.841 1127.98H236.364V1132H232.477ZM236.432 1118.91C236.432 1120.89 236.722 1122.63 237.301 1124.14C237.881 1125.64 238.727 1126.82 239.841 1127.67C240.955 1128.51 242.318 1128.93 243.932 1128.93C245.614 1128.93 247.017 1128.49 248.142 1127.6C249.278 1126.7 250.131 1125.5 250.699 1123.99C251.278 1122.47 251.568 1120.77 251.568 1118.91C251.568 1117.07 251.284 1115.41 250.716 1113.93C250.159 1112.44 249.313 1111.27 248.176 1110.4C247.051 1109.53 245.636 1109.09 243.932 1109.09C242.295 1109.09 240.92 1109.51 239.807 1110.34C238.693 1111.15 237.852 1112.3 237.284 1113.78C236.716 1115.24 236.432 1116.95 236.432 1118.91ZM265.767 1097.09V1132H261.744V1097.09H265.767ZM284.112 1132.55C281.589 1132.55 279.413 1131.99 277.584 1130.88C275.766 1129.75 274.362 1128.18 273.374 1126.17C272.396 1124.15 271.908 1121.8 271.908 1119.11C271.908 1116.43 272.396 1114.07 273.374 1112.02C274.362 1109.97 275.737 1108.36 277.499 1107.22C279.271 1106.06 281.339 1105.48 283.703 1105.48C285.067 1105.48 286.413 1105.7 287.743 1106.16C289.072 1106.61 290.283 1107.35 291.374 1108.38C292.464 1109.39 293.334 1110.73 293.982 1112.4C294.629 1114.07 294.953 1116.12 294.953 1118.57V1120.27H274.771V1116.8H290.862C290.862 1115.32 290.567 1114 289.976 1112.84C289.396 1111.68 288.567 1110.77 287.487 1110.1C286.419 1109.43 285.158 1109.09 283.703 1109.09C282.101 1109.09 280.714 1109.49 279.544 1110.28C278.385 1111.07 277.493 1112.09 276.868 1113.35C276.243 1114.61 275.93 1115.97 275.93 1117.41V1119.73C275.93 1121.7 276.271 1123.38 276.953 1124.76C277.646 1126.12 278.607 1127.16 279.834 1127.88C281.061 1128.58 282.487 1128.93 284.112 1128.93C285.169 1128.93 286.124 1128.78 286.976 1128.49C287.839 1128.18 288.584 1127.73 289.209 1127.12C289.834 1126.51 290.317 1125.75 290.658 1124.84L294.544 1125.93C294.135 1127.25 293.447 1128.41 292.482 1129.41C291.516 1130.4 290.322 1131.17 288.902 1131.73C287.482 1132.27 285.885 1132.55 284.112 1132.55ZM311.709 1132.55C309.254 1132.55 307.141 1131.97 305.368 1130.81C303.595 1129.65 302.232 1128.05 301.277 1126.02C300.322 1123.98 299.845 1121.66 299.845 1119.05C299.845 1116.39 300.334 1114.04 301.311 1112.01C302.3 1109.96 303.675 1108.36 305.436 1107.22C307.209 1106.06 309.277 1105.48 311.641 1105.48C313.482 1105.48 315.141 1105.82 316.618 1106.5C318.095 1107.18 319.305 1108.14 320.249 1109.36C321.192 1110.59 321.777 1112.02 322.004 1113.66H317.982C317.675 1112.47 316.993 1111.41 315.936 1110.49C314.891 1109.56 313.482 1109.09 311.709 1109.09C310.141 1109.09 308.766 1109.5 307.584 1110.32C306.413 1111.12 305.499 1112.27 304.839 1113.74C304.192 1115.21 303.868 1116.93 303.868 1118.91C303.868 1120.93 304.186 1122.69 304.822 1124.19C305.47 1125.69 306.379 1126.86 307.55 1127.69C308.732 1128.52 310.118 1128.93 311.709 1128.93C312.754 1128.93 313.703 1128.75 314.555 1128.39C315.408 1128.02 316.129 1127.5 316.72 1126.82C317.311 1126.14 317.732 1125.32 317.982 1124.36H322.004C321.777 1125.91 321.214 1127.3 320.317 1128.54C319.43 1129.77 318.254 1130.74 316.788 1131.47C315.334 1132.19 313.641 1132.55 311.709 1132.55ZM338.862 1132.55C336.339 1132.55 334.163 1131.99 332.334 1130.88C330.516 1129.75 329.112 1128.18 328.124 1126.17C327.146 1124.15 326.658 1121.8 326.658 1119.11C326.658 1116.43 327.146 1114.07 328.124 1112.02C329.112 1109.97 330.487 1108.36 332.249 1107.22C334.021 1106.06 336.089 1105.48 338.453 1105.48C339.817 1105.48 341.163 1105.7 342.493 1106.16C343.822 1106.61 345.033 1107.35 346.124 1108.38C347.214 1109.39 348.084 1110.73 348.732 1112.4C349.379 1114.07 349.703 1116.12 349.703 1118.57V1120.27H329.521V1116.8H345.612C345.612 1115.32 345.317 1114 344.726 1112.84C344.146 1111.68 343.317 1110.77 342.237 1110.1C341.169 1109.43 339.908 1109.09 338.453 1109.09C336.851 1109.09 335.464 1109.49 334.294 1110.28C333.135 1111.07 332.243 1112.09 331.618 1113.35C330.993 1114.61 330.68 1115.97 330.68 1117.41V1119.73C330.68 1121.7 331.021 1123.38 331.703 1124.76C332.396 1126.12 333.357 1127.16 334.584 1127.88C335.811 1128.58 337.237 1128.93 338.862 1128.93C339.919 1128.93 340.874 1128.78 341.726 1128.49C342.589 1128.18 343.334 1127.73 343.959 1127.12C344.584 1126.51 345.067 1125.75 345.408 1124.84L349.294 1125.93C348.885 1127.25 348.197 1128.41 347.232 1129.41C346.266 1130.4 345.072 1131.17 343.652 1131.73C342.232 1132.27 340.635 1132.55 338.862 1132.55ZM355.822 1132V1105.82H359.709V1109.77H359.982C360.459 1108.48 361.322 1107.43 362.572 1106.62C363.822 1105.81 365.232 1105.41 366.8 1105.41C367.095 1105.41 367.464 1105.41 367.908 1105.43C368.351 1105.44 368.686 1105.45 368.913 1105.48V1109.57C368.777 1109.53 368.464 1109.48 367.976 1109.41C367.499 1109.34 366.993 1109.3 366.459 1109.3C365.186 1109.3 364.05 1109.56 363.05 1110.1C362.061 1110.62 361.277 1111.35 360.697 1112.28C360.129 1113.2 359.845 1114.25 359.845 1115.43V1132H355.822ZM91.9865 1199.82V1163.82H95.8729V1167.98H96.3501C96.6456 1167.52 97.0547 1166.94 97.5774 1166.24C98.1115 1165.52 98.8729 1164.89 99.8615 1164.33C100.862 1163.76 102.214 1163.48 103.918 1163.48C106.123 1163.48 108.066 1164.03 109.748 1165.13C111.43 1166.23 112.742 1167.8 113.685 1169.82C114.629 1171.84 115.1 1174.23 115.1 1176.98C115.1 1179.75 114.629 1182.15 113.685 1184.19C112.742 1186.21 111.435 1187.78 109.765 1188.89C108.094 1189.99 106.168 1190.55 103.987 1190.55C102.305 1190.55 100.958 1190.27 99.9467 1189.71C98.9354 1189.14 98.157 1188.5 97.6115 1187.78C97.0661 1187.06 96.6456 1186.45 96.3501 1185.98H96.0092V1199.82H91.9865ZM95.9411 1176.91C95.9411 1178.89 96.2308 1180.63 96.8104 1182.14C97.3899 1183.64 98.2365 1184.82 99.3501 1185.67C100.464 1186.51 101.827 1186.93 103.441 1186.93C105.123 1186.93 106.526 1186.49 107.651 1185.6C108.788 1184.7 109.64 1183.5 110.208 1181.99C110.788 1180.47 111.077 1178.77 111.077 1176.91C111.077 1175.07 110.793 1173.41 110.225 1171.93C109.668 1170.44 108.822 1169.27 107.685 1168.4C106.56 1167.53 105.146 1167.09 103.441 1167.09C101.805 1167.09 100.43 1167.51 99.3161 1168.34C98.2024 1169.15 97.3615 1170.3 96.7933 1171.78C96.2251 1173.24 95.9411 1174.95 95.9411 1176.91ZM121.237 1190V1163.82H125.123V1167.77H125.396C125.873 1166.48 126.737 1165.43 127.987 1164.62C129.237 1163.81 130.646 1163.41 132.214 1163.41C132.509 1163.41 132.879 1163.41 133.322 1163.43C133.765 1163.44 134.1 1163.45 134.327 1163.48V1167.57C134.191 1167.53 133.879 1167.48 133.39 1167.41C132.913 1167.34 132.407 1167.3 131.873 1167.3C130.6 1167.3 129.464 1167.56 128.464 1168.1C127.475 1168.62 126.691 1169.35 126.112 1170.28C125.543 1171.2 125.259 1172.25 125.259 1173.43V1190H121.237ZM149.276 1190.55C146.754 1190.55 144.577 1189.99 142.748 1188.88C140.93 1187.75 139.526 1186.18 138.538 1184.17C137.56 1182.15 137.072 1179.8 137.072 1177.11C137.072 1174.43 137.56 1172.07 138.538 1170.02C139.526 1167.97 140.901 1166.36 142.663 1165.22C144.435 1164.06 146.504 1163.48 148.867 1163.48C150.231 1163.48 151.577 1163.7 152.907 1164.16C154.237 1164.61 155.447 1165.35 156.538 1166.38C157.629 1167.39 158.498 1168.73 159.146 1170.4C159.793 1172.07 160.117 1174.12 160.117 1176.57V1178.27H139.935V1174.8H156.026C156.026 1173.32 155.731 1172 155.14 1170.84C154.56 1169.68 153.731 1168.77 152.651 1168.1C151.583 1167.43 150.322 1167.09 148.867 1167.09C147.265 1167.09 145.879 1167.49 144.708 1168.28C143.549 1169.07 142.657 1170.09 142.032 1171.35C141.407 1172.61 141.094 1173.97 141.094 1175.41V1177.73C141.094 1179.7 141.435 1181.38 142.117 1182.76C142.81 1184.12 143.771 1185.16 144.998 1185.88C146.225 1186.58 147.651 1186.93 149.276 1186.93C150.333 1186.93 151.288 1186.78 152.14 1186.49C153.004 1186.18 153.748 1185.73 154.373 1185.12C154.998 1184.51 155.481 1183.75 155.822 1182.84L159.708 1183.93C159.299 1185.25 158.612 1186.41 157.646 1187.41C156.68 1188.4 155.487 1189.17 154.066 1189.73C152.646 1190.27 151.049 1190.55 149.276 1190.55ZM184.782 1169.68L181.168 1170.7C180.941 1170.1 180.606 1169.52 180.163 1168.95C179.731 1168.37 179.14 1167.89 178.39 1167.52C177.64 1167.14 176.68 1166.95 175.509 1166.95C173.907 1166.95 172.572 1167.32 171.504 1168.06C170.447 1168.79 169.918 1169.72 169.918 1170.84C169.918 1171.84 170.282 1172.63 171.009 1173.21C171.737 1173.79 172.873 1174.27 174.418 1174.66L178.305 1175.61C180.646 1176.18 182.39 1177.05 183.538 1178.22C184.685 1179.38 185.259 1180.87 185.259 1182.7C185.259 1184.2 184.827 1185.55 183.964 1186.73C183.112 1187.91 181.918 1188.84 180.384 1189.52C178.85 1190.2 177.066 1190.55 175.032 1190.55C172.362 1190.55 170.151 1189.97 168.401 1188.81C166.651 1187.65 165.543 1185.95 165.077 1183.73L168.896 1182.77C169.259 1184.18 169.947 1185.24 170.958 1185.94C171.981 1186.65 173.316 1187 174.964 1187C176.839 1187 178.327 1186.6 179.43 1185.81C180.543 1185 181.1 1184.03 181.1 1182.91C181.1 1182 180.782 1181.24 180.146 1180.62C179.509 1180 178.532 1179.53 177.214 1179.23L172.85 1178.2C170.452 1177.64 168.691 1176.76 167.566 1175.56C166.452 1174.36 165.896 1172.85 165.896 1171.05C165.896 1169.57 166.31 1168.26 167.14 1167.12C167.981 1165.99 169.123 1165.1 170.566 1164.45C172.021 1163.8 173.668 1163.48 175.509 1163.48C178.1 1163.48 180.134 1164.05 181.612 1165.18C183.1 1166.32 184.157 1167.82 184.782 1169.68ZM207.815 1179.3V1163.82H211.837V1190H207.815V1185.57H207.542C206.928 1186.9 205.974 1188.03 204.678 1188.96C203.383 1189.88 201.746 1190.34 199.769 1190.34C198.133 1190.34 196.678 1189.98 195.406 1189.27C194.133 1188.54 193.133 1187.45 192.406 1185.99C191.678 1184.53 191.315 1182.68 191.315 1180.45V1163.82H195.337V1180.18C195.337 1182.09 195.871 1183.61 196.94 1184.75C198.019 1185.89 199.394 1186.45 201.065 1186.45C202.065 1186.45 203.082 1186.2 204.116 1185.69C205.161 1185.18 206.036 1184.39 206.741 1183.34C207.457 1182.28 207.815 1180.93 207.815 1179.3ZM219.205 1199.82V1163.82H223.092V1167.98H223.569C223.864 1167.52 224.273 1166.94 224.796 1166.24C225.33 1165.52 226.092 1164.89 227.08 1164.33C228.08 1163.76 229.433 1163.48 231.137 1163.48C233.342 1163.48 235.285 1164.03 236.967 1165.13C238.648 1166.23 239.961 1167.8 240.904 1169.82C241.847 1171.84 242.319 1174.23 242.319 1176.98C242.319 1179.75 241.847 1182.15 240.904 1184.19C239.961 1186.21 238.654 1187.78 236.984 1188.89C235.313 1189.99 233.387 1190.55 231.205 1190.55C229.523 1190.55 228.177 1190.27 227.165 1189.71C226.154 1189.14 225.376 1188.5 224.83 1187.78C224.285 1187.06 223.864 1186.45 223.569 1185.98H223.228V1199.82H219.205ZM223.16 1176.91C223.16 1178.89 223.45 1180.63 224.029 1182.14C224.609 1183.64 225.455 1184.82 226.569 1185.67C227.683 1186.51 229.046 1186.93 230.66 1186.93C232.342 1186.93 233.745 1186.49 234.87 1185.6C236.006 1184.7 236.859 1183.5 237.427 1181.99C238.006 1180.47 238.296 1178.77 238.296 1176.91C238.296 1175.07 238.012 1173.41 237.444 1171.93C236.887 1170.44 236.04 1169.27 234.904 1168.4C233.779 1167.53 232.364 1167.09 230.66 1167.09C229.023 1167.09 227.648 1167.51 226.535 1168.34C225.421 1169.15 224.58 1170.3 224.012 1171.78C223.444 1173.24 223.16 1174.95 223.16 1176.91ZM264.955 1179.3V1163.82H268.978V1190H264.955V1185.57H264.683C264.069 1186.9 263.114 1188.03 261.819 1188.96C260.523 1189.88 258.887 1190.34 256.91 1190.34C255.273 1190.34 253.819 1189.98 252.546 1189.27C251.273 1188.54 250.273 1187.45 249.546 1185.99C248.819 1184.53 248.455 1182.68 248.455 1180.45V1163.82H252.478V1180.18C252.478 1182.09 253.012 1183.61 254.08 1184.75C255.16 1185.89 256.535 1186.45 258.205 1186.45C259.205 1186.45 260.222 1186.2 261.256 1185.69C262.302 1185.18 263.177 1184.39 263.881 1183.34C264.597 1182.28 264.955 1180.93 264.955 1179.3ZM287.323 1190.55C284.8 1190.55 282.624 1189.99 280.795 1188.88C278.977 1187.75 277.573 1186.18 276.585 1184.17C275.607 1182.15 275.119 1179.8 275.119 1177.11C275.119 1174.43 275.607 1172.07 276.585 1170.02C277.573 1167.97 278.948 1166.36 280.71 1165.22C282.482 1164.06 284.55 1163.48 286.914 1163.48C288.278 1163.48 289.624 1163.7 290.954 1164.16C292.283 1164.61 293.494 1165.35 294.585 1166.38C295.675 1167.39 296.545 1168.73 297.192 1170.4C297.84 1172.07 298.164 1174.12 298.164 1176.57V1178.27H277.982V1174.8H294.073C294.073 1173.32 293.778 1172 293.187 1170.84C292.607 1169.68 291.778 1168.77 290.698 1168.1C289.63 1167.43 288.369 1167.09 286.914 1167.09C285.312 1167.09 283.925 1167.49 282.755 1168.28C281.596 1169.07 280.704 1170.09 280.079 1171.35C279.454 1172.61 279.141 1173.97 279.141 1175.41V1177.73C279.141 1179.7 279.482 1181.38 280.164 1182.76C280.857 1184.12 281.817 1185.16 283.045 1185.88C284.272 1186.58 285.698 1186.93 287.323 1186.93C288.38 1186.93 289.335 1186.78 290.187 1186.49C291.05 1186.18 291.795 1185.73 292.42 1185.12C293.045 1184.51 293.528 1183.75 293.869 1182.84L297.755 1183.93C297.346 1185.25 296.658 1186.41 295.692 1187.41C294.727 1188.4 293.533 1189.17 292.113 1189.73C290.692 1190.27 289.096 1190.55 287.323 1190.55ZM322.829 1169.68L319.215 1170.7C318.988 1170.1 318.653 1169.52 318.21 1168.95C317.778 1168.37 317.187 1167.89 316.437 1167.52C315.687 1167.14 314.727 1166.95 313.556 1166.95C311.954 1166.95 310.619 1167.32 309.55 1168.06C308.494 1168.79 307.965 1169.72 307.965 1170.84C307.965 1171.84 308.329 1172.63 309.056 1173.21C309.783 1173.79 310.92 1174.27 312.465 1174.66L316.352 1175.61C318.692 1176.18 320.437 1177.05 321.585 1178.22C322.732 1179.38 323.306 1180.87 323.306 1182.7C323.306 1184.2 322.874 1185.55 322.011 1186.73C321.158 1187.91 319.965 1188.84 318.431 1189.52C316.897 1190.2 315.113 1190.55 313.079 1190.55C310.408 1190.55 308.198 1189.97 306.448 1188.81C304.698 1187.65 303.59 1185.95 303.124 1183.73L306.942 1182.77C307.306 1184.18 307.994 1185.24 309.005 1185.94C310.028 1186.65 311.363 1187 313.011 1187C314.886 1187 316.374 1186.6 317.477 1185.81C318.59 1185 319.147 1184.03 319.147 1182.91C319.147 1182 318.829 1181.24 318.192 1180.62C317.556 1180 316.579 1179.53 315.261 1179.23L310.897 1178.2C308.499 1177.64 306.738 1176.76 305.613 1175.56C304.499 1174.36 303.942 1172.85 303.942 1171.05C303.942 1169.57 304.357 1168.26 305.187 1167.12C306.028 1165.99 307.17 1165.1 308.613 1164.45C310.067 1163.8 311.715 1163.48 313.556 1163.48C316.147 1163.48 318.181 1164.05 319.658 1165.18C321.147 1166.32 322.204 1167.82 322.829 1169.68ZM340.748 1163.82V1167.23H327.18V1163.82H340.748ZM331.134 1157.55H335.157V1182.5C335.157 1183.64 335.322 1184.49 335.651 1185.06C335.992 1185.61 336.424 1185.99 336.947 1186.18C337.481 1186.36 338.043 1186.45 338.634 1186.45C339.077 1186.45 339.441 1186.43 339.725 1186.39C340.009 1186.33 340.237 1186.28 340.407 1186.25L341.225 1189.86C340.952 1189.97 340.572 1190.07 340.083 1190.17C339.594 1190.28 338.975 1190.34 338.225 1190.34C337.089 1190.34 335.975 1190.1 334.884 1189.61C333.805 1189.12 332.907 1188.38 332.191 1187.38C331.487 1186.38 331.134 1185.11 331.134 1183.59V1157.55ZM357.154 1190.55C354.79 1190.55 352.717 1189.98 350.933 1188.86C349.16 1187.73 347.773 1186.16 346.773 1184.14C345.785 1182.11 345.29 1179.75 345.29 1177.05C345.29 1174.32 345.785 1171.94 346.773 1169.9C347.773 1167.87 349.16 1166.29 350.933 1165.16C352.717 1164.04 354.79 1163.48 357.154 1163.48C359.518 1163.48 361.586 1164.04 363.359 1165.16C365.143 1166.29 366.529 1167.87 367.518 1169.9C368.518 1171.94 369.018 1174.32 369.018 1177.05C369.018 1179.75 368.518 1182.11 367.518 1184.14C366.529 1186.16 365.143 1187.73 363.359 1188.86C361.586 1189.98 359.518 1190.55 357.154 1190.55ZM357.154 1186.93C358.95 1186.93 360.427 1186.47 361.586 1185.55C362.745 1184.63 363.603 1183.42 364.16 1181.92C364.717 1180.42 364.995 1178.8 364.995 1177.05C364.995 1175.3 364.717 1173.66 364.16 1172.15C363.603 1170.64 362.745 1169.42 361.586 1168.49C360.427 1167.56 358.95 1167.09 357.154 1167.09C355.359 1167.09 353.881 1167.56 352.722 1168.49C351.563 1169.42 350.705 1170.64 350.148 1172.15C349.592 1173.66 349.313 1175.3 349.313 1177.05C349.313 1178.8 349.592 1180.42 350.148 1181.92C350.705 1183.42 351.563 1184.63 352.722 1185.55C353.881 1186.47 355.359 1186.93 357.154 1186.93ZM391.249 1199.82C390.567 1199.82 389.96 1199.76 389.425 1199.65C388.891 1199.55 388.522 1199.44 388.317 1199.34L389.34 1195.8C390.317 1196.05 391.181 1196.14 391.931 1196.07C392.681 1196 393.346 1195.66 393.925 1195.06C394.516 1194.47 395.056 1193.51 395.545 1192.18L396.295 1190.14L386.613 1163.82H390.977L398.204 1184.68H398.477L405.704 1163.82H410.067L398.954 1193.82C398.454 1195.17 397.835 1196.29 397.096 1197.18C396.357 1198.07 395.499 1198.74 394.522 1199.17C393.556 1199.6 392.465 1199.82 391.249 1199.82ZM57.1307 1221.82V1225.23H43.5625V1221.82H57.1307ZM47.517 1215.55H51.5398V1240.5C51.5398 1241.64 51.7045 1242.49 52.0341 1243.06C52.375 1243.61 52.8068 1243.99 53.3295 1244.18C53.8636 1244.36 54.4261 1244.45 55.017 1244.45C55.4602 1244.45 55.8239 1244.43 56.108 1244.39C56.392 1244.33 56.6193 1244.28 56.7898 1244.25L57.608 1247.86C57.3352 1247.97 56.9545 1248.07 56.4659 1248.17C55.9773 1248.28 55.358 1248.34 54.608 1248.34C53.4716 1248.34 52.358 1248.1 51.267 1247.61C50.1875 1247.12 49.2898 1246.38 48.5739 1245.38C47.8693 1244.38 47.517 1243.11 47.517 1241.59V1215.55ZM63.1818 1248V1221.82H67.2045V1248H63.1818ZM65.2273 1217.45C64.4432 1217.45 63.767 1217.19 63.1989 1216.65C62.642 1216.12 62.3636 1215.48 62.3636 1214.73C62.3636 1213.98 62.642 1213.34 63.1989 1212.8C63.767 1212.27 64.4432 1212 65.2273 1212C66.0114 1212 66.6818 1212.27 67.2386 1212.8C67.8068 1213.34 68.0909 1213.98 68.0909 1214.73C68.0909 1215.48 67.8068 1216.12 67.2386 1216.65C66.6818 1217.19 66.0114 1217.45 65.2273 1217.45ZM85.5497 1248.55C83.027 1248.55 80.8509 1247.99 79.0213 1246.88C77.2031 1245.75 75.7997 1244.18 74.8111 1242.17C73.8338 1240.15 73.3452 1237.8 73.3452 1235.11C73.3452 1232.43 73.8338 1230.07 74.8111 1228.02C75.7997 1225.97 77.1747 1224.36 78.9361 1223.22C80.7088 1222.06 82.777 1221.48 85.1406 1221.48C86.5043 1221.48 87.8509 1221.7 89.1804 1222.16C90.5099 1222.61 91.7202 1223.35 92.8111 1224.38C93.902 1225.39 94.7713 1226.73 95.419 1228.4C96.0668 1230.07 96.3906 1232.12 96.3906 1234.57V1236.27H76.2088V1232.8H92.2997C92.2997 1231.32 92.0043 1230 91.4134 1228.84C90.8338 1227.68 90.0043 1226.77 88.9247 1226.1C87.8565 1225.43 86.5952 1225.09 85.1406 1225.09C83.5384 1225.09 82.152 1225.49 80.9815 1226.28C79.8224 1227.07 78.9304 1228.09 78.3054 1229.35C77.6804 1230.61 77.3679 1231.97 77.3679 1233.41V1235.73C77.3679 1237.7 77.7088 1239.38 78.3906 1240.76C79.0838 1242.12 80.044 1243.16 81.2713 1243.88C82.4986 1244.58 83.9247 1244.93 85.5497 1244.93C86.6065 1244.93 87.5611 1244.78 88.4134 1244.49C89.277 1244.18 90.0213 1243.73 90.6463 1243.12C91.2713 1242.51 91.7543 1241.75 92.0952 1240.84L95.9815 1241.93C95.5724 1243.25 94.8849 1244.41 93.919 1245.41C92.9531 1246.4 91.7599 1247.17 90.3395 1247.73C88.919 1248.27 87.3224 1248.55 85.5497 1248.55ZM102.51 1248V1221.82H106.396V1225.91H106.737C107.283 1224.51 108.163 1223.43 109.379 1222.65C110.595 1221.87 112.055 1221.48 113.76 1221.48C115.487 1221.48 116.925 1221.87 118.072 1222.65C119.232 1223.43 120.135 1224.51 120.783 1225.91H121.055C121.726 1224.56 122.732 1223.48 124.072 1222.69C125.413 1221.88 127.021 1221.48 128.896 1221.48C131.237 1221.48 133.152 1222.21 134.641 1223.68C136.129 1225.13 136.874 1227.4 136.874 1230.48V1248H132.851V1230.48C132.851 1228.55 132.322 1227.16 131.266 1226.34C130.209 1225.51 128.964 1225.09 127.533 1225.09C125.692 1225.09 124.266 1225.65 123.254 1226.76C122.243 1227.86 121.737 1229.26 121.737 1230.95V1248H117.646V1230.07C117.646 1228.58 117.163 1227.38 116.197 1226.47C115.232 1225.55 113.987 1225.09 112.464 1225.09C111.419 1225.09 110.442 1225.37 109.533 1225.93C108.635 1226.48 107.908 1227.26 107.351 1228.24C106.805 1229.22 106.533 1230.35 106.533 1231.64V1248H102.51ZM144.229 1257.82V1221.82H148.115V1225.98H148.592C148.888 1225.52 149.297 1224.94 149.82 1224.24C150.354 1223.52 151.115 1222.89 152.104 1222.33C153.104 1221.76 154.456 1221.48 156.161 1221.48C158.365 1221.48 160.308 1222.03 161.99 1223.13C163.672 1224.23 164.984 1225.8 165.928 1227.82C166.871 1229.84 167.342 1232.23 167.342 1234.98C167.342 1237.75 166.871 1240.15 165.928 1242.19C164.984 1244.21 163.678 1245.78 162.007 1246.89C160.337 1247.99 158.411 1248.55 156.229 1248.55C154.547 1248.55 153.2 1248.27 152.189 1247.71C151.178 1247.14 150.399 1246.5 149.854 1245.78C149.308 1245.06 148.888 1244.45 148.592 1243.98H148.251V1257.82H144.229ZM148.183 1234.91C148.183 1236.89 148.473 1238.63 149.053 1240.14C149.632 1241.64 150.479 1242.82 151.592 1243.67C152.706 1244.51 154.07 1244.93 155.683 1244.93C157.365 1244.93 158.768 1244.49 159.893 1243.6C161.03 1242.7 161.882 1241.5 162.45 1239.99C163.03 1238.47 163.32 1236.77 163.32 1234.91C163.32 1233.07 163.036 1231.41 162.467 1229.93C161.911 1228.44 161.064 1227.27 159.928 1226.4C158.803 1225.53 157.388 1225.09 155.683 1225.09C154.047 1225.09 152.672 1225.51 151.558 1226.34C150.445 1227.15 149.604 1228.3 149.036 1229.78C148.467 1231.24 148.183 1232.95 148.183 1234.91ZM184.115 1248.55C181.751 1248.55 179.678 1247.98 177.893 1246.86C176.121 1245.73 174.734 1244.16 173.734 1242.14C172.746 1240.11 172.251 1237.75 172.251 1235.05C172.251 1232.32 172.746 1229.94 173.734 1227.9C174.734 1225.87 176.121 1224.29 177.893 1223.16C179.678 1222.04 181.751 1221.48 184.115 1221.48C186.479 1221.48 188.547 1222.04 190.32 1223.16C192.104 1224.29 193.49 1225.87 194.479 1227.9C195.479 1229.94 195.979 1232.32 195.979 1235.05C195.979 1237.75 195.479 1240.11 194.479 1242.14C193.49 1244.16 192.104 1245.73 190.32 1246.86C188.547 1247.98 186.479 1248.55 184.115 1248.55ZM184.115 1244.93C185.911 1244.93 187.388 1244.47 188.547 1243.55C189.706 1242.63 190.564 1241.42 191.121 1239.92C191.678 1238.42 191.956 1236.8 191.956 1235.05C191.956 1233.3 191.678 1231.66 191.121 1230.15C190.564 1228.64 189.706 1227.42 188.547 1226.49C187.388 1225.56 185.911 1225.09 184.115 1225.09C182.32 1225.09 180.842 1225.56 179.683 1226.49C178.524 1227.42 177.666 1228.64 177.109 1230.15C176.553 1231.66 176.274 1233.3 176.274 1235.05C176.274 1236.8 176.553 1238.42 177.109 1239.92C177.666 1241.42 178.524 1242.63 179.683 1243.55C180.842 1244.47 182.32 1244.93 184.115 1244.93ZM225.506 1248.55C223.324 1248.55 221.398 1247.99 219.727 1246.89C218.057 1245.78 216.75 1244.21 215.807 1242.19C214.864 1240.15 214.392 1237.75 214.392 1234.98C214.392 1232.23 214.864 1229.84 215.807 1227.82C216.75 1225.8 218.063 1224.23 219.744 1223.13C221.426 1222.03 223.369 1221.48 225.574 1221.48C227.278 1221.48 228.625 1221.76 229.614 1222.33C230.614 1222.89 231.375 1223.52 231.898 1224.24C232.432 1224.94 232.847 1225.52 233.142 1225.98H233.483V1213.09H237.506V1248H233.619V1243.98H233.142C232.847 1244.45 232.426 1245.06 231.881 1245.78C231.335 1246.5 230.557 1247.14 229.545 1247.71C228.534 1248.27 227.188 1248.55 225.506 1248.55ZM226.051 1244.93C227.665 1244.93 229.028 1244.51 230.142 1243.67C231.256 1242.82 232.102 1241.64 232.682 1240.14C233.261 1238.63 233.551 1236.89 233.551 1234.91C233.551 1232.95 233.267 1231.24 232.699 1229.78C232.131 1228.3 231.29 1227.15 230.176 1226.34C229.063 1225.51 227.688 1225.09 226.051 1225.09C224.347 1225.09 222.926 1225.53 221.79 1226.4C220.665 1227.27 219.818 1228.44 219.25 1229.93C218.693 1231.41 218.415 1233.07 218.415 1234.91C218.415 1236.77 218.699 1238.47 219.267 1239.99C219.847 1241.5 220.699 1242.7 221.824 1243.6C222.96 1244.49 224.369 1244.93 226.051 1244.93ZM256.409 1248.55C253.886 1248.55 251.71 1247.99 249.881 1246.88C248.062 1245.75 246.659 1244.18 245.67 1242.17C244.693 1240.15 244.205 1237.8 244.205 1235.11C244.205 1232.43 244.693 1230.07 245.67 1228.02C246.659 1225.97 248.034 1224.36 249.795 1223.22C251.568 1222.06 253.636 1221.48 256 1221.48C257.364 1221.48 258.71 1221.7 260.04 1222.16C261.369 1222.61 262.58 1223.35 263.67 1224.38C264.761 1225.39 265.631 1226.73 266.278 1228.4C266.926 1230.07 267.25 1232.12 267.25 1234.57V1236.27H247.068V1232.8H263.159C263.159 1231.32 262.864 1230 262.273 1228.84C261.693 1227.68 260.864 1226.77 259.784 1226.1C258.716 1225.43 257.455 1225.09 256 1225.09C254.398 1225.09 253.011 1225.49 251.841 1226.28C250.682 1227.07 249.79 1228.09 249.165 1229.35C248.54 1230.61 248.227 1231.97 248.227 1233.41V1235.73C248.227 1237.7 248.568 1239.38 249.25 1240.76C249.943 1242.12 250.903 1243.16 252.131 1243.88C253.358 1244.58 254.784 1244.93 256.409 1244.93C257.466 1244.93 258.42 1244.78 259.273 1244.49C260.136 1244.18 260.881 1243.73 261.506 1243.12C262.131 1242.51 262.614 1241.75 262.955 1240.84L266.841 1241.93C266.432 1243.25 265.744 1244.41 264.778 1245.41C263.813 1246.4 262.619 1247.17 261.199 1247.73C259.778 1248.27 258.182 1248.55 256.409 1248.55ZM297.847 1248.55C295.324 1248.55 293.148 1247.99 291.318 1246.88C289.5 1245.75 288.097 1244.18 287.108 1242.17C286.131 1240.15 285.642 1237.8 285.642 1235.11C285.642 1232.43 286.131 1230.07 287.108 1228.02C288.097 1225.97 289.472 1224.36 291.233 1223.22C293.006 1222.06 295.074 1221.48 297.438 1221.48C298.801 1221.48 300.148 1221.7 301.477 1222.16C302.807 1222.61 304.017 1223.35 305.108 1224.38C306.199 1225.39 307.068 1226.73 307.716 1228.4C308.364 1230.07 308.688 1232.12 308.688 1234.57V1236.27H288.506V1232.8H304.597C304.597 1231.32 304.301 1230 303.71 1228.84C303.131 1227.68 302.301 1226.77 301.222 1226.1C300.153 1225.43 298.892 1225.09 297.438 1225.09C295.835 1225.09 294.449 1225.49 293.278 1226.28C292.119 1227.07 291.227 1228.09 290.602 1229.35C289.977 1230.61 289.665 1231.97 289.665 1233.41V1235.73C289.665 1237.7 290.006 1239.38 290.688 1240.76C291.381 1242.12 292.341 1243.16 293.568 1243.88C294.795 1244.58 296.222 1244.93 297.847 1244.93C298.903 1244.93 299.858 1244.78 300.71 1244.49C301.574 1244.18 302.318 1243.73 302.943 1243.12C303.568 1242.51 304.051 1241.75 304.392 1240.84L308.278 1241.93C307.869 1243.25 307.182 1244.41 306.216 1245.41C305.25 1246.4 304.057 1247.17 302.636 1247.73C301.216 1248.27 299.619 1248.55 297.847 1248.55ZM318.83 1232.25V1248H314.807V1221.82H318.693V1225.91H319.034C319.648 1224.58 320.58 1223.51 321.83 1222.7C323.08 1221.89 324.693 1221.48 326.67 1221.48C328.443 1221.48 329.994 1221.84 331.324 1222.57C332.653 1223.28 333.688 1224.38 334.426 1225.84C335.165 1227.3 335.534 1229.14 335.534 1231.36V1248H331.511V1231.64C331.511 1229.58 330.977 1227.98 329.909 1226.83C328.841 1225.67 327.375 1225.09 325.511 1225.09C324.227 1225.09 323.08 1225.37 322.068 1225.93C321.068 1226.48 320.278 1227.3 319.699 1228.36C319.119 1229.43 318.83 1230.73 318.83 1232.25ZM354.271 1221.82V1225.23H340.703V1221.82H354.271ZM344.658 1215.55H348.68V1240.5C348.68 1241.64 348.845 1242.49 349.175 1243.06C349.516 1243.61 349.947 1243.99 350.47 1244.18C351.004 1244.36 351.567 1244.45 352.158 1244.45C352.601 1244.45 352.964 1244.43 353.249 1244.39C353.533 1244.33 353.76 1244.28 353.93 1244.25L354.749 1247.86C354.476 1247.97 354.095 1248.07 353.607 1248.17C353.118 1248.28 352.499 1248.34 351.749 1248.34C350.612 1248.34 349.499 1248.1 348.408 1247.61C347.328 1247.12 346.43 1246.38 345.714 1245.38C345.01 1244.38 344.658 1243.11 344.658 1241.59V1215.55ZM360.322 1248V1221.82H364.209V1225.77H364.482C364.959 1224.48 365.822 1223.43 367.072 1222.62C368.322 1221.81 369.732 1221.41 371.3 1221.41C371.595 1221.41 371.964 1221.41 372.408 1221.43C372.851 1221.44 373.186 1221.45 373.413 1221.48V1225.57C373.277 1225.53 372.964 1225.48 372.476 1225.41C371.999 1225.34 371.493 1225.3 370.959 1225.3C369.686 1225.3 368.55 1225.56 367.55 1226.1C366.561 1226.62 365.777 1227.35 365.197 1228.28C364.629 1229.2 364.345 1230.25 364.345 1231.43V1248H360.322ZM388.362 1248.55C385.839 1248.55 383.663 1247.99 381.834 1246.88C380.016 1245.75 378.612 1244.18 377.624 1242.17C376.646 1240.15 376.158 1237.8 376.158 1235.11C376.158 1232.43 376.646 1230.07 377.624 1228.02C378.612 1225.97 379.987 1224.36 381.749 1223.22C383.521 1222.06 385.589 1221.48 387.953 1221.48C389.317 1221.48 390.663 1221.7 391.993 1222.16C393.322 1222.61 394.533 1223.35 395.624 1224.38C396.714 1225.39 397.584 1226.73 398.232 1228.4C398.879 1230.07 399.203 1232.12 399.203 1234.57V1236.27H379.021V1232.8H395.112C395.112 1231.32 394.817 1230 394.226 1228.84C393.646 1227.68 392.817 1226.77 391.737 1226.1C390.669 1225.43 389.408 1225.09 387.953 1225.09C386.351 1225.09 384.964 1225.49 383.794 1226.28C382.635 1227.07 381.743 1228.09 381.118 1229.35C380.493 1230.61 380.18 1231.97 380.18 1233.41V1235.73C380.18 1237.7 380.521 1239.38 381.203 1240.76C381.896 1242.12 382.857 1243.16 384.084 1243.88C385.311 1244.58 386.737 1244.93 388.362 1244.93C389.419 1244.93 390.374 1244.78 391.226 1244.49C392.089 1244.18 392.834 1243.73 393.459 1243.12C394.084 1242.51 394.567 1241.75 394.908 1240.84L398.794 1241.93C398.385 1243.25 397.697 1244.41 396.732 1245.41C395.766 1246.4 394.572 1247.17 393.152 1247.73C391.732 1248.27 390.135 1248.55 388.362 1248.55ZM415.891 1258.36C413.947 1258.36 412.277 1258.11 410.879 1257.61C409.482 1257.12 408.317 1256.48 407.385 1255.67C406.464 1254.88 405.732 1254.02 405.186 1253.11L408.391 1250.86C408.754 1251.34 409.214 1251.89 409.771 1252.5C410.328 1253.12 411.089 1253.66 412.055 1254.12C413.033 1254.59 414.311 1254.82 415.891 1254.82C418.004 1254.82 419.749 1254.31 421.124 1253.28C422.499 1252.26 423.186 1250.66 423.186 1248.48V1243.16H422.845C422.55 1243.64 422.129 1244.23 421.584 1244.93C421.05 1245.62 420.277 1246.24 419.266 1246.79C418.266 1247.32 416.913 1247.59 415.209 1247.59C413.095 1247.59 411.197 1247.09 409.516 1246.09C407.845 1245.09 406.521 1243.64 405.544 1241.73C404.578 1239.82 404.095 1237.5 404.095 1234.77C404.095 1232.09 404.567 1229.76 405.51 1227.77C406.453 1225.77 407.766 1224.22 409.447 1223.13C411.129 1222.03 413.072 1221.48 415.277 1221.48C416.982 1221.48 418.334 1221.76 419.334 1222.33C420.345 1222.89 421.118 1223.52 421.652 1224.24C422.197 1224.94 422.618 1225.52 422.913 1225.98H423.322V1221.82H427.209V1248.75C427.209 1251 426.697 1252.83 425.675 1254.24C424.663 1255.66 423.3 1256.7 421.584 1257.36C419.879 1258.03 417.982 1258.36 415.891 1258.36ZM415.754 1243.98C417.368 1243.98 418.732 1243.61 419.845 1242.87C420.959 1242.13 421.805 1241.07 422.385 1239.68C422.964 1238.3 423.254 1236.64 423.254 1234.7C423.254 1232.82 422.97 1231.15 422.402 1229.71C421.834 1228.27 420.993 1227.14 419.879 1226.32C418.766 1225.5 417.391 1225.09 415.754 1225.09C414.05 1225.09 412.629 1225.52 411.493 1226.39C410.368 1227.25 409.521 1228.41 408.953 1229.86C408.396 1231.32 408.118 1232.93 408.118 1234.7C408.118 1236.52 408.402 1238.13 408.97 1239.53C409.55 1240.91 410.402 1242.01 411.527 1242.8C412.663 1243.59 414.072 1243.98 415.754 1243.98ZM442.277 1248.61C440.618 1248.61 439.112 1248.3 437.76 1247.68C436.408 1247.04 435.334 1246.12 434.538 1244.93C433.743 1243.73 433.345 1242.27 433.345 1240.57C433.345 1239.07 433.641 1237.85 434.232 1236.92C434.822 1235.98 435.612 1235.24 436.601 1234.7C437.589 1234.17 438.68 1233.77 439.874 1233.51C441.078 1233.24 442.288 1233.02 443.504 1232.86C445.095 1232.66 446.385 1232.51 447.374 1232.4C448.374 1232.29 449.101 1232.1 449.555 1231.84C450.021 1231.58 450.254 1231.12 450.254 1230.48V1230.34C450.254 1228.66 449.794 1227.35 448.874 1226.42C447.964 1225.49 446.584 1225.02 444.732 1225.02C442.811 1225.02 441.305 1225.44 440.214 1226.28C439.124 1227.12 438.357 1228.02 437.913 1228.98L434.095 1227.61C434.777 1226.02 435.686 1224.78 436.822 1223.9C437.97 1223 439.22 1222.37 440.572 1222.02C441.936 1221.66 443.277 1221.48 444.595 1221.48C445.436 1221.48 446.402 1221.58 447.493 1221.78C448.595 1221.98 449.658 1222.38 450.68 1222.99C451.714 1223.61 452.572 1224.53 453.254 1225.77C453.936 1227.01 454.277 1228.67 454.277 1230.75V1248H450.254V1244.45H450.05C449.777 1245.02 449.322 1245.63 448.686 1246.28C448.05 1246.93 447.203 1247.48 446.146 1247.93C445.089 1248.39 443.8 1248.61 442.277 1248.61ZM442.891 1245C444.482 1245 445.822 1244.69 446.913 1244.06C448.016 1243.44 448.845 1242.63 449.402 1241.64C449.97 1240.65 450.254 1239.61 450.254 1238.52V1234.84C450.084 1235.05 449.709 1235.23 449.129 1235.4C448.561 1235.56 447.902 1235.7 447.152 1235.83C446.413 1235.94 445.692 1236.05 444.987 1236.14C444.294 1236.22 443.732 1236.28 443.3 1236.34C442.254 1236.48 441.277 1236.7 440.368 1237.01C439.47 1237.3 438.743 1237.75 438.186 1238.35C437.641 1238.94 437.368 1239.75 437.368 1240.77C437.368 1242.17 437.885 1243.23 438.919 1243.94C439.964 1244.65 441.288 1245 442.891 1245Z" fill="#131313"/>
</svg>
