<svg width="500" height="560" viewBox="0 0 500 560" fill="none" xmlns="http://www.w3.org/2000/svg">
<circle cx="250" cy="325" r="25" fill="#131313"/>
<rect x="241" y="243" width="18" height="70" fill="#131313"/>
<rect x="125" width="250" height="250" rx="125" fill="#131313"/>
<path d="M227.028 161.5V155.108L251.034 128.83C253.851 125.752 256.171 123.077 257.994 120.804C259.817 118.508 261.167 116.353 262.043 114.341C262.942 112.305 263.392 110.174 263.392 107.949C263.392 105.392 262.777 103.179 261.545 101.308C260.338 99.438 258.681 97.9938 256.574 96.9759C254.467 95.9579 252.099 95.4489 249.472 95.4489C246.678 95.4489 244.24 96.0289 242.156 97.1889C240.097 98.3253 238.499 99.9233 237.362 101.983C236.25 104.043 235.693 106.457 235.693 109.227H227.312C227.312 104.966 228.295 101.225 230.26 98.0057C232.225 94.786 234.9 92.2765 238.286 90.4773C241.695 88.678 245.518 87.7784 249.756 87.7784C254.017 87.7784 257.793 88.678 261.084 90.4773C264.375 92.2765 266.955 94.7031 268.825 97.7571C270.696 100.811 271.631 104.208 271.631 107.949C271.631 110.624 271.145 113.24 270.175 115.797C269.228 118.33 267.571 121.159 265.203 124.284C262.859 127.385 259.604 131.173 255.438 135.648L239.102 153.119V153.688H272.909V161.5H227.028Z" fill="white"/>
<path d="M134.227 416V381.091H155.295V384.841H138.455V396.636H154.205V400.386H138.455V412.25H155.568V416H134.227ZM180.915 395.682L177.301 396.705C177.074 396.102 176.739 395.517 176.295 394.949C175.864 394.369 175.273 393.892 174.523 393.517C173.773 393.142 172.812 392.955 171.642 392.955C170.04 392.955 168.705 393.324 167.636 394.062C166.58 394.79 166.051 395.716 166.051 396.841C166.051 397.841 166.415 398.631 167.142 399.21C167.869 399.79 169.006 400.273 170.551 400.659L174.438 401.614C176.778 402.182 178.523 403.051 179.67 404.222C180.818 405.381 181.392 406.875 181.392 408.705C181.392 410.205 180.96 411.545 180.097 412.727C179.244 413.909 178.051 414.841 176.517 415.523C174.983 416.205 173.199 416.545 171.165 416.545C168.494 416.545 166.284 415.966 164.534 414.807C162.784 413.648 161.676 411.955 161.21 409.727L165.028 408.773C165.392 410.182 166.08 411.239 167.091 411.943C168.114 412.648 169.449 413 171.097 413C172.972 413 174.46 412.602 175.562 411.807C176.676 411 177.233 410.034 177.233 408.909C177.233 408 176.915 407.239 176.278 406.625C175.642 406 174.665 405.534 173.347 405.227L168.983 404.205C166.585 403.636 164.824 402.756 163.699 401.562C162.585 400.358 162.028 398.852 162.028 397.045C162.028 395.568 162.443 394.261 163.273 393.125C164.114 391.989 165.256 391.097 166.699 390.449C168.153 389.801 169.801 389.477 171.642 389.477C174.233 389.477 176.267 390.045 177.744 391.182C179.233 392.318 180.29 393.818 180.915 395.682ZM198.834 389.818V393.227H185.266V389.818H198.834ZM189.22 383.545H193.243V408.5C193.243 409.636 193.408 410.489 193.737 411.057C194.078 411.614 194.51 411.989 195.033 412.182C195.567 412.364 196.129 412.455 196.72 412.455C197.163 412.455 197.527 412.432 197.811 412.386C198.095 412.33 198.322 412.284 198.493 412.25L199.311 415.864C199.038 415.966 198.658 416.068 198.169 416.17C197.68 416.284 197.061 416.341 196.311 416.341C195.175 416.341 194.061 416.097 192.97 415.608C191.891 415.119 190.993 414.375 190.277 413.375C189.572 412.375 189.22 411.114 189.22 409.591V383.545ZM212.589 416.614C210.93 416.614 209.425 416.301 208.072 415.676C206.72 415.04 205.646 414.125 204.851 412.932C204.055 411.727 203.658 410.273 203.658 408.568C203.658 407.068 203.953 405.852 204.544 404.92C205.135 403.977 205.925 403.239 206.913 402.705C207.902 402.17 208.993 401.773 210.186 401.511C211.391 401.239 212.601 401.023 213.817 400.864C215.408 400.659 216.697 400.506 217.686 400.403C218.686 400.29 219.413 400.102 219.868 399.841C220.334 399.58 220.567 399.125 220.567 398.477V398.341C220.567 396.659 220.107 395.352 219.186 394.42C218.277 393.489 216.896 393.023 215.044 393.023C213.124 393.023 211.618 393.443 210.527 394.284C209.436 395.125 208.669 396.023 208.226 396.977L204.408 395.614C205.089 394.023 205.999 392.784 207.135 391.898C208.283 391 209.533 390.375 210.885 390.023C212.249 389.659 213.589 389.477 214.908 389.477C215.749 389.477 216.714 389.58 217.805 389.784C218.908 389.977 219.97 390.381 220.993 390.994C222.027 391.608 222.885 392.534 223.567 393.773C224.249 395.011 224.589 396.67 224.589 398.75V416H220.567V412.455H220.362C220.089 413.023 219.635 413.631 218.999 414.278C218.362 414.926 217.516 415.477 216.459 415.932C215.402 416.386 214.112 416.614 212.589 416.614ZM213.203 413C214.794 413 216.135 412.688 217.226 412.062C218.328 411.438 219.158 410.631 219.714 409.642C220.283 408.653 220.567 407.614 220.567 406.523V402.841C220.396 403.045 220.021 403.233 219.442 403.403C218.874 403.562 218.214 403.705 217.464 403.83C216.726 403.943 216.004 404.045 215.3 404.136C214.607 404.216 214.044 404.284 213.612 404.341C212.567 404.477 211.589 404.699 210.68 405.006C209.783 405.301 209.055 405.75 208.499 406.352C207.953 406.943 207.68 407.75 207.68 408.773C207.68 410.17 208.197 411.227 209.232 411.943C210.277 412.648 211.601 413 213.203 413ZM232.477 416V381.091H236.5V393.977H236.841C237.136 393.523 237.545 392.943 238.068 392.239C238.602 391.523 239.364 390.886 240.352 390.33C241.352 389.761 242.705 389.477 244.409 389.477C246.614 389.477 248.557 390.028 250.239 391.131C251.92 392.233 253.233 393.795 254.176 395.818C255.119 397.841 255.591 400.227 255.591 402.977C255.591 405.75 255.119 408.153 254.176 410.188C253.233 412.21 251.926 413.778 250.256 414.892C248.585 415.994 246.659 416.545 244.477 416.545C242.795 416.545 241.449 416.267 240.438 415.71C239.426 415.142 238.648 414.5 238.102 413.784C237.557 413.057 237.136 412.455 236.841 411.977H236.364V416H232.477ZM236.432 402.909C236.432 404.886 236.722 406.631 237.301 408.142C237.881 409.642 238.727 410.818 239.841 411.67C240.955 412.511 242.318 412.932 243.932 412.932C245.614 412.932 247.017 412.489 248.142 411.602C249.278 410.705 250.131 409.5 250.699 407.989C251.278 406.466 251.568 404.773 251.568 402.909C251.568 401.068 251.284 399.409 250.716 397.932C250.159 396.443 249.313 395.267 248.176 394.403C247.051 393.528 245.636 393.091 243.932 393.091C242.295 393.091 240.92 393.506 239.807 394.335C238.693 395.153 237.852 396.301 237.284 397.778C236.716 399.244 236.432 400.955 236.432 402.909ZM265.767 381.091V416H261.744V381.091H265.767ZM284.112 416.545C281.589 416.545 279.413 415.989 277.584 414.875C275.766 413.75 274.362 412.182 273.374 410.17C272.396 408.148 271.908 405.795 271.908 403.114C271.908 400.432 272.396 398.068 273.374 396.023C274.362 393.966 275.737 392.364 277.499 391.216C279.271 390.057 281.339 389.477 283.703 389.477C285.067 389.477 286.413 389.705 287.743 390.159C289.072 390.614 290.283 391.352 291.374 392.375C292.464 393.386 293.334 394.727 293.982 396.398C294.629 398.068 294.953 400.125 294.953 402.568V404.273H274.771V400.795H290.862C290.862 399.318 290.567 398 289.976 396.841C289.396 395.682 288.567 394.767 287.487 394.097C286.419 393.426 285.158 393.091 283.703 393.091C282.101 393.091 280.714 393.489 279.544 394.284C278.385 395.068 277.493 396.091 276.868 397.352C276.243 398.614 275.93 399.966 275.93 401.409V403.727C275.93 405.705 276.271 407.381 276.953 408.756C277.646 410.119 278.607 411.159 279.834 411.875C281.061 412.58 282.487 412.932 284.112 412.932C285.169 412.932 286.124 412.784 286.976 412.489C287.839 412.182 288.584 411.727 289.209 411.125C289.834 410.511 290.317 409.75 290.658 408.841L294.544 409.932C294.135 411.25 293.447 412.409 292.482 413.409C291.516 414.398 290.322 415.17 288.902 415.727C287.482 416.273 285.885 416.545 284.112 416.545ZM311.709 416.545C309.254 416.545 307.141 415.966 305.368 414.807C303.595 413.648 302.232 412.051 301.277 410.017C300.322 407.983 299.845 405.659 299.845 403.045C299.845 400.386 300.334 398.04 301.311 396.006C302.3 393.96 303.675 392.364 305.436 391.216C307.209 390.057 309.277 389.477 311.641 389.477C313.482 389.477 315.141 389.818 316.618 390.5C318.095 391.182 319.305 392.136 320.249 393.364C321.192 394.591 321.777 396.023 322.004 397.659H317.982C317.675 396.466 316.993 395.409 315.936 394.489C314.891 393.557 313.482 393.091 311.709 393.091C310.141 393.091 308.766 393.5 307.584 394.318C306.413 395.125 305.499 396.267 304.839 397.744C304.192 399.21 303.868 400.932 303.868 402.909C303.868 404.932 304.186 406.693 304.822 408.193C305.47 409.693 306.379 410.858 307.55 411.688C308.732 412.517 310.118 412.932 311.709 412.932C312.754 412.932 313.703 412.75 314.555 412.386C315.408 412.023 316.129 411.5 316.72 410.818C317.311 410.136 317.732 409.318 317.982 408.364H322.004C321.777 409.909 321.214 411.301 320.317 412.54C319.43 413.767 318.254 414.744 316.788 415.472C315.334 416.188 313.641 416.545 311.709 416.545ZM338.862 416.545C336.339 416.545 334.163 415.989 332.334 414.875C330.516 413.75 329.112 412.182 328.124 410.17C327.146 408.148 326.658 405.795 326.658 403.114C326.658 400.432 327.146 398.068 328.124 396.023C329.112 393.966 330.487 392.364 332.249 391.216C334.021 390.057 336.089 389.477 338.453 389.477C339.817 389.477 341.163 389.705 342.493 390.159C343.822 390.614 345.033 391.352 346.124 392.375C347.214 393.386 348.084 394.727 348.732 396.398C349.379 398.068 349.703 400.125 349.703 402.568V404.273H329.521V400.795H345.612C345.612 399.318 345.317 398 344.726 396.841C344.146 395.682 343.317 394.767 342.237 394.097C341.169 393.426 339.908 393.091 338.453 393.091C336.851 393.091 335.464 393.489 334.294 394.284C333.135 395.068 332.243 396.091 331.618 397.352C330.993 398.614 330.68 399.966 330.68 401.409V403.727C330.68 405.705 331.021 407.381 331.703 408.756C332.396 410.119 333.357 411.159 334.584 411.875C335.811 412.58 337.237 412.932 338.862 412.932C339.919 412.932 340.874 412.784 341.726 412.489C342.589 412.182 343.334 411.727 343.959 411.125C344.584 410.511 345.067 409.75 345.408 408.841L349.294 409.932C348.885 411.25 348.197 412.409 347.232 413.409C346.266 414.398 345.072 415.17 343.652 415.727C342.232 416.273 340.635 416.545 338.862 416.545ZM355.822 416V389.818H359.709V393.773H359.982C360.459 392.477 361.322 391.426 362.572 390.619C363.822 389.812 365.232 389.409 366.8 389.409C367.095 389.409 367.464 389.415 367.908 389.426C368.351 389.437 368.686 389.455 368.913 389.477V393.568C368.777 393.534 368.464 393.483 367.976 393.415C367.499 393.335 366.993 393.295 366.459 393.295C365.186 393.295 364.05 393.562 363.05 394.097C362.061 394.619 361.277 395.347 360.697 396.278C360.129 397.199 359.845 398.25 359.845 399.432V416H355.822ZM91.9865 483.818V447.818H95.8729V451.977H96.3501C96.6456 451.523 97.0547 450.943 97.5774 450.239C98.1115 449.523 98.8729 448.886 99.8615 448.33C100.862 447.761 102.214 447.477 103.918 447.477C106.123 447.477 108.066 448.028 109.748 449.131C111.43 450.233 112.742 451.795 113.685 453.818C114.629 455.841 115.1 458.227 115.1 460.977C115.1 463.75 114.629 466.153 113.685 468.188C112.742 470.21 111.435 471.778 109.765 472.892C108.094 473.994 106.168 474.545 103.987 474.545C102.305 474.545 100.958 474.267 99.9467 473.71C98.9354 473.142 98.157 472.5 97.6115 471.784C97.0661 471.057 96.6456 470.455 96.3501 469.977H96.0092V483.818H91.9865ZM95.9411 460.909C95.9411 462.886 96.2308 464.631 96.8104 466.142C97.3899 467.642 98.2365 468.818 99.3501 469.67C100.464 470.511 101.827 470.932 103.441 470.932C105.123 470.932 106.526 470.489 107.651 469.602C108.788 468.705 109.64 467.5 110.208 465.989C110.788 464.466 111.077 462.773 111.077 460.909C111.077 459.068 110.793 457.409 110.225 455.932C109.668 454.443 108.822 453.267 107.685 452.403C106.56 451.528 105.146 451.091 103.441 451.091C101.805 451.091 100.43 451.506 99.3161 452.335C98.2024 453.153 97.3615 454.301 96.7933 455.778C96.2251 457.244 95.9411 458.955 95.9411 460.909ZM121.237 474V447.818H125.123V451.773H125.396C125.873 450.477 126.737 449.426 127.987 448.619C129.237 447.812 130.646 447.409 132.214 447.409C132.509 447.409 132.879 447.415 133.322 447.426C133.765 447.437 134.1 447.455 134.327 447.477V451.568C134.191 451.534 133.879 451.483 133.39 451.415C132.913 451.335 132.407 451.295 131.873 451.295C130.6 451.295 129.464 451.562 128.464 452.097C127.475 452.619 126.691 453.347 126.112 454.278C125.543 455.199 125.259 456.25 125.259 457.432V474H121.237ZM149.276 474.545C146.754 474.545 144.577 473.989 142.748 472.875C140.93 471.75 139.526 470.182 138.538 468.17C137.56 466.148 137.072 463.795 137.072 461.114C137.072 458.432 137.56 456.068 138.538 454.023C139.526 451.966 140.901 450.364 142.663 449.216C144.435 448.057 146.504 447.477 148.867 447.477C150.231 447.477 151.577 447.705 152.907 448.159C154.237 448.614 155.447 449.352 156.538 450.375C157.629 451.386 158.498 452.727 159.146 454.398C159.793 456.068 160.117 458.125 160.117 460.568V462.273H139.935V458.795H156.026C156.026 457.318 155.731 456 155.14 454.841C154.56 453.682 153.731 452.767 152.651 452.097C151.583 451.426 150.322 451.091 148.867 451.091C147.265 451.091 145.879 451.489 144.708 452.284C143.549 453.068 142.657 454.091 142.032 455.352C141.407 456.614 141.094 457.966 141.094 459.409V461.727C141.094 463.705 141.435 465.381 142.117 466.756C142.81 468.119 143.771 469.159 144.998 469.875C146.225 470.58 147.651 470.932 149.276 470.932C150.333 470.932 151.288 470.784 152.14 470.489C153.004 470.182 153.748 469.727 154.373 469.125C154.998 468.511 155.481 467.75 155.822 466.841L159.708 467.932C159.299 469.25 158.612 470.409 157.646 471.409C156.68 472.398 155.487 473.17 154.066 473.727C152.646 474.273 151.049 474.545 149.276 474.545ZM184.782 453.682L181.168 454.705C180.941 454.102 180.606 453.517 180.163 452.949C179.731 452.369 179.14 451.892 178.39 451.517C177.64 451.142 176.68 450.955 175.509 450.955C173.907 450.955 172.572 451.324 171.504 452.062C170.447 452.79 169.918 453.716 169.918 454.841C169.918 455.841 170.282 456.631 171.009 457.21C171.737 457.79 172.873 458.273 174.418 458.659L178.305 459.614C180.646 460.182 182.39 461.051 183.538 462.222C184.685 463.381 185.259 464.875 185.259 466.705C185.259 468.205 184.827 469.545 183.964 470.727C183.112 471.909 181.918 472.841 180.384 473.523C178.85 474.205 177.066 474.545 175.032 474.545C172.362 474.545 170.151 473.966 168.401 472.807C166.651 471.648 165.543 469.955 165.077 467.727L168.896 466.773C169.259 468.182 169.947 469.239 170.958 469.943C171.981 470.648 173.316 471 174.964 471C176.839 471 178.327 470.602 179.43 469.807C180.543 469 181.1 468.034 181.1 466.909C181.1 466 180.782 465.239 180.146 464.625C179.509 464 178.532 463.534 177.214 463.227L172.85 462.205C170.452 461.636 168.691 460.756 167.566 459.562C166.452 458.358 165.896 456.852 165.896 455.045C165.896 453.568 166.31 452.261 167.14 451.125C167.981 449.989 169.123 449.097 170.566 448.449C172.021 447.801 173.668 447.477 175.509 447.477C178.1 447.477 180.134 448.045 181.612 449.182C183.1 450.318 184.157 451.818 184.782 453.682ZM207.815 463.295V447.818H211.837V474H207.815V469.568H207.542C206.928 470.898 205.974 472.028 204.678 472.96C203.383 473.881 201.746 474.341 199.769 474.341C198.133 474.341 196.678 473.983 195.406 473.267C194.133 472.54 193.133 471.449 192.406 469.994C191.678 468.528 191.315 466.682 191.315 464.455V447.818H195.337V464.182C195.337 466.091 195.871 467.614 196.94 468.75C198.019 469.886 199.394 470.455 201.065 470.455C202.065 470.455 203.082 470.199 204.116 469.688C205.161 469.176 206.036 468.392 206.741 467.335C207.457 466.278 207.815 464.932 207.815 463.295ZM219.205 483.818V447.818H223.092V451.977H223.569C223.864 451.523 224.273 450.943 224.796 450.239C225.33 449.523 226.092 448.886 227.08 448.33C228.08 447.761 229.433 447.477 231.137 447.477C233.342 447.477 235.285 448.028 236.967 449.131C238.648 450.233 239.961 451.795 240.904 453.818C241.847 455.841 242.319 458.227 242.319 460.977C242.319 463.75 241.847 466.153 240.904 468.188C239.961 470.21 238.654 471.778 236.984 472.892C235.313 473.994 233.387 474.545 231.205 474.545C229.523 474.545 228.177 474.267 227.165 473.71C226.154 473.142 225.376 472.5 224.83 471.784C224.285 471.057 223.864 470.455 223.569 469.977H223.228V483.818H219.205ZM223.16 460.909C223.16 462.886 223.45 464.631 224.029 466.142C224.609 467.642 225.455 468.818 226.569 469.67C227.683 470.511 229.046 470.932 230.66 470.932C232.342 470.932 233.745 470.489 234.87 469.602C236.006 468.705 236.859 467.5 237.427 465.989C238.006 464.466 238.296 462.773 238.296 460.909C238.296 459.068 238.012 457.409 237.444 455.932C236.887 454.443 236.04 453.267 234.904 452.403C233.779 451.528 232.364 451.091 230.66 451.091C229.023 451.091 227.648 451.506 226.535 452.335C225.421 453.153 224.58 454.301 224.012 455.778C223.444 457.244 223.16 458.955 223.16 460.909ZM264.955 463.295V447.818H268.978V474H264.955V469.568H264.683C264.069 470.898 263.114 472.028 261.819 472.96C260.523 473.881 258.887 474.341 256.91 474.341C255.273 474.341 253.819 473.983 252.546 473.267C251.273 472.54 250.273 471.449 249.546 469.994C248.819 468.528 248.455 466.682 248.455 464.455V447.818H252.478V464.182C252.478 466.091 253.012 467.614 254.08 468.75C255.16 469.886 256.535 470.455 258.205 470.455C259.205 470.455 260.222 470.199 261.256 469.688C262.302 469.176 263.177 468.392 263.881 467.335C264.597 466.278 264.955 464.932 264.955 463.295ZM287.323 474.545C284.8 474.545 282.624 473.989 280.795 472.875C278.977 471.75 277.573 470.182 276.585 468.17C275.607 466.148 275.119 463.795 275.119 461.114C275.119 458.432 275.607 456.068 276.585 454.023C277.573 451.966 278.948 450.364 280.71 449.216C282.482 448.057 284.55 447.477 286.914 447.477C288.278 447.477 289.624 447.705 290.954 448.159C292.283 448.614 293.494 449.352 294.585 450.375C295.675 451.386 296.545 452.727 297.192 454.398C297.84 456.068 298.164 458.125 298.164 460.568V462.273H277.982V458.795H294.073C294.073 457.318 293.778 456 293.187 454.841C292.607 453.682 291.778 452.767 290.698 452.097C289.63 451.426 288.369 451.091 286.914 451.091C285.312 451.091 283.925 451.489 282.755 452.284C281.596 453.068 280.704 454.091 280.079 455.352C279.454 456.614 279.141 457.966 279.141 459.409V461.727C279.141 463.705 279.482 465.381 280.164 466.756C280.857 468.119 281.817 469.159 283.045 469.875C284.272 470.58 285.698 470.932 287.323 470.932C288.38 470.932 289.335 470.784 290.187 470.489C291.05 470.182 291.795 469.727 292.42 469.125C293.045 468.511 293.528 467.75 293.869 466.841L297.755 467.932C297.346 469.25 296.658 470.409 295.692 471.409C294.727 472.398 293.533 473.17 292.113 473.727C290.692 474.273 289.096 474.545 287.323 474.545ZM322.829 453.682L319.215 454.705C318.988 454.102 318.653 453.517 318.21 452.949C317.778 452.369 317.187 451.892 316.437 451.517C315.687 451.142 314.727 450.955 313.556 450.955C311.954 450.955 310.619 451.324 309.55 452.062C308.494 452.79 307.965 453.716 307.965 454.841C307.965 455.841 308.329 456.631 309.056 457.21C309.783 457.79 310.92 458.273 312.465 458.659L316.352 459.614C318.692 460.182 320.437 461.051 321.585 462.222C322.732 463.381 323.306 464.875 323.306 466.705C323.306 468.205 322.874 469.545 322.011 470.727C321.158 471.909 319.965 472.841 318.431 473.523C316.897 474.205 315.113 474.545 313.079 474.545C310.408 474.545 308.198 473.966 306.448 472.807C304.698 471.648 303.59 469.955 303.124 467.727L306.942 466.773C307.306 468.182 307.994 469.239 309.005 469.943C310.028 470.648 311.363 471 313.011 471C314.886 471 316.374 470.602 317.477 469.807C318.59 469 319.147 468.034 319.147 466.909C319.147 466 318.829 465.239 318.192 464.625C317.556 464 316.579 463.534 315.261 463.227L310.897 462.205C308.499 461.636 306.738 460.756 305.613 459.562C304.499 458.358 303.942 456.852 303.942 455.045C303.942 453.568 304.357 452.261 305.187 451.125C306.028 449.989 307.17 449.097 308.613 448.449C310.067 447.801 311.715 447.477 313.556 447.477C316.147 447.477 318.181 448.045 319.658 449.182C321.147 450.318 322.204 451.818 322.829 453.682ZM340.748 447.818V451.227H327.18V447.818H340.748ZM331.134 441.545H335.157V466.5C335.157 467.636 335.322 468.489 335.651 469.057C335.992 469.614 336.424 469.989 336.947 470.182C337.481 470.364 338.043 470.455 338.634 470.455C339.077 470.455 339.441 470.432 339.725 470.386C340.009 470.33 340.237 470.284 340.407 470.25L341.225 473.864C340.952 473.966 340.572 474.068 340.083 474.17C339.594 474.284 338.975 474.341 338.225 474.341C337.089 474.341 335.975 474.097 334.884 473.608C333.805 473.119 332.907 472.375 332.191 471.375C331.487 470.375 331.134 469.114 331.134 467.591V441.545ZM357.154 474.545C354.79 474.545 352.717 473.983 350.933 472.858C349.16 471.733 347.773 470.159 346.773 468.136C345.785 466.114 345.29 463.75 345.29 461.045C345.29 458.318 345.785 455.937 346.773 453.903C347.773 451.869 349.16 450.29 350.933 449.165C352.717 448.04 354.79 447.477 357.154 447.477C359.518 447.477 361.586 448.04 363.359 449.165C365.143 450.29 366.529 451.869 367.518 453.903C368.518 455.937 369.018 458.318 369.018 461.045C369.018 463.75 368.518 466.114 367.518 468.136C366.529 470.159 365.143 471.733 363.359 472.858C361.586 473.983 359.518 474.545 357.154 474.545ZM357.154 470.932C358.95 470.932 360.427 470.472 361.586 469.551C362.745 468.631 363.603 467.42 364.16 465.92C364.717 464.42 364.995 462.795 364.995 461.045C364.995 459.295 364.717 457.665 364.16 456.153C363.603 454.642 362.745 453.42 361.586 452.489C360.427 451.557 358.95 451.091 357.154 451.091C355.359 451.091 353.881 451.557 352.722 452.489C351.563 453.42 350.705 454.642 350.148 456.153C349.592 457.665 349.313 459.295 349.313 461.045C349.313 462.795 349.592 464.42 350.148 465.92C350.705 467.42 351.563 468.631 352.722 469.551C353.881 470.472 355.359 470.932 357.154 470.932ZM391.249 483.818C390.567 483.818 389.96 483.761 389.425 483.648C388.891 483.545 388.522 483.443 388.317 483.341L389.34 479.795C390.317 480.045 391.181 480.136 391.931 480.068C392.681 480 393.346 479.665 393.925 479.062C394.516 478.472 395.056 477.511 395.545 476.182L396.295 474.136L386.613 447.818H390.977L398.204 468.682H398.477L405.704 447.818H410.067L398.954 477.818C398.454 479.17 397.835 480.29 397.096 481.176C396.357 482.074 395.499 482.739 394.522 483.17C393.556 483.602 392.465 483.818 391.249 483.818ZM57.1307 505.818V509.227H43.5625V505.818H57.1307ZM47.517 499.545H51.5398V524.5C51.5398 525.636 51.7045 526.489 52.0341 527.057C52.375 527.614 52.8068 527.989 53.3295 528.182C53.8636 528.364 54.4261 528.455 55.017 528.455C55.4602 528.455 55.8239 528.432 56.108 528.386C56.392 528.33 56.6193 528.284 56.7898 528.25L57.608 531.864C57.3352 531.966 56.9545 532.068 56.4659 532.17C55.9773 532.284 55.358 532.341 54.608 532.341C53.4716 532.341 52.358 532.097 51.267 531.608C50.1875 531.119 49.2898 530.375 48.5739 529.375C47.8693 528.375 47.517 527.114 47.517 525.591V499.545ZM63.1818 532V505.818H67.2045V532H63.1818ZM65.2273 501.455C64.4432 501.455 63.767 501.188 63.1989 500.653C62.642 500.119 62.3636 499.477 62.3636 498.727C62.3636 497.977 62.642 497.335 63.1989 496.801C63.767 496.267 64.4432 496 65.2273 496C66.0114 496 66.6818 496.267 67.2386 496.801C67.8068 497.335 68.0909 497.977 68.0909 498.727C68.0909 499.477 67.8068 500.119 67.2386 500.653C66.6818 501.188 66.0114 501.455 65.2273 501.455ZM85.5497 532.545C83.027 532.545 80.8509 531.989 79.0213 530.875C77.2031 529.75 75.7997 528.182 74.8111 526.17C73.8338 524.148 73.3452 521.795 73.3452 519.114C73.3452 516.432 73.8338 514.068 74.8111 512.023C75.7997 509.966 77.1747 508.364 78.9361 507.216C80.7088 506.057 82.777 505.477 85.1406 505.477C86.5043 505.477 87.8509 505.705 89.1804 506.159C90.5099 506.614 91.7202 507.352 92.8111 508.375C93.902 509.386 94.7713 510.727 95.419 512.398C96.0668 514.068 96.3906 516.125 96.3906 518.568V520.273H76.2088V516.795H92.2997C92.2997 515.318 92.0043 514 91.4134 512.841C90.8338 511.682 90.0043 510.767 88.9247 510.097C87.8565 509.426 86.5952 509.091 85.1406 509.091C83.5384 509.091 82.152 509.489 80.9815 510.284C79.8224 511.068 78.9304 512.091 78.3054 513.352C77.6804 514.614 77.3679 515.966 77.3679 517.409V519.727C77.3679 521.705 77.7088 523.381 78.3906 524.756C79.0838 526.119 80.044 527.159 81.2713 527.875C82.4986 528.58 83.9247 528.932 85.5497 528.932C86.6065 528.932 87.5611 528.784 88.4134 528.489C89.277 528.182 90.0213 527.727 90.6463 527.125C91.2713 526.511 91.7543 525.75 92.0952 524.841L95.9815 525.932C95.5724 527.25 94.8849 528.409 93.919 529.409C92.9531 530.398 91.7599 531.17 90.3395 531.727C88.919 532.273 87.3224 532.545 85.5497 532.545ZM102.51 532V505.818H106.396V509.909H106.737C107.283 508.511 108.163 507.426 109.379 506.653C110.595 505.869 112.055 505.477 113.76 505.477C115.487 505.477 116.925 505.869 118.072 506.653C119.232 507.426 120.135 508.511 120.783 509.909H121.055C121.726 508.557 122.732 507.483 124.072 506.688C125.413 505.881 127.021 505.477 128.896 505.477C131.237 505.477 133.152 506.21 134.641 507.676C136.129 509.131 136.874 511.398 136.874 514.477V532H132.851V514.477C132.851 512.545 132.322 511.165 131.266 510.335C130.209 509.506 128.964 509.091 127.533 509.091C125.692 509.091 124.266 509.648 123.254 510.761C122.243 511.864 121.737 513.261 121.737 514.955V532H117.646V514.068C117.646 512.58 117.163 511.381 116.197 510.472C115.232 509.551 113.987 509.091 112.464 509.091C111.419 509.091 110.442 509.369 109.533 509.926C108.635 510.483 107.908 511.256 107.351 512.244C106.805 513.222 106.533 514.352 106.533 515.636V532H102.51ZM144.229 541.818V505.818H148.115V509.977H148.592C148.888 509.523 149.297 508.943 149.82 508.239C150.354 507.523 151.115 506.886 152.104 506.33C153.104 505.761 154.456 505.477 156.161 505.477C158.365 505.477 160.308 506.028 161.99 507.131C163.672 508.233 164.984 509.795 165.928 511.818C166.871 513.841 167.342 516.227 167.342 518.977C167.342 521.75 166.871 524.153 165.928 526.188C164.984 528.21 163.678 529.778 162.007 530.892C160.337 531.994 158.411 532.545 156.229 532.545C154.547 532.545 153.2 532.267 152.189 531.71C151.178 531.142 150.399 530.5 149.854 529.784C149.308 529.057 148.888 528.455 148.592 527.977H148.251V541.818H144.229ZM148.183 518.909C148.183 520.886 148.473 522.631 149.053 524.142C149.632 525.642 150.479 526.818 151.592 527.67C152.706 528.511 154.07 528.932 155.683 528.932C157.365 528.932 158.768 528.489 159.893 527.602C161.03 526.705 161.882 525.5 162.45 523.989C163.03 522.466 163.32 520.773 163.32 518.909C163.32 517.068 163.036 515.409 162.467 513.932C161.911 512.443 161.064 511.267 159.928 510.403C158.803 509.528 157.388 509.091 155.683 509.091C154.047 509.091 152.672 509.506 151.558 510.335C150.445 511.153 149.604 512.301 149.036 513.778C148.467 515.244 148.183 516.955 148.183 518.909ZM184.115 532.545C181.751 532.545 179.678 531.983 177.893 530.858C176.121 529.733 174.734 528.159 173.734 526.136C172.746 524.114 172.251 521.75 172.251 519.045C172.251 516.318 172.746 513.937 173.734 511.903C174.734 509.869 176.121 508.29 177.893 507.165C179.678 506.04 181.751 505.477 184.115 505.477C186.479 505.477 188.547 506.04 190.32 507.165C192.104 508.29 193.49 509.869 194.479 511.903C195.479 513.937 195.979 516.318 195.979 519.045C195.979 521.75 195.479 524.114 194.479 526.136C193.49 528.159 192.104 529.733 190.32 530.858C188.547 531.983 186.479 532.545 184.115 532.545ZM184.115 528.932C185.911 528.932 187.388 528.472 188.547 527.551C189.706 526.631 190.564 525.42 191.121 523.92C191.678 522.42 191.956 520.795 191.956 519.045C191.956 517.295 191.678 515.665 191.121 514.153C190.564 512.642 189.706 511.42 188.547 510.489C187.388 509.557 185.911 509.091 184.115 509.091C182.32 509.091 180.842 509.557 179.683 510.489C178.524 511.42 177.666 512.642 177.109 514.153C176.553 515.665 176.274 517.295 176.274 519.045C176.274 520.795 176.553 522.42 177.109 523.92C177.666 525.42 178.524 526.631 179.683 527.551C180.842 528.472 182.32 528.932 184.115 528.932ZM225.506 532.545C223.324 532.545 221.398 531.994 219.727 530.892C218.057 529.778 216.75 528.21 215.807 526.188C214.864 524.153 214.392 521.75 214.392 518.977C214.392 516.227 214.864 513.841 215.807 511.818C216.75 509.795 218.063 508.233 219.744 507.131C221.426 506.028 223.369 505.477 225.574 505.477C227.278 505.477 228.625 505.761 229.614 506.33C230.614 506.886 231.375 507.523 231.898 508.239C232.432 508.943 232.847 509.523 233.142 509.977H233.483V497.091H237.506V532H233.619V527.977H233.142C232.847 528.455 232.426 529.057 231.881 529.784C231.335 530.5 230.557 531.142 229.545 531.71C228.534 532.267 227.188 532.545 225.506 532.545ZM226.051 528.932C227.665 528.932 229.028 528.511 230.142 527.67C231.256 526.818 232.102 525.642 232.682 524.142C233.261 522.631 233.551 520.886 233.551 518.909C233.551 516.955 233.267 515.244 232.699 513.778C232.131 512.301 231.29 511.153 230.176 510.335C229.063 509.506 227.688 509.091 226.051 509.091C224.347 509.091 222.926 509.528 221.79 510.403C220.665 511.267 219.818 512.443 219.25 513.932C218.693 515.409 218.415 517.068 218.415 518.909C218.415 520.773 218.699 522.466 219.267 523.989C219.847 525.5 220.699 526.705 221.824 527.602C222.96 528.489 224.369 528.932 226.051 528.932ZM256.409 532.545C253.886 532.545 251.71 531.989 249.881 530.875C248.062 529.75 246.659 528.182 245.67 526.17C244.693 524.148 244.205 521.795 244.205 519.114C244.205 516.432 244.693 514.068 245.67 512.023C246.659 509.966 248.034 508.364 249.795 507.216C251.568 506.057 253.636 505.477 256 505.477C257.364 505.477 258.71 505.705 260.04 506.159C261.369 506.614 262.58 507.352 263.67 508.375C264.761 509.386 265.631 510.727 266.278 512.398C266.926 514.068 267.25 516.125 267.25 518.568V520.273H247.068V516.795H263.159C263.159 515.318 262.864 514 262.273 512.841C261.693 511.682 260.864 510.767 259.784 510.097C258.716 509.426 257.455 509.091 256 509.091C254.398 509.091 253.011 509.489 251.841 510.284C250.682 511.068 249.79 512.091 249.165 513.352C248.54 514.614 248.227 515.966 248.227 517.409V519.727C248.227 521.705 248.568 523.381 249.25 524.756C249.943 526.119 250.903 527.159 252.131 527.875C253.358 528.58 254.784 528.932 256.409 528.932C257.466 528.932 258.42 528.784 259.273 528.489C260.136 528.182 260.881 527.727 261.506 527.125C262.131 526.511 262.614 525.75 262.955 524.841L266.841 525.932C266.432 527.25 265.744 528.409 264.778 529.409C263.813 530.398 262.619 531.17 261.199 531.727C259.778 532.273 258.182 532.545 256.409 532.545ZM297.847 532.545C295.324 532.545 293.148 531.989 291.318 530.875C289.5 529.75 288.097 528.182 287.108 526.17C286.131 524.148 285.642 521.795 285.642 519.114C285.642 516.432 286.131 514.068 287.108 512.023C288.097 509.966 289.472 508.364 291.233 507.216C293.006 506.057 295.074 505.477 297.438 505.477C298.801 505.477 300.148 505.705 301.477 506.159C302.807 506.614 304.017 507.352 305.108 508.375C306.199 509.386 307.068 510.727 307.716 512.398C308.364 514.068 308.688 516.125 308.688 518.568V520.273H288.506V516.795H304.597C304.597 515.318 304.301 514 303.71 512.841C303.131 511.682 302.301 510.767 301.222 510.097C300.153 509.426 298.892 509.091 297.438 509.091C295.835 509.091 294.449 509.489 293.278 510.284C292.119 511.068 291.227 512.091 290.602 513.352C289.977 514.614 289.665 515.966 289.665 517.409V519.727C289.665 521.705 290.006 523.381 290.688 524.756C291.381 526.119 292.341 527.159 293.568 527.875C294.795 528.58 296.222 528.932 297.847 528.932C298.903 528.932 299.858 528.784 300.71 528.489C301.574 528.182 302.318 527.727 302.943 527.125C303.568 526.511 304.051 525.75 304.392 524.841L308.278 525.932C307.869 527.25 307.182 528.409 306.216 529.409C305.25 530.398 304.057 531.17 302.636 531.727C301.216 532.273 299.619 532.545 297.847 532.545ZM318.83 516.25V532H314.807V505.818H318.693V509.909H319.034C319.648 508.58 320.58 507.511 321.83 506.705C323.08 505.886 324.693 505.477 326.67 505.477C328.443 505.477 329.994 505.841 331.324 506.568C332.653 507.284 333.688 508.375 334.426 509.841C335.165 511.295 335.534 513.136 335.534 515.364V532H331.511V515.636C331.511 513.58 330.977 511.977 329.909 510.83C328.841 509.67 327.375 509.091 325.511 509.091C324.227 509.091 323.08 509.369 322.068 509.926C321.068 510.483 320.278 511.295 319.699 512.364C319.119 513.432 318.83 514.727 318.83 516.25ZM354.271 505.818V509.227H340.703V505.818H354.271ZM344.658 499.545H348.68V524.5C348.68 525.636 348.845 526.489 349.175 527.057C349.516 527.614 349.947 527.989 350.47 528.182C351.004 528.364 351.567 528.455 352.158 528.455C352.601 528.455 352.964 528.432 353.249 528.386C353.533 528.33 353.76 528.284 353.93 528.25L354.749 531.864C354.476 531.966 354.095 532.068 353.607 532.17C353.118 532.284 352.499 532.341 351.749 532.341C350.612 532.341 349.499 532.097 348.408 531.608C347.328 531.119 346.43 530.375 345.714 529.375C345.01 528.375 344.658 527.114 344.658 525.591V499.545ZM360.322 532V505.818H364.209V509.773H364.482C364.959 508.477 365.822 507.426 367.072 506.619C368.322 505.812 369.732 505.409 371.3 505.409C371.595 505.409 371.964 505.415 372.408 505.426C372.851 505.437 373.186 505.455 373.413 505.477V509.568C373.277 509.534 372.964 509.483 372.476 509.415C371.999 509.335 371.493 509.295 370.959 509.295C369.686 509.295 368.55 509.562 367.55 510.097C366.561 510.619 365.777 511.347 365.197 512.278C364.629 513.199 364.345 514.25 364.345 515.432V532H360.322ZM388.362 532.545C385.839 532.545 383.663 531.989 381.834 530.875C380.016 529.75 378.612 528.182 377.624 526.17C376.646 524.148 376.158 521.795 376.158 519.114C376.158 516.432 376.646 514.068 377.624 512.023C378.612 509.966 379.987 508.364 381.749 507.216C383.521 506.057 385.589 505.477 387.953 505.477C389.317 505.477 390.663 505.705 391.993 506.159C393.322 506.614 394.533 507.352 395.624 508.375C396.714 509.386 397.584 510.727 398.232 512.398C398.879 514.068 399.203 516.125 399.203 518.568V520.273H379.021V516.795H395.112C395.112 515.318 394.817 514 394.226 512.841C393.646 511.682 392.817 510.767 391.737 510.097C390.669 509.426 389.408 509.091 387.953 509.091C386.351 509.091 384.964 509.489 383.794 510.284C382.635 511.068 381.743 512.091 381.118 513.352C380.493 514.614 380.18 515.966 380.18 517.409V519.727C380.18 521.705 380.521 523.381 381.203 524.756C381.896 526.119 382.857 527.159 384.084 527.875C385.311 528.58 386.737 528.932 388.362 528.932C389.419 528.932 390.374 528.784 391.226 528.489C392.089 528.182 392.834 527.727 393.459 527.125C394.084 526.511 394.567 525.75 394.908 524.841L398.794 525.932C398.385 527.25 397.697 528.409 396.732 529.409C395.766 530.398 394.572 531.17 393.152 531.727C391.732 532.273 390.135 532.545 388.362 532.545ZM415.891 542.364C413.947 542.364 412.277 542.114 410.879 541.614C409.482 541.125 408.317 540.477 407.385 539.67C406.464 538.875 405.732 538.023 405.186 537.114L408.391 534.864C408.754 535.341 409.214 535.886 409.771 536.5C410.328 537.125 411.089 537.665 412.055 538.119C413.033 538.585 414.311 538.818 415.891 538.818C418.004 538.818 419.749 538.307 421.124 537.284C422.499 536.261 423.186 534.659 423.186 532.477V527.159H422.845C422.55 527.636 422.129 528.227 421.584 528.932C421.05 529.625 420.277 530.244 419.266 530.79C418.266 531.324 416.913 531.591 415.209 531.591C413.095 531.591 411.197 531.091 409.516 530.091C407.845 529.091 406.521 527.636 405.544 525.727C404.578 523.818 404.095 521.5 404.095 518.773C404.095 516.091 404.567 513.756 405.51 511.767C406.453 509.767 407.766 508.222 409.447 507.131C411.129 506.028 413.072 505.477 415.277 505.477C416.982 505.477 418.334 505.761 419.334 506.33C420.345 506.886 421.118 507.523 421.652 508.239C422.197 508.943 422.618 509.523 422.913 509.977H423.322V505.818H427.209V532.75C427.209 535 426.697 536.83 425.675 538.239C424.663 539.659 423.3 540.699 421.584 541.358C419.879 542.028 417.982 542.364 415.891 542.364ZM415.754 527.977C417.368 527.977 418.732 527.608 419.845 526.869C420.959 526.131 421.805 525.068 422.385 523.682C422.964 522.295 423.254 520.636 423.254 518.705C423.254 516.818 422.97 515.153 422.402 513.71C421.834 512.267 420.993 511.136 419.879 510.318C418.766 509.5 417.391 509.091 415.754 509.091C414.05 509.091 412.629 509.523 411.493 510.386C410.368 511.25 409.521 512.409 408.953 513.864C408.396 515.318 408.118 516.932 408.118 518.705C408.118 520.523 408.402 522.131 408.97 523.528C409.55 524.915 410.402 526.006 411.527 526.801C412.663 527.585 414.072 527.977 415.754 527.977ZM442.277 532.614C440.618 532.614 439.112 532.301 437.76 531.676C436.408 531.04 435.334 530.125 434.538 528.932C433.743 527.727 433.345 526.273 433.345 524.568C433.345 523.068 433.641 521.852 434.232 520.92C434.822 519.977 435.612 519.239 436.601 518.705C437.589 518.17 438.68 517.773 439.874 517.511C441.078 517.239 442.288 517.023 443.504 516.864C445.095 516.659 446.385 516.506 447.374 516.403C448.374 516.29 449.101 516.102 449.555 515.841C450.021 515.58 450.254 515.125 450.254 514.477V514.341C450.254 512.659 449.794 511.352 448.874 510.42C447.964 509.489 446.584 509.023 444.732 509.023C442.811 509.023 441.305 509.443 440.214 510.284C439.124 511.125 438.357 512.023 437.913 512.977L434.095 511.614C434.777 510.023 435.686 508.784 436.822 507.898C437.97 507 439.22 506.375 440.572 506.023C441.936 505.659 443.277 505.477 444.595 505.477C445.436 505.477 446.402 505.58 447.493 505.784C448.595 505.977 449.658 506.381 450.68 506.994C451.714 507.608 452.572 508.534 453.254 509.773C453.936 511.011 454.277 512.67 454.277 514.75V532H450.254V528.455H450.05C449.777 529.023 449.322 529.631 448.686 530.278C448.05 530.926 447.203 531.477 446.146 531.932C445.089 532.386 443.8 532.614 442.277 532.614ZM442.891 529C444.482 529 445.822 528.688 446.913 528.062C448.016 527.438 448.845 526.631 449.402 525.642C449.97 524.653 450.254 523.614 450.254 522.523V518.841C450.084 519.045 449.709 519.233 449.129 519.403C448.561 519.562 447.902 519.705 447.152 519.83C446.413 519.943 445.692 520.045 444.987 520.136C444.294 520.216 443.732 520.284 443.3 520.341C442.254 520.477 441.277 520.699 440.368 521.006C439.47 521.301 438.743 521.75 438.186 522.352C437.641 522.943 437.368 523.75 437.368 524.773C437.368 526.17 437.885 527.227 438.919 527.943C439.964 528.648 441.288 529 442.891 529Z" fill="#131313"/>
</svg>
