<svg width="500" height="560" viewBox="0 0 500 560" fill="none" xmlns="http://www.w3.org/2000/svg">
<circle cx="250" cy="325" r="25" fill="#EEEEEE"/>
<rect x="241" y="243" width="18" height="70" fill="#EEEEEE"/>
<rect x="125" width="250" height="250" rx="125" fill="#EEEEEE"/>
<path d="M250.102 162.494C245.415 162.494 241.236 161.689 237.567 160.08C233.921 158.47 231.021 156.232 228.866 153.368C226.736 150.48 225.576 147.13 225.386 143.318H234.335C234.525 145.662 235.33 147.686 236.75 149.391C238.17 151.071 240.029 152.374 242.325 153.297C244.622 154.22 247.167 154.682 249.96 154.682C253.085 154.682 255.855 154.137 258.27 153.048C260.685 151.959 262.579 150.444 263.952 148.503C265.325 146.562 266.011 144.312 266.011 141.756C266.011 139.08 265.348 136.725 264.023 134.689C262.697 132.629 260.756 131.019 258.199 129.859C255.642 128.699 252.517 128.119 248.824 128.119H243V120.307H248.824C251.712 120.307 254.245 119.786 256.423 118.744C258.625 117.703 260.341 116.235 261.572 114.341C262.827 112.447 263.455 110.222 263.455 107.665C263.455 105.203 262.91 103.06 261.821 101.237C260.732 99.4143 259.193 97.9938 257.205 96.9759C255.24 95.9579 252.92 95.4489 250.244 95.4489C247.735 95.4489 245.367 95.9105 243.142 96.8338C240.94 97.7334 239.141 99.0473 237.744 100.776C236.348 102.48 235.59 104.54 235.472 106.955H226.949C227.091 103.143 228.239 99.8049 230.393 96.9403C232.548 94.0521 235.365 91.803 238.845 90.1932C242.349 88.5833 246.196 87.7784 250.386 87.7784C254.884 87.7784 258.743 88.6899 261.963 90.5128C265.183 92.312 267.657 94.6913 269.385 97.6506C271.113 100.61 271.977 103.806 271.977 107.239C271.977 111.334 270.9 114.826 268.746 117.714C266.615 120.603 263.715 122.603 260.045 123.716V124.284C264.638 125.042 268.225 126.995 270.805 130.143C273.386 133.268 274.676 137.139 274.676 141.756C274.676 145.709 273.599 149.26 271.445 152.409C269.314 155.534 266.402 157.996 262.709 159.795C259.016 161.595 254.813 162.494 250.102 162.494Z" fill="black"/>
<path d="M85.8991 416V381.091H106.967V384.841H90.1264V396.636H105.876V400.386H90.1264V412.25H107.24V416H85.8991ZM118.064 381.091V416H114.041V381.091H118.064ZM133.136 416.614C131.477 416.614 129.972 416.301 128.619 415.676C127.267 415.04 126.193 414.125 125.398 412.932C124.602 411.727 124.205 410.273 124.205 408.568C124.205 407.068 124.5 405.852 125.091 404.92C125.682 403.977 126.472 403.239 127.46 402.705C128.449 402.17 129.54 401.773 130.733 401.511C131.938 401.239 133.148 401.023 134.364 400.864C135.955 400.659 137.244 400.506 138.233 400.403C139.233 400.29 139.96 400.102 140.415 399.841C140.881 399.58 141.114 399.125 141.114 398.477V398.341C141.114 396.659 140.653 395.352 139.733 394.42C138.824 393.489 137.443 393.023 135.591 393.023C133.67 393.023 132.165 393.443 131.074 394.284C129.983 395.125 129.216 396.023 128.773 396.977L124.955 395.614C125.636 394.023 126.545 392.784 127.682 391.898C128.83 391 130.08 390.375 131.432 390.023C132.795 389.659 134.136 389.477 135.455 389.477C136.295 389.477 137.261 389.58 138.352 389.784C139.455 389.977 140.517 390.381 141.54 390.994C142.574 391.608 143.432 392.534 144.114 393.773C144.795 395.011 145.136 396.67 145.136 398.75V416H141.114V412.455H140.909C140.636 413.023 140.182 413.631 139.545 414.278C138.909 414.926 138.063 415.477 137.006 415.932C135.949 416.386 134.659 416.614 133.136 416.614ZM133.75 413C135.341 413 136.682 412.688 137.773 412.062C138.875 411.438 139.705 410.631 140.261 409.642C140.83 408.653 141.114 407.614 141.114 406.523V402.841C140.943 403.045 140.568 403.233 139.989 403.403C139.42 403.562 138.761 403.705 138.011 403.83C137.273 403.943 136.551 404.045 135.847 404.136C135.153 404.216 134.591 404.284 134.159 404.341C133.114 404.477 132.136 404.699 131.227 405.006C130.33 405.301 129.602 405.75 129.045 406.352C128.5 406.943 128.227 407.75 128.227 408.773C128.227 410.17 128.744 411.227 129.778 411.943C130.824 412.648 132.148 413 133.75 413ZM153.024 416V381.091H157.047V393.977H157.388C157.683 393.523 158.092 392.943 158.615 392.239C159.149 391.523 159.911 390.886 160.899 390.33C161.899 389.761 163.251 389.477 164.956 389.477C167.161 389.477 169.104 390.028 170.786 391.131C172.467 392.233 173.78 393.795 174.723 395.818C175.666 397.841 176.138 400.227 176.138 402.977C176.138 405.75 175.666 408.153 174.723 410.188C173.78 412.21 172.473 413.778 170.803 414.892C169.132 415.994 167.206 416.545 165.024 416.545C163.342 416.545 161.996 416.267 160.984 415.71C159.973 415.142 159.195 414.5 158.649 413.784C158.104 413.057 157.683 412.455 157.388 411.977H156.911V416H153.024ZM156.979 402.909C156.979 404.886 157.268 406.631 157.848 408.142C158.428 409.642 159.274 410.818 160.388 411.67C161.501 412.511 162.865 412.932 164.479 412.932C166.161 412.932 167.564 412.489 168.689 411.602C169.825 410.705 170.678 409.5 171.246 407.989C171.825 406.466 172.115 404.773 172.115 402.909C172.115 401.068 171.831 399.409 171.263 397.932C170.706 396.443 169.859 395.267 168.723 394.403C167.598 393.528 166.183 393.091 164.479 393.091C162.842 393.091 161.467 393.506 160.354 394.335C159.24 395.153 158.399 396.301 157.831 397.778C157.263 399.244 156.979 400.955 156.979 402.909ZM192.928 416.545C190.564 416.545 188.49 415.983 186.706 414.858C184.933 413.733 183.547 412.159 182.547 410.136C181.558 408.114 181.064 405.75 181.064 403.045C181.064 400.318 181.558 397.937 182.547 395.903C183.547 393.869 184.933 392.29 186.706 391.165C188.49 390.04 190.564 389.477 192.928 389.477C195.291 389.477 197.359 390.04 199.132 391.165C200.916 392.29 202.303 393.869 203.291 395.903C204.291 397.937 204.791 400.318 204.791 403.045C204.791 405.75 204.291 408.114 203.291 410.136C202.303 412.159 200.916 413.733 199.132 414.858C197.359 415.983 195.291 416.545 192.928 416.545ZM192.928 412.932C194.723 412.932 196.2 412.472 197.359 411.551C198.518 410.631 199.376 409.42 199.933 407.92C200.49 406.42 200.768 404.795 200.768 403.045C200.768 401.295 200.49 399.665 199.933 398.153C199.376 396.642 198.518 395.42 197.359 394.489C196.2 393.557 194.723 393.091 192.928 393.091C191.132 393.091 189.655 393.557 188.496 394.489C187.337 395.42 186.479 396.642 185.922 398.153C185.365 399.665 185.087 401.295 185.087 403.045C185.087 404.795 185.365 406.42 185.922 407.92C186.479 409.42 187.337 410.631 188.496 411.551C189.655 412.472 191.132 412.932 192.928 412.932ZM210.932 416V389.818H214.818V393.773H215.091C215.568 392.477 216.432 391.426 217.682 390.619C218.932 389.812 220.341 389.409 221.909 389.409C222.205 389.409 222.574 389.415 223.017 389.426C223.46 389.437 223.795 389.455 224.023 389.477V393.568C223.886 393.534 223.574 393.483 223.085 393.415C222.608 393.335 222.102 393.295 221.568 393.295C220.295 393.295 219.159 393.562 218.159 394.097C217.17 394.619 216.386 395.347 215.807 396.278C215.239 397.199 214.955 398.25 214.955 399.432V416H210.932ZM236.496 416.614C234.837 416.614 233.331 416.301 231.979 415.676C230.626 415.04 229.553 414.125 228.757 412.932C227.962 411.727 227.564 410.273 227.564 408.568C227.564 407.068 227.859 405.852 228.45 404.92C229.041 403.977 229.831 403.239 230.82 402.705C231.808 402.17 232.899 401.773 234.092 401.511C235.297 401.239 236.507 401.023 237.723 400.864C239.314 400.659 240.604 400.506 241.592 400.403C242.592 400.29 243.32 400.102 243.774 399.841C244.24 399.58 244.473 399.125 244.473 398.477V398.341C244.473 396.659 244.013 395.352 243.092 394.42C242.183 393.489 240.803 393.023 238.95 393.023C237.03 393.023 235.524 393.443 234.433 394.284C233.342 395.125 232.575 396.023 232.132 396.977L228.314 395.614C228.996 394.023 229.905 392.784 231.041 391.898C232.189 391 233.439 390.375 234.791 390.023C236.155 389.659 237.496 389.477 238.814 389.477C239.655 389.477 240.621 389.58 241.712 389.784C242.814 389.977 243.876 390.381 244.899 390.994C245.933 391.608 246.791 392.534 247.473 393.773C248.155 395.011 248.496 396.67 248.496 398.75V416H244.473V412.455H244.268C243.996 413.023 243.541 413.631 242.905 414.278C242.268 414.926 241.422 415.477 240.365 415.932C239.308 416.386 238.018 416.614 236.496 416.614ZM237.109 413C238.7 413 240.041 412.688 241.132 412.062C242.234 411.438 243.064 410.631 243.621 409.642C244.189 408.653 244.473 407.614 244.473 406.523V402.841C244.303 403.045 243.928 403.233 243.348 403.403C242.78 403.562 242.121 403.705 241.371 403.83C240.632 403.943 239.911 404.045 239.206 404.136C238.513 404.216 237.95 404.284 237.518 404.341C236.473 404.477 235.496 404.699 234.587 405.006C233.689 405.301 232.962 405.75 232.405 406.352C231.859 406.943 231.587 407.75 231.587 408.773C231.587 410.17 232.104 411.227 233.138 411.943C234.183 412.648 235.507 413 237.109 413ZM266.474 416.545C264.02 416.545 261.906 415.966 260.134 414.807C258.361 413.648 256.997 412.051 256.043 410.017C255.088 407.983 254.611 405.659 254.611 403.045C254.611 400.386 255.099 398.04 256.077 396.006C257.065 393.96 258.44 392.364 260.202 391.216C261.974 390.057 264.043 389.477 266.406 389.477C268.247 389.477 269.906 389.818 271.384 390.5C272.861 391.182 274.071 392.136 275.014 393.364C275.957 394.591 276.543 396.023 276.77 397.659H272.747C272.44 396.466 271.759 395.409 270.702 394.489C269.656 393.557 268.247 393.091 266.474 393.091C264.906 393.091 263.531 393.5 262.349 394.318C261.179 395.125 260.264 396.267 259.605 397.744C258.957 399.21 258.634 400.932 258.634 402.909C258.634 404.932 258.952 406.693 259.588 408.193C260.236 409.693 261.145 410.858 262.315 411.688C263.497 412.517 264.884 412.932 266.474 412.932C267.52 412.932 268.469 412.75 269.321 412.386C270.173 412.023 270.895 411.5 271.486 410.818C272.077 410.136 272.497 409.318 272.747 408.364H276.77C276.543 409.909 275.98 411.301 275.082 412.54C274.196 413.767 273.02 414.744 271.554 415.472C270.099 416.188 268.406 416.545 266.474 416.545ZM282.651 416V389.818H286.673V416H282.651ZM284.696 385.455C283.912 385.455 283.236 385.188 282.668 384.653C282.111 384.119 281.832 383.477 281.832 382.727C281.832 381.977 282.111 381.335 282.668 380.801C283.236 380.267 283.912 380 284.696 380C285.48 380 286.151 380.267 286.707 380.801C287.276 381.335 287.56 381.977 287.56 382.727C287.56 383.477 287.276 384.119 286.707 384.653C286.151 385.188 285.48 385.455 284.696 385.455ZM304.678 416.545C302.314 416.545 300.24 415.983 298.456 414.858C296.683 413.733 295.297 412.159 294.297 410.136C293.308 408.114 292.814 405.75 292.814 403.045C292.814 400.318 293.308 397.937 294.297 395.903C295.297 393.869 296.683 392.29 298.456 391.165C300.24 390.04 302.314 389.477 304.678 389.477C307.041 389.477 309.109 390.04 310.882 391.165C312.666 392.29 314.053 393.869 315.041 395.903C316.041 397.937 316.541 400.318 316.541 403.045C316.541 405.75 316.041 408.114 315.041 410.136C314.053 412.159 312.666 413.733 310.882 414.858C309.109 415.983 307.041 416.545 304.678 416.545ZM304.678 412.932C306.473 412.932 307.95 412.472 309.109 411.551C310.268 410.631 311.126 409.42 311.683 407.92C312.24 406.42 312.518 404.795 312.518 403.045C312.518 401.295 312.24 399.665 311.683 398.153C311.126 396.642 310.268 395.42 309.109 394.489C307.95 393.557 306.473 393.091 304.678 393.091C302.882 393.091 301.405 393.557 300.246 394.489C299.087 395.42 298.229 396.642 297.672 398.153C297.115 399.665 296.837 401.295 296.837 403.045C296.837 404.795 297.115 406.42 297.672 407.92C298.229 409.42 299.087 410.631 300.246 411.551C301.405 412.472 302.882 412.932 304.678 412.932ZM302.837 386.273L306.996 378.364H311.7L306.382 386.273H302.837ZM326.705 400.25V416H322.682V389.818H326.568V393.909H326.909C327.523 392.58 328.455 391.511 329.705 390.705C330.955 389.886 332.568 389.477 334.545 389.477C336.318 389.477 337.869 389.841 339.199 390.568C340.528 391.284 341.563 392.375 342.301 393.841C343.04 395.295 343.409 397.136 343.409 399.364V416H339.386V399.636C339.386 397.58 338.852 395.977 337.784 394.83C336.716 393.67 335.25 393.091 333.386 393.091C332.102 393.091 330.955 393.369 329.943 393.926C328.943 394.483 328.153 395.295 327.574 396.364C326.994 397.432 326.705 398.727 326.705 400.25ZM374.146 416.545C371.964 416.545 370.038 415.994 368.368 414.892C366.697 413.778 365.391 412.21 364.447 410.188C363.504 408.153 363.033 405.75 363.033 402.977C363.033 400.227 363.504 397.841 364.447 395.818C365.391 393.795 366.703 392.233 368.385 391.131C370.067 390.028 372.01 389.477 374.214 389.477C375.919 389.477 377.266 389.761 378.254 390.33C379.254 390.886 380.016 391.523 380.538 392.239C381.072 392.943 381.487 393.523 381.783 393.977H382.124V381.091H386.146V416H382.26V411.977H381.783C381.487 412.455 381.067 413.057 380.521 413.784C379.976 414.5 379.197 415.142 378.186 415.71C377.175 416.267 375.828 416.545 374.146 416.545ZM374.692 412.932C376.305 412.932 377.669 412.511 378.783 411.67C379.896 410.818 380.743 409.642 381.322 408.142C381.902 406.631 382.192 404.886 382.192 402.909C382.192 400.955 381.908 399.244 381.339 397.778C380.771 396.301 379.93 395.153 378.817 394.335C377.703 393.506 376.328 393.091 374.692 393.091C372.987 393.091 371.567 393.528 370.43 394.403C369.305 395.267 368.459 396.443 367.891 397.932C367.334 399.409 367.055 401.068 367.055 402.909C367.055 404.773 367.339 406.466 367.908 407.989C368.487 409.5 369.339 410.705 370.464 411.602C371.601 412.489 373.01 412.932 374.692 412.932ZM405.05 416.545C402.527 416.545 400.351 415.989 398.521 414.875C396.703 413.75 395.3 412.182 394.311 410.17C393.334 408.148 392.845 405.795 392.845 403.114C392.845 400.432 393.334 398.068 394.311 396.023C395.3 393.966 396.675 392.364 398.436 391.216C400.209 390.057 402.277 389.477 404.641 389.477C406.004 389.477 407.351 389.705 408.68 390.159C410.01 390.614 411.22 391.352 412.311 392.375C413.402 393.386 414.271 394.727 414.919 396.398C415.567 398.068 415.891 400.125 415.891 402.568V404.273H395.709V400.795H411.8C411.8 399.318 411.504 398 410.913 396.841C410.334 395.682 409.504 394.767 408.425 394.097C407.357 393.426 406.095 393.091 404.641 393.091C403.038 393.091 401.652 393.489 400.482 394.284C399.322 395.068 398.43 396.091 397.805 397.352C397.18 398.614 396.868 399.966 396.868 401.409V403.727C396.868 405.705 397.209 407.381 397.891 408.756C398.584 410.119 399.544 411.159 400.771 411.875C401.999 412.58 403.425 412.932 405.05 412.932C406.107 412.932 407.061 412.784 407.913 412.489C408.777 412.182 409.521 411.727 410.146 411.125C410.771 410.511 411.254 409.75 411.595 408.841L415.482 409.932C415.072 411.25 414.385 412.409 413.419 413.409C412.453 414.398 411.26 415.17 409.839 415.727C408.419 416.273 406.822 416.545 405.05 416.545ZM51.3054 439.091H56.3509L68.2145 468.068H68.6236L80.4872 439.091H85.5327V474H81.5781V447.477H81.2372L70.3281 474H66.5099L55.6009 447.477H55.2599V474H51.3054V439.091ZM104.099 474.545C101.736 474.545 99.6619 473.983 97.8778 472.858C96.1051 471.733 94.7188 470.159 93.7188 468.136C92.7301 466.114 92.2358 463.75 92.2358 461.045C92.2358 458.318 92.7301 455.937 93.7188 453.903C94.7188 451.869 96.1051 450.29 97.8778 449.165C99.6619 448.04 101.736 447.477 104.099 447.477C106.463 447.477 108.531 448.04 110.304 449.165C112.088 450.29 113.474 451.869 114.463 453.903C115.463 455.937 115.963 458.318 115.963 461.045C115.963 463.75 115.463 466.114 114.463 468.136C113.474 470.159 112.088 471.733 110.304 472.858C108.531 473.983 106.463 474.545 104.099 474.545ZM104.099 470.932C105.895 470.932 107.372 470.472 108.531 469.551C109.69 468.631 110.548 467.42 111.105 465.92C111.662 464.42 111.94 462.795 111.94 461.045C111.94 459.295 111.662 457.665 111.105 456.153C110.548 454.642 109.69 453.42 108.531 452.489C107.372 451.557 105.895 451.091 104.099 451.091C102.304 451.091 100.827 451.557 99.6676 452.489C98.5085 453.42 97.6506 454.642 97.0938 456.153C96.5369 457.665 96.2585 459.295 96.2585 461.045C96.2585 462.795 96.5369 464.42 97.0938 465.92C97.6506 467.42 98.5085 468.631 99.6676 469.551C100.827 470.472 102.304 470.932 104.099 470.932ZM132.74 474.545C130.286 474.545 128.172 473.966 126.399 472.807C124.626 471.648 123.263 470.051 122.308 468.017C121.354 465.983 120.876 463.659 120.876 461.045C120.876 458.386 121.365 456.04 122.342 454.006C123.331 451.96 124.706 450.364 126.467 449.216C128.24 448.057 130.308 447.477 132.672 447.477C134.513 447.477 136.172 447.818 137.649 448.5C139.126 449.182 140.337 450.136 141.28 451.364C142.223 452.591 142.808 454.023 143.036 455.659H139.013C138.706 454.466 138.024 453.409 136.967 452.489C135.922 451.557 134.513 451.091 132.74 451.091C131.172 451.091 129.797 451.5 128.615 452.318C127.445 453.125 126.53 454.267 125.871 455.744C125.223 457.21 124.899 458.932 124.899 460.909C124.899 462.932 125.217 464.693 125.854 466.193C126.501 467.693 127.411 468.858 128.581 469.688C129.763 470.517 131.149 470.932 132.74 470.932C133.786 470.932 134.734 470.75 135.587 470.386C136.439 470.023 137.161 469.5 137.751 468.818C138.342 468.136 138.763 467.318 139.013 466.364H143.036C142.808 467.909 142.246 469.301 141.348 470.54C140.462 471.767 139.286 472.744 137.82 473.472C136.365 474.188 134.672 474.545 132.74 474.545ZM152.666 464.455L152.598 459.477H153.416L164.871 447.818H169.848L157.643 460.159H157.303L152.666 464.455ZM148.916 474V439.091H152.939V474H148.916ZM165.553 474L155.325 461.045L158.189 458.25L170.666 474H165.553ZM205.026 463.295V447.818H209.048V474H205.026V469.568H204.753C204.139 470.898 203.185 472.028 201.889 472.96C200.594 473.881 198.957 474.341 196.98 474.341C195.344 474.341 193.889 473.983 192.616 473.267C191.344 472.54 190.344 471.449 189.616 469.994C188.889 468.528 188.526 466.682 188.526 464.455V447.818H192.548V464.182C192.548 466.091 193.082 467.614 194.151 468.75C195.23 469.886 196.605 470.455 198.276 470.455C199.276 470.455 200.293 470.199 201.327 469.688C202.372 469.176 203.247 468.392 203.952 467.335C204.668 466.278 205.026 464.932 205.026 463.295ZM216.416 483.818V447.818H220.303V451.977H220.78C221.075 451.523 221.484 450.943 222.007 450.239C222.541 449.523 223.303 448.886 224.291 448.33C225.291 447.761 226.643 447.477 228.348 447.477C230.553 447.477 232.496 448.028 234.178 449.131C235.859 450.233 237.172 451.795 238.115 453.818C239.058 455.841 239.53 458.227 239.53 460.977C239.53 463.75 239.058 466.153 238.115 468.188C237.172 470.21 235.865 471.778 234.195 472.892C232.524 473.994 230.598 474.545 228.416 474.545C226.734 474.545 225.388 474.267 224.376 473.71C223.365 473.142 222.587 472.5 222.041 471.784C221.496 471.057 221.075 470.455 220.78 469.977H220.439V483.818H216.416ZM220.371 460.909C220.371 462.886 220.661 464.631 221.24 466.142C221.82 467.642 222.666 468.818 223.78 469.67C224.893 470.511 226.257 470.932 227.871 470.932C229.553 470.932 230.956 470.489 232.081 469.602C233.217 468.705 234.07 467.5 234.638 465.989C235.217 464.466 235.507 462.773 235.507 460.909C235.507 459.068 235.223 457.409 234.655 455.932C234.098 454.443 233.251 453.267 232.115 452.403C230.99 451.528 229.575 451.091 227.871 451.091C226.234 451.091 224.859 451.506 223.746 452.335C222.632 453.153 221.791 454.301 221.223 455.778C220.655 457.244 220.371 458.955 220.371 460.909ZM264.212 453.682L260.598 454.705C260.371 454.102 260.036 453.517 259.592 452.949C259.161 452.369 258.57 451.892 257.82 451.517C257.07 451.142 256.109 450.955 254.939 450.955C253.337 450.955 252.001 451.324 250.933 452.062C249.876 452.79 249.348 453.716 249.348 454.841C249.348 455.841 249.712 456.631 250.439 457.21C251.166 457.79 252.303 458.273 253.848 458.659L257.734 459.614C260.075 460.182 261.82 461.051 262.967 462.222C264.115 463.381 264.689 464.875 264.689 466.705C264.689 468.205 264.257 469.545 263.393 470.727C262.541 471.909 261.348 472.841 259.814 473.523C258.28 474.205 256.496 474.545 254.462 474.545C251.791 474.545 249.581 473.966 247.831 472.807C246.081 471.648 244.973 469.955 244.507 467.727L248.325 466.773C248.689 468.182 249.376 469.239 250.388 469.943C251.411 470.648 252.746 471 254.393 471C256.268 471 257.757 470.602 258.859 469.807C259.973 469 260.53 468.034 260.53 466.909C260.53 466 260.212 465.239 259.575 464.625C258.939 464 257.962 463.534 256.643 463.227L252.28 462.205C249.882 461.636 248.121 460.756 246.996 459.562C245.882 458.358 245.325 456.852 245.325 455.045C245.325 453.568 245.74 452.261 246.57 451.125C247.411 449.989 248.553 449.097 249.996 448.449C251.45 447.801 253.098 447.477 254.939 447.477C257.53 447.477 259.564 448.045 261.041 449.182C262.53 450.318 263.587 451.818 264.212 453.682ZM285.676 456.545C285.676 452.25 286.233 448.301 287.347 444.699C288.472 441.085 290.074 437.761 292.153 434.727H295.699C294.881 435.852 294.114 437.239 293.398 438.886C292.693 440.523 292.074 442.324 291.54 444.29C291.006 446.244 290.585 448.267 290.278 450.358C289.983 452.449 289.835 454.511 289.835 456.545C289.835 459.25 290.097 461.994 290.619 464.778C291.142 467.562 291.847 470.148 292.733 472.534C293.619 474.92 294.608 476.864 295.699 478.364H292.153C290.074 475.33 288.472 472.011 287.347 468.409C286.233 464.795 285.676 460.841 285.676 456.545ZM302.18 474V439.091H323.112V442.841H306.408V454.636H321.544V458.386H306.408V474H302.18ZM329.807 474V447.818H333.83V474H329.807ZM331.852 443.455C331.068 443.455 330.392 443.188 329.824 442.653C329.267 442.119 328.989 441.477 328.989 440.727C328.989 439.977 329.267 439.335 329.824 438.801C330.392 438.267 331.068 438 331.852 438C332.636 438 333.307 438.267 333.864 438.801C334.432 439.335 334.716 439.977 334.716 440.727C334.716 441.477 334.432 442.119 333.864 442.653C333.307 443.188 332.636 443.455 331.852 443.455ZM351.766 484.364C349.822 484.364 348.152 484.114 346.754 483.614C345.357 483.125 344.192 482.477 343.26 481.67C342.339 480.875 341.607 480.023 341.061 479.114L344.266 476.864C344.629 477.341 345.089 477.886 345.646 478.5C346.203 479.125 346.964 479.665 347.93 480.119C348.908 480.585 350.186 480.818 351.766 480.818C353.879 480.818 355.624 480.307 356.999 479.284C358.374 478.261 359.061 476.659 359.061 474.477V469.159H358.72C358.425 469.636 358.004 470.227 357.459 470.932C356.925 471.625 356.152 472.244 355.141 472.79C354.141 473.324 352.788 473.591 351.084 473.591C348.97 473.591 347.072 473.091 345.391 472.091C343.72 471.091 342.396 469.636 341.419 467.727C340.453 465.818 339.97 463.5 339.97 460.773C339.97 458.091 340.442 455.756 341.385 453.767C342.328 451.767 343.641 450.222 345.322 449.131C347.004 448.028 348.947 447.477 351.152 447.477C352.857 447.477 354.209 447.761 355.209 448.33C356.22 448.886 356.993 449.523 357.527 450.239C358.072 450.943 358.493 451.523 358.788 451.977H359.197V447.818H363.084V474.75C363.084 477 362.572 478.83 361.55 480.239C360.538 481.659 359.175 482.699 357.459 483.358C355.754 484.028 353.857 484.364 351.766 484.364ZM351.629 469.977C353.243 469.977 354.607 469.608 355.72 468.869C356.834 468.131 357.68 467.068 358.26 465.682C358.839 464.295 359.129 462.636 359.129 460.705C359.129 458.818 358.845 457.153 358.277 455.71C357.709 454.267 356.868 453.136 355.754 452.318C354.641 451.5 353.266 451.091 351.629 451.091C349.925 451.091 348.504 451.523 347.368 452.386C346.243 453.25 345.396 454.409 344.828 455.864C344.271 457.318 343.993 458.932 343.993 460.705C343.993 462.523 344.277 464.131 344.845 465.528C345.425 466.915 346.277 468.006 347.402 468.801C348.538 469.585 349.947 469.977 351.629 469.977ZM370.447 474V447.818H374.334V451.909H374.675C375.22 450.511 376.101 449.426 377.317 448.653C378.533 447.869 379.993 447.477 381.697 447.477C383.425 447.477 384.862 447.869 386.01 448.653C387.169 449.426 388.072 450.511 388.72 451.909H388.993C389.663 450.557 390.669 449.483 392.01 448.688C393.351 447.881 394.959 447.477 396.834 447.477C399.175 447.477 401.089 448.21 402.578 449.676C404.067 451.131 404.811 453.398 404.811 456.477V474H400.788V456.477C400.788 454.545 400.26 453.165 399.203 452.335C398.146 451.506 396.902 451.091 395.47 451.091C393.629 451.091 392.203 451.648 391.192 452.761C390.18 453.864 389.675 455.261 389.675 456.955V474H385.584V456.068C385.584 454.58 385.101 453.381 384.135 452.472C383.169 451.551 381.925 451.091 380.402 451.091C379.357 451.091 378.379 451.369 377.47 451.926C376.572 452.483 375.845 453.256 375.288 454.244C374.743 455.222 374.47 456.352 374.47 457.636V474H370.447ZM419.871 474.614C418.212 474.614 416.706 474.301 415.354 473.676C414.001 473.04 412.928 472.125 412.132 470.932C411.337 469.727 410.939 468.273 410.939 466.568C410.939 465.068 411.234 463.852 411.825 462.92C412.416 461.977 413.206 461.239 414.195 460.705C415.183 460.17 416.274 459.773 417.467 459.511C418.672 459.239 419.882 459.023 421.098 458.864C422.689 458.659 423.979 458.506 424.967 458.403C425.967 458.29 426.695 458.102 427.149 457.841C427.615 457.58 427.848 457.125 427.848 456.477V456.341C427.848 454.659 427.388 453.352 426.467 452.42C425.558 451.489 424.178 451.023 422.325 451.023C420.405 451.023 418.899 451.443 417.808 452.284C416.717 453.125 415.95 454.023 415.507 454.977L411.689 453.614C412.371 452.023 413.28 450.784 414.416 449.898C415.564 449 416.814 448.375 418.166 448.023C419.53 447.659 420.871 447.477 422.189 447.477C423.03 447.477 423.996 447.58 425.087 447.784C426.189 447.977 427.251 448.381 428.274 448.994C429.308 449.608 430.166 450.534 430.848 451.773C431.53 453.011 431.871 454.67 431.871 456.75V474H427.848V470.455H427.643C427.371 471.023 426.916 471.631 426.28 472.278C425.643 472.926 424.797 473.477 423.74 473.932C422.683 474.386 421.393 474.614 419.871 474.614ZM420.484 471C422.075 471 423.416 470.688 424.507 470.062C425.609 469.438 426.439 468.631 426.996 467.642C427.564 466.653 427.848 465.614 427.848 464.523V460.841C427.678 461.045 427.303 461.233 426.723 461.403C426.155 461.562 425.496 461.705 424.746 461.83C424.007 461.943 423.286 462.045 422.581 462.136C421.888 462.216 421.325 462.284 420.893 462.341C419.848 462.477 418.871 462.699 417.962 463.006C417.064 463.301 416.337 463.75 415.78 464.352C415.234 464.943 414.962 465.75 414.962 466.773C414.962 468.17 415.479 469.227 416.513 469.943C417.558 470.648 418.882 471 420.484 471ZM447.804 459.273C447.804 463.568 447.241 467.523 446.116 471.136C445.003 474.739 443.406 478.057 441.327 481.091H437.781C438.599 479.966 439.361 478.58 440.065 476.932C440.781 475.295 441.406 473.5 441.94 471.545C442.474 469.58 442.889 467.551 443.185 465.46C443.491 463.358 443.645 461.295 443.645 459.273C443.645 456.568 443.384 453.824 442.861 451.04C442.338 448.256 441.634 445.67 440.747 443.284C439.861 440.898 438.872 438.955 437.781 437.455H441.327C443.406 440.489 445.003 443.812 446.116 447.426C447.241 451.028 447.804 454.977 447.804 459.273Z" fill="#EEEEEE"/>
</svg>
