<svg width="500" height="1500" viewBox="0 0 500 1500" fill="none" xmlns="http://www.w3.org/2000/svg">
<circle cx="250" cy="921" r="25" fill="#EEEEEE"/>
<rect x="241" y="713" width="18" height="192" fill="#EEEEEE"/>
<rect x="125" y="470" width="250" height="250" rx="125" fill="#EEEEEE"/>
<path d="M250.102 632.494C245.415 632.494 241.236 631.689 237.567 630.08C233.921 628.47 231.021 626.232 228.866 623.368C226.736 620.48 225.576 617.13 225.386 613.318H234.335C234.525 615.662 235.33 617.686 236.75 619.391C238.17 621.071 240.029 622.374 242.325 623.297C244.622 624.22 247.167 624.682 249.96 624.682C253.085 624.682 255.855 624.137 258.27 623.048C260.685 621.959 262.579 620.444 263.952 618.503C265.325 616.562 266.011 614.312 266.011 611.756C266.011 609.08 265.348 606.725 264.023 604.689C262.697 602.629 260.756 601.019 258.199 599.859C255.642 598.699 252.517 598.119 248.824 598.119H243V590.307H248.824C251.712 590.307 254.245 589.786 256.423 588.744C258.625 587.703 260.341 586.235 261.572 584.341C262.827 582.447 263.455 580.222 263.455 577.665C263.455 575.203 262.91 573.06 261.821 571.237C260.732 569.414 259.193 567.994 257.205 566.976C255.24 565.958 252.92 565.449 250.244 565.449C247.735 565.449 245.367 565.911 243.142 566.834C240.94 567.733 239.141 569.047 237.744 570.776C236.348 572.48 235.59 574.54 235.472 576.955H226.949C227.091 573.143 228.239 569.805 230.393 566.94C232.548 564.052 235.365 561.803 238.845 560.193C242.349 558.583 246.196 557.778 250.386 557.778C254.884 557.778 258.743 558.69 261.963 560.513C265.183 562.312 267.657 564.691 269.385 567.651C271.113 570.61 271.977 573.806 271.977 577.239C271.977 581.334 270.9 584.826 268.746 587.714C266.615 590.603 263.715 592.603 260.045 593.716V594.284C264.638 595.042 268.225 596.995 270.805 600.143C273.386 603.268 274.676 607.139 274.676 611.756C274.676 615.709 273.599 619.26 271.445 622.409C269.314 625.534 266.402 627.996 262.709 629.795C259.016 631.595 254.813 632.494 250.102 632.494Z" fill="black"/>
<path d="M85.8991 1042V1007.09H106.967V1010.84H90.1264V1022.64H105.876V1026.39H90.1264V1038.25H107.24V1042H85.8991ZM118.064 1007.09V1042H114.041V1007.09H118.064ZM133.136 1042.61C131.477 1042.61 129.972 1042.3 128.619 1041.68C127.267 1041.04 126.193 1040.12 125.398 1038.93C124.602 1037.73 124.205 1036.27 124.205 1034.57C124.205 1033.07 124.5 1031.85 125.091 1030.92C125.682 1029.98 126.472 1029.24 127.46 1028.7C128.449 1028.17 129.54 1027.77 130.733 1027.51C131.938 1027.24 133.148 1027.02 134.364 1026.86C135.955 1026.66 137.244 1026.51 138.233 1026.4C139.233 1026.29 139.96 1026.1 140.415 1025.84C140.881 1025.58 141.114 1025.12 141.114 1024.48V1024.34C141.114 1022.66 140.653 1021.35 139.733 1020.42C138.824 1019.49 137.443 1019.02 135.591 1019.02C133.67 1019.02 132.165 1019.44 131.074 1020.28C129.983 1021.12 129.216 1022.02 128.773 1022.98L124.955 1021.61C125.636 1020.02 126.545 1018.78 127.682 1017.9C128.83 1017 130.08 1016.37 131.432 1016.02C132.795 1015.66 134.136 1015.48 135.455 1015.48C136.295 1015.48 137.261 1015.58 138.352 1015.78C139.455 1015.98 140.517 1016.38 141.54 1016.99C142.574 1017.61 143.432 1018.53 144.114 1019.77C144.795 1021.01 145.136 1022.67 145.136 1024.75V1042H141.114V1038.45H140.909C140.636 1039.02 140.182 1039.63 139.545 1040.28C138.909 1040.93 138.063 1041.48 137.006 1041.93C135.949 1042.39 134.659 1042.61 133.136 1042.61ZM133.75 1039C135.341 1039 136.682 1038.69 137.773 1038.06C138.875 1037.44 139.705 1036.63 140.261 1035.64C140.83 1034.65 141.114 1033.61 141.114 1032.52V1028.84C140.943 1029.05 140.568 1029.23 139.989 1029.4C139.42 1029.56 138.761 1029.7 138.011 1029.83C137.273 1029.94 136.551 1030.05 135.847 1030.14C135.153 1030.22 134.591 1030.28 134.159 1030.34C133.114 1030.48 132.136 1030.7 131.227 1031.01C130.33 1031.3 129.602 1031.75 129.045 1032.35C128.5 1032.94 128.227 1033.75 128.227 1034.77C128.227 1036.17 128.744 1037.23 129.778 1037.94C130.824 1038.65 132.148 1039 133.75 1039ZM153.024 1042V1007.09H157.047V1019.98H157.388C157.683 1019.52 158.092 1018.94 158.615 1018.24C159.149 1017.52 159.911 1016.89 160.899 1016.33C161.899 1015.76 163.251 1015.48 164.956 1015.48C167.161 1015.48 169.104 1016.03 170.786 1017.13C172.467 1018.23 173.78 1019.8 174.723 1021.82C175.666 1023.84 176.138 1026.23 176.138 1028.98C176.138 1031.75 175.666 1034.15 174.723 1036.19C173.78 1038.21 172.473 1039.78 170.803 1040.89C169.132 1041.99 167.206 1042.55 165.024 1042.55C163.342 1042.55 161.996 1042.27 160.984 1041.71C159.973 1041.14 159.195 1040.5 158.649 1039.78C158.104 1039.06 157.683 1038.45 157.388 1037.98H156.911V1042H153.024ZM156.979 1028.91C156.979 1030.89 157.268 1032.63 157.848 1034.14C158.428 1035.64 159.274 1036.82 160.388 1037.67C161.501 1038.51 162.865 1038.93 164.479 1038.93C166.161 1038.93 167.564 1038.49 168.689 1037.6C169.825 1036.7 170.678 1035.5 171.246 1033.99C171.825 1032.47 172.115 1030.77 172.115 1028.91C172.115 1027.07 171.831 1025.41 171.263 1023.93C170.706 1022.44 169.859 1021.27 168.723 1020.4C167.598 1019.53 166.183 1019.09 164.479 1019.09C162.842 1019.09 161.467 1019.51 160.354 1020.34C159.24 1021.15 158.399 1022.3 157.831 1023.78C157.263 1025.24 156.979 1026.95 156.979 1028.91ZM192.928 1042.55C190.564 1042.55 188.49 1041.98 186.706 1040.86C184.933 1039.73 183.547 1038.16 182.547 1036.14C181.558 1034.11 181.064 1031.75 181.064 1029.05C181.064 1026.32 181.558 1023.94 182.547 1021.9C183.547 1019.87 184.933 1018.29 186.706 1017.16C188.49 1016.04 190.564 1015.48 192.928 1015.48C195.291 1015.48 197.359 1016.04 199.132 1017.16C200.916 1018.29 202.303 1019.87 203.291 1021.9C204.291 1023.94 204.791 1026.32 204.791 1029.05C204.791 1031.75 204.291 1034.11 203.291 1036.14C202.303 1038.16 200.916 1039.73 199.132 1040.86C197.359 1041.98 195.291 1042.55 192.928 1042.55ZM192.928 1038.93C194.723 1038.93 196.2 1038.47 197.359 1037.55C198.518 1036.63 199.376 1035.42 199.933 1033.92C200.49 1032.42 200.768 1030.8 200.768 1029.05C200.768 1027.3 200.49 1025.66 199.933 1024.15C199.376 1022.64 198.518 1021.42 197.359 1020.49C196.2 1019.56 194.723 1019.09 192.928 1019.09C191.132 1019.09 189.655 1019.56 188.496 1020.49C187.337 1021.42 186.479 1022.64 185.922 1024.15C185.365 1025.66 185.087 1027.3 185.087 1029.05C185.087 1030.8 185.365 1032.42 185.922 1033.92C186.479 1035.42 187.337 1036.63 188.496 1037.55C189.655 1038.47 191.132 1038.93 192.928 1038.93ZM210.932 1042V1015.82H214.818V1019.77H215.091C215.568 1018.48 216.432 1017.43 217.682 1016.62C218.932 1015.81 220.341 1015.41 221.909 1015.41C222.205 1015.41 222.574 1015.41 223.017 1015.43C223.46 1015.44 223.795 1015.45 224.023 1015.48V1019.57C223.886 1019.53 223.574 1019.48 223.085 1019.41C222.608 1019.34 222.102 1019.3 221.568 1019.3C220.295 1019.3 219.159 1019.56 218.159 1020.1C217.17 1020.62 216.386 1021.35 215.807 1022.28C215.239 1023.2 214.955 1024.25 214.955 1025.43V1042H210.932ZM236.496 1042.61C234.837 1042.61 233.331 1042.3 231.979 1041.68C230.626 1041.04 229.553 1040.12 228.757 1038.93C227.962 1037.73 227.564 1036.27 227.564 1034.57C227.564 1033.07 227.859 1031.85 228.45 1030.92C229.041 1029.98 229.831 1029.24 230.82 1028.7C231.808 1028.17 232.899 1027.77 234.092 1027.51C235.297 1027.24 236.507 1027.02 237.723 1026.86C239.314 1026.66 240.604 1026.51 241.592 1026.4C242.592 1026.29 243.32 1026.1 243.774 1025.84C244.24 1025.58 244.473 1025.12 244.473 1024.48V1024.34C244.473 1022.66 244.013 1021.35 243.092 1020.42C242.183 1019.49 240.803 1019.02 238.95 1019.02C237.03 1019.02 235.524 1019.44 234.433 1020.28C233.342 1021.12 232.575 1022.02 232.132 1022.98L228.314 1021.61C228.996 1020.02 229.905 1018.78 231.041 1017.9C232.189 1017 233.439 1016.37 234.791 1016.02C236.155 1015.66 237.496 1015.48 238.814 1015.48C239.655 1015.48 240.621 1015.58 241.712 1015.78C242.814 1015.98 243.876 1016.38 244.899 1016.99C245.933 1017.61 246.791 1018.53 247.473 1019.77C248.155 1021.01 248.496 1022.67 248.496 1024.75V1042H244.473V1038.45H244.268C243.996 1039.02 243.541 1039.63 242.905 1040.28C242.268 1040.93 241.422 1041.48 240.365 1041.93C239.308 1042.39 238.018 1042.61 236.496 1042.61ZM237.109 1039C238.7 1039 240.041 1038.69 241.132 1038.06C242.234 1037.44 243.064 1036.63 243.621 1035.64C244.189 1034.65 244.473 1033.61 244.473 1032.52V1028.84C244.303 1029.05 243.928 1029.23 243.348 1029.4C242.78 1029.56 242.121 1029.7 241.371 1029.83C240.632 1029.94 239.911 1030.05 239.206 1030.14C238.513 1030.22 237.95 1030.28 237.518 1030.34C236.473 1030.48 235.496 1030.7 234.587 1031.01C233.689 1031.3 232.962 1031.75 232.405 1032.35C231.859 1032.94 231.587 1033.75 231.587 1034.77C231.587 1036.17 232.104 1037.23 233.138 1037.94C234.183 1038.65 235.507 1039 237.109 1039ZM266.474 1042.55C264.02 1042.55 261.906 1041.97 260.134 1040.81C258.361 1039.65 256.997 1038.05 256.043 1036.02C255.088 1033.98 254.611 1031.66 254.611 1029.05C254.611 1026.39 255.099 1024.04 256.077 1022.01C257.065 1019.96 258.44 1018.36 260.202 1017.22C261.974 1016.06 264.043 1015.48 266.406 1015.48C268.247 1015.48 269.906 1015.82 271.384 1016.5C272.861 1017.18 274.071 1018.14 275.014 1019.36C275.957 1020.59 276.543 1022.02 276.77 1023.66H272.747C272.44 1022.47 271.759 1021.41 270.702 1020.49C269.656 1019.56 268.247 1019.09 266.474 1019.09C264.906 1019.09 263.531 1019.5 262.349 1020.32C261.179 1021.12 260.264 1022.27 259.605 1023.74C258.957 1025.21 258.634 1026.93 258.634 1028.91C258.634 1030.93 258.952 1032.69 259.588 1034.19C260.236 1035.69 261.145 1036.86 262.315 1037.69C263.497 1038.52 264.884 1038.93 266.474 1038.93C267.52 1038.93 268.469 1038.75 269.321 1038.39C270.173 1038.02 270.895 1037.5 271.486 1036.82C272.077 1036.14 272.497 1035.32 272.747 1034.36H276.77C276.543 1035.91 275.98 1037.3 275.082 1038.54C274.196 1039.77 273.02 1040.74 271.554 1041.47C270.099 1042.19 268.406 1042.55 266.474 1042.55ZM282.651 1042V1015.82H286.673V1042H282.651ZM284.696 1011.45C283.912 1011.45 283.236 1011.19 282.668 1010.65C282.111 1010.12 281.832 1009.48 281.832 1008.73C281.832 1007.98 282.111 1007.34 282.668 1006.8C283.236 1006.27 283.912 1006 284.696 1006C285.48 1006 286.151 1006.27 286.707 1006.8C287.276 1007.34 287.56 1007.98 287.56 1008.73C287.56 1009.48 287.276 1010.12 286.707 1010.65C286.151 1011.19 285.48 1011.45 284.696 1011.45ZM304.678 1042.55C302.314 1042.55 300.24 1041.98 298.456 1040.86C296.683 1039.73 295.297 1038.16 294.297 1036.14C293.308 1034.11 292.814 1031.75 292.814 1029.05C292.814 1026.32 293.308 1023.94 294.297 1021.9C295.297 1019.87 296.683 1018.29 298.456 1017.16C300.24 1016.04 302.314 1015.48 304.678 1015.48C307.041 1015.48 309.109 1016.04 310.882 1017.16C312.666 1018.29 314.053 1019.87 315.041 1021.9C316.041 1023.94 316.541 1026.32 316.541 1029.05C316.541 1031.75 316.041 1034.11 315.041 1036.14C314.053 1038.16 312.666 1039.73 310.882 1040.86C309.109 1041.98 307.041 1042.55 304.678 1042.55ZM304.678 1038.93C306.473 1038.93 307.95 1038.47 309.109 1037.55C310.268 1036.63 311.126 1035.42 311.683 1033.92C312.24 1032.42 312.518 1030.8 312.518 1029.05C312.518 1027.3 312.24 1025.66 311.683 1024.15C311.126 1022.64 310.268 1021.42 309.109 1020.49C307.95 1019.56 306.473 1019.09 304.678 1019.09C302.882 1019.09 301.405 1019.56 300.246 1020.49C299.087 1021.42 298.229 1022.64 297.672 1024.15C297.115 1025.66 296.837 1027.3 296.837 1029.05C296.837 1030.8 297.115 1032.42 297.672 1033.92C298.229 1035.42 299.087 1036.63 300.246 1037.55C301.405 1038.47 302.882 1038.93 304.678 1038.93ZM302.837 1012.27L306.996 1004.36H311.7L306.382 1012.27H302.837ZM326.705 1026.25V1042H322.682V1015.82H326.568V1019.91H326.909C327.523 1018.58 328.455 1017.51 329.705 1016.7C330.955 1015.89 332.568 1015.48 334.545 1015.48C336.318 1015.48 337.869 1015.84 339.199 1016.57C340.528 1017.28 341.563 1018.38 342.301 1019.84C343.04 1021.3 343.409 1023.14 343.409 1025.36V1042H339.386V1025.64C339.386 1023.58 338.852 1021.98 337.784 1020.83C336.716 1019.67 335.25 1019.09 333.386 1019.09C332.102 1019.09 330.955 1019.37 329.943 1019.93C328.943 1020.48 328.153 1021.3 327.574 1022.36C326.994 1023.43 326.705 1024.73 326.705 1026.25ZM374.146 1042.55C371.964 1042.55 370.038 1041.99 368.368 1040.89C366.697 1039.78 365.391 1038.21 364.447 1036.19C363.504 1034.15 363.033 1031.75 363.033 1028.98C363.033 1026.23 363.504 1023.84 364.447 1021.82C365.391 1019.8 366.703 1018.23 368.385 1017.13C370.067 1016.03 372.01 1015.48 374.214 1015.48C375.919 1015.48 377.266 1015.76 378.254 1016.33C379.254 1016.89 380.016 1017.52 380.538 1018.24C381.072 1018.94 381.487 1019.52 381.783 1019.98H382.124V1007.09H386.146V1042H382.26V1037.98H381.783C381.487 1038.45 381.067 1039.06 380.521 1039.78C379.976 1040.5 379.197 1041.14 378.186 1041.71C377.175 1042.27 375.828 1042.55 374.146 1042.55ZM374.692 1038.93C376.305 1038.93 377.669 1038.51 378.783 1037.67C379.896 1036.82 380.743 1035.64 381.322 1034.14C381.902 1032.63 382.192 1030.89 382.192 1028.91C382.192 1026.95 381.908 1025.24 381.339 1023.78C380.771 1022.3 379.93 1021.15 378.817 1020.34C377.703 1019.51 376.328 1019.09 374.692 1019.09C372.987 1019.09 371.567 1019.53 370.43 1020.4C369.305 1021.27 368.459 1022.44 367.891 1023.93C367.334 1025.41 367.055 1027.07 367.055 1028.91C367.055 1030.77 367.339 1032.47 367.908 1033.99C368.487 1035.5 369.339 1036.7 370.464 1037.6C371.601 1038.49 373.01 1038.93 374.692 1038.93ZM405.05 1042.55C402.527 1042.55 400.351 1041.99 398.521 1040.88C396.703 1039.75 395.3 1038.18 394.311 1036.17C393.334 1034.15 392.845 1031.8 392.845 1029.11C392.845 1026.43 393.334 1024.07 394.311 1022.02C395.3 1019.97 396.675 1018.36 398.436 1017.22C400.209 1016.06 402.277 1015.48 404.641 1015.48C406.004 1015.48 407.351 1015.7 408.68 1016.16C410.01 1016.61 411.22 1017.35 412.311 1018.38C413.402 1019.39 414.271 1020.73 414.919 1022.4C415.567 1024.07 415.891 1026.12 415.891 1028.57V1030.27H395.709V1026.8H411.8C411.8 1025.32 411.504 1024 410.913 1022.84C410.334 1021.68 409.504 1020.77 408.425 1020.1C407.357 1019.43 406.095 1019.09 404.641 1019.09C403.038 1019.09 401.652 1019.49 400.482 1020.28C399.322 1021.07 398.43 1022.09 397.805 1023.35C397.18 1024.61 396.868 1025.97 396.868 1027.41V1029.73C396.868 1031.7 397.209 1033.38 397.891 1034.76C398.584 1036.12 399.544 1037.16 400.771 1037.88C401.999 1038.58 403.425 1038.93 405.05 1038.93C406.107 1038.93 407.061 1038.78 407.913 1038.49C408.777 1038.18 409.521 1037.73 410.146 1037.12C410.771 1036.51 411.254 1035.75 411.595 1034.84L415.482 1035.93C415.072 1037.25 414.385 1038.41 413.419 1039.41C412.453 1040.4 411.26 1041.17 409.839 1041.73C408.419 1042.27 406.822 1042.55 405.05 1042.55ZM51.3054 1065.09H56.3509L68.2145 1094.07H68.6236L80.4872 1065.09H85.5327V1100H81.5781V1073.48H81.2372L70.3281 1100H66.5099L55.6009 1073.48H55.2599V1100H51.3054V1065.09ZM104.099 1100.55C101.736 1100.55 99.6619 1099.98 97.8778 1098.86C96.1051 1097.73 94.7188 1096.16 93.7188 1094.14C92.7301 1092.11 92.2358 1089.75 92.2358 1087.05C92.2358 1084.32 92.7301 1081.94 93.7188 1079.9C94.7188 1077.87 96.1051 1076.29 97.8778 1075.16C99.6619 1074.04 101.736 1073.48 104.099 1073.48C106.463 1073.48 108.531 1074.04 110.304 1075.16C112.088 1076.29 113.474 1077.87 114.463 1079.9C115.463 1081.94 115.963 1084.32 115.963 1087.05C115.963 1089.75 115.463 1092.11 114.463 1094.14C113.474 1096.16 112.088 1097.73 110.304 1098.86C108.531 1099.98 106.463 1100.55 104.099 1100.55ZM104.099 1096.93C105.895 1096.93 107.372 1096.47 108.531 1095.55C109.69 1094.63 110.548 1093.42 111.105 1091.92C111.662 1090.42 111.94 1088.8 111.94 1087.05C111.94 1085.3 111.662 1083.66 111.105 1082.15C110.548 1080.64 109.69 1079.42 108.531 1078.49C107.372 1077.56 105.895 1077.09 104.099 1077.09C102.304 1077.09 100.827 1077.56 99.6676 1078.49C98.5085 1079.42 97.6506 1080.64 97.0938 1082.15C96.5369 1083.66 96.2585 1085.3 96.2585 1087.05C96.2585 1088.8 96.5369 1090.42 97.0938 1091.92C97.6506 1093.42 98.5085 1094.63 99.6676 1095.55C100.827 1096.47 102.304 1096.93 104.099 1096.93ZM132.74 1100.55C130.286 1100.55 128.172 1099.97 126.399 1098.81C124.626 1097.65 123.263 1096.05 122.308 1094.02C121.354 1091.98 120.876 1089.66 120.876 1087.05C120.876 1084.39 121.365 1082.04 122.342 1080.01C123.331 1077.96 124.706 1076.36 126.467 1075.22C128.24 1074.06 130.308 1073.48 132.672 1073.48C134.513 1073.48 136.172 1073.82 137.649 1074.5C139.126 1075.18 140.337 1076.14 141.28 1077.36C142.223 1078.59 142.808 1080.02 143.036 1081.66H139.013C138.706 1080.47 138.024 1079.41 136.967 1078.49C135.922 1077.56 134.513 1077.09 132.74 1077.09C131.172 1077.09 129.797 1077.5 128.615 1078.32C127.445 1079.12 126.53 1080.27 125.871 1081.74C125.223 1083.21 124.899 1084.93 124.899 1086.91C124.899 1088.93 125.217 1090.69 125.854 1092.19C126.501 1093.69 127.411 1094.86 128.581 1095.69C129.763 1096.52 131.149 1096.93 132.74 1096.93C133.786 1096.93 134.734 1096.75 135.587 1096.39C136.439 1096.02 137.161 1095.5 137.751 1094.82C138.342 1094.14 138.763 1093.32 139.013 1092.36H143.036C142.808 1093.91 142.246 1095.3 141.348 1096.54C140.462 1097.77 139.286 1098.74 137.82 1099.47C136.365 1100.19 134.672 1100.55 132.74 1100.55ZM152.666 1090.45L152.598 1085.48H153.416L164.871 1073.82H169.848L157.643 1086.16H157.303L152.666 1090.45ZM148.916 1100V1065.09H152.939V1100H148.916ZM165.553 1100L155.325 1087.05L158.189 1084.25L170.666 1100H165.553ZM205.026 1089.3V1073.82H209.048V1100H205.026V1095.57H204.753C204.139 1096.9 203.185 1098.03 201.889 1098.96C200.594 1099.88 198.957 1100.34 196.98 1100.34C195.344 1100.34 193.889 1099.98 192.616 1099.27C191.344 1098.54 190.344 1097.45 189.616 1095.99C188.889 1094.53 188.526 1092.68 188.526 1090.45V1073.82H192.548V1090.18C192.548 1092.09 193.082 1093.61 194.151 1094.75C195.23 1095.89 196.605 1096.45 198.276 1096.45C199.276 1096.45 200.293 1096.2 201.327 1095.69C202.372 1095.18 203.247 1094.39 203.952 1093.34C204.668 1092.28 205.026 1090.93 205.026 1089.3ZM216.416 1109.82V1073.82H220.303V1077.98H220.78C221.075 1077.52 221.484 1076.94 222.007 1076.24C222.541 1075.52 223.303 1074.89 224.291 1074.33C225.291 1073.76 226.643 1073.48 228.348 1073.48C230.553 1073.48 232.496 1074.03 234.178 1075.13C235.859 1076.23 237.172 1077.8 238.115 1079.82C239.058 1081.84 239.53 1084.23 239.53 1086.98C239.53 1089.75 239.058 1092.15 238.115 1094.19C237.172 1096.21 235.865 1097.78 234.195 1098.89C232.524 1099.99 230.598 1100.55 228.416 1100.55C226.734 1100.55 225.388 1100.27 224.376 1099.71C223.365 1099.14 222.587 1098.5 222.041 1097.78C221.496 1097.06 221.075 1096.45 220.78 1095.98H220.439V1109.82H216.416ZM220.371 1086.91C220.371 1088.89 220.661 1090.63 221.24 1092.14C221.82 1093.64 222.666 1094.82 223.78 1095.67C224.893 1096.51 226.257 1096.93 227.871 1096.93C229.553 1096.93 230.956 1096.49 232.081 1095.6C233.217 1094.7 234.07 1093.5 234.638 1091.99C235.217 1090.47 235.507 1088.77 235.507 1086.91C235.507 1085.07 235.223 1083.41 234.655 1081.93C234.098 1080.44 233.251 1079.27 232.115 1078.4C230.99 1077.53 229.575 1077.09 227.871 1077.09C226.234 1077.09 224.859 1077.51 223.746 1078.34C222.632 1079.15 221.791 1080.3 221.223 1081.78C220.655 1083.24 220.371 1084.95 220.371 1086.91ZM264.212 1079.68L260.598 1080.7C260.371 1080.1 260.036 1079.52 259.592 1078.95C259.161 1078.37 258.57 1077.89 257.82 1077.52C257.07 1077.14 256.109 1076.95 254.939 1076.95C253.337 1076.95 252.001 1077.32 250.933 1078.06C249.876 1078.79 249.348 1079.72 249.348 1080.84C249.348 1081.84 249.712 1082.63 250.439 1083.21C251.166 1083.79 252.303 1084.27 253.848 1084.66L257.734 1085.61C260.075 1086.18 261.82 1087.05 262.967 1088.22C264.115 1089.38 264.689 1090.87 264.689 1092.7C264.689 1094.2 264.257 1095.55 263.393 1096.73C262.541 1097.91 261.348 1098.84 259.814 1099.52C258.28 1100.2 256.496 1100.55 254.462 1100.55C251.791 1100.55 249.581 1099.97 247.831 1098.81C246.081 1097.65 244.973 1095.95 244.507 1093.73L248.325 1092.77C248.689 1094.18 249.376 1095.24 250.388 1095.94C251.411 1096.65 252.746 1097 254.393 1097C256.268 1097 257.757 1096.6 258.859 1095.81C259.973 1095 260.53 1094.03 260.53 1092.91C260.53 1092 260.212 1091.24 259.575 1090.62C258.939 1090 257.962 1089.53 256.643 1089.23L252.28 1088.2C249.882 1087.64 248.121 1086.76 246.996 1085.56C245.882 1084.36 245.325 1082.85 245.325 1081.05C245.325 1079.57 245.74 1078.26 246.57 1077.12C247.411 1075.99 248.553 1075.1 249.996 1074.45C251.45 1073.8 253.098 1073.48 254.939 1073.48C257.53 1073.48 259.564 1074.05 261.041 1075.18C262.53 1076.32 263.587 1077.82 264.212 1079.68ZM285.676 1082.55C285.676 1078.25 286.233 1074.3 287.347 1070.7C288.472 1067.09 290.074 1063.76 292.153 1060.73H295.699C294.881 1061.85 294.114 1063.24 293.398 1064.89C292.693 1066.52 292.074 1068.32 291.54 1070.29C291.006 1072.24 290.585 1074.27 290.278 1076.36C289.983 1078.45 289.835 1080.51 289.835 1082.55C289.835 1085.25 290.097 1087.99 290.619 1090.78C291.142 1093.56 291.847 1096.15 292.733 1098.53C293.619 1100.92 294.608 1102.86 295.699 1104.36H292.153C290.074 1101.33 288.472 1098.01 287.347 1094.41C286.233 1090.8 285.676 1086.84 285.676 1082.55ZM302.18 1100V1065.09H323.112V1068.84H306.408V1080.64H321.544V1084.39H306.408V1100H302.18ZM329.807 1100V1073.82H333.83V1100H329.807ZM331.852 1069.45C331.068 1069.45 330.392 1069.19 329.824 1068.65C329.267 1068.12 328.989 1067.48 328.989 1066.73C328.989 1065.98 329.267 1065.34 329.824 1064.8C330.392 1064.27 331.068 1064 331.852 1064C332.636 1064 333.307 1064.27 333.864 1064.8C334.432 1065.34 334.716 1065.98 334.716 1066.73C334.716 1067.48 334.432 1068.12 333.864 1068.65C333.307 1069.19 332.636 1069.45 331.852 1069.45ZM351.766 1110.36C349.822 1110.36 348.152 1110.11 346.754 1109.61C345.357 1109.12 344.192 1108.48 343.26 1107.67C342.339 1106.88 341.607 1106.02 341.061 1105.11L344.266 1102.86C344.629 1103.34 345.089 1103.89 345.646 1104.5C346.203 1105.12 346.964 1105.66 347.93 1106.12C348.908 1106.59 350.186 1106.82 351.766 1106.82C353.879 1106.82 355.624 1106.31 356.999 1105.28C358.374 1104.26 359.061 1102.66 359.061 1100.48V1095.16H358.72C358.425 1095.64 358.004 1096.23 357.459 1096.93C356.925 1097.62 356.152 1098.24 355.141 1098.79C354.141 1099.32 352.788 1099.59 351.084 1099.59C348.97 1099.59 347.072 1099.09 345.391 1098.09C343.72 1097.09 342.396 1095.64 341.419 1093.73C340.453 1091.82 339.97 1089.5 339.97 1086.77C339.97 1084.09 340.442 1081.76 341.385 1079.77C342.328 1077.77 343.641 1076.22 345.322 1075.13C347.004 1074.03 348.947 1073.48 351.152 1073.48C352.857 1073.48 354.209 1073.76 355.209 1074.33C356.22 1074.89 356.993 1075.52 357.527 1076.24C358.072 1076.94 358.493 1077.52 358.788 1077.98H359.197V1073.82H363.084V1100.75C363.084 1103 362.572 1104.83 361.55 1106.24C360.538 1107.66 359.175 1108.7 357.459 1109.36C355.754 1110.03 353.857 1110.36 351.766 1110.36ZM351.629 1095.98C353.243 1095.98 354.607 1095.61 355.72 1094.87C356.834 1094.13 357.68 1093.07 358.26 1091.68C358.839 1090.3 359.129 1088.64 359.129 1086.7C359.129 1084.82 358.845 1083.15 358.277 1081.71C357.709 1080.27 356.868 1079.14 355.754 1078.32C354.641 1077.5 353.266 1077.09 351.629 1077.09C349.925 1077.09 348.504 1077.52 347.368 1078.39C346.243 1079.25 345.396 1080.41 344.828 1081.86C344.271 1083.32 343.993 1084.93 343.993 1086.7C343.993 1088.52 344.277 1090.13 344.845 1091.53C345.425 1092.91 346.277 1094.01 347.402 1094.8C348.538 1095.59 349.947 1095.98 351.629 1095.98ZM370.447 1100V1073.82H374.334V1077.91H374.675C375.22 1076.51 376.101 1075.43 377.317 1074.65C378.533 1073.87 379.993 1073.48 381.697 1073.48C383.425 1073.48 384.862 1073.87 386.01 1074.65C387.169 1075.43 388.072 1076.51 388.72 1077.91H388.993C389.663 1076.56 390.669 1075.48 392.01 1074.69C393.351 1073.88 394.959 1073.48 396.834 1073.48C399.175 1073.48 401.089 1074.21 402.578 1075.68C404.067 1077.13 404.811 1079.4 404.811 1082.48V1100H400.788V1082.48C400.788 1080.55 400.26 1079.16 399.203 1078.34C398.146 1077.51 396.902 1077.09 395.47 1077.09C393.629 1077.09 392.203 1077.65 391.192 1078.76C390.18 1079.86 389.675 1081.26 389.675 1082.95V1100H385.584V1082.07C385.584 1080.58 385.101 1079.38 384.135 1078.47C383.169 1077.55 381.925 1077.09 380.402 1077.09C379.357 1077.09 378.379 1077.37 377.47 1077.93C376.572 1078.48 375.845 1079.26 375.288 1080.24C374.743 1081.22 374.47 1082.35 374.47 1083.64V1100H370.447ZM419.871 1100.61C418.212 1100.61 416.706 1100.3 415.354 1099.68C414.001 1099.04 412.928 1098.12 412.132 1096.93C411.337 1095.73 410.939 1094.27 410.939 1092.57C410.939 1091.07 411.234 1089.85 411.825 1088.92C412.416 1087.98 413.206 1087.24 414.195 1086.7C415.183 1086.17 416.274 1085.77 417.467 1085.51C418.672 1085.24 419.882 1085.02 421.098 1084.86C422.689 1084.66 423.979 1084.51 424.967 1084.4C425.967 1084.29 426.695 1084.1 427.149 1083.84C427.615 1083.58 427.848 1083.12 427.848 1082.48V1082.34C427.848 1080.66 427.388 1079.35 426.467 1078.42C425.558 1077.49 424.178 1077.02 422.325 1077.02C420.405 1077.02 418.899 1077.44 417.808 1078.28C416.717 1079.12 415.95 1080.02 415.507 1080.98L411.689 1079.61C412.371 1078.02 413.28 1076.78 414.416 1075.9C415.564 1075 416.814 1074.37 418.166 1074.02C419.53 1073.66 420.871 1073.48 422.189 1073.48C423.03 1073.48 423.996 1073.58 425.087 1073.78C426.189 1073.98 427.251 1074.38 428.274 1074.99C429.308 1075.61 430.166 1076.53 430.848 1077.77C431.53 1079.01 431.871 1080.67 431.871 1082.75V1100H427.848V1096.45H427.643C427.371 1097.02 426.916 1097.63 426.28 1098.28C425.643 1098.93 424.797 1099.48 423.74 1099.93C422.683 1100.39 421.393 1100.61 419.871 1100.61ZM420.484 1097C422.075 1097 423.416 1096.69 424.507 1096.06C425.609 1095.44 426.439 1094.63 426.996 1093.64C427.564 1092.65 427.848 1091.61 427.848 1090.52V1086.84C427.678 1087.05 427.303 1087.23 426.723 1087.4C426.155 1087.56 425.496 1087.7 424.746 1087.83C424.007 1087.94 423.286 1088.05 422.581 1088.14C421.888 1088.22 421.325 1088.28 420.893 1088.34C419.848 1088.48 418.871 1088.7 417.962 1089.01C417.064 1089.3 416.337 1089.75 415.78 1090.35C415.234 1090.94 414.962 1091.75 414.962 1092.77C414.962 1094.17 415.479 1095.23 416.513 1095.94C417.558 1096.65 418.882 1097 420.484 1097ZM447.804 1085.27C447.804 1089.57 447.241 1093.52 446.116 1097.14C445.003 1100.74 443.406 1104.06 441.327 1107.09H437.781C438.599 1105.97 439.361 1104.58 440.065 1102.93C440.781 1101.3 441.406 1099.5 441.94 1097.55C442.474 1095.58 442.889 1093.55 443.185 1091.46C443.491 1089.36 443.645 1087.3 443.645 1085.27C443.645 1082.57 443.384 1079.82 442.861 1077.04C442.338 1074.26 441.634 1071.67 440.747 1069.28C439.861 1066.9 438.872 1064.95 437.781 1063.45H441.327C443.406 1066.49 445.003 1069.81 446.116 1073.43C447.241 1077.03 447.804 1080.98 447.804 1085.27Z" fill="#EEEEEE"/>
</svg>
