<svg width="500" height="1500" viewBox="0 0 500 1500" fill="none" xmlns="http://www.w3.org/2000/svg">
<circle cx="250" cy="831" r="25" fill="#131313"/>
<rect x="241" y="623" width="18" height="192" fill="#131313"/>
<rect x="125" y="380" width="250" height="250" rx="125" fill="#131313"/>
<path d="M223.324 526.585V519.341L255.284 468.773H260.54V479.994H256.989L232.841 518.205V518.773H275.881V526.585H223.324ZM257.557 541.5V524.384V521.01V468.773H265.938V541.5H257.557Z" fill="white"/>
<path d="M78.3842 917.091V952H74.157V917.091H78.3842ZM86.3146 952V925.818H90.201V929.909H90.5419C91.0874 928.511 91.968 927.426 93.1839 926.653C94.3999 925.869 95.8601 925.477 97.5646 925.477C99.2919 925.477 100.729 925.869 101.877 926.653C103.036 927.426 103.94 928.511 104.587 929.909H104.86C105.531 928.557 106.536 927.483 107.877 926.688C109.218 925.881 110.826 925.477 112.701 925.477C115.042 925.477 116.957 926.21 118.445 927.676C119.934 929.131 120.678 931.398 120.678 934.477V952H116.656V934.477C116.656 932.545 116.127 931.165 115.07 930.335C114.013 929.506 112.769 929.091 111.337 929.091C109.496 929.091 108.07 929.648 107.059 930.761C106.048 931.864 105.542 933.261 105.542 934.955V952H101.451V934.068C101.451 932.58 100.968 931.381 100.002 930.472C99.0362 929.551 97.7919 929.091 96.2692 929.091C95.2237 929.091 94.2464 929.369 93.3374 929.926C92.4396 930.483 91.7124 931.256 91.1555 932.244C90.6101 933.222 90.3374 934.352 90.3374 935.636V952H86.3146ZM128.033 961.818V925.818H131.92V929.977H132.397C132.692 929.523 133.102 928.943 133.624 928.239C134.158 927.523 134.92 926.886 135.908 926.33C136.908 925.761 138.261 925.477 139.965 925.477C142.17 925.477 144.113 926.028 145.795 927.131C147.477 928.233 148.789 929.795 149.732 931.818C150.675 933.841 151.147 936.227 151.147 938.977C151.147 941.75 150.675 944.153 149.732 946.188C148.789 948.21 147.482 949.778 145.812 950.892C144.141 951.994 142.215 952.545 140.033 952.545C138.352 952.545 137.005 952.267 135.994 951.71C134.982 951.142 134.204 950.5 133.658 949.784C133.113 949.057 132.692 948.455 132.397 947.977H132.056V961.818H128.033ZM131.988 938.909C131.988 940.886 132.278 942.631 132.857 944.142C133.437 945.642 134.283 946.818 135.397 947.67C136.511 948.511 137.874 948.932 139.488 948.932C141.17 948.932 142.573 948.489 143.698 947.602C144.835 946.705 145.687 945.5 146.255 943.989C146.835 942.466 147.124 940.773 147.124 938.909C147.124 937.068 146.84 935.409 146.272 933.932C145.715 932.443 144.869 931.267 143.732 930.403C142.607 929.528 141.192 929.091 139.488 929.091C137.852 929.091 136.477 929.506 135.363 930.335C134.249 931.153 133.408 932.301 132.84 933.778C132.272 935.244 131.988 936.955 131.988 938.909ZM161.306 917.091V952H157.283V917.091H161.306ZM179.651 952.545C177.129 952.545 174.952 951.989 173.123 950.875C171.305 949.75 169.901 948.182 168.913 946.17C167.935 944.148 167.447 941.795 167.447 939.114C167.447 936.432 167.935 934.068 168.913 932.023C169.901 929.966 171.276 928.364 173.038 927.216C174.81 926.057 176.879 925.477 179.242 925.477C180.606 925.477 181.952 925.705 183.282 926.159C184.612 926.614 185.822 927.352 186.913 928.375C188.004 929.386 188.873 930.727 189.521 932.398C190.168 934.068 190.492 936.125 190.492 938.568V940.273H170.31V936.795H186.401C186.401 935.318 186.106 934 185.515 932.841C184.935 931.682 184.106 930.767 183.026 930.097C181.958 929.426 180.697 929.091 179.242 929.091C177.64 929.091 176.254 929.489 175.083 930.284C173.924 931.068 173.032 932.091 172.407 933.352C171.782 934.614 171.469 935.966 171.469 937.409V939.727C171.469 941.705 171.81 943.381 172.492 944.756C173.185 946.119 174.146 947.159 175.373 947.875C176.6 948.58 178.026 948.932 179.651 948.932C180.708 948.932 181.663 948.784 182.515 948.489C183.379 948.182 184.123 947.727 184.748 947.125C185.373 946.511 185.856 945.75 186.197 944.841L190.083 945.932C189.674 947.25 188.987 948.409 188.021 949.409C187.055 950.398 185.862 951.17 184.441 951.727C183.021 952.273 181.424 952.545 179.651 952.545ZM196.612 952V925.818H200.498V929.909H200.839C201.384 928.511 202.265 927.426 203.481 926.653C204.697 925.869 206.157 925.477 207.862 925.477C209.589 925.477 211.026 925.869 212.174 926.653C213.333 927.426 214.237 928.511 214.884 929.909H215.157C215.827 928.557 216.833 927.483 218.174 926.688C219.515 925.881 221.123 925.477 222.998 925.477C225.339 925.477 227.254 926.21 228.742 927.676C230.231 929.131 230.975 931.398 230.975 934.477V952H226.952V934.477C226.952 932.545 226.424 931.165 225.367 930.335C224.31 929.506 223.066 929.091 221.634 929.091C219.793 929.091 218.367 929.648 217.356 930.761C216.344 931.864 215.839 933.261 215.839 934.955V952H211.748V934.068C211.748 932.58 211.265 931.381 210.299 930.472C209.333 929.551 208.089 929.091 206.566 929.091C205.521 929.091 204.543 929.369 203.634 929.926C202.737 930.483 202.009 931.256 201.452 932.244C200.907 933.222 200.634 934.352 200.634 935.636V952H196.612ZM249.308 952.545C246.785 952.545 244.609 951.989 242.779 950.875C240.961 949.75 239.558 948.182 238.569 946.17C237.592 944.148 237.103 941.795 237.103 939.114C237.103 936.432 237.592 934.068 238.569 932.023C239.558 929.966 240.933 928.364 242.694 927.216C244.467 926.057 246.535 925.477 248.898 925.477C250.262 925.477 251.609 925.705 252.938 926.159C254.268 926.614 255.478 927.352 256.569 928.375C257.66 929.386 258.529 930.727 259.177 932.398C259.825 934.068 260.148 936.125 260.148 938.568V940.273H239.967V936.795H256.058C256.058 935.318 255.762 934 255.171 932.841C254.592 931.682 253.762 930.767 252.683 930.097C251.614 929.426 250.353 929.091 248.898 929.091C247.296 929.091 245.91 929.489 244.739 930.284C243.58 931.068 242.688 932.091 242.063 933.352C241.438 934.614 241.126 935.966 241.126 937.409V939.727C241.126 941.705 241.467 943.381 242.148 944.756C242.842 946.119 243.802 947.159 245.029 947.875C246.256 948.58 247.683 948.932 249.308 948.932C250.364 948.932 251.319 948.784 252.171 948.489C253.035 948.182 253.779 947.727 254.404 947.125C255.029 946.511 255.512 945.75 255.853 944.841L259.739 945.932C259.33 947.25 258.643 948.409 257.677 949.409C256.711 950.398 255.518 951.17 254.097 951.727C252.677 952.273 251.08 952.545 249.308 952.545ZM270.29 936.25V952H266.268V925.818H270.154V929.909H270.495C271.109 928.58 272.04 927.511 273.29 926.705C274.54 925.886 276.154 925.477 278.131 925.477C279.904 925.477 281.455 925.841 282.785 926.568C284.114 927.284 285.148 928.375 285.887 929.841C286.626 931.295 286.995 933.136 286.995 935.364V952H282.972V935.636C282.972 933.58 282.438 931.977 281.37 930.83C280.302 929.67 278.836 929.091 276.972 929.091C275.688 929.091 274.54 929.369 273.529 929.926C272.529 930.483 271.739 931.295 271.16 932.364C270.58 933.432 270.29 934.727 270.29 936.25ZM305.732 925.818V929.227H292.164V925.818H305.732ZM296.119 919.545H300.141V944.5C300.141 945.636 300.306 946.489 300.636 947.057C300.977 947.614 301.408 947.989 301.931 948.182C302.465 948.364 303.028 948.455 303.619 948.455C304.062 948.455 304.425 948.432 304.71 948.386C304.994 948.33 305.221 948.284 305.391 948.25L306.21 951.864C305.937 951.966 305.556 952.068 305.067 952.17C304.579 952.284 303.96 952.341 303.21 952.341C302.073 952.341 300.96 952.097 299.869 951.608C298.789 951.119 297.891 950.375 297.175 949.375C296.471 948.375 296.119 947.114 296.119 945.591V919.545ZM319.488 952.614C317.829 952.614 316.323 952.301 314.971 951.676C313.619 951.04 312.545 950.125 311.749 948.932C310.954 947.727 310.556 946.273 310.556 944.568C310.556 943.068 310.852 941.852 311.442 940.92C312.033 939.977 312.823 939.239 313.812 938.705C314.8 938.17 315.891 937.773 317.085 937.511C318.289 937.239 319.499 937.023 320.715 936.864C322.306 936.659 323.596 936.506 324.585 936.403C325.585 936.29 326.312 936.102 326.766 935.841C327.232 935.58 327.465 935.125 327.465 934.477V934.341C327.465 932.659 327.005 931.352 326.085 930.42C325.175 929.489 323.795 929.023 321.942 929.023C320.022 929.023 318.516 929.443 317.425 930.284C316.335 931.125 315.567 932.023 315.124 932.977L311.306 931.614C311.988 930.023 312.897 928.784 314.033 927.898C315.181 927 316.431 926.375 317.783 926.023C319.147 925.659 320.488 925.477 321.806 925.477C322.647 925.477 323.613 925.58 324.704 925.784C325.806 925.977 326.869 926.381 327.891 926.994C328.925 927.608 329.783 928.534 330.465 929.773C331.147 931.011 331.488 932.67 331.488 934.75V952H327.465V948.455H327.261C326.988 949.023 326.533 949.631 325.897 950.278C325.261 950.926 324.414 951.477 323.357 951.932C322.3 952.386 321.011 952.614 319.488 952.614ZM320.102 949C321.692 949 323.033 948.688 324.124 948.062C325.227 947.438 326.056 946.631 326.613 945.642C327.181 944.653 327.465 943.614 327.465 942.523V938.841C327.295 939.045 326.92 939.233 326.34 939.403C325.772 939.562 325.113 939.705 324.363 939.83C323.624 939.943 322.903 940.045 322.198 940.136C321.505 940.216 320.942 940.284 320.511 940.341C319.465 940.477 318.488 940.699 317.579 941.006C316.681 941.301 315.954 941.75 315.397 942.352C314.852 942.943 314.579 943.75 314.579 944.773C314.579 946.17 315.096 947.227 316.13 947.943C317.175 948.648 318.499 949 320.102 949ZM349.467 952.545C347.012 952.545 344.898 951.966 343.126 950.807C341.353 949.648 339.989 948.051 339.035 946.017C338.08 943.983 337.603 941.659 337.603 939.045C337.603 936.386 338.092 934.04 339.069 932.006C340.058 929.96 341.433 928.364 343.194 927.216C344.967 926.057 347.035 925.477 349.398 925.477C351.239 925.477 352.898 925.818 354.376 926.5C355.853 927.182 357.063 928.136 358.006 929.364C358.95 930.591 359.535 932.023 359.762 933.659H355.739C355.433 932.466 354.751 931.409 353.694 930.489C352.648 929.557 351.239 929.091 349.467 929.091C347.898 929.091 346.523 929.5 345.342 930.318C344.171 931.125 343.256 932.267 342.597 933.744C341.95 935.21 341.626 936.932 341.626 938.909C341.626 940.932 341.944 942.693 342.58 944.193C343.228 945.693 344.137 946.858 345.308 947.688C346.489 948.517 347.876 948.932 349.467 948.932C350.512 948.932 351.461 948.75 352.313 948.386C353.165 948.023 353.887 947.5 354.478 946.818C355.069 946.136 355.489 945.318 355.739 944.364H359.762C359.535 945.909 358.972 947.301 358.075 948.54C357.188 949.767 356.012 950.744 354.546 951.472C353.092 952.188 351.398 952.545 349.467 952.545ZM365.643 952V925.818H369.665V952H365.643ZM367.688 921.455C366.904 921.455 366.228 921.188 365.66 920.653C365.103 920.119 364.825 919.477 364.825 918.727C364.825 917.977 365.103 917.335 365.66 916.801C366.228 916.267 366.904 916 367.688 916C368.472 916 369.143 916.267 369.7 916.801C370.268 917.335 370.552 917.977 370.552 918.727C370.552 919.477 370.268 920.119 369.7 920.653C369.143 921.188 368.472 921.455 367.688 921.455ZM387.67 952.545C385.306 952.545 383.232 951.983 381.448 950.858C379.675 949.733 378.289 948.159 377.289 946.136C376.3 944.114 375.806 941.75 375.806 939.045C375.806 936.318 376.3 933.937 377.289 931.903C378.289 929.869 379.675 928.29 381.448 927.165C383.232 926.04 385.306 925.477 387.67 925.477C390.033 925.477 392.102 926.04 393.874 927.165C395.658 928.29 397.045 929.869 398.033 931.903C399.033 933.937 399.533 936.318 399.533 939.045C399.533 941.75 399.033 944.114 398.033 946.136C397.045 948.159 395.658 949.733 393.874 950.858C392.102 951.983 390.033 952.545 387.67 952.545ZM387.67 948.932C389.465 948.932 390.942 948.472 392.102 947.551C393.261 946.631 394.119 945.42 394.675 943.92C395.232 942.42 395.511 940.795 395.511 939.045C395.511 937.295 395.232 935.665 394.675 934.153C394.119 932.642 393.261 931.42 392.102 930.489C390.942 929.557 389.465 929.091 387.67 929.091C385.874 929.091 384.397 929.557 383.238 930.489C382.079 931.42 381.221 932.642 380.664 934.153C380.107 935.665 379.829 937.295 379.829 939.045C379.829 940.795 380.107 942.42 380.664 943.92C381.221 945.42 382.079 946.631 383.238 947.551C384.397 948.472 385.874 948.932 387.67 948.932ZM385.829 922.273L389.988 914.364H394.692L389.374 922.273H385.829ZM409.697 936.25V952H405.674V925.818H409.56V929.909H409.901C410.515 928.58 411.447 927.511 412.697 926.705C413.947 925.886 415.56 925.477 417.538 925.477C419.31 925.477 420.862 925.841 422.191 926.568C423.521 927.284 424.555 928.375 425.293 929.841C426.032 931.295 426.401 933.136 426.401 935.364V952H422.379V935.636C422.379 933.58 421.844 931.977 420.776 930.83C419.708 929.67 418.242 929.091 416.379 929.091C415.094 929.091 413.947 929.369 412.935 929.926C411.935 930.483 411.146 931.295 410.566 932.364C409.987 933.432 409.697 934.727 409.697 936.25ZM109.209 1010.55C107.027 1010.55 105.101 1009.99 103.43 1008.89C101.76 1007.78 100.453 1006.21 99.5099 1004.19C98.5668 1002.15 98.0952 999.75 98.0952 996.977C98.0952 994.227 98.5668 991.841 99.5099 989.818C100.453 987.795 101.766 986.233 103.447 985.131C105.129 984.028 107.072 983.477 109.277 983.477C110.982 983.477 112.328 983.761 113.317 984.33C114.317 984.886 115.078 985.523 115.601 986.239C116.135 986.943 116.55 987.523 116.845 987.977H117.186V975.091H121.209V1010H117.322V1005.98H116.845C116.55 1006.45 116.129 1007.06 115.584 1007.78C115.038 1008.5 114.26 1009.14 113.249 1009.71C112.237 1010.27 110.891 1010.55 109.209 1010.55ZM109.754 1006.93C111.368 1006.93 112.732 1006.51 113.845 1005.67C114.959 1004.82 115.805 1003.64 116.385 1002.14C116.964 1000.63 117.254 998.886 117.254 996.909C117.254 994.955 116.97 993.244 116.402 991.778C115.834 990.301 114.993 989.153 113.879 988.335C112.766 987.506 111.391 987.091 109.754 987.091C108.05 987.091 106.629 987.528 105.493 988.403C104.368 989.267 103.521 990.443 102.953 991.932C102.396 993.409 102.118 995.068 102.118 996.909C102.118 998.773 102.402 1000.47 102.97 1001.99C103.55 1003.5 104.402 1004.7 105.527 1005.6C106.663 1006.49 108.072 1006.93 109.754 1006.93ZM140.112 1010.55C137.589 1010.55 135.413 1009.99 133.584 1008.88C131.766 1007.75 130.362 1006.18 129.374 1004.17C128.396 1002.15 127.908 999.795 127.908 997.114C127.908 994.432 128.396 992.068 129.374 990.023C130.362 987.966 131.737 986.364 133.499 985.216C135.271 984.057 137.339 983.477 139.703 983.477C141.067 983.477 142.413 983.705 143.743 984.159C145.072 984.614 146.283 985.352 147.374 986.375C148.464 987.386 149.334 988.727 149.982 990.398C150.629 992.068 150.953 994.125 150.953 996.568V998.273H130.771V994.795H146.862C146.862 993.318 146.567 992 145.976 990.841C145.396 989.682 144.567 988.767 143.487 988.097C142.419 987.426 141.158 987.091 139.703 987.091C138.101 987.091 136.714 987.489 135.544 988.284C134.385 989.068 133.493 990.091 132.868 991.352C132.243 992.614 131.93 993.966 131.93 995.409V997.727C131.93 999.705 132.271 1001.38 132.953 1002.76C133.646 1004.12 134.607 1005.16 135.834 1005.88C137.061 1006.58 138.487 1006.93 140.112 1006.93C141.169 1006.93 142.124 1006.78 142.976 1006.49C143.839 1006.18 144.584 1005.73 145.209 1005.12C145.834 1004.51 146.317 1003.75 146.658 1002.84L150.544 1003.93C150.135 1005.25 149.447 1006.41 148.482 1007.41C147.516 1008.4 146.322 1009.17 144.902 1009.73C143.482 1010.27 141.885 1010.55 140.112 1010.55ZM161.095 975.091V1010H157.072V975.091H161.095ZM182.509 1010V975.091H203.44V978.841H186.736V990.636H201.872V994.386H186.736V1010H182.509ZM209.854 1010V983.818H213.74V987.773H214.013C214.49 986.477 215.354 985.426 216.604 984.619C217.854 983.812 219.263 983.409 220.831 983.409C221.126 983.409 221.496 983.415 221.939 983.426C222.382 983.437 222.717 983.455 222.945 983.477V987.568C222.808 987.534 222.496 987.483 222.007 987.415C221.53 987.335 221.024 987.295 220.49 987.295C219.217 987.295 218.081 987.562 217.081 988.097C216.092 988.619 215.308 989.347 214.729 990.278C214.161 991.199 213.876 992.25 213.876 993.432V1010H209.854ZM237.553 1010.55C235.189 1010.55 233.115 1009.98 231.331 1008.86C229.558 1007.73 228.172 1006.16 227.172 1004.14C226.183 1002.11 225.689 999.75 225.689 997.045C225.689 994.318 226.183 991.937 227.172 989.903C228.172 987.869 229.558 986.29 231.331 985.165C233.115 984.04 235.189 983.477 237.553 983.477C239.916 983.477 241.984 984.04 243.757 985.165C245.541 986.29 246.928 987.869 247.916 989.903C248.916 991.937 249.416 994.318 249.416 997.045C249.416 999.75 248.916 1002.11 247.916 1004.14C246.928 1006.16 245.541 1007.73 243.757 1008.86C241.984 1009.98 239.916 1010.55 237.553 1010.55ZM237.553 1006.93C239.348 1006.93 240.825 1006.47 241.984 1005.55C243.143 1004.63 244.001 1003.42 244.558 1001.92C245.115 1000.42 245.393 998.795 245.393 997.045C245.393 995.295 245.115 993.665 244.558 992.153C244.001 990.642 243.143 989.42 241.984 988.489C240.825 987.557 239.348 987.091 237.553 987.091C235.757 987.091 234.28 987.557 233.121 988.489C231.962 989.42 231.104 990.642 230.547 992.153C229.99 993.665 229.712 995.295 229.712 997.045C229.712 998.795 229.99 1000.42 230.547 1001.92C231.104 1003.42 231.962 1004.63 233.121 1005.55C234.28 1006.47 235.757 1006.93 237.553 1006.93ZM259.58 994.25V1010H255.557V983.818H259.443V987.909H259.784C260.398 986.58 261.33 985.511 262.58 984.705C263.83 983.886 265.443 983.477 267.42 983.477C269.193 983.477 270.744 983.841 272.074 984.568C273.403 985.284 274.438 986.375 275.176 987.841C275.915 989.295 276.284 991.136 276.284 993.364V1010H272.261V993.636C272.261 991.58 271.727 989.977 270.659 988.83C269.591 987.67 268.125 987.091 266.261 987.091C264.977 987.091 263.83 987.369 262.818 987.926C261.818 988.483 261.028 989.295 260.449 990.364C259.869 991.432 259.58 992.727 259.58 994.25ZM295.021 983.818V987.227H281.453V983.818H295.021ZM285.408 977.545H289.43V1002.5C289.43 1003.64 289.595 1004.49 289.925 1005.06C290.266 1005.61 290.697 1005.99 291.22 1006.18C291.754 1006.36 292.317 1006.45 292.908 1006.45C293.351 1006.45 293.714 1006.43 293.999 1006.39C294.283 1006.33 294.51 1006.28 294.68 1006.25L295.499 1009.86C295.226 1009.97 294.845 1010.07 294.357 1010.17C293.868 1010.28 293.249 1010.34 292.499 1010.34C291.362 1010.34 290.249 1010.1 289.158 1009.61C288.078 1009.12 287.18 1008.38 286.464 1007.38C285.76 1006.38 285.408 1005.11 285.408 1003.59V977.545ZM315.135 993.159V996.909H299.862V993.159H315.135ZM333.19 1010.55C330.668 1010.55 328.491 1009.99 326.662 1008.88C324.844 1007.75 323.44 1006.18 322.452 1004.17C321.474 1002.15 320.986 999.795 320.986 997.114C320.986 994.432 321.474 992.068 322.452 990.023C323.44 987.966 324.815 986.364 326.577 985.216C328.349 984.057 330.418 983.477 332.781 983.477C334.145 983.477 335.491 983.705 336.821 984.159C338.151 984.614 339.361 985.352 340.452 986.375C341.543 987.386 342.412 988.727 343.06 990.398C343.707 992.068 344.031 994.125 344.031 996.568V998.273H323.849V994.795H339.94C339.94 993.318 339.645 992 339.054 990.841C338.474 989.682 337.645 988.767 336.565 988.097C335.497 987.426 334.236 987.091 332.781 987.091C331.179 987.091 329.793 987.489 328.622 988.284C327.463 989.068 326.571 990.091 325.946 991.352C325.321 992.614 325.009 993.966 325.009 995.409V997.727C325.009 999.705 325.349 1001.38 326.031 1002.76C326.724 1004.12 327.685 1005.16 328.912 1005.88C330.139 1006.58 331.565 1006.93 333.19 1006.93C334.247 1006.93 335.202 1006.78 336.054 1006.49C336.918 1006.18 337.662 1005.73 338.287 1005.12C338.912 1004.51 339.395 1003.75 339.736 1002.84L343.622 1003.93C343.213 1005.25 342.526 1006.41 341.56 1007.41C340.594 1008.4 339.401 1009.17 337.98 1009.73C336.56 1010.27 334.963 1010.55 333.19 1010.55ZM354.173 994.25V1010H350.151V983.818H354.037V987.909H354.378C354.991 986.58 355.923 985.511 357.173 984.705C358.423 983.886 360.037 983.477 362.014 983.477C363.787 983.477 365.338 983.841 366.668 984.568C367.997 985.284 369.031 986.375 369.77 987.841C370.509 989.295 370.878 991.136 370.878 993.364V1010H366.855V993.636C366.855 991.58 366.321 989.977 365.253 988.83C364.185 987.67 362.719 987.091 360.855 987.091C359.571 987.091 358.423 987.369 357.412 987.926C356.412 988.483 355.622 989.295 355.043 990.364C354.463 991.432 354.173 992.727 354.173 994.25ZM388.115 1010.55C385.933 1010.55 384.007 1009.99 382.337 1008.89C380.666 1007.78 379.359 1006.21 378.416 1004.19C377.473 1002.15 377.001 999.75 377.001 996.977C377.001 994.227 377.473 991.841 378.416 989.818C379.359 987.795 380.672 986.233 382.354 985.131C384.036 984.028 385.979 983.477 388.183 983.477C389.888 983.477 391.234 983.761 392.223 984.33C393.223 984.886 393.984 985.523 394.507 986.239C395.041 986.943 395.456 987.523 395.751 987.977H396.092V975.091H400.115V1010H396.229V1005.98H395.751C395.456 1006.45 395.036 1007.06 394.49 1007.78C393.945 1008.5 393.166 1009.14 392.155 1009.71C391.143 1010.27 389.797 1010.55 388.115 1010.55ZM388.661 1006.93C390.274 1006.93 391.638 1006.51 392.751 1005.67C393.865 1004.82 394.712 1003.64 395.291 1002.14C395.871 1000.63 396.161 998.886 396.161 996.909C396.161 994.955 395.876 993.244 395.308 991.778C394.74 990.301 393.899 989.153 392.786 988.335C391.672 987.506 390.297 987.091 388.661 987.091C386.956 987.091 385.536 987.528 384.399 988.403C383.274 989.267 382.428 990.443 381.859 991.932C381.303 993.409 381.024 995.068 381.024 996.909C381.024 998.773 381.308 1000.47 381.876 1001.99C382.456 1003.5 383.308 1004.7 384.433 1005.6C385.57 1006.49 386.979 1006.93 388.661 1006.93Z" fill="#131313"/>
</svg>
