<svg width="500" height="560" viewBox="0 0 500 560" fill="none" xmlns="http://www.w3.org/2000/svg">
<circle cx="250" cy="325" r="25" fill="#131313"/>
<rect x="241" y="243" width="18" height="70" fill="#131313"/>
<rect x="125" width="250" height="250" rx="125" fill="#131313"/>
<path d="M223.324 146.585V139.341L255.284 88.7727H260.54V99.9943H256.989L232.841 138.205V138.773H275.881V146.585H223.324ZM257.557 161.5V144.384V141.01V88.7727H265.938V161.5H257.557Z" fill="white"/>
<path d="M78.3842 381.091V416H74.157V381.091H78.3842ZM86.3146 416V389.818H90.201V393.909H90.5419C91.0874 392.511 91.968 391.426 93.1839 390.653C94.3999 389.869 95.8601 389.477 97.5646 389.477C99.2919 389.477 100.729 389.869 101.877 390.653C103.036 391.426 103.94 392.511 104.587 393.909H104.86C105.531 392.557 106.536 391.483 107.877 390.688C109.218 389.881 110.826 389.477 112.701 389.477C115.042 389.477 116.957 390.21 118.445 391.676C119.934 393.131 120.678 395.398 120.678 398.477V416H116.656V398.477C116.656 396.545 116.127 395.165 115.07 394.335C114.013 393.506 112.769 393.091 111.337 393.091C109.496 393.091 108.07 393.648 107.059 394.761C106.048 395.864 105.542 397.261 105.542 398.955V416H101.451V398.068C101.451 396.58 100.968 395.381 100.002 394.472C99.0362 393.551 97.7919 393.091 96.2692 393.091C95.2237 393.091 94.2464 393.369 93.3374 393.926C92.4396 394.483 91.7124 395.256 91.1555 396.244C90.6101 397.222 90.3374 398.352 90.3374 399.636V416H86.3146ZM128.033 425.818V389.818H131.92V393.977H132.397C132.692 393.523 133.102 392.943 133.624 392.239C134.158 391.523 134.92 390.886 135.908 390.33C136.908 389.761 138.261 389.477 139.965 389.477C142.17 389.477 144.113 390.028 145.795 391.131C147.477 392.233 148.789 393.795 149.732 395.818C150.675 397.841 151.147 400.227 151.147 402.977C151.147 405.75 150.675 408.153 149.732 410.188C148.789 412.21 147.482 413.778 145.812 414.892C144.141 415.994 142.215 416.545 140.033 416.545C138.352 416.545 137.005 416.267 135.994 415.71C134.982 415.142 134.204 414.5 133.658 413.784C133.113 413.057 132.692 412.455 132.397 411.977H132.056V425.818H128.033ZM131.988 402.909C131.988 404.886 132.278 406.631 132.857 408.142C133.437 409.642 134.283 410.818 135.397 411.67C136.511 412.511 137.874 412.932 139.488 412.932C141.17 412.932 142.573 412.489 143.698 411.602C144.835 410.705 145.687 409.5 146.255 407.989C146.835 406.466 147.124 404.773 147.124 402.909C147.124 401.068 146.84 399.409 146.272 397.932C145.715 396.443 144.869 395.267 143.732 394.403C142.607 393.528 141.192 393.091 139.488 393.091C137.852 393.091 136.477 393.506 135.363 394.335C134.249 395.153 133.408 396.301 132.84 397.778C132.272 399.244 131.988 400.955 131.988 402.909ZM161.306 381.091V416H157.283V381.091H161.306ZM179.651 416.545C177.129 416.545 174.952 415.989 173.123 414.875C171.305 413.75 169.901 412.182 168.913 410.17C167.935 408.148 167.447 405.795 167.447 403.114C167.447 400.432 167.935 398.068 168.913 396.023C169.901 393.966 171.276 392.364 173.038 391.216C174.81 390.057 176.879 389.477 179.242 389.477C180.606 389.477 181.952 389.705 183.282 390.159C184.612 390.614 185.822 391.352 186.913 392.375C188.004 393.386 188.873 394.727 189.521 396.398C190.168 398.068 190.492 400.125 190.492 402.568V404.273H170.31V400.795H186.401C186.401 399.318 186.106 398 185.515 396.841C184.935 395.682 184.106 394.767 183.026 394.097C181.958 393.426 180.697 393.091 179.242 393.091C177.64 393.091 176.254 393.489 175.083 394.284C173.924 395.068 173.032 396.091 172.407 397.352C171.782 398.614 171.469 399.966 171.469 401.409V403.727C171.469 405.705 171.81 407.381 172.492 408.756C173.185 410.119 174.146 411.159 175.373 411.875C176.6 412.58 178.026 412.932 179.651 412.932C180.708 412.932 181.663 412.784 182.515 412.489C183.379 412.182 184.123 411.727 184.748 411.125C185.373 410.511 185.856 409.75 186.197 408.841L190.083 409.932C189.674 411.25 188.987 412.409 188.021 413.409C187.055 414.398 185.862 415.17 184.441 415.727C183.021 416.273 181.424 416.545 179.651 416.545ZM196.612 416V389.818H200.498V393.909H200.839C201.384 392.511 202.265 391.426 203.481 390.653C204.697 389.869 206.157 389.477 207.862 389.477C209.589 389.477 211.026 389.869 212.174 390.653C213.333 391.426 214.237 392.511 214.884 393.909H215.157C215.827 392.557 216.833 391.483 218.174 390.688C219.515 389.881 221.123 389.477 222.998 389.477C225.339 389.477 227.254 390.21 228.742 391.676C230.231 393.131 230.975 395.398 230.975 398.477V416H226.952V398.477C226.952 396.545 226.424 395.165 225.367 394.335C224.31 393.506 223.066 393.091 221.634 393.091C219.793 393.091 218.367 393.648 217.356 394.761C216.344 395.864 215.839 397.261 215.839 398.955V416H211.748V398.068C211.748 396.58 211.265 395.381 210.299 394.472C209.333 393.551 208.089 393.091 206.566 393.091C205.521 393.091 204.543 393.369 203.634 393.926C202.737 394.483 202.009 395.256 201.452 396.244C200.907 397.222 200.634 398.352 200.634 399.636V416H196.612ZM249.308 416.545C246.785 416.545 244.609 415.989 242.779 414.875C240.961 413.75 239.558 412.182 238.569 410.17C237.592 408.148 237.103 405.795 237.103 403.114C237.103 400.432 237.592 398.068 238.569 396.023C239.558 393.966 240.933 392.364 242.694 391.216C244.467 390.057 246.535 389.477 248.898 389.477C250.262 389.477 251.609 389.705 252.938 390.159C254.268 390.614 255.478 391.352 256.569 392.375C257.66 393.386 258.529 394.727 259.177 396.398C259.825 398.068 260.148 400.125 260.148 402.568V404.273H239.967V400.795H256.058C256.058 399.318 255.762 398 255.171 396.841C254.592 395.682 253.762 394.767 252.683 394.097C251.614 393.426 250.353 393.091 248.898 393.091C247.296 393.091 245.91 393.489 244.739 394.284C243.58 395.068 242.688 396.091 242.063 397.352C241.438 398.614 241.126 399.966 241.126 401.409V403.727C241.126 405.705 241.467 407.381 242.148 408.756C242.842 410.119 243.802 411.159 245.029 411.875C246.256 412.58 247.683 412.932 249.308 412.932C250.364 412.932 251.319 412.784 252.171 412.489C253.035 412.182 253.779 411.727 254.404 411.125C255.029 410.511 255.512 409.75 255.853 408.841L259.739 409.932C259.33 411.25 258.643 412.409 257.677 413.409C256.711 414.398 255.518 415.17 254.097 415.727C252.677 416.273 251.08 416.545 249.308 416.545ZM270.29 400.25V416H266.268V389.818H270.154V393.909H270.495C271.109 392.58 272.04 391.511 273.29 390.705C274.54 389.886 276.154 389.477 278.131 389.477C279.904 389.477 281.455 389.841 282.785 390.568C284.114 391.284 285.148 392.375 285.887 393.841C286.626 395.295 286.995 397.136 286.995 399.364V416H282.972V399.636C282.972 397.58 282.438 395.977 281.37 394.83C280.302 393.67 278.836 393.091 276.972 393.091C275.688 393.091 274.54 393.369 273.529 393.926C272.529 394.483 271.739 395.295 271.16 396.364C270.58 397.432 270.29 398.727 270.29 400.25ZM305.732 389.818V393.227H292.164V389.818H305.732ZM296.119 383.545H300.141V408.5C300.141 409.636 300.306 410.489 300.636 411.057C300.977 411.614 301.408 411.989 301.931 412.182C302.465 412.364 303.028 412.455 303.619 412.455C304.062 412.455 304.425 412.432 304.71 412.386C304.994 412.33 305.221 412.284 305.391 412.25L306.21 415.864C305.937 415.966 305.556 416.068 305.067 416.17C304.579 416.284 303.96 416.341 303.21 416.341C302.073 416.341 300.96 416.097 299.869 415.608C298.789 415.119 297.891 414.375 297.175 413.375C296.471 412.375 296.119 411.114 296.119 409.591V383.545ZM319.488 416.614C317.829 416.614 316.323 416.301 314.971 415.676C313.619 415.04 312.545 414.125 311.749 412.932C310.954 411.727 310.556 410.273 310.556 408.568C310.556 407.068 310.852 405.852 311.442 404.92C312.033 403.977 312.823 403.239 313.812 402.705C314.8 402.17 315.891 401.773 317.085 401.511C318.289 401.239 319.499 401.023 320.715 400.864C322.306 400.659 323.596 400.506 324.585 400.403C325.585 400.29 326.312 400.102 326.766 399.841C327.232 399.58 327.465 399.125 327.465 398.477V398.341C327.465 396.659 327.005 395.352 326.085 394.42C325.175 393.489 323.795 393.023 321.942 393.023C320.022 393.023 318.516 393.443 317.425 394.284C316.335 395.125 315.567 396.023 315.124 396.977L311.306 395.614C311.988 394.023 312.897 392.784 314.033 391.898C315.181 391 316.431 390.375 317.783 390.023C319.147 389.659 320.488 389.477 321.806 389.477C322.647 389.477 323.613 389.58 324.704 389.784C325.806 389.977 326.869 390.381 327.891 390.994C328.925 391.608 329.783 392.534 330.465 393.773C331.147 395.011 331.488 396.67 331.488 398.75V416H327.465V412.455H327.261C326.988 413.023 326.533 413.631 325.897 414.278C325.261 414.926 324.414 415.477 323.357 415.932C322.3 416.386 321.011 416.614 319.488 416.614ZM320.102 413C321.692 413 323.033 412.688 324.124 412.062C325.227 411.438 326.056 410.631 326.613 409.642C327.181 408.653 327.465 407.614 327.465 406.523V402.841C327.295 403.045 326.92 403.233 326.34 403.403C325.772 403.562 325.113 403.705 324.363 403.83C323.624 403.943 322.903 404.045 322.198 404.136C321.505 404.216 320.942 404.284 320.511 404.341C319.465 404.477 318.488 404.699 317.579 405.006C316.681 405.301 315.954 405.75 315.397 406.352C314.852 406.943 314.579 407.75 314.579 408.773C314.579 410.17 315.096 411.227 316.13 411.943C317.175 412.648 318.499 413 320.102 413ZM349.467 416.545C347.012 416.545 344.898 415.966 343.126 414.807C341.353 413.648 339.989 412.051 339.035 410.017C338.08 407.983 337.603 405.659 337.603 403.045C337.603 400.386 338.092 398.04 339.069 396.006C340.058 393.96 341.433 392.364 343.194 391.216C344.967 390.057 347.035 389.477 349.398 389.477C351.239 389.477 352.898 389.818 354.376 390.5C355.853 391.182 357.063 392.136 358.006 393.364C358.95 394.591 359.535 396.023 359.762 397.659H355.739C355.433 396.466 354.751 395.409 353.694 394.489C352.648 393.557 351.239 393.091 349.467 393.091C347.898 393.091 346.523 393.5 345.342 394.318C344.171 395.125 343.256 396.267 342.597 397.744C341.95 399.21 341.626 400.932 341.626 402.909C341.626 404.932 341.944 406.693 342.58 408.193C343.228 409.693 344.137 410.858 345.308 411.688C346.489 412.517 347.876 412.932 349.467 412.932C350.512 412.932 351.461 412.75 352.313 412.386C353.165 412.023 353.887 411.5 354.478 410.818C355.069 410.136 355.489 409.318 355.739 408.364H359.762C359.535 409.909 358.972 411.301 358.075 412.54C357.188 413.767 356.012 414.744 354.546 415.472C353.092 416.188 351.398 416.545 349.467 416.545ZM365.643 416V389.818H369.665V416H365.643ZM367.688 385.455C366.904 385.455 366.228 385.188 365.66 384.653C365.103 384.119 364.825 383.477 364.825 382.727C364.825 381.977 365.103 381.335 365.66 380.801C366.228 380.267 366.904 380 367.688 380C368.472 380 369.143 380.267 369.7 380.801C370.268 381.335 370.552 381.977 370.552 382.727C370.552 383.477 370.268 384.119 369.7 384.653C369.143 385.188 368.472 385.455 367.688 385.455ZM387.67 416.545C385.306 416.545 383.232 415.983 381.448 414.858C379.675 413.733 378.289 412.159 377.289 410.136C376.3 408.114 375.806 405.75 375.806 403.045C375.806 400.318 376.3 397.937 377.289 395.903C378.289 393.869 379.675 392.29 381.448 391.165C383.232 390.04 385.306 389.477 387.67 389.477C390.033 389.477 392.102 390.04 393.874 391.165C395.658 392.29 397.045 393.869 398.033 395.903C399.033 397.937 399.533 400.318 399.533 403.045C399.533 405.75 399.033 408.114 398.033 410.136C397.045 412.159 395.658 413.733 393.874 414.858C392.102 415.983 390.033 416.545 387.67 416.545ZM387.67 412.932C389.465 412.932 390.942 412.472 392.102 411.551C393.261 410.631 394.119 409.42 394.675 407.92C395.232 406.42 395.511 404.795 395.511 403.045C395.511 401.295 395.232 399.665 394.675 398.153C394.119 396.642 393.261 395.42 392.102 394.489C390.942 393.557 389.465 393.091 387.67 393.091C385.874 393.091 384.397 393.557 383.238 394.489C382.079 395.42 381.221 396.642 380.664 398.153C380.107 399.665 379.829 401.295 379.829 403.045C379.829 404.795 380.107 406.42 380.664 407.92C381.221 409.42 382.079 410.631 383.238 411.551C384.397 412.472 385.874 412.932 387.67 412.932ZM385.829 386.273L389.988 378.364H394.692L389.374 386.273H385.829ZM409.697 400.25V416H405.674V389.818H409.56V393.909H409.901C410.515 392.58 411.447 391.511 412.697 390.705C413.947 389.886 415.56 389.477 417.538 389.477C419.31 389.477 420.862 389.841 422.191 390.568C423.521 391.284 424.555 392.375 425.293 393.841C426.032 395.295 426.401 397.136 426.401 399.364V416H422.379V399.636C422.379 397.58 421.844 395.977 420.776 394.83C419.708 393.67 418.242 393.091 416.379 393.091C415.094 393.091 413.947 393.369 412.935 393.926C411.935 394.483 411.146 395.295 410.566 396.364C409.987 397.432 409.697 398.727 409.697 400.25ZM109.209 474.545C107.027 474.545 105.101 473.994 103.43 472.892C101.76 471.778 100.453 470.21 99.5099 468.188C98.5668 466.153 98.0952 463.75 98.0952 460.977C98.0952 458.227 98.5668 455.841 99.5099 453.818C100.453 451.795 101.766 450.233 103.447 449.131C105.129 448.028 107.072 447.477 109.277 447.477C110.982 447.477 112.328 447.761 113.317 448.33C114.317 448.886 115.078 449.523 115.601 450.239C116.135 450.943 116.55 451.523 116.845 451.977H117.186V439.091H121.209V474H117.322V469.977H116.845C116.55 470.455 116.129 471.057 115.584 471.784C115.038 472.5 114.26 473.142 113.249 473.71C112.237 474.267 110.891 474.545 109.209 474.545ZM109.754 470.932C111.368 470.932 112.732 470.511 113.845 469.67C114.959 468.818 115.805 467.642 116.385 466.142C116.964 464.631 117.254 462.886 117.254 460.909C117.254 458.955 116.97 457.244 116.402 455.778C115.834 454.301 114.993 453.153 113.879 452.335C112.766 451.506 111.391 451.091 109.754 451.091C108.05 451.091 106.629 451.528 105.493 452.403C104.368 453.267 103.521 454.443 102.953 455.932C102.396 457.409 102.118 459.068 102.118 460.909C102.118 462.773 102.402 464.466 102.97 465.989C103.55 467.5 104.402 468.705 105.527 469.602C106.663 470.489 108.072 470.932 109.754 470.932ZM140.112 474.545C137.589 474.545 135.413 473.989 133.584 472.875C131.766 471.75 130.362 470.182 129.374 468.17C128.396 466.148 127.908 463.795 127.908 461.114C127.908 458.432 128.396 456.068 129.374 454.023C130.362 451.966 131.737 450.364 133.499 449.216C135.271 448.057 137.339 447.477 139.703 447.477C141.067 447.477 142.413 447.705 143.743 448.159C145.072 448.614 146.283 449.352 147.374 450.375C148.464 451.386 149.334 452.727 149.982 454.398C150.629 456.068 150.953 458.125 150.953 460.568V462.273H130.771V458.795H146.862C146.862 457.318 146.567 456 145.976 454.841C145.396 453.682 144.567 452.767 143.487 452.097C142.419 451.426 141.158 451.091 139.703 451.091C138.101 451.091 136.714 451.489 135.544 452.284C134.385 453.068 133.493 454.091 132.868 455.352C132.243 456.614 131.93 457.966 131.93 459.409V461.727C131.93 463.705 132.271 465.381 132.953 466.756C133.646 468.119 134.607 469.159 135.834 469.875C137.061 470.58 138.487 470.932 140.112 470.932C141.169 470.932 142.124 470.784 142.976 470.489C143.839 470.182 144.584 469.727 145.209 469.125C145.834 468.511 146.317 467.75 146.658 466.841L150.544 467.932C150.135 469.25 149.447 470.409 148.482 471.409C147.516 472.398 146.322 473.17 144.902 473.727C143.482 474.273 141.885 474.545 140.112 474.545ZM161.095 439.091V474H157.072V439.091H161.095ZM182.509 474V439.091H203.44V442.841H186.736V454.636H201.872V458.386H186.736V474H182.509ZM209.854 474V447.818H213.74V451.773H214.013C214.49 450.477 215.354 449.426 216.604 448.619C217.854 447.812 219.263 447.409 220.831 447.409C221.126 447.409 221.496 447.415 221.939 447.426C222.382 447.437 222.717 447.455 222.945 447.477V451.568C222.808 451.534 222.496 451.483 222.007 451.415C221.53 451.335 221.024 451.295 220.49 451.295C219.217 451.295 218.081 451.562 217.081 452.097C216.092 452.619 215.308 453.347 214.729 454.278C214.161 455.199 213.876 456.25 213.876 457.432V474H209.854ZM237.553 474.545C235.189 474.545 233.115 473.983 231.331 472.858C229.558 471.733 228.172 470.159 227.172 468.136C226.183 466.114 225.689 463.75 225.689 461.045C225.689 458.318 226.183 455.937 227.172 453.903C228.172 451.869 229.558 450.29 231.331 449.165C233.115 448.04 235.189 447.477 237.553 447.477C239.916 447.477 241.984 448.04 243.757 449.165C245.541 450.29 246.928 451.869 247.916 453.903C248.916 455.937 249.416 458.318 249.416 461.045C249.416 463.75 248.916 466.114 247.916 468.136C246.928 470.159 245.541 471.733 243.757 472.858C241.984 473.983 239.916 474.545 237.553 474.545ZM237.553 470.932C239.348 470.932 240.825 470.472 241.984 469.551C243.143 468.631 244.001 467.42 244.558 465.92C245.115 464.42 245.393 462.795 245.393 461.045C245.393 459.295 245.115 457.665 244.558 456.153C244.001 454.642 243.143 453.42 241.984 452.489C240.825 451.557 239.348 451.091 237.553 451.091C235.757 451.091 234.28 451.557 233.121 452.489C231.962 453.42 231.104 454.642 230.547 456.153C229.99 457.665 229.712 459.295 229.712 461.045C229.712 462.795 229.99 464.42 230.547 465.92C231.104 467.42 231.962 468.631 233.121 469.551C234.28 470.472 235.757 470.932 237.553 470.932ZM259.58 458.25V474H255.557V447.818H259.443V451.909H259.784C260.398 450.58 261.33 449.511 262.58 448.705C263.83 447.886 265.443 447.477 267.42 447.477C269.193 447.477 270.744 447.841 272.074 448.568C273.403 449.284 274.438 450.375 275.176 451.841C275.915 453.295 276.284 455.136 276.284 457.364V474H272.261V457.636C272.261 455.58 271.727 453.977 270.659 452.83C269.591 451.67 268.125 451.091 266.261 451.091C264.977 451.091 263.83 451.369 262.818 451.926C261.818 452.483 261.028 453.295 260.449 454.364C259.869 455.432 259.58 456.727 259.58 458.25ZM295.021 447.818V451.227H281.453V447.818H295.021ZM285.408 441.545H289.43V466.5C289.43 467.636 289.595 468.489 289.925 469.057C290.266 469.614 290.697 469.989 291.22 470.182C291.754 470.364 292.317 470.455 292.908 470.455C293.351 470.455 293.714 470.432 293.999 470.386C294.283 470.33 294.51 470.284 294.68 470.25L295.499 473.864C295.226 473.966 294.845 474.068 294.357 474.17C293.868 474.284 293.249 474.341 292.499 474.341C291.362 474.341 290.249 474.097 289.158 473.608C288.078 473.119 287.18 472.375 286.464 471.375C285.76 470.375 285.408 469.114 285.408 467.591V441.545ZM315.135 457.159V460.909H299.862V457.159H315.135ZM333.19 474.545C330.668 474.545 328.491 473.989 326.662 472.875C324.844 471.75 323.44 470.182 322.452 468.17C321.474 466.148 320.986 463.795 320.986 461.114C320.986 458.432 321.474 456.068 322.452 454.023C323.44 451.966 324.815 450.364 326.577 449.216C328.349 448.057 330.418 447.477 332.781 447.477C334.145 447.477 335.491 447.705 336.821 448.159C338.151 448.614 339.361 449.352 340.452 450.375C341.543 451.386 342.412 452.727 343.06 454.398C343.707 456.068 344.031 458.125 344.031 460.568V462.273H323.849V458.795H339.94C339.94 457.318 339.645 456 339.054 454.841C338.474 453.682 337.645 452.767 336.565 452.097C335.497 451.426 334.236 451.091 332.781 451.091C331.179 451.091 329.793 451.489 328.622 452.284C327.463 453.068 326.571 454.091 325.946 455.352C325.321 456.614 325.009 457.966 325.009 459.409V461.727C325.009 463.705 325.349 465.381 326.031 466.756C326.724 468.119 327.685 469.159 328.912 469.875C330.139 470.58 331.565 470.932 333.19 470.932C334.247 470.932 335.202 470.784 336.054 470.489C336.918 470.182 337.662 469.727 338.287 469.125C338.912 468.511 339.395 467.75 339.736 466.841L343.622 467.932C343.213 469.25 342.526 470.409 341.56 471.409C340.594 472.398 339.401 473.17 337.98 473.727C336.56 474.273 334.963 474.545 333.19 474.545ZM354.173 458.25V474H350.151V447.818H354.037V451.909H354.378C354.991 450.58 355.923 449.511 357.173 448.705C358.423 447.886 360.037 447.477 362.014 447.477C363.787 447.477 365.338 447.841 366.668 448.568C367.997 449.284 369.031 450.375 369.77 451.841C370.509 453.295 370.878 455.136 370.878 457.364V474H366.855V457.636C366.855 455.58 366.321 453.977 365.253 452.83C364.185 451.67 362.719 451.091 360.855 451.091C359.571 451.091 358.423 451.369 357.412 451.926C356.412 452.483 355.622 453.295 355.043 454.364C354.463 455.432 354.173 456.727 354.173 458.25ZM388.115 474.545C385.933 474.545 384.007 473.994 382.337 472.892C380.666 471.778 379.359 470.21 378.416 468.188C377.473 466.153 377.001 463.75 377.001 460.977C377.001 458.227 377.473 455.841 378.416 453.818C379.359 451.795 380.672 450.233 382.354 449.131C384.036 448.028 385.979 447.477 388.183 447.477C389.888 447.477 391.234 447.761 392.223 448.33C393.223 448.886 393.984 449.523 394.507 450.239C395.041 450.943 395.456 451.523 395.751 451.977H396.092V439.091H400.115V474H396.229V469.977H395.751C395.456 470.455 395.036 471.057 394.49 471.784C393.945 472.5 393.166 473.142 392.155 473.71C391.143 474.267 389.797 474.545 388.115 474.545ZM388.661 470.932C390.274 470.932 391.638 470.511 392.751 469.67C393.865 468.818 394.712 467.642 395.291 466.142C395.871 464.631 396.161 462.886 396.161 460.909C396.161 458.955 395.876 457.244 395.308 455.778C394.74 454.301 393.899 453.153 392.786 452.335C391.672 451.506 390.297 451.091 388.661 451.091C386.956 451.091 385.536 451.528 384.399 452.403C383.274 453.267 382.428 454.443 381.859 455.932C381.303 457.409 381.024 459.068 381.024 460.909C381.024 462.773 381.308 464.466 381.876 465.989C382.456 467.5 383.308 468.705 384.433 469.602C385.57 470.489 386.979 470.932 388.661 470.932Z" fill="#131313"/>
</svg>
