<svg width="500" height="560" viewBox="0 0 500 560" fill="none" xmlns="http://www.w3.org/2000/svg">
<circle cx="250" cy="325" r="25" fill="#131313"/>
<rect x="241" y="243" width="18" height="70" fill="#131313"/>
<rect x="125" width="250" height="250" rx="125" fill="#131313"/>
<path d="M249.756 162.494C245.589 162.494 241.837 161.666 238.499 160.009C235.161 158.351 232.485 156.079 230.473 153.19C228.461 150.302 227.36 147.011 227.17 143.318H235.693C236.025 146.609 237.516 149.331 240.168 151.486C242.843 153.616 246.039 154.682 249.756 154.682C252.739 154.682 255.39 153.983 257.71 152.587C260.054 151.19 261.889 149.272 263.214 146.834C264.564 144.372 265.239 141.59 265.239 138.489C265.239 135.316 264.54 132.487 263.143 130.001C261.77 127.492 259.876 125.515 257.462 124.071C255.047 122.627 252.289 121.893 249.188 121.869C246.962 121.846 244.678 122.189 242.334 122.899C239.99 123.586 238.061 124.473 236.545 125.562L228.307 124.568L232.71 88.7727H270.494V96.5852H240.097L237.54 118.034H237.966C239.457 116.85 241.328 115.868 243.577 115.087C245.826 114.305 248.17 113.915 250.608 113.915C255.059 113.915 259.024 114.98 262.504 117.111C266.008 119.218 268.754 122.106 270.743 125.776C272.755 129.445 273.761 133.635 273.761 138.347C273.761 142.987 272.72 147.13 270.636 150.776C268.577 154.398 265.736 157.262 262.114 159.369C258.491 161.453 254.372 162.494 249.756 162.494Z" fill="white"/>
<path d="M78.3842 381.091V416H74.157V381.091H78.3842ZM86.3146 416V389.818H90.201V393.909H90.5419C91.0874 392.511 91.968 391.426 93.1839 390.653C94.3999 389.869 95.8601 389.477 97.5646 389.477C99.2919 389.477 100.729 389.869 101.877 390.653C103.036 391.426 103.94 392.511 104.587 393.909H104.86C105.531 392.557 106.536 391.483 107.877 390.688C109.218 389.881 110.826 389.477 112.701 389.477C115.042 389.477 116.957 390.21 118.445 391.676C119.934 393.131 120.678 395.398 120.678 398.477V416H116.656V398.477C116.656 396.545 116.127 395.165 115.07 394.335C114.013 393.506 112.769 393.091 111.337 393.091C109.496 393.091 108.07 393.648 107.059 394.761C106.048 395.864 105.542 397.261 105.542 398.955V416H101.451V398.068C101.451 396.58 100.968 395.381 100.002 394.472C99.0362 393.551 97.7919 393.091 96.2692 393.091C95.2237 393.091 94.2464 393.369 93.3374 393.926C92.4396 394.483 91.7124 395.256 91.1555 396.244C90.6101 397.222 90.3374 398.352 90.3374 399.636V416H86.3146ZM128.033 425.818V389.818H131.92V393.977H132.397C132.692 393.523 133.102 392.943 133.624 392.239C134.158 391.523 134.92 390.886 135.908 390.33C136.908 389.761 138.261 389.477 139.965 389.477C142.17 389.477 144.113 390.028 145.795 391.131C147.477 392.233 148.789 393.795 149.732 395.818C150.675 397.841 151.147 400.227 151.147 402.977C151.147 405.75 150.675 408.153 149.732 410.188C148.789 412.21 147.482 413.778 145.812 414.892C144.141 415.994 142.215 416.545 140.033 416.545C138.352 416.545 137.005 416.267 135.994 415.71C134.982 415.142 134.204 414.5 133.658 413.784C133.113 413.057 132.692 412.455 132.397 411.977H132.056V425.818H128.033ZM131.988 402.909C131.988 404.886 132.278 406.631 132.857 408.142C133.437 409.642 134.283 410.818 135.397 411.67C136.511 412.511 137.874 412.932 139.488 412.932C141.17 412.932 142.573 412.489 143.698 411.602C144.835 410.705 145.687 409.5 146.255 407.989C146.835 406.466 147.124 404.773 147.124 402.909C147.124 401.068 146.84 399.409 146.272 397.932C145.715 396.443 144.869 395.267 143.732 394.403C142.607 393.528 141.192 393.091 139.488 393.091C137.852 393.091 136.477 393.506 135.363 394.335C134.249 395.153 133.408 396.301 132.84 397.778C132.272 399.244 131.988 400.955 131.988 402.909ZM161.306 381.091V416H157.283V381.091H161.306ZM179.651 416.545C177.129 416.545 174.952 415.989 173.123 414.875C171.305 413.75 169.901 412.182 168.913 410.17C167.935 408.148 167.447 405.795 167.447 403.114C167.447 400.432 167.935 398.068 168.913 396.023C169.901 393.966 171.276 392.364 173.038 391.216C174.81 390.057 176.879 389.477 179.242 389.477C180.606 389.477 181.952 389.705 183.282 390.159C184.612 390.614 185.822 391.352 186.913 392.375C188.004 393.386 188.873 394.727 189.521 396.398C190.168 398.068 190.492 400.125 190.492 402.568V404.273H170.31V400.795H186.401C186.401 399.318 186.106 398 185.515 396.841C184.935 395.682 184.106 394.767 183.026 394.097C181.958 393.426 180.697 393.091 179.242 393.091C177.64 393.091 176.254 393.489 175.083 394.284C173.924 395.068 173.032 396.091 172.407 397.352C171.782 398.614 171.469 399.966 171.469 401.409V403.727C171.469 405.705 171.81 407.381 172.492 408.756C173.185 410.119 174.146 411.159 175.373 411.875C176.6 412.58 178.026 412.932 179.651 412.932C180.708 412.932 181.663 412.784 182.515 412.489C183.379 412.182 184.123 411.727 184.748 411.125C185.373 410.511 185.856 409.75 186.197 408.841L190.083 409.932C189.674 411.25 188.987 412.409 188.021 413.409C187.055 414.398 185.862 415.17 184.441 415.727C183.021 416.273 181.424 416.545 179.651 416.545ZM196.612 416V389.818H200.498V393.909H200.839C201.384 392.511 202.265 391.426 203.481 390.653C204.697 389.869 206.157 389.477 207.862 389.477C209.589 389.477 211.026 389.869 212.174 390.653C213.333 391.426 214.237 392.511 214.884 393.909H215.157C215.827 392.557 216.833 391.483 218.174 390.688C219.515 389.881 221.123 389.477 222.998 389.477C225.339 389.477 227.254 390.21 228.742 391.676C230.231 393.131 230.975 395.398 230.975 398.477V416H226.952V398.477C226.952 396.545 226.424 395.165 225.367 394.335C224.31 393.506 223.066 393.091 221.634 393.091C219.793 393.091 218.367 393.648 217.356 394.761C216.344 395.864 215.839 397.261 215.839 398.955V416H211.748V398.068C211.748 396.58 211.265 395.381 210.299 394.472C209.333 393.551 208.089 393.091 206.566 393.091C205.521 393.091 204.543 393.369 203.634 393.926C202.737 394.483 202.009 395.256 201.452 396.244C200.907 397.222 200.634 398.352 200.634 399.636V416H196.612ZM249.308 416.545C246.785 416.545 244.609 415.989 242.779 414.875C240.961 413.75 239.558 412.182 238.569 410.17C237.592 408.148 237.103 405.795 237.103 403.114C237.103 400.432 237.592 398.068 238.569 396.023C239.558 393.966 240.933 392.364 242.694 391.216C244.467 390.057 246.535 389.477 248.898 389.477C250.262 389.477 251.609 389.705 252.938 390.159C254.268 390.614 255.478 391.352 256.569 392.375C257.66 393.386 258.529 394.727 259.177 396.398C259.825 398.068 260.148 400.125 260.148 402.568V404.273H239.967V400.795H256.058C256.058 399.318 255.762 398 255.171 396.841C254.592 395.682 253.762 394.767 252.683 394.097C251.614 393.426 250.353 393.091 248.898 393.091C247.296 393.091 245.91 393.489 244.739 394.284C243.58 395.068 242.688 396.091 242.063 397.352C241.438 398.614 241.126 399.966 241.126 401.409V403.727C241.126 405.705 241.467 407.381 242.148 408.756C242.842 410.119 243.802 411.159 245.029 411.875C246.256 412.58 247.683 412.932 249.308 412.932C250.364 412.932 251.319 412.784 252.171 412.489C253.035 412.182 253.779 411.727 254.404 411.125C255.029 410.511 255.512 409.75 255.853 408.841L259.739 409.932C259.33 411.25 258.643 412.409 257.677 413.409C256.711 414.398 255.518 415.17 254.097 415.727C252.677 416.273 251.08 416.545 249.308 416.545ZM270.29 400.25V416H266.268V389.818H270.154V393.909H270.495C271.109 392.58 272.04 391.511 273.29 390.705C274.54 389.886 276.154 389.477 278.131 389.477C279.904 389.477 281.455 389.841 282.785 390.568C284.114 391.284 285.148 392.375 285.887 393.841C286.626 395.295 286.995 397.136 286.995 399.364V416H282.972V399.636C282.972 397.58 282.438 395.977 281.37 394.83C280.302 393.67 278.836 393.091 276.972 393.091C275.688 393.091 274.54 393.369 273.529 393.926C272.529 394.483 271.739 395.295 271.16 396.364C270.58 397.432 270.29 398.727 270.29 400.25ZM305.732 389.818V393.227H292.164V389.818H305.732ZM296.119 383.545H300.141V408.5C300.141 409.636 300.306 410.489 300.636 411.057C300.977 411.614 301.408 411.989 301.931 412.182C302.465 412.364 303.028 412.455 303.619 412.455C304.062 412.455 304.425 412.432 304.71 412.386C304.994 412.33 305.221 412.284 305.391 412.25L306.21 415.864C305.937 415.966 305.556 416.068 305.067 416.17C304.579 416.284 303.96 416.341 303.21 416.341C302.073 416.341 300.96 416.097 299.869 415.608C298.789 415.119 297.891 414.375 297.175 413.375C296.471 412.375 296.119 411.114 296.119 409.591V383.545ZM319.488 416.614C317.829 416.614 316.323 416.301 314.971 415.676C313.619 415.04 312.545 414.125 311.749 412.932C310.954 411.727 310.556 410.273 310.556 408.568C310.556 407.068 310.852 405.852 311.442 404.92C312.033 403.977 312.823 403.239 313.812 402.705C314.8 402.17 315.891 401.773 317.085 401.511C318.289 401.239 319.499 401.023 320.715 400.864C322.306 400.659 323.596 400.506 324.585 400.403C325.585 400.29 326.312 400.102 326.766 399.841C327.232 399.58 327.465 399.125 327.465 398.477V398.341C327.465 396.659 327.005 395.352 326.085 394.42C325.175 393.489 323.795 393.023 321.942 393.023C320.022 393.023 318.516 393.443 317.425 394.284C316.335 395.125 315.567 396.023 315.124 396.977L311.306 395.614C311.988 394.023 312.897 392.784 314.033 391.898C315.181 391 316.431 390.375 317.783 390.023C319.147 389.659 320.488 389.477 321.806 389.477C322.647 389.477 323.613 389.58 324.704 389.784C325.806 389.977 326.869 390.381 327.891 390.994C328.925 391.608 329.783 392.534 330.465 393.773C331.147 395.011 331.488 396.67 331.488 398.75V416H327.465V412.455H327.261C326.988 413.023 326.533 413.631 325.897 414.278C325.261 414.926 324.414 415.477 323.357 415.932C322.3 416.386 321.011 416.614 319.488 416.614ZM320.102 413C321.692 413 323.033 412.688 324.124 412.062C325.227 411.438 326.056 410.631 326.613 409.642C327.181 408.653 327.465 407.614 327.465 406.523V402.841C327.295 403.045 326.92 403.233 326.34 403.403C325.772 403.562 325.113 403.705 324.363 403.83C323.624 403.943 322.903 404.045 322.198 404.136C321.505 404.216 320.942 404.284 320.511 404.341C319.465 404.477 318.488 404.699 317.579 405.006C316.681 405.301 315.954 405.75 315.397 406.352C314.852 406.943 314.579 407.75 314.579 408.773C314.579 410.17 315.096 411.227 316.13 411.943C317.175 412.648 318.499 413 320.102 413ZM349.467 416.545C347.012 416.545 344.898 415.966 343.126 414.807C341.353 413.648 339.989 412.051 339.035 410.017C338.08 407.983 337.603 405.659 337.603 403.045C337.603 400.386 338.092 398.04 339.069 396.006C340.058 393.96 341.433 392.364 343.194 391.216C344.967 390.057 347.035 389.477 349.398 389.477C351.239 389.477 352.898 389.818 354.376 390.5C355.853 391.182 357.063 392.136 358.006 393.364C358.95 394.591 359.535 396.023 359.762 397.659H355.739C355.433 396.466 354.751 395.409 353.694 394.489C352.648 393.557 351.239 393.091 349.467 393.091C347.898 393.091 346.523 393.5 345.342 394.318C344.171 395.125 343.256 396.267 342.597 397.744C341.95 399.21 341.626 400.932 341.626 402.909C341.626 404.932 341.944 406.693 342.58 408.193C343.228 409.693 344.137 410.858 345.308 411.688C346.489 412.517 347.876 412.932 349.467 412.932C350.512 412.932 351.461 412.75 352.313 412.386C353.165 412.023 353.887 411.5 354.478 410.818C355.069 410.136 355.489 409.318 355.739 408.364H359.762C359.535 409.909 358.972 411.301 358.075 412.54C357.188 413.767 356.012 414.744 354.546 415.472C353.092 416.188 351.398 416.545 349.467 416.545ZM365.643 416V389.818H369.665V416H365.643ZM367.688 385.455C366.904 385.455 366.228 385.188 365.66 384.653C365.103 384.119 364.825 383.477 364.825 382.727C364.825 381.977 365.103 381.335 365.66 380.801C366.228 380.267 366.904 380 367.688 380C368.472 380 369.143 380.267 369.7 380.801C370.268 381.335 370.552 381.977 370.552 382.727C370.552 383.477 370.268 384.119 369.7 384.653C369.143 385.188 368.472 385.455 367.688 385.455ZM387.67 416.545C385.306 416.545 383.232 415.983 381.448 414.858C379.675 413.733 378.289 412.159 377.289 410.136C376.3 408.114 375.806 405.75 375.806 403.045C375.806 400.318 376.3 397.937 377.289 395.903C378.289 393.869 379.675 392.29 381.448 391.165C383.232 390.04 385.306 389.477 387.67 389.477C390.033 389.477 392.102 390.04 393.874 391.165C395.658 392.29 397.045 393.869 398.033 395.903C399.033 397.937 399.533 400.318 399.533 403.045C399.533 405.75 399.033 408.114 398.033 410.136C397.045 412.159 395.658 413.733 393.874 414.858C392.102 415.983 390.033 416.545 387.67 416.545ZM387.67 412.932C389.465 412.932 390.942 412.472 392.102 411.551C393.261 410.631 394.119 409.42 394.675 407.92C395.232 406.42 395.511 404.795 395.511 403.045C395.511 401.295 395.232 399.665 394.675 398.153C394.119 396.642 393.261 395.42 392.102 394.489C390.942 393.557 389.465 393.091 387.67 393.091C385.874 393.091 384.397 393.557 383.238 394.489C382.079 395.42 381.221 396.642 380.664 398.153C380.107 399.665 379.829 401.295 379.829 403.045C379.829 404.795 380.107 406.42 380.664 407.92C381.221 409.42 382.079 410.631 383.238 411.551C384.397 412.472 385.874 412.932 387.67 412.932ZM385.829 386.273L389.988 378.364H394.692L389.374 386.273H385.829ZM409.697 400.25V416H405.674V389.818H409.56V393.909H409.901C410.515 392.58 411.447 391.511 412.697 390.705C413.947 389.886 415.56 389.477 417.538 389.477C419.31 389.477 420.862 389.841 422.191 390.568C423.521 391.284 424.555 392.375 425.293 393.841C426.032 395.295 426.401 397.136 426.401 399.364V416H422.379V399.636C422.379 397.58 421.844 395.977 420.776 394.83C419.708 393.67 418.242 393.091 416.379 393.091C415.094 393.091 413.947 393.369 412.935 393.926C411.935 394.483 411.146 395.295 410.566 396.364C409.987 397.432 409.697 398.727 409.697 400.25ZM113.803 474.545C111.621 474.545 109.695 473.994 108.024 472.892C106.354 471.778 105.047 470.21 104.104 468.188C103.161 466.153 102.689 463.75 102.689 460.977C102.689 458.227 103.161 455.841 104.104 453.818C105.047 451.795 106.359 450.233 108.041 449.131C109.723 448.028 111.666 447.477 113.871 447.477C115.575 447.477 116.922 447.761 117.911 448.33C118.911 448.886 119.672 449.523 120.195 450.239C120.729 450.943 121.143 451.523 121.439 451.977H121.78V439.091H125.803V474H121.916V469.977H121.439C121.143 470.455 120.723 471.057 120.178 471.784C119.632 472.5 118.854 473.142 117.842 473.71C116.831 474.267 115.484 474.545 113.803 474.545ZM114.348 470.932C115.962 470.932 117.325 470.511 118.439 469.67C119.553 468.818 120.399 467.642 120.979 466.142C121.558 464.631 121.848 462.886 121.848 460.909C121.848 458.955 121.564 457.244 120.996 455.778C120.428 454.301 119.587 453.153 118.473 452.335C117.359 451.506 115.984 451.091 114.348 451.091C112.643 451.091 111.223 451.528 110.087 452.403C108.962 453.267 108.115 454.443 107.547 455.932C106.99 457.409 106.712 459.068 106.712 460.909C106.712 462.773 106.996 464.466 107.564 465.989C108.143 467.5 108.996 468.705 110.121 469.602C111.257 470.489 112.666 470.932 114.348 470.932ZM144.706 474.545C142.183 474.545 140.007 473.989 138.178 472.875C136.359 471.75 134.956 470.182 133.967 468.17C132.99 466.148 132.501 463.795 132.501 461.114C132.501 458.432 132.99 456.068 133.967 454.023C134.956 451.966 136.331 450.364 138.092 449.216C139.865 448.057 141.933 447.477 144.297 447.477C145.661 447.477 147.007 447.705 148.337 448.159C149.666 448.614 150.876 449.352 151.967 450.375C153.058 451.386 153.928 452.727 154.575 454.398C155.223 456.068 155.547 458.125 155.547 460.568V462.273H135.365V458.795H151.456C151.456 457.318 151.161 456 150.57 454.841C149.99 453.682 149.161 452.767 148.081 452.097C147.013 451.426 145.751 451.091 144.297 451.091C142.695 451.091 141.308 451.489 140.138 452.284C138.979 453.068 138.087 454.091 137.462 455.352C136.837 456.614 136.524 457.966 136.524 459.409V461.727C136.524 463.705 136.865 465.381 137.547 466.756C138.24 468.119 139.2 469.159 140.428 469.875C141.655 470.58 143.081 470.932 144.706 470.932C145.763 470.932 146.717 470.784 147.57 470.489C148.433 470.182 149.178 469.727 149.803 469.125C150.428 468.511 150.911 467.75 151.251 466.841L155.138 467.932C154.729 469.25 154.041 470.409 153.075 471.409C152.109 472.398 150.916 473.17 149.496 473.727C148.075 474.273 146.479 474.545 144.706 474.545ZM165.689 439.091V474H161.666V439.091H165.689ZM187.102 474V439.091H199.307C201.739 439.091 203.744 439.511 205.324 440.352C206.903 441.182 208.08 442.301 208.852 443.71C209.625 445.108 210.011 446.659 210.011 448.364C210.011 449.864 209.744 451.102 209.21 452.08C208.688 453.057 207.994 453.83 207.131 454.398C206.278 454.966 205.352 455.386 204.352 455.659V456C205.42 456.068 206.494 456.443 207.574 457.125C208.653 457.807 209.557 458.784 210.284 460.057C211.011 461.33 211.375 462.886 211.375 464.727C211.375 466.477 210.977 468.051 210.182 469.449C209.386 470.847 208.131 471.955 206.415 472.773C204.699 473.591 202.466 474 199.716 474H187.102ZM191.33 470.25H199.716C202.477 470.25 204.438 469.716 205.597 468.648C206.767 467.568 207.352 466.261 207.352 464.727C207.352 463.545 207.051 462.455 206.449 461.455C205.847 460.443 204.989 459.636 203.875 459.034C202.761 458.42 201.443 458.114 199.92 458.114H191.33V470.25ZM191.33 454.432H199.17C200.443 454.432 201.591 454.182 202.614 453.682C203.648 453.182 204.466 452.477 205.068 451.568C205.682 450.659 205.989 449.591 205.989 448.364C205.989 446.83 205.455 445.528 204.386 444.46C203.318 443.381 201.625 442.841 199.307 442.841H191.33V454.432ZM225.48 474.614C223.821 474.614 222.315 474.301 220.963 473.676C219.611 473.04 218.537 472.125 217.741 470.932C216.946 469.727 216.548 468.273 216.548 466.568C216.548 465.068 216.844 463.852 217.435 462.92C218.026 461.977 218.815 461.239 219.804 460.705C220.793 460.17 221.884 459.773 223.077 459.511C224.281 459.239 225.491 459.023 226.707 458.864C228.298 458.659 229.588 458.506 230.577 458.403C231.577 458.29 232.304 458.102 232.759 457.841C233.224 457.58 233.457 457.125 233.457 456.477V456.341C233.457 454.659 232.997 453.352 232.077 452.42C231.168 451.489 229.787 451.023 227.935 451.023C226.014 451.023 224.509 451.443 223.418 452.284C222.327 453.125 221.56 454.023 221.116 454.977L217.298 453.614C217.98 452.023 218.889 450.784 220.026 449.898C221.173 449 222.423 448.375 223.776 448.023C225.139 447.659 226.48 447.477 227.798 447.477C228.639 447.477 229.605 447.58 230.696 447.784C231.798 447.977 232.861 448.381 233.884 448.994C234.918 449.608 235.776 450.534 236.457 451.773C237.139 453.011 237.48 454.67 237.48 456.75V474H233.457V470.455H233.253C232.98 471.023 232.526 471.631 231.889 472.278C231.253 472.926 230.406 473.477 229.349 473.932C228.293 474.386 227.003 474.614 225.48 474.614ZM226.094 471C227.685 471 229.026 470.688 230.116 470.062C231.219 469.438 232.048 468.631 232.605 467.642C233.173 466.653 233.457 465.614 233.457 464.523V460.841C233.287 461.045 232.912 461.233 232.332 461.403C231.764 461.562 231.105 461.705 230.355 461.83C229.616 461.943 228.895 462.045 228.19 462.136C227.497 462.216 226.935 462.284 226.503 462.341C225.457 462.477 224.48 462.699 223.571 463.006C222.673 463.301 221.946 463.75 221.389 464.352C220.844 464.943 220.571 465.75 220.571 466.773C220.571 468.17 221.088 469.227 222.122 469.943C223.168 470.648 224.491 471 226.094 471ZM255.459 474.545C253.004 474.545 250.891 473.966 249.118 472.807C247.345 471.648 245.982 470.051 245.027 468.017C244.072 465.983 243.595 463.659 243.595 461.045C243.595 458.386 244.084 456.04 245.061 454.006C246.05 451.96 247.425 450.364 249.186 449.216C250.959 448.057 253.027 447.477 255.391 447.477C257.232 447.477 258.891 447.818 260.368 448.5C261.845 449.182 263.055 450.136 263.999 451.364C264.942 452.591 265.527 454.023 265.754 455.659H261.732C261.425 454.466 260.743 453.409 259.686 452.489C258.641 451.557 257.232 451.091 255.459 451.091C253.891 451.091 252.516 451.5 251.334 452.318C250.163 453.125 249.249 454.267 248.589 455.744C247.942 457.21 247.618 458.932 247.618 460.909C247.618 462.932 247.936 464.693 248.572 466.193C249.22 467.693 250.129 468.858 251.3 469.688C252.482 470.517 253.868 470.932 255.459 470.932C256.504 470.932 257.453 470.75 258.305 470.386C259.158 470.023 259.879 469.5 260.47 468.818C261.061 468.136 261.482 467.318 261.732 466.364H265.754C265.527 467.909 264.964 469.301 264.067 470.54C263.18 471.767 262.004 472.744 260.538 473.472C259.084 474.188 257.391 474.545 255.459 474.545ZM275.385 464.455L275.317 459.477H276.135L287.589 447.818H292.567L280.362 460.159H280.021L275.385 464.455ZM271.635 474V439.091H275.658V474H271.635ZM288.271 474L278.044 461.045L280.908 458.25L293.385 474H288.271ZM310.541 457.159V460.909H295.268V457.159H310.541ZM328.597 474.545C326.074 474.545 323.898 473.989 322.068 472.875C320.25 471.75 318.847 470.182 317.858 468.17C316.881 466.148 316.392 463.795 316.392 461.114C316.392 458.432 316.881 456.068 317.858 454.023C318.847 451.966 320.222 450.364 321.983 449.216C323.756 448.057 325.824 447.477 328.188 447.477C329.551 447.477 330.898 447.705 332.227 448.159C333.557 448.614 334.767 449.352 335.858 450.375C336.949 451.386 337.818 452.727 338.466 454.398C339.114 456.068 339.438 458.125 339.438 460.568V462.273H319.256V458.795H335.347C335.347 457.318 335.051 456 334.46 454.841C333.881 453.682 333.051 452.767 331.972 452.097C330.903 451.426 329.642 451.091 328.188 451.091C326.585 451.091 325.199 451.489 324.028 452.284C322.869 453.068 321.977 454.091 321.352 455.352C320.727 456.614 320.415 457.966 320.415 459.409V461.727C320.415 463.705 320.756 465.381 321.438 466.756C322.131 468.119 323.091 469.159 324.318 469.875C325.545 470.58 326.972 470.932 328.597 470.932C329.653 470.932 330.608 470.784 331.46 470.489C332.324 470.182 333.068 469.727 333.693 469.125C334.318 468.511 334.801 467.75 335.142 466.841L339.028 467.932C338.619 469.25 337.932 470.409 336.966 471.409C336 472.398 334.807 473.17 333.386 473.727C331.966 474.273 330.369 474.545 328.597 474.545ZM349.58 458.25V474H345.557V447.818H349.443V451.909H349.784C350.398 450.58 351.33 449.511 352.58 448.705C353.83 447.886 355.443 447.477 357.42 447.477C359.193 447.477 360.744 447.841 362.074 448.568C363.403 449.284 364.438 450.375 365.176 451.841C365.915 453.295 366.284 455.136 366.284 457.364V474H362.261V457.636C362.261 455.58 361.727 453.977 360.659 452.83C359.591 451.67 358.125 451.091 356.261 451.091C354.977 451.091 353.83 451.369 352.818 451.926C351.818 452.483 351.028 453.295 350.449 454.364C349.869 455.432 349.58 456.727 349.58 458.25ZM383.521 474.545C381.339 474.545 379.413 473.994 377.743 472.892C376.072 471.778 374.766 470.21 373.822 468.188C372.879 466.153 372.408 463.75 372.408 460.977C372.408 458.227 372.879 455.841 373.822 453.818C374.766 451.795 376.078 450.233 377.76 449.131C379.442 448.028 381.385 447.477 383.589 447.477C385.294 447.477 386.641 447.761 387.629 448.33C388.629 448.886 389.391 449.523 389.913 450.239C390.447 450.943 390.862 451.523 391.158 451.977H391.499V439.091H395.521V474H391.635V469.977H391.158C390.862 470.455 390.442 471.057 389.896 471.784C389.351 472.5 388.572 473.142 387.561 473.71C386.55 474.267 385.203 474.545 383.521 474.545ZM384.067 470.932C385.68 470.932 387.044 470.511 388.158 469.67C389.271 468.818 390.118 467.642 390.697 466.142C391.277 464.631 391.567 462.886 391.567 460.909C391.567 458.955 391.283 457.244 390.714 455.778C390.146 454.301 389.305 453.153 388.192 452.335C387.078 451.506 385.703 451.091 384.067 451.091C382.362 451.091 380.942 451.528 379.805 452.403C378.68 453.267 377.834 454.443 377.266 455.932C376.709 457.409 376.43 459.068 376.43 460.909C376.43 462.773 376.714 464.466 377.283 465.989C377.862 467.5 378.714 468.705 379.839 469.602C380.976 470.489 382.385 470.932 384.067 470.932Z" fill="#131313"/>
</svg>
