<svg width="500" height="1500" viewBox="0 0 500 1500" fill="none" xmlns="http://www.w3.org/2000/svg">
<circle cx="250" cy="741" r="25" fill="#EEEEEE"/>
<rect x="241" y="533" width="18" height="192" fill="#EEEEEE"/>
<rect x="125" y="290" width="250" height="250" rx="125" fill="#EEEEEE"/>
<path d="M249.756 452.494C245.589 452.494 241.837 451.666 238.499 450.009C235.161 448.351 232.485 446.079 230.473 443.19C228.461 440.302 227.36 437.011 227.17 433.318H235.693C236.025 436.609 237.516 439.331 240.168 441.486C242.843 443.616 246.039 444.682 249.756 444.682C252.739 444.682 255.39 443.983 257.71 442.587C260.054 441.19 261.889 439.272 263.214 436.834C264.564 434.372 265.239 431.59 265.239 428.489C265.239 425.316 264.54 422.487 263.143 420.001C261.77 417.492 259.876 415.515 257.462 414.071C255.047 412.627 252.289 411.893 249.188 411.869C246.962 411.846 244.678 412.189 242.334 412.899C239.99 413.586 238.061 414.473 236.545 415.562L228.307 414.568L232.71 378.773H270.494V386.585H240.097L237.54 408.034H237.966C239.457 406.85 241.328 405.868 243.577 405.087C245.826 404.305 248.17 403.915 250.608 403.915C255.059 403.915 259.024 404.98 262.504 407.111C266.008 409.218 268.754 412.106 270.743 415.776C272.755 419.445 273.761 423.635 273.761 428.347C273.761 432.987 272.72 437.13 270.636 440.776C268.577 444.398 265.736 447.262 262.114 449.369C258.491 451.453 254.372 452.494 249.756 452.494Z" fill="black"/>
<path d="M78.3842 827.091V862H74.157V827.091H78.3842ZM86.3146 862V835.818H90.201V839.909H90.5419C91.0874 838.511 91.968 837.426 93.1839 836.653C94.3999 835.869 95.8601 835.477 97.5646 835.477C99.2919 835.477 100.729 835.869 101.877 836.653C103.036 837.426 103.94 838.511 104.587 839.909H104.86C105.531 838.557 106.536 837.483 107.877 836.688C109.218 835.881 110.826 835.477 112.701 835.477C115.042 835.477 116.957 836.21 118.445 837.676C119.934 839.131 120.678 841.398 120.678 844.477V862H116.656V844.477C116.656 842.545 116.127 841.165 115.07 840.335C114.013 839.506 112.769 839.091 111.337 839.091C109.496 839.091 108.07 839.648 107.059 840.761C106.048 841.864 105.542 843.261 105.542 844.955V862H101.451V844.068C101.451 842.58 100.968 841.381 100.002 840.472C99.0362 839.551 97.7919 839.091 96.2692 839.091C95.2237 839.091 94.2464 839.369 93.3374 839.926C92.4396 840.483 91.7124 841.256 91.1555 842.244C90.6101 843.222 90.3374 844.352 90.3374 845.636V862H86.3146ZM128.033 871.818V835.818H131.92V839.977H132.397C132.692 839.523 133.102 838.943 133.624 838.239C134.158 837.523 134.92 836.886 135.908 836.33C136.908 835.761 138.261 835.477 139.965 835.477C142.17 835.477 144.113 836.028 145.795 837.131C147.477 838.233 148.789 839.795 149.732 841.818C150.675 843.841 151.147 846.227 151.147 848.977C151.147 851.75 150.675 854.153 149.732 856.188C148.789 858.21 147.482 859.778 145.812 860.892C144.141 861.994 142.215 862.545 140.033 862.545C138.352 862.545 137.005 862.267 135.994 861.71C134.982 861.142 134.204 860.5 133.658 859.784C133.113 859.057 132.692 858.455 132.397 857.977H132.056V871.818H128.033ZM131.988 848.909C131.988 850.886 132.278 852.631 132.857 854.142C133.437 855.642 134.283 856.818 135.397 857.67C136.511 858.511 137.874 858.932 139.488 858.932C141.17 858.932 142.573 858.489 143.698 857.602C144.835 856.705 145.687 855.5 146.255 853.989C146.835 852.466 147.124 850.773 147.124 848.909C147.124 847.068 146.84 845.409 146.272 843.932C145.715 842.443 144.869 841.267 143.732 840.403C142.607 839.528 141.192 839.091 139.488 839.091C137.852 839.091 136.477 839.506 135.363 840.335C134.249 841.153 133.408 842.301 132.84 843.778C132.272 845.244 131.988 846.955 131.988 848.909ZM161.306 827.091V862H157.283V827.091H161.306ZM179.651 862.545C177.129 862.545 174.952 861.989 173.123 860.875C171.305 859.75 169.901 858.182 168.913 856.17C167.935 854.148 167.447 851.795 167.447 849.114C167.447 846.432 167.935 844.068 168.913 842.023C169.901 839.966 171.276 838.364 173.038 837.216C174.81 836.057 176.879 835.477 179.242 835.477C180.606 835.477 181.952 835.705 183.282 836.159C184.612 836.614 185.822 837.352 186.913 838.375C188.004 839.386 188.873 840.727 189.521 842.398C190.168 844.068 190.492 846.125 190.492 848.568V850.273H170.31V846.795H186.401C186.401 845.318 186.106 844 185.515 842.841C184.935 841.682 184.106 840.767 183.026 840.097C181.958 839.426 180.697 839.091 179.242 839.091C177.64 839.091 176.254 839.489 175.083 840.284C173.924 841.068 173.032 842.091 172.407 843.352C171.782 844.614 171.469 845.966 171.469 847.409V849.727C171.469 851.705 171.81 853.381 172.492 854.756C173.185 856.119 174.146 857.159 175.373 857.875C176.6 858.58 178.026 858.932 179.651 858.932C180.708 858.932 181.663 858.784 182.515 858.489C183.379 858.182 184.123 857.727 184.748 857.125C185.373 856.511 185.856 855.75 186.197 854.841L190.083 855.932C189.674 857.25 188.987 858.409 188.021 859.409C187.055 860.398 185.862 861.17 184.441 861.727C183.021 862.273 181.424 862.545 179.651 862.545ZM196.612 862V835.818H200.498V839.909H200.839C201.384 838.511 202.265 837.426 203.481 836.653C204.697 835.869 206.157 835.477 207.862 835.477C209.589 835.477 211.026 835.869 212.174 836.653C213.333 837.426 214.237 838.511 214.884 839.909H215.157C215.827 838.557 216.833 837.483 218.174 836.688C219.515 835.881 221.123 835.477 222.998 835.477C225.339 835.477 227.254 836.21 228.742 837.676C230.231 839.131 230.975 841.398 230.975 844.477V862H226.952V844.477C226.952 842.545 226.424 841.165 225.367 840.335C224.31 839.506 223.066 839.091 221.634 839.091C219.793 839.091 218.367 839.648 217.356 840.761C216.344 841.864 215.839 843.261 215.839 844.955V862H211.748V844.068C211.748 842.58 211.265 841.381 210.299 840.472C209.333 839.551 208.089 839.091 206.566 839.091C205.521 839.091 204.543 839.369 203.634 839.926C202.737 840.483 202.009 841.256 201.452 842.244C200.907 843.222 200.634 844.352 200.634 845.636V862H196.612ZM249.308 862.545C246.785 862.545 244.609 861.989 242.779 860.875C240.961 859.75 239.558 858.182 238.569 856.17C237.592 854.148 237.103 851.795 237.103 849.114C237.103 846.432 237.592 844.068 238.569 842.023C239.558 839.966 240.933 838.364 242.694 837.216C244.467 836.057 246.535 835.477 248.898 835.477C250.262 835.477 251.609 835.705 252.938 836.159C254.268 836.614 255.478 837.352 256.569 838.375C257.66 839.386 258.529 840.727 259.177 842.398C259.825 844.068 260.148 846.125 260.148 848.568V850.273H239.967V846.795H256.058C256.058 845.318 255.762 844 255.171 842.841C254.592 841.682 253.762 840.767 252.683 840.097C251.614 839.426 250.353 839.091 248.898 839.091C247.296 839.091 245.91 839.489 244.739 840.284C243.58 841.068 242.688 842.091 242.063 843.352C241.438 844.614 241.126 845.966 241.126 847.409V849.727C241.126 851.705 241.467 853.381 242.148 854.756C242.842 856.119 243.802 857.159 245.029 857.875C246.256 858.58 247.683 858.932 249.308 858.932C250.364 858.932 251.319 858.784 252.171 858.489C253.035 858.182 253.779 857.727 254.404 857.125C255.029 856.511 255.512 855.75 255.853 854.841L259.739 855.932C259.33 857.25 258.643 858.409 257.677 859.409C256.711 860.398 255.518 861.17 254.097 861.727C252.677 862.273 251.08 862.545 249.308 862.545ZM270.29 846.25V862H266.268V835.818H270.154V839.909H270.495C271.109 838.58 272.04 837.511 273.29 836.705C274.54 835.886 276.154 835.477 278.131 835.477C279.904 835.477 281.455 835.841 282.785 836.568C284.114 837.284 285.148 838.375 285.887 839.841C286.626 841.295 286.995 843.136 286.995 845.364V862H282.972V845.636C282.972 843.58 282.438 841.977 281.37 840.83C280.302 839.67 278.836 839.091 276.972 839.091C275.688 839.091 274.54 839.369 273.529 839.926C272.529 840.483 271.739 841.295 271.16 842.364C270.58 843.432 270.29 844.727 270.29 846.25ZM305.732 835.818V839.227H292.164V835.818H305.732ZM296.119 829.545H300.141V854.5C300.141 855.636 300.306 856.489 300.636 857.057C300.977 857.614 301.408 857.989 301.931 858.182C302.465 858.364 303.028 858.455 303.619 858.455C304.062 858.455 304.425 858.432 304.71 858.386C304.994 858.33 305.221 858.284 305.391 858.25L306.21 861.864C305.937 861.966 305.556 862.068 305.067 862.17C304.579 862.284 303.96 862.341 303.21 862.341C302.073 862.341 300.96 862.097 299.869 861.608C298.789 861.119 297.891 860.375 297.175 859.375C296.471 858.375 296.119 857.114 296.119 855.591V829.545ZM319.488 862.614C317.829 862.614 316.323 862.301 314.971 861.676C313.619 861.04 312.545 860.125 311.749 858.932C310.954 857.727 310.556 856.273 310.556 854.568C310.556 853.068 310.852 851.852 311.442 850.92C312.033 849.977 312.823 849.239 313.812 848.705C314.8 848.17 315.891 847.773 317.085 847.511C318.289 847.239 319.499 847.023 320.715 846.864C322.306 846.659 323.596 846.506 324.585 846.403C325.585 846.29 326.312 846.102 326.766 845.841C327.232 845.58 327.465 845.125 327.465 844.477V844.341C327.465 842.659 327.005 841.352 326.085 840.42C325.175 839.489 323.795 839.023 321.942 839.023C320.022 839.023 318.516 839.443 317.425 840.284C316.335 841.125 315.567 842.023 315.124 842.977L311.306 841.614C311.988 840.023 312.897 838.784 314.033 837.898C315.181 837 316.431 836.375 317.783 836.023C319.147 835.659 320.488 835.477 321.806 835.477C322.647 835.477 323.613 835.58 324.704 835.784C325.806 835.977 326.869 836.381 327.891 836.994C328.925 837.608 329.783 838.534 330.465 839.773C331.147 841.011 331.488 842.67 331.488 844.75V862H327.465V858.455H327.261C326.988 859.023 326.533 859.631 325.897 860.278C325.261 860.926 324.414 861.477 323.357 861.932C322.3 862.386 321.011 862.614 319.488 862.614ZM320.102 859C321.692 859 323.033 858.688 324.124 858.062C325.227 857.438 326.056 856.631 326.613 855.642C327.181 854.653 327.465 853.614 327.465 852.523V848.841C327.295 849.045 326.92 849.233 326.34 849.403C325.772 849.562 325.113 849.705 324.363 849.83C323.624 849.943 322.903 850.045 322.198 850.136C321.505 850.216 320.942 850.284 320.511 850.341C319.465 850.477 318.488 850.699 317.579 851.006C316.681 851.301 315.954 851.75 315.397 852.352C314.852 852.943 314.579 853.75 314.579 854.773C314.579 856.17 315.096 857.227 316.13 857.943C317.175 858.648 318.499 859 320.102 859ZM349.467 862.545C347.012 862.545 344.898 861.966 343.126 860.807C341.353 859.648 339.989 858.051 339.035 856.017C338.08 853.983 337.603 851.659 337.603 849.045C337.603 846.386 338.092 844.04 339.069 842.006C340.058 839.96 341.433 838.364 343.194 837.216C344.967 836.057 347.035 835.477 349.398 835.477C351.239 835.477 352.898 835.818 354.376 836.5C355.853 837.182 357.063 838.136 358.006 839.364C358.95 840.591 359.535 842.023 359.762 843.659H355.739C355.433 842.466 354.751 841.409 353.694 840.489C352.648 839.557 351.239 839.091 349.467 839.091C347.898 839.091 346.523 839.5 345.342 840.318C344.171 841.125 343.256 842.267 342.597 843.744C341.95 845.21 341.626 846.932 341.626 848.909C341.626 850.932 341.944 852.693 342.58 854.193C343.228 855.693 344.137 856.858 345.308 857.688C346.489 858.517 347.876 858.932 349.467 858.932C350.512 858.932 351.461 858.75 352.313 858.386C353.165 858.023 353.887 857.5 354.478 856.818C355.069 856.136 355.489 855.318 355.739 854.364H359.762C359.535 855.909 358.972 857.301 358.075 858.54C357.188 859.767 356.012 860.744 354.546 861.472C353.092 862.188 351.398 862.545 349.467 862.545ZM365.643 862V835.818H369.665V862H365.643ZM367.688 831.455C366.904 831.455 366.228 831.188 365.66 830.653C365.103 830.119 364.825 829.477 364.825 828.727C364.825 827.977 365.103 827.335 365.66 826.801C366.228 826.267 366.904 826 367.688 826C368.472 826 369.143 826.267 369.7 826.801C370.268 827.335 370.552 827.977 370.552 828.727C370.552 829.477 370.268 830.119 369.7 830.653C369.143 831.188 368.472 831.455 367.688 831.455ZM387.67 862.545C385.306 862.545 383.232 861.983 381.448 860.858C379.675 859.733 378.289 858.159 377.289 856.136C376.3 854.114 375.806 851.75 375.806 849.045C375.806 846.318 376.3 843.937 377.289 841.903C378.289 839.869 379.675 838.29 381.448 837.165C383.232 836.04 385.306 835.477 387.67 835.477C390.033 835.477 392.102 836.04 393.874 837.165C395.658 838.29 397.045 839.869 398.033 841.903C399.033 843.937 399.533 846.318 399.533 849.045C399.533 851.75 399.033 854.114 398.033 856.136C397.045 858.159 395.658 859.733 393.874 860.858C392.102 861.983 390.033 862.545 387.67 862.545ZM387.67 858.932C389.465 858.932 390.942 858.472 392.102 857.551C393.261 856.631 394.119 855.42 394.675 853.92C395.232 852.42 395.511 850.795 395.511 849.045C395.511 847.295 395.232 845.665 394.675 844.153C394.119 842.642 393.261 841.42 392.102 840.489C390.942 839.557 389.465 839.091 387.67 839.091C385.874 839.091 384.397 839.557 383.238 840.489C382.079 841.42 381.221 842.642 380.664 844.153C380.107 845.665 379.829 847.295 379.829 849.045C379.829 850.795 380.107 852.42 380.664 853.92C381.221 855.42 382.079 856.631 383.238 857.551C384.397 858.472 385.874 858.932 387.67 858.932ZM385.829 832.273L389.988 824.364H394.692L389.374 832.273H385.829ZM409.697 846.25V862H405.674V835.818H409.56V839.909H409.901C410.515 838.58 411.447 837.511 412.697 836.705C413.947 835.886 415.56 835.477 417.538 835.477C419.31 835.477 420.862 835.841 422.191 836.568C423.521 837.284 424.555 838.375 425.293 839.841C426.032 841.295 426.401 843.136 426.401 845.364V862H422.379V845.636C422.379 843.58 421.844 841.977 420.776 840.83C419.708 839.67 418.242 839.091 416.379 839.091C415.094 839.091 413.947 839.369 412.935 839.926C411.935 840.483 411.146 841.295 410.566 842.364C409.987 843.432 409.697 844.727 409.697 846.25ZM113.803 920.545C111.621 920.545 109.695 919.994 108.024 918.892C106.354 917.778 105.047 916.21 104.104 914.188C103.161 912.153 102.689 909.75 102.689 906.977C102.689 904.227 103.161 901.841 104.104 899.818C105.047 897.795 106.359 896.233 108.041 895.131C109.723 894.028 111.666 893.477 113.871 893.477C115.575 893.477 116.922 893.761 117.911 894.33C118.911 894.886 119.672 895.523 120.195 896.239C120.729 896.943 121.143 897.523 121.439 897.977H121.78V885.091H125.803V920H121.916V915.977H121.439C121.143 916.455 120.723 917.057 120.178 917.784C119.632 918.5 118.854 919.142 117.842 919.71C116.831 920.267 115.484 920.545 113.803 920.545ZM114.348 916.932C115.962 916.932 117.325 916.511 118.439 915.67C119.553 914.818 120.399 913.642 120.979 912.142C121.558 910.631 121.848 908.886 121.848 906.909C121.848 904.955 121.564 903.244 120.996 901.778C120.428 900.301 119.587 899.153 118.473 898.335C117.359 897.506 115.984 897.091 114.348 897.091C112.643 897.091 111.223 897.528 110.087 898.403C108.962 899.267 108.115 900.443 107.547 901.932C106.99 903.409 106.712 905.068 106.712 906.909C106.712 908.773 106.996 910.466 107.564 911.989C108.143 913.5 108.996 914.705 110.121 915.602C111.257 916.489 112.666 916.932 114.348 916.932ZM144.706 920.545C142.183 920.545 140.007 919.989 138.178 918.875C136.359 917.75 134.956 916.182 133.967 914.17C132.99 912.148 132.501 909.795 132.501 907.114C132.501 904.432 132.99 902.068 133.967 900.023C134.956 897.966 136.331 896.364 138.092 895.216C139.865 894.057 141.933 893.477 144.297 893.477C145.661 893.477 147.007 893.705 148.337 894.159C149.666 894.614 150.876 895.352 151.967 896.375C153.058 897.386 153.928 898.727 154.575 900.398C155.223 902.068 155.547 904.125 155.547 906.568V908.273H135.365V904.795H151.456C151.456 903.318 151.161 902 150.57 900.841C149.99 899.682 149.161 898.767 148.081 898.097C147.013 897.426 145.751 897.091 144.297 897.091C142.695 897.091 141.308 897.489 140.138 898.284C138.979 899.068 138.087 900.091 137.462 901.352C136.837 902.614 136.524 903.966 136.524 905.409V907.727C136.524 909.705 136.865 911.381 137.547 912.756C138.24 914.119 139.2 915.159 140.428 915.875C141.655 916.58 143.081 916.932 144.706 916.932C145.763 916.932 146.717 916.784 147.57 916.489C148.433 916.182 149.178 915.727 149.803 915.125C150.428 914.511 150.911 913.75 151.251 912.841L155.138 913.932C154.729 915.25 154.041 916.409 153.075 917.409C152.109 918.398 150.916 919.17 149.496 919.727C148.075 920.273 146.479 920.545 144.706 920.545ZM165.689 885.091V920H161.666V885.091H165.689ZM187.102 920V885.091H199.307C201.739 885.091 203.744 885.511 205.324 886.352C206.903 887.182 208.08 888.301 208.852 889.71C209.625 891.108 210.011 892.659 210.011 894.364C210.011 895.864 209.744 897.102 209.21 898.08C208.688 899.057 207.994 899.83 207.131 900.398C206.278 900.966 205.352 901.386 204.352 901.659V902C205.42 902.068 206.494 902.443 207.574 903.125C208.653 903.807 209.557 904.784 210.284 906.057C211.011 907.33 211.375 908.886 211.375 910.727C211.375 912.477 210.977 914.051 210.182 915.449C209.386 916.847 208.131 917.955 206.415 918.773C204.699 919.591 202.466 920 199.716 920H187.102ZM191.33 916.25H199.716C202.477 916.25 204.438 915.716 205.597 914.648C206.767 913.568 207.352 912.261 207.352 910.727C207.352 909.545 207.051 908.455 206.449 907.455C205.847 906.443 204.989 905.636 203.875 905.034C202.761 904.42 201.443 904.114 199.92 904.114H191.33V916.25ZM191.33 900.432H199.17C200.443 900.432 201.591 900.182 202.614 899.682C203.648 899.182 204.466 898.477 205.068 897.568C205.682 896.659 205.989 895.591 205.989 894.364C205.989 892.83 205.455 891.528 204.386 890.46C203.318 889.381 201.625 888.841 199.307 888.841H191.33V900.432ZM225.48 920.614C223.821 920.614 222.315 920.301 220.963 919.676C219.611 919.04 218.537 918.125 217.741 916.932C216.946 915.727 216.548 914.273 216.548 912.568C216.548 911.068 216.844 909.852 217.435 908.92C218.026 907.977 218.815 907.239 219.804 906.705C220.793 906.17 221.884 905.773 223.077 905.511C224.281 905.239 225.491 905.023 226.707 904.864C228.298 904.659 229.588 904.506 230.577 904.403C231.577 904.29 232.304 904.102 232.759 903.841C233.224 903.58 233.457 903.125 233.457 902.477V902.341C233.457 900.659 232.997 899.352 232.077 898.42C231.168 897.489 229.787 897.023 227.935 897.023C226.014 897.023 224.509 897.443 223.418 898.284C222.327 899.125 221.56 900.023 221.116 900.977L217.298 899.614C217.98 898.023 218.889 896.784 220.026 895.898C221.173 895 222.423 894.375 223.776 894.023C225.139 893.659 226.48 893.477 227.798 893.477C228.639 893.477 229.605 893.58 230.696 893.784C231.798 893.977 232.861 894.381 233.884 894.994C234.918 895.608 235.776 896.534 236.457 897.773C237.139 899.011 237.48 900.67 237.48 902.75V920H233.457V916.455H233.253C232.98 917.023 232.526 917.631 231.889 918.278C231.253 918.926 230.406 919.477 229.349 919.932C228.293 920.386 227.003 920.614 225.48 920.614ZM226.094 917C227.685 917 229.026 916.688 230.116 916.062C231.219 915.438 232.048 914.631 232.605 913.642C233.173 912.653 233.457 911.614 233.457 910.523V906.841C233.287 907.045 232.912 907.233 232.332 907.403C231.764 907.562 231.105 907.705 230.355 907.83C229.616 907.943 228.895 908.045 228.19 908.136C227.497 908.216 226.935 908.284 226.503 908.341C225.457 908.477 224.48 908.699 223.571 909.006C222.673 909.301 221.946 909.75 221.389 910.352C220.844 910.943 220.571 911.75 220.571 912.773C220.571 914.17 221.088 915.227 222.122 915.943C223.168 916.648 224.491 917 226.094 917ZM255.459 920.545C253.004 920.545 250.891 919.966 249.118 918.807C247.345 917.648 245.982 916.051 245.027 914.017C244.072 911.983 243.595 909.659 243.595 907.045C243.595 904.386 244.084 902.04 245.061 900.006C246.05 897.96 247.425 896.364 249.186 895.216C250.959 894.057 253.027 893.477 255.391 893.477C257.232 893.477 258.891 893.818 260.368 894.5C261.845 895.182 263.055 896.136 263.999 897.364C264.942 898.591 265.527 900.023 265.754 901.659H261.732C261.425 900.466 260.743 899.409 259.686 898.489C258.641 897.557 257.232 897.091 255.459 897.091C253.891 897.091 252.516 897.5 251.334 898.318C250.163 899.125 249.249 900.267 248.589 901.744C247.942 903.21 247.618 904.932 247.618 906.909C247.618 908.932 247.936 910.693 248.572 912.193C249.22 913.693 250.129 914.858 251.3 915.688C252.482 916.517 253.868 916.932 255.459 916.932C256.504 916.932 257.453 916.75 258.305 916.386C259.158 916.023 259.879 915.5 260.47 914.818C261.061 914.136 261.482 913.318 261.732 912.364H265.754C265.527 913.909 264.964 915.301 264.067 916.54C263.18 917.767 262.004 918.744 260.538 919.472C259.084 920.188 257.391 920.545 255.459 920.545ZM275.385 910.455L275.317 905.477H276.135L287.589 893.818H292.567L280.362 906.159H280.021L275.385 910.455ZM271.635 920V885.091H275.658V920H271.635ZM288.271 920L278.044 907.045L280.908 904.25L293.385 920H288.271ZM310.541 903.159V906.909H295.268V903.159H310.541ZM328.597 920.545C326.074 920.545 323.898 919.989 322.068 918.875C320.25 917.75 318.847 916.182 317.858 914.17C316.881 912.148 316.392 909.795 316.392 907.114C316.392 904.432 316.881 902.068 317.858 900.023C318.847 897.966 320.222 896.364 321.983 895.216C323.756 894.057 325.824 893.477 328.188 893.477C329.551 893.477 330.898 893.705 332.227 894.159C333.557 894.614 334.767 895.352 335.858 896.375C336.949 897.386 337.818 898.727 338.466 900.398C339.114 902.068 339.438 904.125 339.438 906.568V908.273H319.256V904.795H335.347C335.347 903.318 335.051 902 334.46 900.841C333.881 899.682 333.051 898.767 331.972 898.097C330.903 897.426 329.642 897.091 328.188 897.091C326.585 897.091 325.199 897.489 324.028 898.284C322.869 899.068 321.977 900.091 321.352 901.352C320.727 902.614 320.415 903.966 320.415 905.409V907.727C320.415 909.705 320.756 911.381 321.438 912.756C322.131 914.119 323.091 915.159 324.318 915.875C325.545 916.58 326.972 916.932 328.597 916.932C329.653 916.932 330.608 916.784 331.46 916.489C332.324 916.182 333.068 915.727 333.693 915.125C334.318 914.511 334.801 913.75 335.142 912.841L339.028 913.932C338.619 915.25 337.932 916.409 336.966 917.409C336 918.398 334.807 919.17 333.386 919.727C331.966 920.273 330.369 920.545 328.597 920.545ZM349.58 904.25V920H345.557V893.818H349.443V897.909H349.784C350.398 896.58 351.33 895.511 352.58 894.705C353.83 893.886 355.443 893.477 357.42 893.477C359.193 893.477 360.744 893.841 362.074 894.568C363.403 895.284 364.438 896.375 365.176 897.841C365.915 899.295 366.284 901.136 366.284 903.364V920H362.261V903.636C362.261 901.58 361.727 899.977 360.659 898.83C359.591 897.67 358.125 897.091 356.261 897.091C354.977 897.091 353.83 897.369 352.818 897.926C351.818 898.483 351.028 899.295 350.449 900.364C349.869 901.432 349.58 902.727 349.58 904.25ZM383.521 920.545C381.339 920.545 379.413 919.994 377.743 918.892C376.072 917.778 374.766 916.21 373.822 914.188C372.879 912.153 372.408 909.75 372.408 906.977C372.408 904.227 372.879 901.841 373.822 899.818C374.766 897.795 376.078 896.233 377.76 895.131C379.442 894.028 381.385 893.477 383.589 893.477C385.294 893.477 386.641 893.761 387.629 894.33C388.629 894.886 389.391 895.523 389.913 896.239C390.447 896.943 390.862 897.523 391.158 897.977H391.499V885.091H395.521V920H391.635V915.977H391.158C390.862 916.455 390.442 917.057 389.896 917.784C389.351 918.5 388.572 919.142 387.561 919.71C386.55 920.267 385.203 920.545 383.521 920.545ZM384.067 916.932C385.68 916.932 387.044 916.511 388.158 915.67C389.271 914.818 390.118 913.642 390.697 912.142C391.277 910.631 391.567 908.886 391.567 906.909C391.567 904.955 391.283 903.244 390.714 901.778C390.146 900.301 389.305 899.153 388.192 898.335C387.078 897.506 385.703 897.091 384.067 897.091C382.362 897.091 380.942 897.528 379.805 898.403C378.68 899.267 377.834 900.443 377.266 901.932C376.709 903.409 376.43 905.068 376.43 906.909C376.43 908.773 376.714 910.466 377.283 911.989C377.862 913.5 378.714 914.705 379.839 915.602C380.976 916.489 382.385 916.932 384.067 916.932Z" fill="#EEEEEE"/>
</svg>
