<svg width="500" height="1500" viewBox="0 0 500 1500" fill="none" xmlns="http://www.w3.org/2000/svg">
<circle cx="250" cy="651" r="25" fill="#131313"/>
<rect x="241" y="443" width="18" height="192" fill="#131313"/>
<rect x="125" y="200" width="250" height="250" rx="125" fill="#131313"/>
<path d="M250.176 362.494C247.193 362.447 244.21 361.879 241.227 360.79C238.244 359.701 235.522 357.866 233.06 355.286C230.598 352.681 228.621 349.166 227.129 344.739C225.638 340.288 224.892 334.701 224.892 327.977C224.892 321.538 225.496 315.832 226.703 310.861C227.911 305.866 229.662 301.663 231.959 298.254C234.255 294.821 237.025 292.217 240.268 290.442C243.536 288.666 247.217 287.778 251.312 287.778C255.384 287.778 259.007 288.595 262.179 290.229C265.375 291.839 267.979 294.088 269.991 296.976C272.004 299.864 273.306 303.19 273.898 306.955H265.233C264.428 303.687 262.866 300.977 260.545 298.822C258.225 296.668 255.148 295.591 251.312 295.591C245.678 295.591 241.239 298.041 237.996 302.942C234.776 307.842 233.154 314.72 233.131 323.574H233.699C235.025 321.562 236.599 319.845 238.422 318.425C240.268 316.981 242.304 315.868 244.53 315.087C246.755 314.305 249.111 313.915 251.597 313.915C255.763 313.915 259.575 314.956 263.031 317.04C266.488 319.099 269.258 321.952 271.341 325.598C273.424 329.22 274.466 333.375 274.466 338.062C274.466 342.561 273.46 346.68 271.447 350.42C269.435 354.137 266.606 357.097 262.96 359.298C259.338 361.476 255.077 362.542 250.176 362.494ZM250.176 354.682C253.159 354.682 255.834 353.936 258.202 352.445C260.593 350.953 262.475 348.953 263.848 346.443C265.245 343.934 265.943 341.14 265.943 338.062C265.943 335.056 265.268 332.321 263.919 329.859C262.593 327.374 260.759 325.397 258.415 323.929C256.095 322.461 253.443 321.727 250.46 321.727C248.211 321.727 246.116 322.177 244.175 323.077C242.233 323.953 240.529 325.16 239.061 326.699C237.617 328.238 236.481 330.001 235.652 331.99C234.823 333.955 234.409 336.027 234.409 338.205C234.409 341.093 235.084 343.792 236.433 346.301C237.806 348.811 239.677 350.835 242.044 352.374C244.435 353.912 247.146 354.682 250.176 354.682Z" fill="white"/>
<path d="M57.821 772V737.091H69.6165C72.3551 737.091 74.5938 737.585 76.3324 738.574C78.0824 739.551 79.3778 740.875 80.2188 742.545C81.0597 744.216 81.4801 746.08 81.4801 748.136C81.4801 750.193 81.0597 752.062 80.2188 753.744C79.3892 755.426 78.1051 756.767 76.3665 757.767C74.6278 758.756 72.4006 759.25 69.6847 759.25H61.2301V755.5H69.5483C71.4233 755.5 72.929 755.176 74.0653 754.528C75.2017 753.881 76.0256 753.006 76.5369 751.903C77.0597 750.79 77.321 749.534 77.321 748.136C77.321 746.739 77.0597 745.489 76.5369 744.386C76.0256 743.284 75.196 742.42 74.0483 741.795C72.9006 741.159 71.3778 740.841 69.4801 740.841H62.0483V772H57.821ZM87.7443 772V745.818H91.6307V749.773H91.9034C92.3807 748.477 93.2443 747.426 94.4943 746.619C95.7443 745.812 97.1534 745.409 98.7216 745.409C99.017 745.409 99.3864 745.415 99.8295 745.426C100.273 745.437 100.608 745.455 100.835 745.477V749.568C100.699 749.534 100.386 749.483 99.8977 749.415C99.4205 749.335 98.9148 749.295 98.3807 749.295C97.108 749.295 95.9716 749.562 94.9716 750.097C93.983 750.619 93.1989 751.347 92.6193 752.278C92.0511 753.199 91.767 754.25 91.767 755.432V772H87.7443ZM122.104 761.295V745.818H126.126V772H122.104V767.568H121.831C121.217 768.898 120.263 770.028 118.967 770.96C117.672 771.881 116.036 772.341 114.058 772.341C112.422 772.341 110.967 771.983 109.695 771.267C108.422 770.54 107.422 769.449 106.695 767.994C105.967 766.528 105.604 764.682 105.604 762.455V745.818H109.626V762.182C109.626 764.091 110.161 765.614 111.229 766.75C112.308 767.886 113.683 768.455 115.354 768.455C116.354 768.455 117.371 768.199 118.405 767.688C119.45 767.176 120.325 766.392 121.03 765.335C121.746 764.278 122.104 762.932 122.104 761.295ZM144.472 772.545C141.949 772.545 139.773 771.989 137.943 770.875C136.125 769.75 134.722 768.182 133.733 766.17C132.756 764.148 132.267 761.795 132.267 759.114C132.267 756.432 132.756 754.068 133.733 752.023C134.722 749.966 136.097 748.364 137.858 747.216C139.631 746.057 141.699 745.477 144.062 745.477C145.426 745.477 146.773 745.705 148.102 746.159C149.432 746.614 150.642 747.352 151.733 748.375C152.824 749.386 153.693 750.727 154.341 752.398C154.989 754.068 155.312 756.125 155.312 758.568V760.273H135.131V756.795H151.222C151.222 755.318 150.926 754 150.335 752.841C149.756 751.682 148.926 750.767 147.847 750.097C146.778 749.426 145.517 749.091 144.062 749.091C142.46 749.091 141.074 749.489 139.903 750.284C138.744 751.068 137.852 752.091 137.227 753.352C136.602 754.614 136.29 755.966 136.29 757.409V759.727C136.29 761.705 136.631 763.381 137.312 764.756C138.006 766.119 138.966 767.159 140.193 767.875C141.42 768.58 142.847 768.932 144.472 768.932C145.528 768.932 146.483 768.784 147.335 768.489C148.199 768.182 148.943 767.727 149.568 767.125C150.193 766.511 150.676 765.75 151.017 764.841L154.903 765.932C154.494 767.25 153.807 768.409 152.841 769.409C151.875 770.398 150.682 771.17 149.261 771.727C147.841 772.273 146.244 772.545 144.472 772.545ZM161.977 772V737.091H166V749.977H166.341C166.636 749.523 167.045 748.943 167.568 748.239C168.102 747.523 168.864 746.886 169.852 746.33C170.852 745.761 172.205 745.477 173.909 745.477C176.114 745.477 178.057 746.028 179.739 747.131C181.42 748.233 182.733 749.795 183.676 751.818C184.619 753.841 185.091 756.227 185.091 758.977C185.091 761.75 184.619 764.153 183.676 766.188C182.733 768.21 181.426 769.778 179.756 770.892C178.085 771.994 176.159 772.545 173.977 772.545C172.295 772.545 170.949 772.267 169.938 771.71C168.926 771.142 168.148 770.5 167.602 769.784C167.057 769.057 166.636 768.455 166.341 767.977H165.864V772H161.977ZM165.932 758.909C165.932 760.886 166.222 762.631 166.801 764.142C167.381 765.642 168.227 766.818 169.341 767.67C170.455 768.511 171.818 768.932 173.432 768.932C175.114 768.932 176.517 768.489 177.642 767.602C178.778 766.705 179.631 765.5 180.199 763.989C180.778 762.466 181.068 760.773 181.068 758.909C181.068 757.068 180.784 755.409 180.216 753.932C179.659 752.443 178.813 751.267 177.676 750.403C176.551 749.528 175.136 749.091 173.432 749.091C171.795 749.091 170.42 749.506 169.307 750.335C168.193 751.153 167.352 752.301 166.784 753.778C166.216 755.244 165.932 756.955 165.932 758.909ZM198.949 772.614C197.29 772.614 195.784 772.301 194.432 771.676C193.08 771.04 192.006 770.125 191.21 768.932C190.415 767.727 190.017 766.273 190.017 764.568C190.017 763.068 190.313 761.852 190.903 760.92C191.494 759.977 192.284 759.239 193.273 758.705C194.261 758.17 195.352 757.773 196.545 757.511C197.75 757.239 198.96 757.023 200.176 756.864C201.767 756.659 203.057 756.506 204.045 756.403C205.045 756.29 205.773 756.102 206.227 755.841C206.693 755.58 206.926 755.125 206.926 754.477V754.341C206.926 752.659 206.466 751.352 205.545 750.42C204.636 749.489 203.256 749.023 201.403 749.023C199.483 749.023 197.977 749.443 196.886 750.284C195.795 751.125 195.028 752.023 194.585 752.977L190.767 751.614C191.449 750.023 192.358 748.784 193.494 747.898C194.642 747 195.892 746.375 197.244 746.023C198.608 745.659 199.949 745.477 201.267 745.477C202.108 745.477 203.074 745.58 204.165 745.784C205.267 745.977 206.33 746.381 207.352 746.994C208.386 747.608 209.244 748.534 209.926 749.773C210.608 751.011 210.949 752.67 210.949 754.75V772H206.926V768.455H206.722C206.449 769.023 205.994 769.631 205.358 770.278C204.722 770.926 203.875 771.477 202.818 771.932C201.761 772.386 200.472 772.614 198.949 772.614ZM199.562 769C201.153 769 202.494 768.688 203.585 768.062C204.688 767.438 205.517 766.631 206.074 765.642C206.642 764.653 206.926 763.614 206.926 762.523V758.841C206.756 759.045 206.381 759.233 205.801 759.403C205.233 759.562 204.574 759.705 203.824 759.83C203.085 759.943 202.364 760.045 201.659 760.136C200.966 760.216 200.403 760.284 199.972 760.341C198.926 760.477 197.949 760.699 197.04 761.006C196.142 761.301 195.415 761.75 194.858 762.352C194.313 762.943 194.04 763.75 194.04 764.773C194.04 766.17 194.557 767.227 195.591 767.943C196.636 768.648 197.96 769 199.562 769ZM236.837 751.682L233.223 752.705C232.996 752.102 232.661 751.517 232.217 750.949C231.786 750.369 231.195 749.892 230.445 749.517C229.695 749.142 228.734 748.955 227.564 748.955C225.962 748.955 224.626 749.324 223.558 750.062C222.501 750.79 221.973 751.716 221.973 752.841C221.973 753.841 222.337 754.631 223.064 755.21C223.791 755.79 224.928 756.273 226.473 756.659L230.359 757.614C232.7 758.182 234.445 759.051 235.592 760.222C236.74 761.381 237.314 762.875 237.314 764.705C237.314 766.205 236.882 767.545 236.018 768.727C235.166 769.909 233.973 770.841 232.439 771.523C230.905 772.205 229.121 772.545 227.087 772.545C224.416 772.545 222.206 771.966 220.456 770.807C218.706 769.648 217.598 767.955 217.132 765.727L220.95 764.773C221.314 766.182 222.001 767.239 223.013 767.943C224.036 768.648 225.371 769 227.018 769C228.893 769 230.382 768.602 231.484 767.807C232.598 767 233.155 766.034 233.155 764.909C233.155 764 232.837 763.239 232.2 762.625C231.564 762 230.587 761.534 229.268 761.227L224.905 760.205C222.507 759.636 220.746 758.756 219.621 757.562C218.507 756.358 217.95 754.852 217.95 753.045C217.95 751.568 218.365 750.261 219.195 749.125C220.036 747.989 221.178 747.097 222.621 746.449C224.075 745.801 225.723 745.477 227.564 745.477C230.155 745.477 232.189 746.045 233.666 747.182C235.155 748.318 236.212 749.818 236.837 751.682ZM273.369 761.295V745.818H277.392V772H273.369V767.568H273.097C272.483 768.898 271.528 770.028 270.233 770.96C268.938 771.881 267.301 772.341 265.324 772.341C263.688 772.341 262.233 771.983 260.96 771.267C259.688 770.54 258.688 769.449 257.96 767.994C257.233 766.528 256.869 764.682 256.869 762.455V745.818H260.892V762.182C260.892 764.091 261.426 765.614 262.494 766.75C263.574 767.886 264.949 768.455 266.619 768.455C267.619 768.455 268.636 768.199 269.67 767.688C270.716 767.176 271.591 766.392 272.295 765.335C273.011 764.278 273.369 762.932 273.369 761.295ZM288.783 756.25V772H284.76V745.818H288.646V749.909H288.987C289.601 748.58 290.533 747.511 291.783 746.705C293.033 745.886 294.646 745.477 296.624 745.477C298.396 745.477 299.947 745.841 301.277 746.568C302.607 747.284 303.641 748.375 304.379 749.841C305.118 751.295 305.487 753.136 305.487 755.364V772H301.464V755.636C301.464 753.58 300.93 751.977 299.862 750.83C298.794 749.67 297.328 749.091 295.464 749.091C294.18 749.091 293.033 749.369 292.021 749.926C291.021 750.483 290.232 751.295 289.652 752.364C289.072 753.432 288.783 754.727 288.783 756.25ZM312.838 772V745.818H316.861V772H312.838ZM314.884 741.455C314.099 741.455 313.423 741.188 312.855 740.653C312.298 740.119 312.02 739.477 312.02 738.727C312.02 737.977 312.298 737.335 312.855 736.801C313.423 736.267 314.099 736 314.884 736C315.668 736 316.338 736.267 316.895 736.801C317.463 737.335 317.747 737.977 317.747 738.727C317.747 739.477 317.463 740.119 316.895 740.653C316.338 741.188 315.668 741.455 314.884 741.455ZM335.615 745.818V749.227H322.047V745.818H335.615ZM326.001 739.545H330.024V764.5C330.024 765.636 330.189 766.489 330.518 767.057C330.859 767.614 331.291 767.989 331.814 768.182C332.348 768.364 332.911 768.455 333.501 768.455C333.945 768.455 334.308 768.432 334.592 768.386C334.876 768.33 335.104 768.284 335.274 768.25L336.092 771.864C335.82 771.966 335.439 772.068 334.95 772.17C334.462 772.284 333.842 772.341 333.092 772.341C331.956 772.341 330.842 772.097 329.751 771.608C328.672 771.119 327.774 770.375 327.058 769.375C326.354 768.375 326.001 767.114 326.001 765.591V739.545ZM349.371 772.614C347.712 772.614 346.206 772.301 344.854 771.676C343.501 771.04 342.428 770.125 341.632 768.932C340.837 767.727 340.439 766.273 340.439 764.568C340.439 763.068 340.734 761.852 341.325 760.92C341.916 759.977 342.706 759.239 343.695 758.705C344.683 758.17 345.774 757.773 346.967 757.511C348.172 757.239 349.382 757.023 350.598 756.864C352.189 756.659 353.479 756.506 354.467 756.403C355.467 756.29 356.195 756.102 356.649 755.841C357.115 755.58 357.348 755.125 357.348 754.477V754.341C357.348 752.659 356.888 751.352 355.967 750.42C355.058 749.489 353.678 749.023 351.825 749.023C349.905 749.023 348.399 749.443 347.308 750.284C346.217 751.125 345.45 752.023 345.007 752.977L341.189 751.614C341.871 750.023 342.78 748.784 343.916 747.898C345.064 747 346.314 746.375 347.666 746.023C349.03 745.659 350.371 745.477 351.689 745.477C352.53 745.477 353.496 745.58 354.587 745.784C355.689 745.977 356.751 746.381 357.774 746.994C358.808 747.608 359.666 748.534 360.348 749.773C361.03 751.011 361.371 752.67 361.371 754.75V772H357.348V768.455H357.143C356.871 769.023 356.416 769.631 355.78 770.278C355.143 770.926 354.297 771.477 353.24 771.932C352.183 772.386 350.893 772.614 349.371 772.614ZM349.984 769C351.575 769 352.916 768.688 354.007 768.062C355.109 767.438 355.939 766.631 356.496 765.642C357.064 764.653 357.348 763.614 357.348 762.523V758.841C357.178 759.045 356.803 759.233 356.223 759.403C355.655 759.562 354.996 759.705 354.246 759.83C353.507 759.943 352.786 760.045 352.081 760.136C351.388 760.216 350.825 760.284 350.393 760.341C349.348 760.477 348.371 760.699 347.462 761.006C346.564 761.301 345.837 761.75 345.28 762.352C344.734 762.943 344.462 763.75 344.462 764.773C344.462 766.17 344.979 767.227 346.013 767.943C347.058 768.648 348.382 769 349.984 769ZM368.713 772V745.818H372.599V749.773H372.872C373.349 748.477 374.213 747.426 375.463 746.619C376.713 745.812 378.122 745.409 379.69 745.409C379.986 745.409 380.355 745.415 380.798 745.426C381.241 745.437 381.577 745.455 381.804 745.477V749.568C381.668 749.534 381.355 749.483 380.866 749.415C380.389 749.335 379.884 749.295 379.349 749.295C378.077 749.295 376.94 749.562 375.94 750.097C374.952 750.619 374.168 751.347 373.588 752.278C373.02 753.199 372.736 754.25 372.736 755.432V772H368.713ZM386.572 772V745.818H390.595V772H386.572ZM388.618 741.455C387.834 741.455 387.158 741.188 386.589 740.653C386.033 740.119 385.754 739.477 385.754 738.727C385.754 737.977 386.033 737.335 386.589 736.801C387.158 736.267 387.834 736 388.618 736C389.402 736 390.072 736.267 390.629 736.801C391.197 737.335 391.482 737.977 391.482 738.727C391.482 739.477 391.197 740.119 390.629 740.653C390.072 741.188 389.402 741.455 388.618 741.455ZM405.668 772.614C404.009 772.614 402.503 772.301 401.151 771.676C399.798 771.04 398.724 770.125 397.929 768.932C397.134 767.727 396.736 766.273 396.736 764.568C396.736 763.068 397.031 761.852 397.622 760.92C398.213 759.977 399.003 759.239 399.991 758.705C400.98 758.17 402.071 757.773 403.264 757.511C404.469 757.239 405.679 757.023 406.895 756.864C408.486 756.659 409.776 756.506 410.764 756.403C411.764 756.29 412.491 756.102 412.946 755.841C413.412 755.58 413.645 755.125 413.645 754.477V754.341C413.645 752.659 413.185 751.352 412.264 750.42C411.355 749.489 409.974 749.023 408.122 749.023C406.202 749.023 404.696 749.443 403.605 750.284C402.514 751.125 401.747 752.023 401.304 752.977L397.486 751.614C398.168 750.023 399.077 748.784 400.213 747.898C401.361 747 402.611 746.375 403.963 746.023C405.327 745.659 406.668 745.477 407.986 745.477C408.827 745.477 409.793 745.58 410.884 745.784C411.986 745.977 413.048 746.381 414.071 746.994C415.105 747.608 415.963 748.534 416.645 749.773C417.327 751.011 417.668 752.67 417.668 754.75V772H413.645V768.455H413.44C413.168 769.023 412.713 769.631 412.077 770.278C411.44 770.926 410.594 771.477 409.537 771.932C408.48 772.386 407.19 772.614 405.668 772.614ZM406.281 769C407.872 769 409.213 768.688 410.304 768.062C411.406 767.438 412.236 766.631 412.793 765.642C413.361 764.653 413.645 763.614 413.645 762.523V758.841C413.474 759.045 413.099 759.233 412.52 759.403C411.952 759.562 411.293 759.705 410.543 759.83C409.804 759.943 409.082 760.045 408.378 760.136C407.685 760.216 407.122 760.284 406.69 760.341C405.645 760.477 404.668 760.699 403.759 761.006C402.861 761.301 402.134 761.75 401.577 762.352C401.031 762.943 400.759 763.75 400.759 764.773C400.759 766.17 401.276 767.227 402.31 767.943C403.355 768.648 404.679 769 406.281 769ZM443.555 751.682L439.942 752.705C439.714 752.102 439.379 751.517 438.936 750.949C438.504 750.369 437.913 749.892 437.163 749.517C436.413 749.142 435.453 748.955 434.283 748.955C432.68 748.955 431.345 749.324 430.277 750.062C429.22 750.79 428.692 751.716 428.692 752.841C428.692 753.841 429.055 754.631 429.783 755.21C430.51 755.79 431.646 756.273 433.192 756.659L437.078 757.614C439.419 758.182 441.163 759.051 442.311 760.222C443.459 761.381 444.033 762.875 444.033 764.705C444.033 766.205 443.601 767.545 442.737 768.727C441.885 769.909 440.692 770.841 439.158 771.523C437.624 772.205 435.839 772.545 433.805 772.545C431.135 772.545 428.925 771.966 427.175 770.807C425.425 769.648 424.317 767.955 423.851 765.727L427.669 764.773C428.033 766.182 428.72 767.239 429.732 767.943C430.754 768.648 432.089 769 433.737 769C435.612 769 437.101 768.602 438.203 767.807C439.317 767 439.874 766.034 439.874 764.909C439.874 764 439.555 763.239 438.919 762.625C438.283 762 437.305 761.534 435.987 761.227L431.624 760.205C429.226 759.636 427.464 758.756 426.339 757.562C425.226 756.358 424.669 754.852 424.669 753.045C424.669 751.568 425.084 750.261 425.913 749.125C426.754 747.989 427.896 747.097 429.339 746.449C430.794 745.801 432.442 745.477 434.283 745.477C436.874 745.477 438.908 746.045 440.385 747.182C441.874 748.318 442.93 749.818 443.555 751.682ZM132.378 830.545C129.855 830.545 127.679 829.989 125.849 828.875C124.031 827.75 122.628 826.182 121.639 824.17C120.662 822.148 120.173 819.795 120.173 817.114C120.173 814.432 120.662 812.068 121.639 810.023C122.628 807.966 124.003 806.364 125.764 805.216C127.537 804.057 129.605 803.477 131.969 803.477C133.332 803.477 134.679 803.705 136.009 804.159C137.338 804.614 138.548 805.352 139.639 806.375C140.73 807.386 141.599 808.727 142.247 810.398C142.895 812.068 143.219 814.125 143.219 816.568V818.273H123.037V814.795H139.128C139.128 813.318 138.832 812 138.241 810.841C137.662 809.682 136.832 808.767 135.753 808.097C134.685 807.426 133.423 807.091 131.969 807.091C130.366 807.091 128.98 807.489 127.81 808.284C126.651 809.068 125.759 810.091 125.134 811.352C124.509 812.614 124.196 813.966 124.196 815.409V817.727C124.196 819.705 124.537 821.381 125.219 822.756C125.912 824.119 126.872 825.159 128.099 825.875C129.327 826.58 130.753 826.932 132.378 826.932C133.435 826.932 134.389 826.784 135.241 826.489C136.105 826.182 136.849 825.727 137.474 825.125C138.099 824.511 138.582 823.75 138.923 822.841L142.81 823.932C142.401 825.25 141.713 826.409 140.747 827.409C139.781 828.398 138.588 829.17 137.168 829.727C135.747 830.273 134.151 830.545 132.378 830.545ZM162.838 830V803.818H166.861V830H162.838ZM164.884 799.455C164.099 799.455 163.423 799.188 162.855 798.653C162.298 798.119 162.02 797.477 162.02 796.727C162.02 795.977 162.298 795.335 162.855 794.801C163.423 794.267 164.099 794 164.884 794C165.668 794 166.338 794.267 166.895 794.801C167.463 795.335 167.747 795.977 167.747 796.727C167.747 797.477 167.463 798.119 166.895 798.653C166.338 799.188 165.668 799.455 164.884 799.455ZM178.251 814.25V830H174.229V803.818H178.115V807.909H178.456C179.07 806.58 180.001 805.511 181.251 804.705C182.501 803.886 184.115 803.477 186.092 803.477C187.865 803.477 189.416 803.841 190.746 804.568C192.075 805.284 193.109 806.375 193.848 807.841C194.587 809.295 194.956 811.136 194.956 813.364V830H190.933V813.636C190.933 811.58 190.399 809.977 189.331 808.83C188.263 807.67 186.797 807.091 184.933 807.091C183.649 807.091 182.501 807.369 181.49 807.926C180.49 808.483 179.7 809.295 179.121 810.364C178.541 811.432 178.251 812.727 178.251 814.25ZM213.693 803.818V807.227H200.125V803.818H213.693ZM204.08 797.545H208.102V822.5C208.102 823.636 208.267 824.489 208.597 825.057C208.938 825.614 209.369 825.989 209.892 826.182C210.426 826.364 210.989 826.455 211.58 826.455C212.023 826.455 212.386 826.432 212.67 826.386C212.955 826.33 213.182 826.284 213.352 826.25L214.17 829.864C213.898 829.966 213.517 830.068 213.028 830.17C212.54 830.284 211.92 830.341 211.17 830.341C210.034 830.341 208.92 830.097 207.83 829.608C206.75 829.119 205.852 828.375 205.136 827.375C204.432 826.375 204.08 825.114 204.08 823.591V797.545ZM230.44 830.545C227.918 830.545 225.741 829.989 223.912 828.875C222.094 827.75 220.69 826.182 219.702 824.17C218.724 822.148 218.236 819.795 218.236 817.114C218.236 814.432 218.724 812.068 219.702 810.023C220.69 807.966 222.065 806.364 223.827 805.216C225.599 804.057 227.668 803.477 230.031 803.477C231.395 803.477 232.741 803.705 234.071 804.159C235.401 804.614 236.611 805.352 237.702 806.375C238.793 807.386 239.662 808.727 240.31 810.398C240.957 812.068 241.281 814.125 241.281 816.568V818.273H221.099V814.795H237.19C237.19 813.318 236.895 812 236.304 810.841C235.724 809.682 234.895 808.767 233.815 808.097C232.747 807.426 231.486 807.091 230.031 807.091C228.429 807.091 227.043 807.489 225.872 808.284C224.713 809.068 223.821 810.091 223.196 811.352C222.571 812.614 222.259 813.966 222.259 815.409V817.727C222.259 819.705 222.599 821.381 223.281 822.756C223.974 824.119 224.935 825.159 226.162 825.875C227.389 826.58 228.815 826.932 230.44 826.932C231.497 826.932 232.452 826.784 233.304 826.489C234.168 826.182 234.912 825.727 235.537 825.125C236.162 824.511 236.645 823.75 236.986 822.841L240.872 823.932C240.463 825.25 239.776 826.409 238.81 827.409C237.844 828.398 236.651 829.17 235.23 829.727C233.81 830.273 232.213 830.545 230.44 830.545ZM257.969 840.364C256.026 840.364 254.355 840.114 252.957 839.614C251.56 839.125 250.395 838.477 249.463 837.67C248.543 836.875 247.81 836.023 247.264 835.114L250.469 832.864C250.832 833.341 251.293 833.886 251.849 834.5C252.406 835.125 253.168 835.665 254.134 836.119C255.111 836.585 256.389 836.818 257.969 836.818C260.082 836.818 261.827 836.307 263.202 835.284C264.577 834.261 265.264 832.659 265.264 830.477V825.159H264.923C264.628 825.636 264.207 826.227 263.662 826.932C263.128 827.625 262.355 828.244 261.344 828.79C260.344 829.324 258.991 829.591 257.287 829.591C255.173 829.591 253.276 829.091 251.594 828.091C249.923 827.091 248.599 825.636 247.622 823.727C246.656 821.818 246.173 819.5 246.173 816.773C246.173 814.091 246.645 811.756 247.588 809.767C248.531 807.767 249.844 806.222 251.526 805.131C253.207 804.028 255.151 803.477 257.355 803.477C259.06 803.477 260.412 803.761 261.412 804.33C262.423 804.886 263.196 805.523 263.73 806.239C264.276 806.943 264.696 807.523 264.991 807.977H265.401V803.818H269.287V830.75C269.287 833 268.776 834.83 267.753 836.239C266.741 837.659 265.378 838.699 263.662 839.358C261.957 840.028 260.06 840.364 257.969 840.364ZM257.832 825.977C259.446 825.977 260.81 825.608 261.923 824.869C263.037 824.131 263.884 823.068 264.463 821.682C265.043 820.295 265.332 818.636 265.332 816.705C265.332 814.818 265.048 813.153 264.48 811.71C263.912 810.267 263.071 809.136 261.957 808.318C260.844 807.5 259.469 807.091 257.832 807.091C256.128 807.091 254.707 807.523 253.571 808.386C252.446 809.25 251.599 810.409 251.031 811.864C250.474 813.318 250.196 814.932 250.196 816.705C250.196 818.523 250.48 820.131 251.048 821.528C251.628 822.915 252.48 824.006 253.605 824.801C254.741 825.585 256.151 825.977 257.832 825.977ZM276.651 830V803.818H280.537V807.773H280.81C281.287 806.477 282.151 805.426 283.401 804.619C284.651 803.812 286.06 803.409 287.628 803.409C287.923 803.409 288.293 803.415 288.736 803.426C289.179 803.437 289.514 803.455 289.741 803.477V807.568C289.605 807.534 289.293 807.483 288.804 807.415C288.327 807.335 287.821 807.295 287.287 807.295C286.014 807.295 284.878 807.562 283.878 808.097C282.889 808.619 282.105 809.347 281.526 810.278C280.957 811.199 280.673 812.25 280.673 813.432V830H276.651ZM302.214 830.614C300.555 830.614 299.05 830.301 297.697 829.676C296.345 829.04 295.271 828.125 294.476 826.932C293.68 825.727 293.283 824.273 293.283 822.568C293.283 821.068 293.578 819.852 294.169 818.92C294.76 817.977 295.55 817.239 296.538 816.705C297.527 816.17 298.618 815.773 299.811 815.511C301.016 815.239 302.226 815.023 303.442 814.864C305.033 814.659 306.322 814.506 307.311 814.403C308.311 814.29 309.038 814.102 309.493 813.841C309.959 813.58 310.192 813.125 310.192 812.477V812.341C310.192 810.659 309.732 809.352 308.811 808.42C307.902 807.489 306.521 807.023 304.669 807.023C302.749 807.023 301.243 807.443 300.152 808.284C299.061 809.125 298.294 810.023 297.851 810.977L294.033 809.614C294.714 808.023 295.624 806.784 296.76 805.898C297.908 805 299.158 804.375 300.51 804.023C301.874 803.659 303.214 803.477 304.533 803.477C305.374 803.477 306.339 803.58 307.43 803.784C308.533 803.977 309.595 804.381 310.618 804.994C311.652 805.608 312.51 806.534 313.192 807.773C313.874 809.011 314.214 810.67 314.214 812.75V830H310.192V826.455H309.987C309.714 827.023 309.26 827.631 308.624 828.278C307.987 828.926 307.141 829.477 306.084 829.932C305.027 830.386 303.737 830.614 302.214 830.614ZM302.828 827C304.419 827 305.76 826.688 306.851 826.062C307.953 825.438 308.783 824.631 309.339 823.642C309.908 822.653 310.192 821.614 310.192 820.523V816.841C310.021 817.045 309.646 817.233 309.067 817.403C308.499 817.562 307.839 817.705 307.089 817.83C306.351 817.943 305.629 818.045 304.925 818.136C304.232 818.216 303.669 818.284 303.237 818.341C302.192 818.477 301.214 818.699 300.305 819.006C299.408 819.301 298.68 819.75 298.124 820.352C297.578 820.943 297.305 821.75 297.305 822.773C297.305 824.17 297.822 825.227 298.857 825.943C299.902 826.648 301.226 827 302.828 827ZM325.58 795.091V830H321.557V795.091H325.58ZM343.925 830.545C341.402 830.545 339.226 829.989 337.396 828.875C335.578 827.75 334.175 826.182 333.186 824.17C332.209 822.148 331.72 819.795 331.72 817.114C331.72 814.432 332.209 812.068 333.186 810.023C334.175 807.966 335.55 806.364 337.311 805.216C339.084 804.057 341.152 803.477 343.516 803.477C344.879 803.477 346.226 803.705 347.555 804.159C348.885 804.614 350.095 805.352 351.186 806.375C352.277 807.386 353.146 808.727 353.794 810.398C354.442 812.068 354.766 814.125 354.766 816.568V818.273H334.584V814.795H350.675C350.675 813.318 350.379 812 349.788 810.841C349.209 809.682 348.379 808.767 347.3 808.097C346.232 807.426 344.97 807.091 343.516 807.091C341.913 807.091 340.527 807.489 339.357 808.284C338.197 809.068 337.305 810.091 336.68 811.352C336.055 812.614 335.743 813.966 335.743 815.409V817.727C335.743 819.705 336.084 821.381 336.766 822.756C337.459 824.119 338.419 825.159 339.646 825.875C340.874 826.58 342.3 826.932 343.925 826.932C344.982 826.932 345.936 826.784 346.788 826.489C347.652 826.182 348.396 825.727 349.021 825.125C349.646 824.511 350.129 823.75 350.47 822.841L354.357 823.932C353.947 825.25 353.26 826.409 352.294 827.409C351.328 828.398 350.135 829.17 348.714 829.727C347.294 830.273 345.697 830.545 343.925 830.545ZM379.43 809.682L375.817 810.705C375.589 810.102 375.254 809.517 374.811 808.949C374.379 808.369 373.788 807.892 373.038 807.517C372.288 807.142 371.328 806.955 370.158 806.955C368.555 806.955 367.22 807.324 366.152 808.062C365.095 808.79 364.567 809.716 364.567 810.841C364.567 811.841 364.93 812.631 365.658 813.21C366.385 813.79 367.521 814.273 369.067 814.659L372.953 815.614C375.294 816.182 377.038 817.051 378.186 818.222C379.334 819.381 379.908 820.875 379.908 822.705C379.908 824.205 379.476 825.545 378.612 826.727C377.76 827.909 376.567 828.841 375.033 829.523C373.499 830.205 371.714 830.545 369.68 830.545C367.01 830.545 364.8 829.966 363.05 828.807C361.3 827.648 360.192 825.955 359.726 823.727L363.544 822.773C363.908 824.182 364.595 825.239 365.607 825.943C366.629 826.648 367.964 827 369.612 827C371.487 827 372.976 826.602 374.078 825.807C375.192 825 375.749 824.034 375.749 822.909C375.749 822 375.43 821.239 374.794 820.625C374.158 820 373.18 819.534 371.862 819.227L367.499 818.205C365.101 817.636 363.339 816.756 362.214 815.562C361.101 814.358 360.544 812.852 360.544 811.045C360.544 809.568 360.959 808.261 361.788 807.125C362.629 805.989 363.771 805.097 365.214 804.449C366.669 803.801 368.317 803.477 370.158 803.477C372.749 803.477 374.783 804.045 376.26 805.182C377.749 806.318 378.805 807.818 379.43 809.682Z" fill="#131313"/>
</svg>
