<svg width="500" height="560" viewBox="0 0 500 560" fill="none" xmlns="http://www.w3.org/2000/svg">
<circle cx="250" cy="325" r="25" fill="#EEEEEE"/>
<rect x="241" y="243" width="18" height="70" fill="#EEEEEE"/>
<rect x="125" width="250" height="250" rx="125" fill="#EEEEEE"/>
<path d="M250.176 162.494C247.193 162.447 244.21 161.879 241.227 160.79C238.244 159.701 235.522 157.866 233.06 155.286C230.598 152.681 228.621 149.166 227.129 144.739C225.638 140.288 224.892 134.701 224.892 127.977C224.892 121.538 225.496 115.832 226.703 110.861C227.911 105.866 229.662 101.663 231.959 98.2543C234.255 94.8215 237.025 92.2173 240.268 90.4418C243.536 88.6662 247.217 87.7784 251.312 87.7784C255.384 87.7784 259.007 88.5952 262.179 90.2287C265.375 91.8385 267.979 94.0876 269.991 96.9759C272.004 99.8641 273.306 103.19 273.898 106.955H265.233C264.428 103.687 262.866 100.977 260.545 98.8224C258.225 96.6681 255.148 95.5909 251.312 95.5909C245.678 95.5909 241.239 98.0412 237.996 102.942C234.776 107.842 233.154 114.72 233.131 123.574H233.699C235.025 121.562 236.599 119.845 238.422 118.425C240.268 116.981 242.304 115.868 244.53 115.087C246.755 114.305 249.111 113.915 251.597 113.915C255.763 113.915 259.575 114.956 263.031 117.04C266.488 119.099 269.258 121.952 271.341 125.598C273.424 129.22 274.466 133.375 274.466 138.062C274.466 142.561 273.46 146.68 271.447 150.42C269.435 154.137 266.606 157.097 262.96 159.298C259.338 161.476 255.077 162.542 250.176 162.494ZM250.176 154.682C253.159 154.682 255.834 153.936 258.202 152.445C260.593 150.953 262.475 148.953 263.848 146.443C265.245 143.934 265.943 141.14 265.943 138.062C265.943 135.056 265.268 132.321 263.919 129.859C262.593 127.374 260.759 125.397 258.415 123.929C256.095 122.461 253.443 121.727 250.46 121.727C248.211 121.727 246.116 122.177 244.175 123.077C242.233 123.953 240.529 125.16 239.061 126.699C237.617 128.238 236.481 130.001 235.652 131.99C234.823 133.955 234.409 136.027 234.409 138.205C234.409 141.093 235.084 143.792 236.433 146.301C237.806 148.811 239.677 150.835 242.044 152.374C244.435 153.912 247.146 154.682 250.176 154.682Z" fill="black"/>
<path d="M57.821 416V381.091H69.6165C72.3551 381.091 74.5938 381.585 76.3324 382.574C78.0824 383.551 79.3778 384.875 80.2188 386.545C81.0597 388.216 81.4801 390.08 81.4801 392.136C81.4801 394.193 81.0597 396.062 80.2188 397.744C79.3892 399.426 78.1051 400.767 76.3665 401.767C74.6278 402.756 72.4006 403.25 69.6847 403.25H61.2301V399.5H69.5483C71.4233 399.5 72.929 399.176 74.0653 398.528C75.2017 397.881 76.0256 397.006 76.5369 395.903C77.0597 394.79 77.321 393.534 77.321 392.136C77.321 390.739 77.0597 389.489 76.5369 388.386C76.0256 387.284 75.196 386.42 74.0483 385.795C72.9006 385.159 71.3778 384.841 69.4801 384.841H62.0483V416H57.821ZM87.7443 416V389.818H91.6307V393.773H91.9034C92.3807 392.477 93.2443 391.426 94.4943 390.619C95.7443 389.812 97.1534 389.409 98.7216 389.409C99.017 389.409 99.3864 389.415 99.8295 389.426C100.273 389.437 100.608 389.455 100.835 389.477V393.568C100.699 393.534 100.386 393.483 99.8977 393.415C99.4205 393.335 98.9148 393.295 98.3807 393.295C97.108 393.295 95.9716 393.562 94.9716 394.097C93.983 394.619 93.1989 395.347 92.6193 396.278C92.0511 397.199 91.767 398.25 91.767 399.432V416H87.7443ZM122.104 405.295V389.818H126.126V416H122.104V411.568H121.831C121.217 412.898 120.263 414.028 118.967 414.96C117.672 415.881 116.036 416.341 114.058 416.341C112.422 416.341 110.967 415.983 109.695 415.267C108.422 414.54 107.422 413.449 106.695 411.994C105.967 410.528 105.604 408.682 105.604 406.455V389.818H109.626V406.182C109.626 408.091 110.161 409.614 111.229 410.75C112.308 411.886 113.683 412.455 115.354 412.455C116.354 412.455 117.371 412.199 118.405 411.688C119.45 411.176 120.325 410.392 121.03 409.335C121.746 408.278 122.104 406.932 122.104 405.295ZM144.472 416.545C141.949 416.545 139.773 415.989 137.943 414.875C136.125 413.75 134.722 412.182 133.733 410.17C132.756 408.148 132.267 405.795 132.267 403.114C132.267 400.432 132.756 398.068 133.733 396.023C134.722 393.966 136.097 392.364 137.858 391.216C139.631 390.057 141.699 389.477 144.062 389.477C145.426 389.477 146.773 389.705 148.102 390.159C149.432 390.614 150.642 391.352 151.733 392.375C152.824 393.386 153.693 394.727 154.341 396.398C154.989 398.068 155.312 400.125 155.312 402.568V404.273H135.131V400.795H151.222C151.222 399.318 150.926 398 150.335 396.841C149.756 395.682 148.926 394.767 147.847 394.097C146.778 393.426 145.517 393.091 144.062 393.091C142.46 393.091 141.074 393.489 139.903 394.284C138.744 395.068 137.852 396.091 137.227 397.352C136.602 398.614 136.29 399.966 136.29 401.409V403.727C136.29 405.705 136.631 407.381 137.312 408.756C138.006 410.119 138.966 411.159 140.193 411.875C141.42 412.58 142.847 412.932 144.472 412.932C145.528 412.932 146.483 412.784 147.335 412.489C148.199 412.182 148.943 411.727 149.568 411.125C150.193 410.511 150.676 409.75 151.017 408.841L154.903 409.932C154.494 411.25 153.807 412.409 152.841 413.409C151.875 414.398 150.682 415.17 149.261 415.727C147.841 416.273 146.244 416.545 144.472 416.545ZM161.977 416V381.091H166V393.977H166.341C166.636 393.523 167.045 392.943 167.568 392.239C168.102 391.523 168.864 390.886 169.852 390.33C170.852 389.761 172.205 389.477 173.909 389.477C176.114 389.477 178.057 390.028 179.739 391.131C181.42 392.233 182.733 393.795 183.676 395.818C184.619 397.841 185.091 400.227 185.091 402.977C185.091 405.75 184.619 408.153 183.676 410.188C182.733 412.21 181.426 413.778 179.756 414.892C178.085 415.994 176.159 416.545 173.977 416.545C172.295 416.545 170.949 416.267 169.938 415.71C168.926 415.142 168.148 414.5 167.602 413.784C167.057 413.057 166.636 412.455 166.341 411.977H165.864V416H161.977ZM165.932 402.909C165.932 404.886 166.222 406.631 166.801 408.142C167.381 409.642 168.227 410.818 169.341 411.67C170.455 412.511 171.818 412.932 173.432 412.932C175.114 412.932 176.517 412.489 177.642 411.602C178.778 410.705 179.631 409.5 180.199 407.989C180.778 406.466 181.068 404.773 181.068 402.909C181.068 401.068 180.784 399.409 180.216 397.932C179.659 396.443 178.813 395.267 177.676 394.403C176.551 393.528 175.136 393.091 173.432 393.091C171.795 393.091 170.42 393.506 169.307 394.335C168.193 395.153 167.352 396.301 166.784 397.778C166.216 399.244 165.932 400.955 165.932 402.909ZM198.949 416.614C197.29 416.614 195.784 416.301 194.432 415.676C193.08 415.04 192.006 414.125 191.21 412.932C190.415 411.727 190.017 410.273 190.017 408.568C190.017 407.068 190.313 405.852 190.903 404.92C191.494 403.977 192.284 403.239 193.273 402.705C194.261 402.17 195.352 401.773 196.545 401.511C197.75 401.239 198.96 401.023 200.176 400.864C201.767 400.659 203.057 400.506 204.045 400.403C205.045 400.29 205.773 400.102 206.227 399.841C206.693 399.58 206.926 399.125 206.926 398.477V398.341C206.926 396.659 206.466 395.352 205.545 394.42C204.636 393.489 203.256 393.023 201.403 393.023C199.483 393.023 197.977 393.443 196.886 394.284C195.795 395.125 195.028 396.023 194.585 396.977L190.767 395.614C191.449 394.023 192.358 392.784 193.494 391.898C194.642 391 195.892 390.375 197.244 390.023C198.608 389.659 199.949 389.477 201.267 389.477C202.108 389.477 203.074 389.58 204.165 389.784C205.267 389.977 206.33 390.381 207.352 390.994C208.386 391.608 209.244 392.534 209.926 393.773C210.608 395.011 210.949 396.67 210.949 398.75V416H206.926V412.455H206.722C206.449 413.023 205.994 413.631 205.358 414.278C204.722 414.926 203.875 415.477 202.818 415.932C201.761 416.386 200.472 416.614 198.949 416.614ZM199.562 413C201.153 413 202.494 412.688 203.585 412.062C204.688 411.438 205.517 410.631 206.074 409.642C206.642 408.653 206.926 407.614 206.926 406.523V402.841C206.756 403.045 206.381 403.233 205.801 403.403C205.233 403.562 204.574 403.705 203.824 403.83C203.085 403.943 202.364 404.045 201.659 404.136C200.966 404.216 200.403 404.284 199.972 404.341C198.926 404.477 197.949 404.699 197.04 405.006C196.142 405.301 195.415 405.75 194.858 406.352C194.313 406.943 194.04 407.75 194.04 408.773C194.04 410.17 194.557 411.227 195.591 411.943C196.636 412.648 197.96 413 199.562 413ZM236.837 395.682L233.223 396.705C232.996 396.102 232.661 395.517 232.217 394.949C231.786 394.369 231.195 393.892 230.445 393.517C229.695 393.142 228.734 392.955 227.564 392.955C225.962 392.955 224.626 393.324 223.558 394.062C222.501 394.79 221.973 395.716 221.973 396.841C221.973 397.841 222.337 398.631 223.064 399.21C223.791 399.79 224.928 400.273 226.473 400.659L230.359 401.614C232.7 402.182 234.445 403.051 235.592 404.222C236.74 405.381 237.314 406.875 237.314 408.705C237.314 410.205 236.882 411.545 236.018 412.727C235.166 413.909 233.973 414.841 232.439 415.523C230.905 416.205 229.121 416.545 227.087 416.545C224.416 416.545 222.206 415.966 220.456 414.807C218.706 413.648 217.598 411.955 217.132 409.727L220.95 408.773C221.314 410.182 222.001 411.239 223.013 411.943C224.036 412.648 225.371 413 227.018 413C228.893 413 230.382 412.602 231.484 411.807C232.598 411 233.155 410.034 233.155 408.909C233.155 408 232.837 407.239 232.2 406.625C231.564 406 230.587 405.534 229.268 405.227L224.905 404.205C222.507 403.636 220.746 402.756 219.621 401.562C218.507 400.358 217.95 398.852 217.95 397.045C217.95 395.568 218.365 394.261 219.195 393.125C220.036 391.989 221.178 391.097 222.621 390.449C224.075 389.801 225.723 389.477 227.564 389.477C230.155 389.477 232.189 390.045 233.666 391.182C235.155 392.318 236.212 393.818 236.837 395.682ZM273.369 405.295V389.818H277.392V416H273.369V411.568H273.097C272.483 412.898 271.528 414.028 270.233 414.96C268.938 415.881 267.301 416.341 265.324 416.341C263.688 416.341 262.233 415.983 260.96 415.267C259.688 414.54 258.688 413.449 257.96 411.994C257.233 410.528 256.869 408.682 256.869 406.455V389.818H260.892V406.182C260.892 408.091 261.426 409.614 262.494 410.75C263.574 411.886 264.949 412.455 266.619 412.455C267.619 412.455 268.636 412.199 269.67 411.688C270.716 411.176 271.591 410.392 272.295 409.335C273.011 408.278 273.369 406.932 273.369 405.295ZM288.783 400.25V416H284.76V389.818H288.646V393.909H288.987C289.601 392.58 290.533 391.511 291.783 390.705C293.033 389.886 294.646 389.477 296.624 389.477C298.396 389.477 299.947 389.841 301.277 390.568C302.607 391.284 303.641 392.375 304.379 393.841C305.118 395.295 305.487 397.136 305.487 399.364V416H301.464V399.636C301.464 397.58 300.93 395.977 299.862 394.83C298.794 393.67 297.328 393.091 295.464 393.091C294.18 393.091 293.033 393.369 292.021 393.926C291.021 394.483 290.232 395.295 289.652 396.364C289.072 397.432 288.783 398.727 288.783 400.25ZM312.838 416V389.818H316.861V416H312.838ZM314.884 385.455C314.099 385.455 313.423 385.188 312.855 384.653C312.298 384.119 312.02 383.477 312.02 382.727C312.02 381.977 312.298 381.335 312.855 380.801C313.423 380.267 314.099 380 314.884 380C315.668 380 316.338 380.267 316.895 380.801C317.463 381.335 317.747 381.977 317.747 382.727C317.747 383.477 317.463 384.119 316.895 384.653C316.338 385.188 315.668 385.455 314.884 385.455ZM335.615 389.818V393.227H322.047V389.818H335.615ZM326.001 383.545H330.024V408.5C330.024 409.636 330.189 410.489 330.518 411.057C330.859 411.614 331.291 411.989 331.814 412.182C332.348 412.364 332.911 412.455 333.501 412.455C333.945 412.455 334.308 412.432 334.592 412.386C334.876 412.33 335.104 412.284 335.274 412.25L336.092 415.864C335.82 415.966 335.439 416.068 334.95 416.17C334.462 416.284 333.842 416.341 333.092 416.341C331.956 416.341 330.842 416.097 329.751 415.608C328.672 415.119 327.774 414.375 327.058 413.375C326.354 412.375 326.001 411.114 326.001 409.591V383.545ZM349.371 416.614C347.712 416.614 346.206 416.301 344.854 415.676C343.501 415.04 342.428 414.125 341.632 412.932C340.837 411.727 340.439 410.273 340.439 408.568C340.439 407.068 340.734 405.852 341.325 404.92C341.916 403.977 342.706 403.239 343.695 402.705C344.683 402.17 345.774 401.773 346.967 401.511C348.172 401.239 349.382 401.023 350.598 400.864C352.189 400.659 353.479 400.506 354.467 400.403C355.467 400.29 356.195 400.102 356.649 399.841C357.115 399.58 357.348 399.125 357.348 398.477V398.341C357.348 396.659 356.888 395.352 355.967 394.42C355.058 393.489 353.678 393.023 351.825 393.023C349.905 393.023 348.399 393.443 347.308 394.284C346.217 395.125 345.45 396.023 345.007 396.977L341.189 395.614C341.871 394.023 342.78 392.784 343.916 391.898C345.064 391 346.314 390.375 347.666 390.023C349.03 389.659 350.371 389.477 351.689 389.477C352.53 389.477 353.496 389.58 354.587 389.784C355.689 389.977 356.751 390.381 357.774 390.994C358.808 391.608 359.666 392.534 360.348 393.773C361.03 395.011 361.371 396.67 361.371 398.75V416H357.348V412.455H357.143C356.871 413.023 356.416 413.631 355.78 414.278C355.143 414.926 354.297 415.477 353.24 415.932C352.183 416.386 350.893 416.614 349.371 416.614ZM349.984 413C351.575 413 352.916 412.688 354.007 412.062C355.109 411.438 355.939 410.631 356.496 409.642C357.064 408.653 357.348 407.614 357.348 406.523V402.841C357.178 403.045 356.803 403.233 356.223 403.403C355.655 403.562 354.996 403.705 354.246 403.83C353.507 403.943 352.786 404.045 352.081 404.136C351.388 404.216 350.825 404.284 350.393 404.341C349.348 404.477 348.371 404.699 347.462 405.006C346.564 405.301 345.837 405.75 345.28 406.352C344.734 406.943 344.462 407.75 344.462 408.773C344.462 410.17 344.979 411.227 346.013 411.943C347.058 412.648 348.382 413 349.984 413ZM368.713 416V389.818H372.599V393.773H372.872C373.349 392.477 374.213 391.426 375.463 390.619C376.713 389.812 378.122 389.409 379.69 389.409C379.986 389.409 380.355 389.415 380.798 389.426C381.241 389.437 381.577 389.455 381.804 389.477V393.568C381.668 393.534 381.355 393.483 380.866 393.415C380.389 393.335 379.884 393.295 379.349 393.295C378.077 393.295 376.94 393.562 375.94 394.097C374.952 394.619 374.168 395.347 373.588 396.278C373.02 397.199 372.736 398.25 372.736 399.432V416H368.713ZM386.572 416V389.818H390.595V416H386.572ZM388.618 385.455C387.834 385.455 387.158 385.188 386.589 384.653C386.033 384.119 385.754 383.477 385.754 382.727C385.754 381.977 386.033 381.335 386.589 380.801C387.158 380.267 387.834 380 388.618 380C389.402 380 390.072 380.267 390.629 380.801C391.197 381.335 391.482 381.977 391.482 382.727C391.482 383.477 391.197 384.119 390.629 384.653C390.072 385.188 389.402 385.455 388.618 385.455ZM405.668 416.614C404.009 416.614 402.503 416.301 401.151 415.676C399.798 415.04 398.724 414.125 397.929 412.932C397.134 411.727 396.736 410.273 396.736 408.568C396.736 407.068 397.031 405.852 397.622 404.92C398.213 403.977 399.003 403.239 399.991 402.705C400.98 402.17 402.071 401.773 403.264 401.511C404.469 401.239 405.679 401.023 406.895 400.864C408.486 400.659 409.776 400.506 410.764 400.403C411.764 400.29 412.491 400.102 412.946 399.841C413.412 399.58 413.645 399.125 413.645 398.477V398.341C413.645 396.659 413.185 395.352 412.264 394.42C411.355 393.489 409.974 393.023 408.122 393.023C406.202 393.023 404.696 393.443 403.605 394.284C402.514 395.125 401.747 396.023 401.304 396.977L397.486 395.614C398.168 394.023 399.077 392.784 400.213 391.898C401.361 391 402.611 390.375 403.963 390.023C405.327 389.659 406.668 389.477 407.986 389.477C408.827 389.477 409.793 389.58 410.884 389.784C411.986 389.977 413.048 390.381 414.071 390.994C415.105 391.608 415.963 392.534 416.645 393.773C417.327 395.011 417.668 396.67 417.668 398.75V416H413.645V412.455H413.44C413.168 413.023 412.713 413.631 412.077 414.278C411.44 414.926 410.594 415.477 409.537 415.932C408.48 416.386 407.19 416.614 405.668 416.614ZM406.281 413C407.872 413 409.213 412.688 410.304 412.062C411.406 411.438 412.236 410.631 412.793 409.642C413.361 408.653 413.645 407.614 413.645 406.523V402.841C413.474 403.045 413.099 403.233 412.52 403.403C411.952 403.562 411.293 403.705 410.543 403.83C409.804 403.943 409.082 404.045 408.378 404.136C407.685 404.216 407.122 404.284 406.69 404.341C405.645 404.477 404.668 404.699 403.759 405.006C402.861 405.301 402.134 405.75 401.577 406.352C401.031 406.943 400.759 407.75 400.759 408.773C400.759 410.17 401.276 411.227 402.31 411.943C403.355 412.648 404.679 413 406.281 413ZM443.555 395.682L439.942 396.705C439.714 396.102 439.379 395.517 438.936 394.949C438.504 394.369 437.913 393.892 437.163 393.517C436.413 393.142 435.453 392.955 434.283 392.955C432.68 392.955 431.345 393.324 430.277 394.062C429.22 394.79 428.692 395.716 428.692 396.841C428.692 397.841 429.055 398.631 429.783 399.21C430.51 399.79 431.646 400.273 433.192 400.659L437.078 401.614C439.419 402.182 441.163 403.051 442.311 404.222C443.459 405.381 444.033 406.875 444.033 408.705C444.033 410.205 443.601 411.545 442.737 412.727C441.885 413.909 440.692 414.841 439.158 415.523C437.624 416.205 435.839 416.545 433.805 416.545C431.135 416.545 428.925 415.966 427.175 414.807C425.425 413.648 424.317 411.955 423.851 409.727L427.669 408.773C428.033 410.182 428.72 411.239 429.732 411.943C430.754 412.648 432.089 413 433.737 413C435.612 413 437.101 412.602 438.203 411.807C439.317 411 439.874 410.034 439.874 408.909C439.874 408 439.555 407.239 438.919 406.625C438.283 406 437.305 405.534 435.987 405.227L431.624 404.205C429.226 403.636 427.464 402.756 426.339 401.562C425.226 400.358 424.669 398.852 424.669 397.045C424.669 395.568 425.084 394.261 425.913 393.125C426.754 391.989 427.896 391.097 429.339 390.449C430.794 389.801 432.442 389.477 434.283 389.477C436.874 389.477 438.908 390.045 440.385 391.182C441.874 392.318 442.93 393.818 443.555 395.682ZM132.378 474.545C129.855 474.545 127.679 473.989 125.849 472.875C124.031 471.75 122.628 470.182 121.639 468.17C120.662 466.148 120.173 463.795 120.173 461.114C120.173 458.432 120.662 456.068 121.639 454.023C122.628 451.966 124.003 450.364 125.764 449.216C127.537 448.057 129.605 447.477 131.969 447.477C133.332 447.477 134.679 447.705 136.009 448.159C137.338 448.614 138.548 449.352 139.639 450.375C140.73 451.386 141.599 452.727 142.247 454.398C142.895 456.068 143.219 458.125 143.219 460.568V462.273H123.037V458.795H139.128C139.128 457.318 138.832 456 138.241 454.841C137.662 453.682 136.832 452.767 135.753 452.097C134.685 451.426 133.423 451.091 131.969 451.091C130.366 451.091 128.98 451.489 127.81 452.284C126.651 453.068 125.759 454.091 125.134 455.352C124.509 456.614 124.196 457.966 124.196 459.409V461.727C124.196 463.705 124.537 465.381 125.219 466.756C125.912 468.119 126.872 469.159 128.099 469.875C129.327 470.58 130.753 470.932 132.378 470.932C133.435 470.932 134.389 470.784 135.241 470.489C136.105 470.182 136.849 469.727 137.474 469.125C138.099 468.511 138.582 467.75 138.923 466.841L142.81 467.932C142.401 469.25 141.713 470.409 140.747 471.409C139.781 472.398 138.588 473.17 137.168 473.727C135.747 474.273 134.151 474.545 132.378 474.545ZM162.838 474V447.818H166.861V474H162.838ZM164.884 443.455C164.099 443.455 163.423 443.188 162.855 442.653C162.298 442.119 162.02 441.477 162.02 440.727C162.02 439.977 162.298 439.335 162.855 438.801C163.423 438.267 164.099 438 164.884 438C165.668 438 166.338 438.267 166.895 438.801C167.463 439.335 167.747 439.977 167.747 440.727C167.747 441.477 167.463 442.119 166.895 442.653C166.338 443.188 165.668 443.455 164.884 443.455ZM178.251 458.25V474H174.229V447.818H178.115V451.909H178.456C179.07 450.58 180.001 449.511 181.251 448.705C182.501 447.886 184.115 447.477 186.092 447.477C187.865 447.477 189.416 447.841 190.746 448.568C192.075 449.284 193.109 450.375 193.848 451.841C194.587 453.295 194.956 455.136 194.956 457.364V474H190.933V457.636C190.933 455.58 190.399 453.977 189.331 452.83C188.263 451.67 186.797 451.091 184.933 451.091C183.649 451.091 182.501 451.369 181.49 451.926C180.49 452.483 179.7 453.295 179.121 454.364C178.541 455.432 178.251 456.727 178.251 458.25ZM213.693 447.818V451.227H200.125V447.818H213.693ZM204.08 441.545H208.102V466.5C208.102 467.636 208.267 468.489 208.597 469.057C208.938 469.614 209.369 469.989 209.892 470.182C210.426 470.364 210.989 470.455 211.58 470.455C212.023 470.455 212.386 470.432 212.67 470.386C212.955 470.33 213.182 470.284 213.352 470.25L214.17 473.864C213.898 473.966 213.517 474.068 213.028 474.17C212.54 474.284 211.92 474.341 211.17 474.341C210.034 474.341 208.92 474.097 207.83 473.608C206.75 473.119 205.852 472.375 205.136 471.375C204.432 470.375 204.08 469.114 204.08 467.591V441.545ZM230.44 474.545C227.918 474.545 225.741 473.989 223.912 472.875C222.094 471.75 220.69 470.182 219.702 468.17C218.724 466.148 218.236 463.795 218.236 461.114C218.236 458.432 218.724 456.068 219.702 454.023C220.69 451.966 222.065 450.364 223.827 449.216C225.599 448.057 227.668 447.477 230.031 447.477C231.395 447.477 232.741 447.705 234.071 448.159C235.401 448.614 236.611 449.352 237.702 450.375C238.793 451.386 239.662 452.727 240.31 454.398C240.957 456.068 241.281 458.125 241.281 460.568V462.273H221.099V458.795H237.19C237.19 457.318 236.895 456 236.304 454.841C235.724 453.682 234.895 452.767 233.815 452.097C232.747 451.426 231.486 451.091 230.031 451.091C228.429 451.091 227.043 451.489 225.872 452.284C224.713 453.068 223.821 454.091 223.196 455.352C222.571 456.614 222.259 457.966 222.259 459.409V461.727C222.259 463.705 222.599 465.381 223.281 466.756C223.974 468.119 224.935 469.159 226.162 469.875C227.389 470.58 228.815 470.932 230.44 470.932C231.497 470.932 232.452 470.784 233.304 470.489C234.168 470.182 234.912 469.727 235.537 469.125C236.162 468.511 236.645 467.75 236.986 466.841L240.872 467.932C240.463 469.25 239.776 470.409 238.81 471.409C237.844 472.398 236.651 473.17 235.23 473.727C233.81 474.273 232.213 474.545 230.44 474.545ZM257.969 484.364C256.026 484.364 254.355 484.114 252.957 483.614C251.56 483.125 250.395 482.477 249.463 481.67C248.543 480.875 247.81 480.023 247.264 479.114L250.469 476.864C250.832 477.341 251.293 477.886 251.849 478.5C252.406 479.125 253.168 479.665 254.134 480.119C255.111 480.585 256.389 480.818 257.969 480.818C260.082 480.818 261.827 480.307 263.202 479.284C264.577 478.261 265.264 476.659 265.264 474.477V469.159H264.923C264.628 469.636 264.207 470.227 263.662 470.932C263.128 471.625 262.355 472.244 261.344 472.79C260.344 473.324 258.991 473.591 257.287 473.591C255.173 473.591 253.276 473.091 251.594 472.091C249.923 471.091 248.599 469.636 247.622 467.727C246.656 465.818 246.173 463.5 246.173 460.773C246.173 458.091 246.645 455.756 247.588 453.767C248.531 451.767 249.844 450.222 251.526 449.131C253.207 448.028 255.151 447.477 257.355 447.477C259.06 447.477 260.412 447.761 261.412 448.33C262.423 448.886 263.196 449.523 263.73 450.239C264.276 450.943 264.696 451.523 264.991 451.977H265.401V447.818H269.287V474.75C269.287 477 268.776 478.83 267.753 480.239C266.741 481.659 265.378 482.699 263.662 483.358C261.957 484.028 260.06 484.364 257.969 484.364ZM257.832 469.977C259.446 469.977 260.81 469.608 261.923 468.869C263.037 468.131 263.884 467.068 264.463 465.682C265.043 464.295 265.332 462.636 265.332 460.705C265.332 458.818 265.048 457.153 264.48 455.71C263.912 454.267 263.071 453.136 261.957 452.318C260.844 451.5 259.469 451.091 257.832 451.091C256.128 451.091 254.707 451.523 253.571 452.386C252.446 453.25 251.599 454.409 251.031 455.864C250.474 457.318 250.196 458.932 250.196 460.705C250.196 462.523 250.48 464.131 251.048 465.528C251.628 466.915 252.48 468.006 253.605 468.801C254.741 469.585 256.151 469.977 257.832 469.977ZM276.651 474V447.818H280.537V451.773H280.81C281.287 450.477 282.151 449.426 283.401 448.619C284.651 447.812 286.06 447.409 287.628 447.409C287.923 447.409 288.293 447.415 288.736 447.426C289.179 447.437 289.514 447.455 289.741 447.477V451.568C289.605 451.534 289.293 451.483 288.804 451.415C288.327 451.335 287.821 451.295 287.287 451.295C286.014 451.295 284.878 451.562 283.878 452.097C282.889 452.619 282.105 453.347 281.526 454.278C280.957 455.199 280.673 456.25 280.673 457.432V474H276.651ZM302.214 474.614C300.555 474.614 299.05 474.301 297.697 473.676C296.345 473.04 295.271 472.125 294.476 470.932C293.68 469.727 293.283 468.273 293.283 466.568C293.283 465.068 293.578 463.852 294.169 462.92C294.76 461.977 295.55 461.239 296.538 460.705C297.527 460.17 298.618 459.773 299.811 459.511C301.016 459.239 302.226 459.023 303.442 458.864C305.033 458.659 306.322 458.506 307.311 458.403C308.311 458.29 309.038 458.102 309.493 457.841C309.959 457.58 310.192 457.125 310.192 456.477V456.341C310.192 454.659 309.732 453.352 308.811 452.42C307.902 451.489 306.521 451.023 304.669 451.023C302.749 451.023 301.243 451.443 300.152 452.284C299.061 453.125 298.294 454.023 297.851 454.977L294.033 453.614C294.714 452.023 295.624 450.784 296.76 449.898C297.908 449 299.158 448.375 300.51 448.023C301.874 447.659 303.214 447.477 304.533 447.477C305.374 447.477 306.339 447.58 307.43 447.784C308.533 447.977 309.595 448.381 310.618 448.994C311.652 449.608 312.51 450.534 313.192 451.773C313.874 453.011 314.214 454.67 314.214 456.75V474H310.192V470.455H309.987C309.714 471.023 309.26 471.631 308.624 472.278C307.987 472.926 307.141 473.477 306.084 473.932C305.027 474.386 303.737 474.614 302.214 474.614ZM302.828 471C304.419 471 305.76 470.688 306.851 470.062C307.953 469.438 308.783 468.631 309.339 467.642C309.908 466.653 310.192 465.614 310.192 464.523V460.841C310.021 461.045 309.646 461.233 309.067 461.403C308.499 461.562 307.839 461.705 307.089 461.83C306.351 461.943 305.629 462.045 304.925 462.136C304.232 462.216 303.669 462.284 303.237 462.341C302.192 462.477 301.214 462.699 300.305 463.006C299.408 463.301 298.68 463.75 298.124 464.352C297.578 464.943 297.305 465.75 297.305 466.773C297.305 468.17 297.822 469.227 298.857 469.943C299.902 470.648 301.226 471 302.828 471ZM325.58 439.091V474H321.557V439.091H325.58ZM343.925 474.545C341.402 474.545 339.226 473.989 337.396 472.875C335.578 471.75 334.175 470.182 333.186 468.17C332.209 466.148 331.72 463.795 331.72 461.114C331.72 458.432 332.209 456.068 333.186 454.023C334.175 451.966 335.55 450.364 337.311 449.216C339.084 448.057 341.152 447.477 343.516 447.477C344.879 447.477 346.226 447.705 347.555 448.159C348.885 448.614 350.095 449.352 351.186 450.375C352.277 451.386 353.146 452.727 353.794 454.398C354.442 456.068 354.766 458.125 354.766 460.568V462.273H334.584V458.795H350.675C350.675 457.318 350.379 456 349.788 454.841C349.209 453.682 348.379 452.767 347.3 452.097C346.232 451.426 344.97 451.091 343.516 451.091C341.913 451.091 340.527 451.489 339.357 452.284C338.197 453.068 337.305 454.091 336.68 455.352C336.055 456.614 335.743 457.966 335.743 459.409V461.727C335.743 463.705 336.084 465.381 336.766 466.756C337.459 468.119 338.419 469.159 339.646 469.875C340.874 470.58 342.3 470.932 343.925 470.932C344.982 470.932 345.936 470.784 346.788 470.489C347.652 470.182 348.396 469.727 349.021 469.125C349.646 468.511 350.129 467.75 350.47 466.841L354.357 467.932C353.947 469.25 353.26 470.409 352.294 471.409C351.328 472.398 350.135 473.17 348.714 473.727C347.294 474.273 345.697 474.545 343.925 474.545ZM379.43 453.682L375.817 454.705C375.589 454.102 375.254 453.517 374.811 452.949C374.379 452.369 373.788 451.892 373.038 451.517C372.288 451.142 371.328 450.955 370.158 450.955C368.555 450.955 367.22 451.324 366.152 452.062C365.095 452.79 364.567 453.716 364.567 454.841C364.567 455.841 364.93 456.631 365.658 457.21C366.385 457.79 367.521 458.273 369.067 458.659L372.953 459.614C375.294 460.182 377.038 461.051 378.186 462.222C379.334 463.381 379.908 464.875 379.908 466.705C379.908 468.205 379.476 469.545 378.612 470.727C377.76 471.909 376.567 472.841 375.033 473.523C373.499 474.205 371.714 474.545 369.68 474.545C367.01 474.545 364.8 473.966 363.05 472.807C361.3 471.648 360.192 469.955 359.726 467.727L363.544 466.773C363.908 468.182 364.595 469.239 365.607 469.943C366.629 470.648 367.964 471 369.612 471C371.487 471 372.976 470.602 374.078 469.807C375.192 469 375.749 468.034 375.749 466.909C375.749 466 375.43 465.239 374.794 464.625C374.158 464 373.18 463.534 371.862 463.227L367.499 462.205C365.101 461.636 363.339 460.756 362.214 459.562C361.101 458.358 360.544 456.852 360.544 455.045C360.544 453.568 360.959 452.261 361.788 451.125C362.629 449.989 363.771 449.097 365.214 448.449C366.669 447.801 368.317 447.477 370.158 447.477C372.749 447.477 374.783 448.045 376.26 449.182C377.749 450.318 378.805 451.818 379.43 453.682Z" fill="#EEEEEE"/>
</svg>
