<svg width="500" height="1500" viewBox="0 0 500 1500" fill="none" xmlns="http://www.w3.org/2000/svg">
<path d="M128.54 276.814C132.492 280.771 132.488 287.182 128.531 291.134L126.455 293.207C124.682 294.978 124.682 297.844 126.455 299.616C128.235 301.395 131.127 301.395 132.907 299.616L155.746 276.806C159.702 272.853 166.113 272.857 170.065 276.814C174.016 280.771 174.012 287.182 170.056 291.134L147.217 313.945C137.531 323.619 121.831 323.619 112.145 313.945C102.452 304.262 102.452 288.561 112.145 278.88L114.221 276.806C118.178 272.853 124.588 272.857 128.54 276.814Z" fill="#131313"/>
<path d="M194.07 290.264C198.024 294.218 198.024 300.628 194.07 304.582L165.492 333.16C161.538 337.115 155.127 337.115 151.173 333.16C147.219 329.206 147.219 322.797 151.173 318.842L179.751 290.264C183.705 286.31 190.116 286.31 194.07 290.264Z" fill="#131313"/>
<path d="M231.543 327.69C235.497 331.644 235.497 338.056 231.543 342.01L203.159 370.392C199.205 374.346 192.795 374.346 188.841 370.392C184.887 366.438 184.887 360.027 188.841 356.073L217.223 327.69C221.177 323.736 227.589 323.736 231.543 327.69Z" fill="#131313"/>
<path d="M188.875 333.035C192.785 337.032 192.714 343.442 188.716 347.352L165.636 369.924C161.639 373.833 155.228 373.762 151.319 369.764C147.409 365.767 147.48 359.356 151.478 355.446L174.557 332.876C178.555 328.965 184.965 329.036 188.875 333.035Z" fill="#131313"/>
<path d="M244.685 352.004C248.638 355.96 248.634 362.372 244.677 366.323L221.838 389.134C220.065 390.905 220.065 393.771 221.838 395.542C223.618 397.32 226.51 397.32 228.291 395.542L230.367 393.469C234.324 389.517 240.734 389.521 244.685 393.478C248.638 397.434 248.634 403.845 244.677 407.796L242.601 409.87C232.914 419.545 217.215 419.545 207.528 409.87C197.835 400.189 197.835 384.487 207.528 374.805L230.367 351.995C234.324 348.044 240.734 348.047 244.685 352.004Z" fill="#131313"/>
<path fill-rule="evenodd" clip-rule="evenodd" d="M330.892 126.876L332.697 126.877H340.057C350.231 126.876 358.864 126.876 365.752 127.798C373.078 128.779 379.927 130.966 385.463 136.48C391.006 142 393.211 148.836 394.199 156.152C395.126 163.019 395.125 171.624 395.125 181.748V189.085L395.126 190.893C395.133 203.056 395.14 211.963 391.743 220.126C388.351 228.284 382.027 234.572 373.385 243.168L372.101 244.445L341.51 274.907L342.04 275.725C346.642 282.823 350.412 288.637 353.14 293.665C355.98 298.899 358.046 303.892 358.875 309.461C360.194 318.317 359 327.412 355.512 335.759C354.181 338.943 351.912 342.215 349.66 345.115C347.286 348.172 344.395 351.489 341.307 354.851C335.165 361.533 327.799 368.869 321.284 375.357L321.19 375.452L320.201 376.435C311.098 385.5 295.306 382.583 290.434 370.377C287.749 363.65 286.7 361.068 285.394 358.69C284.173 356.467 282.773 354.346 281.205 352.349C279.553 350.243 277.62 348.287 272.65 343.338L266.94 338.338C265.981 338.44 265.011 338.492 264.025 338.492C256.21 338.492 249.816 335.222 243.93 330.751C238.402 326.551 232.295 320.469 225.105 313.307L208.008 296.283C200.817 289.123 194.709 283.04 190.491 277.536C186.001 271.676 182.7 265.288 182.7 257.466C182.7 256.286 182.776 255.128 182.923 253.99L173.642 244.747C173.071 244.179 172.851 243.959 172.634 243.749C168.366 239.613 163.343 236.322 157.833 234.055C157.554 233.94 157.264 233.825 156.513 233.528L152.066 231.768C139.286 226.71 135.829 210.215 145.602 200.483L145.696 200.389C152.212 193.901 159.578 186.566 166.29 180.45C169.665 177.375 172.995 174.497 176.065 172.134C178.979 169.891 182.259 167.635 185.447 166.314C193.813 162.848 202.923 161.663 211.792 162.972C217.365 163.795 222.369 165.846 227.621 168.673C232.669 171.389 238.506 175.142 245.637 179.725L246.524 180.296L277.162 149.786L278.439 148.515C287.078 139.901 293.388 133.61 301.569 130.235C309.746 126.862 318.666 126.868 330.892 126.876ZM326.843 289.512C330.641 295.386 333.368 299.686 335.343 303.325C337.581 307.45 338.498 310.101 338.846 312.443C339.605 317.537 338.935 322.907 336.828 327.951C336.573 328.562 335.678 330.103 333.665 332.697C331.774 335.133 329.298 337.991 326.395 341.148C320.928 347.099 314.344 353.689 308.07 359.938C306.207 355.291 304.846 352.043 303.144 348.942C301.392 345.753 299.383 342.712 297.137 339.848C294.603 336.619 291.704 333.734 287.159 329.209L286.67 328.722C287.125 328.342 287.579 327.958 288.031 327.569C292.482 323.729 297.466 318.765 303.197 313.059L326.843 289.512ZM332.697 147.127C317.887 147.127 313.292 147.304 309.291 148.955C305.293 150.604 301.924 153.707 291.452 164.135L222.781 232.517C216.915 238.358 212.513 242.748 209.206 246.517C205.881 250.308 204.282 252.795 203.532 254.658C203.105 255.718 202.95 256.591 202.95 257.466C202.95 259.054 203.451 261.155 206.565 265.22C209.856 269.515 214.974 274.642 222.781 282.415L223.701 283.332L240.751 266.353C244.713 262.408 251.125 262.422 255.071 266.384C259.017 270.346 259.003 276.757 255.04 280.702L238.05 297.622L238.91 298.478C246.717 306.251 251.866 311.347 256.18 314.626C260.26 317.726 262.392 318.242 264.025 318.242C264.861 318.242 265.676 318.105 266.625 317.756C268.464 317.079 270.949 315.561 274.804 312.235C278.643 308.924 283.124 304.47 289.142 298.478L357.812 230.096C368.29 219.663 371.397 216.314 373.047 212.348C374.694 208.388 374.875 203.841 374.875 189.085V182.432C374.875 171.436 374.853 164.213 374.131 158.862C373.448 153.807 372.313 151.963 371.175 150.829C370.03 149.69 368.161 148.551 363.064 147.869C357.68 147.148 350.416 147.127 339.378 147.127H332.697ZM335.69 186.044C322.831 173.239 302.001 173.239 289.142 186.044C276.259 198.872 276.259 219.689 289.142 232.517C302.001 245.321 322.831 245.321 335.69 232.517C348.572 219.689 348.572 198.872 335.69 186.044ZM303.43 200.393C308.388 195.456 316.443 195.456 321.402 200.393C326.336 205.306 326.336 213.254 321.402 218.168C316.443 223.105 308.388 223.105 303.43 218.168C298.496 213.254 298.496 205.306 303.43 200.393ZM231.832 194.926C225.969 191.167 221.668 188.465 218.025 186.504C213.879 184.273 211.205 183.355 208.835 183.005C203.695 182.247 198.28 182.916 193.199 185.022C192.574 185.281 191.022 186.175 188.418 188.18C185.971 190.064 183.1 192.529 179.929 195.419C173.98 200.839 167.396 207.361 161.145 213.583L163.965 214.699L164.033 214.726C164.696 214.988 165.118 215.155 165.54 215.329C173.42 218.572 180.611 223.281 186.726 229.208C187.055 229.526 187.377 229.847 187.885 230.352L192.475 234.923C192.968 234.333 193.472 233.747 193.984 233.163C197.793 228.821 202.675 223.96 208.275 218.384L231.832 194.926Z" fill="#131313"/>
</svg>
