<svg width="500" height="560" viewBox="0 0 500 560" fill="none" xmlns="http://www.w3.org/2000/svg">
<path d="M128.54 196.814C132.492 200.771 132.488 207.182 128.531 211.134L126.455 213.207C124.682 214.978 124.682 217.844 126.455 219.616C128.235 221.395 131.127 221.395 132.907 219.616L155.746 196.806C159.702 192.853 166.113 192.857 170.065 196.814C174.016 200.771 174.012 207.182 170.056 211.134L147.217 233.945C137.531 243.619 121.831 243.619 112.145 233.945C102.452 224.262 102.452 208.561 112.145 198.88L114.221 196.806C118.178 192.853 124.588 192.857 128.54 196.814Z" fill="#EEEEEE"/>
<path d="M194.07 210.264C198.024 214.218 198.024 220.628 194.07 224.582L165.492 253.16C161.538 257.115 155.127 257.115 151.173 253.16C147.219 249.206 147.219 242.797 151.173 238.842L179.751 210.264C183.705 206.31 190.116 206.31 194.07 210.264Z" fill="#EEEEEE"/>
<path d="M231.543 247.69C235.497 251.644 235.497 258.056 231.543 262.01L203.159 290.392C199.205 294.346 192.795 294.346 188.841 290.392C184.886 286.438 184.886 280.027 188.841 276.073L217.223 247.69C221.177 243.736 227.589 243.736 231.543 247.69Z" fill="#EEEEEE"/>
<path d="M188.875 253.035C192.785 257.032 192.714 263.442 188.716 267.352L165.636 289.924C161.639 293.833 155.228 293.762 151.319 289.764C147.409 285.767 147.48 279.356 151.478 275.446L174.557 252.876C178.555 248.965 184.965 249.036 188.875 253.035Z" fill="#EEEEEE"/>
<path d="M244.685 272.004C248.638 275.96 248.634 282.372 244.677 286.323L221.838 309.134C220.065 310.905 220.065 313.771 221.838 315.542C223.618 317.32 226.51 317.32 228.291 315.542L230.367 313.469C234.324 309.517 240.734 309.521 244.685 313.478C248.638 317.434 248.634 323.845 244.677 327.796L242.601 329.87C232.914 339.545 217.215 339.545 207.528 329.87C197.835 320.189 197.835 304.487 207.528 294.805L230.367 271.995C234.324 268.044 240.734 268.047 244.685 272.004Z" fill="#EEEEEE"/>
<path fill-rule="evenodd" clip-rule="evenodd" d="M330.892 46.8757L332.697 46.8765H340.057C350.231 46.8761 358.864 46.8757 365.751 47.7978C373.078 48.7787 379.926 50.9664 385.463 56.48C391.006 61.9996 393.21 68.8362 394.199 76.1524C395.126 83.0187 395.125 91.624 395.125 101.748V109.085L395.126 110.893C395.133 123.056 395.14 131.963 391.743 140.126C388.35 148.284 382.027 154.572 373.384 163.168L372.101 164.445L341.51 194.907L342.04 195.725C346.642 202.823 350.411 208.637 353.14 213.665C355.98 218.899 358.046 223.892 358.875 229.461C360.194 238.317 359 247.412 355.512 255.759C354.181 258.943 351.911 262.215 349.659 265.115C347.286 268.172 344.394 271.489 341.307 274.851C335.165 281.533 327.799 288.869 321.284 295.357L321.189 295.452L320.201 296.435C311.098 305.5 295.306 302.583 290.434 290.377C287.748 283.65 286.7 281.068 285.394 278.69C284.172 276.467 282.772 274.346 281.205 272.349C279.553 270.243 277.619 268.287 272.65 263.338L266.94 258.338C265.981 258.44 265.01 258.492 264.025 258.492C256.21 258.492 249.816 255.222 243.93 250.751C238.402 246.551 232.295 240.469 225.104 233.307L208.008 216.283C200.817 209.123 194.709 203.04 190.49 197.536C186 191.676 182.7 185.288 182.7 177.466C182.7 176.286 182.775 175.128 182.923 173.99L173.642 164.747C173.071 164.179 172.85 163.959 172.634 163.749C168.365 159.613 163.343 156.322 157.833 154.055C157.553 153.94 157.264 153.825 156.513 153.528L152.066 151.768C139.286 146.71 135.828 130.215 145.602 120.483L145.696 120.389C152.212 113.901 159.578 106.566 166.29 100.45C169.665 97.3754 172.995 94.4972 176.065 92.1341C178.978 89.8913 182.259 87.6353 185.446 86.3145C193.812 82.8476 202.923 81.6632 211.792 82.9723C217.365 83.7948 222.369 85.8456 227.621 88.6725C232.668 91.3889 238.506 95.1416 245.637 99.7254L246.524 100.296L277.162 69.7862L278.439 68.5146C287.078 59.9007 293.387 53.6097 301.568 50.2351C309.745 46.8624 318.666 46.868 330.892 46.8757ZM326.843 209.512C330.641 215.386 333.368 219.686 335.343 223.325C337.581 227.45 338.498 230.101 338.846 232.443C339.605 237.537 338.935 242.907 336.828 247.951C336.573 248.562 335.678 250.103 333.665 252.697C331.773 255.133 329.297 257.991 326.395 261.148C320.927 267.099 314.343 273.689 308.07 279.938C306.207 275.291 304.846 272.043 303.144 268.942C301.392 265.753 299.383 262.712 297.136 259.848C294.602 256.619 291.704 253.734 287.159 249.209L286.67 248.722C287.125 248.342 287.578 247.958 288.031 247.569C292.482 243.729 297.466 238.765 303.197 233.059L326.843 209.512ZM332.697 67.1265C317.887 67.1265 313.292 67.3045 309.29 68.9552C305.293 70.604 301.923 73.7068 291.452 84.1353L222.78 152.517C216.915 158.358 212.513 162.748 209.206 166.517C205.88 170.308 204.282 172.795 203.532 174.658C203.105 175.718 202.95 176.591 202.95 177.466C202.95 179.054 203.451 181.155 206.565 185.22C209.856 189.515 214.973 194.642 222.78 202.415L223.7 203.332L240.751 186.353C244.713 182.408 251.124 182.422 255.07 186.384C259.016 190.346 259.003 196.757 255.039 200.702L238.05 217.622L238.91 218.478C246.717 226.251 251.865 231.347 256.18 234.626C260.26 237.726 262.391 238.242 264.025 238.242C264.861 238.242 265.676 238.105 266.625 237.756C268.464 237.079 270.949 235.561 274.803 232.235C278.643 228.924 283.123 224.47 289.142 218.478L357.812 150.096C368.289 139.663 371.397 136.314 373.047 132.348C374.694 128.388 374.875 123.841 374.875 109.085V102.432C374.875 91.4363 374.853 84.2125 374.131 78.8618C373.448 73.8067 372.312 71.9626 371.174 70.8292C370.03 69.6898 368.161 68.5511 363.064 67.8686C357.68 67.1479 350.415 67.1265 339.378 67.1265H332.697ZM335.69 106.044C322.831 93.2392 302 93.2392 289.142 106.044C276.259 118.872 276.259 139.689 289.142 152.517C302 165.321 322.831 165.321 335.69 152.517C348.571 139.689 348.571 118.872 335.69 106.044ZM303.43 120.393C308.387 115.456 316.443 115.456 321.401 120.393C326.336 125.306 326.336 133.254 321.401 138.168C316.443 143.105 308.387 143.105 303.43 138.168C298.496 133.254 298.496 125.306 303.43 120.393ZM231.831 114.926C225.968 111.167 221.667 108.465 218.025 106.504C213.879 104.273 211.205 103.355 208.835 103.005C203.695 102.247 198.28 102.916 193.199 105.022C192.574 105.281 191.022 106.175 188.418 108.18C185.97 110.064 183.1 112.529 179.928 115.419C173.98 120.839 167.396 127.361 161.145 133.583L163.965 134.699L164.033 134.726C164.695 134.988 165.118 135.155 165.539 135.329C173.42 138.572 180.611 143.281 186.726 149.208C187.054 149.526 187.377 149.847 187.884 150.352L192.474 154.923C192.968 154.333 193.472 153.747 193.984 153.163C197.793 148.821 202.675 143.96 208.275 138.384L231.831 114.926Z" fill="#EEEEEE"/>
<path d="M138.719 440H127.946V405.091H139.196C142.582 405.091 145.48 405.79 147.889 407.188C150.298 408.574 152.145 410.568 153.429 413.17C154.713 415.761 155.355 418.864 155.355 422.477C155.355 426.114 154.707 429.244 153.412 431.869C152.116 434.483 150.23 436.494 147.753 437.903C145.276 439.301 142.264 440 138.719 440ZM132.173 436.25H138.446C141.332 436.25 143.724 435.693 145.622 434.58C147.52 433.466 148.935 431.881 149.866 429.824C150.798 427.767 151.264 425.318 151.264 422.477C151.264 419.659 150.804 417.233 149.884 415.199C148.963 413.153 147.588 411.585 145.759 410.494C143.929 409.392 141.651 408.841 138.923 408.841H132.173V436.25ZM172.878 440.545C170.355 440.545 168.179 439.989 166.349 438.875C164.531 437.75 163.128 436.182 162.139 434.17C161.162 432.148 160.673 429.795 160.673 427.114C160.673 424.432 161.162 422.068 162.139 420.023C163.128 417.966 164.503 416.364 166.264 415.216C168.037 414.057 170.105 413.477 172.469 413.477C173.832 413.477 175.179 413.705 176.509 414.159C177.838 414.614 179.048 415.352 180.139 416.375C181.23 417.386 182.099 418.727 182.747 420.398C183.395 422.068 183.719 424.125 183.719 426.568V428.273H163.537V424.795H179.628C179.628 423.318 179.332 422 178.741 420.841C178.162 419.682 177.332 418.767 176.253 418.097C175.185 417.426 173.923 417.091 172.469 417.091C170.866 417.091 169.48 417.489 168.31 418.284C167.151 419.068 166.259 420.091 165.634 421.352C165.009 422.614 164.696 423.966 164.696 425.409V427.727C164.696 429.705 165.037 431.381 165.719 432.756C166.412 434.119 167.372 435.159 168.599 435.875C169.827 436.58 171.253 436.932 172.878 436.932C173.935 436.932 174.889 436.784 175.741 436.489C176.605 436.182 177.349 435.727 177.974 435.125C178.599 434.511 179.082 433.75 179.423 432.841L183.31 433.932C182.901 435.25 182.213 436.409 181.247 437.409C180.281 438.398 179.088 439.17 177.668 439.727C176.247 440.273 174.651 440.545 172.878 440.545ZM208.384 419.682L204.77 420.705C204.543 420.102 204.207 419.517 203.764 418.949C203.332 418.369 202.741 417.892 201.991 417.517C201.241 417.142 200.281 416.955 199.111 416.955C197.509 416.955 196.173 417.324 195.105 418.062C194.048 418.79 193.52 419.716 193.52 420.841C193.52 421.841 193.884 422.631 194.611 423.21C195.338 423.79 196.474 424.273 198.02 424.659L201.906 425.614C204.247 426.182 205.991 427.051 207.139 428.222C208.287 429.381 208.861 430.875 208.861 432.705C208.861 434.205 208.429 435.545 207.565 436.727C206.713 437.909 205.52 438.841 203.986 439.523C202.452 440.205 200.668 440.545 198.634 440.545C195.963 440.545 193.753 439.966 192.003 438.807C190.253 437.648 189.145 435.955 188.679 433.727L192.497 432.773C192.861 434.182 193.548 435.239 194.56 435.943C195.582 436.648 196.918 437 198.565 437C200.44 437 201.929 436.602 203.031 435.807C204.145 435 204.702 434.034 204.702 432.909C204.702 432 204.384 431.239 203.747 430.625C203.111 430 202.134 429.534 200.815 429.227L196.452 428.205C194.054 427.636 192.293 426.756 191.168 425.562C190.054 424.358 189.497 422.852 189.497 421.045C189.497 419.568 189.912 418.261 190.741 417.125C191.582 415.989 192.724 415.097 194.168 414.449C195.622 413.801 197.27 413.477 199.111 413.477C201.702 413.477 203.736 414.045 205.213 415.182C206.702 416.318 207.759 417.818 208.384 419.682ZM214.916 449.818V413.818H218.803V417.977H219.28C219.575 417.523 219.984 416.943 220.507 416.239C221.041 415.523 221.803 414.886 222.791 414.33C223.791 413.761 225.143 413.477 226.848 413.477C229.053 413.477 230.996 414.028 232.678 415.131C234.359 416.233 235.672 417.795 236.615 419.818C237.558 421.841 238.03 424.227 238.03 426.977C238.03 429.75 237.558 432.153 236.615 434.188C235.672 436.21 234.365 437.778 232.695 438.892C231.024 439.994 229.098 440.545 226.916 440.545C225.234 440.545 223.888 440.267 222.876 439.71C221.865 439.142 221.087 438.5 220.541 437.784C219.996 437.057 219.575 436.455 219.28 435.977H218.939V449.818H214.916ZM218.871 426.909C218.871 428.886 219.161 430.631 219.74 432.142C220.32 433.642 221.166 434.818 222.28 435.67C223.393 436.511 224.757 436.932 226.371 436.932C228.053 436.932 229.456 436.489 230.581 435.602C231.717 434.705 232.57 433.5 233.138 431.989C233.717 430.466 234.007 428.773 234.007 426.909C234.007 425.068 233.723 423.409 233.155 421.932C232.598 420.443 231.751 419.267 230.615 418.403C229.49 417.528 228.075 417.091 226.371 417.091C224.734 417.091 223.359 417.506 222.246 418.335C221.132 419.153 220.291 420.301 219.723 421.778C219.155 423.244 218.871 424.955 218.871 426.909ZM248.189 405.091V440H244.166V405.091H248.189ZM255.557 440V413.818H259.58V440H255.557ZM257.602 409.455C256.818 409.455 256.142 409.188 255.574 408.653C255.017 408.119 254.739 407.477 254.739 406.727C254.739 405.977 255.017 405.335 255.574 404.801C256.142 404.267 256.818 404 257.602 404C258.386 404 259.057 404.267 259.614 404.801C260.182 405.335 260.466 405.977 260.466 406.727C260.466 407.477 260.182 408.119 259.614 408.653C259.057 409.188 258.386 409.455 257.602 409.455ZM277.925 440.545C275.402 440.545 273.226 439.989 271.396 438.875C269.578 437.75 268.175 436.182 267.186 434.17C266.209 432.148 265.72 429.795 265.72 427.114C265.72 424.432 266.209 422.068 267.186 420.023C268.175 417.966 269.55 416.364 271.311 415.216C273.084 414.057 275.152 413.477 277.516 413.477C278.879 413.477 280.226 413.705 281.555 414.159C282.885 414.614 284.095 415.352 285.186 416.375C286.277 417.386 287.146 418.727 287.794 420.398C288.442 422.068 288.766 424.125 288.766 426.568V428.273H268.584V424.795H284.675C284.675 423.318 284.379 422 283.788 420.841C283.209 419.682 282.379 418.767 281.3 418.097C280.232 417.426 278.97 417.091 277.516 417.091C275.913 417.091 274.527 417.489 273.357 418.284C272.197 419.068 271.305 420.091 270.68 421.352C270.055 422.614 269.743 423.966 269.743 425.409V427.727C269.743 429.705 270.084 431.381 270.766 432.756C271.459 434.119 272.419 435.159 273.646 435.875C274.874 436.58 276.3 436.932 277.925 436.932C278.982 436.932 279.936 436.784 280.788 436.489C281.652 436.182 282.396 435.727 283.021 435.125C283.646 434.511 284.129 433.75 284.47 432.841L288.357 433.932C287.947 435.25 287.26 436.409 286.294 437.409C285.328 438.398 284.135 439.17 282.714 439.727C281.294 440.273 279.697 440.545 277.925 440.545ZM305.453 450.364C303.51 450.364 301.839 450.114 300.442 449.614C299.044 449.125 297.879 448.477 296.947 447.67C296.027 446.875 295.294 446.023 294.749 445.114L297.953 442.864C298.317 443.341 298.777 443.886 299.334 444.5C299.891 445.125 300.652 445.665 301.618 446.119C302.595 446.585 303.874 446.818 305.453 446.818C307.567 446.818 309.311 446.307 310.686 445.284C312.061 444.261 312.749 442.659 312.749 440.477V435.159H312.408C312.112 435.636 311.692 436.227 311.146 436.932C310.612 437.625 309.839 438.244 308.828 438.79C307.828 439.324 306.476 439.591 304.771 439.591C302.658 439.591 300.76 439.091 299.078 438.091C297.408 437.091 296.084 435.636 295.107 433.727C294.141 431.818 293.658 429.5 293.658 426.773C293.658 424.091 294.129 421.756 295.072 419.767C296.016 417.767 297.328 416.222 299.01 415.131C300.692 414.028 302.635 413.477 304.839 413.477C306.544 413.477 307.896 413.761 308.896 414.33C309.908 414.886 310.68 415.523 311.214 416.239C311.76 416.943 312.18 417.523 312.476 417.977H312.885V413.818H316.771V440.75C316.771 443 316.26 444.83 315.237 446.239C314.226 447.659 312.862 448.699 311.146 449.358C309.442 450.028 307.544 450.364 305.453 450.364ZM305.317 435.977C306.93 435.977 308.294 435.608 309.408 434.869C310.521 434.131 311.368 433.068 311.947 431.682C312.527 430.295 312.817 428.636 312.817 426.705C312.817 424.818 312.533 423.153 311.964 421.71C311.396 420.267 310.555 419.136 309.442 418.318C308.328 417.5 306.953 417.091 305.317 417.091C303.612 417.091 302.192 417.523 301.055 418.386C299.93 419.25 299.084 420.409 298.516 421.864C297.959 423.318 297.68 424.932 297.68 426.705C297.68 428.523 297.964 430.131 298.533 431.528C299.112 432.915 299.964 434.006 301.089 434.801C302.226 435.585 303.635 435.977 305.317 435.977ZM340.635 429.295V413.818H344.658V440H340.635V435.568H340.362C339.749 436.898 338.794 438.028 337.499 438.96C336.203 439.881 334.567 440.341 332.589 440.341C330.953 440.341 329.499 439.983 328.226 439.267C326.953 438.54 325.953 437.449 325.226 435.994C324.499 434.528 324.135 432.682 324.135 430.455V413.818H328.158V430.182C328.158 432.091 328.692 433.614 329.76 434.75C330.839 435.886 332.214 436.455 333.885 436.455C334.885 436.455 335.902 436.199 336.936 435.688C337.982 435.176 338.857 434.392 339.561 433.335C340.277 432.278 340.635 430.932 340.635 429.295ZM363.003 440.545C360.48 440.545 358.304 439.989 356.474 438.875C354.656 437.75 353.253 436.182 352.264 434.17C351.287 432.148 350.798 429.795 350.798 427.114C350.798 424.432 351.287 422.068 352.264 420.023C353.253 417.966 354.628 416.364 356.389 415.216C358.162 414.057 360.23 413.477 362.594 413.477C363.957 413.477 365.304 413.705 366.634 414.159C367.963 414.614 369.173 415.352 370.264 416.375C371.355 417.386 372.224 418.727 372.872 420.398C373.52 422.068 373.844 424.125 373.844 426.568V428.273H353.662V424.795H369.753C369.753 423.318 369.457 422 368.866 420.841C368.287 419.682 367.457 418.767 366.378 418.097C365.31 417.426 364.048 417.091 362.594 417.091C360.991 417.091 359.605 417.489 358.435 418.284C357.276 419.068 356.384 420.091 355.759 421.352C355.134 422.614 354.821 423.966 354.821 425.409V427.727C354.821 429.705 355.162 431.381 355.844 432.756C356.537 434.119 357.497 435.159 358.724 435.875C359.952 436.58 361.378 436.932 363.003 436.932C364.06 436.932 365.014 436.784 365.866 436.489C366.73 436.182 367.474 435.727 368.099 435.125C368.724 434.511 369.207 433.75 369.548 432.841L373.435 433.932C373.026 435.25 372.338 436.409 371.372 437.409C370.406 438.398 369.213 439.17 367.793 439.727C366.372 440.273 364.776 440.545 363.003 440.545Z" fill="white"/>
</svg>
